<?xml version="1.0" encoding="utf-8"?>
<!-- Generator: Adobe Illustrator 16.0.0, SVG Export Plug-In . SVG Version: 6.00 Build 0)  -->
<!DOCTYPE svg PUBLIC "-//W3C//DTD SVG 1.1//EN" "http://www.w3.org/Graphics/SVG/1.1/DTD/svg11.dtd">
<svg version="1.1" id="Capa_1" xmlns="http://www.w3.org/2000/svg" xmlns:xlink="http://www.w3.org/1999/xlink" x="0px" y="0px"
	 width="401px" height="316.982px" viewBox="0 0 401 316.982" enable-background="new 0 0 401 316.982" xml:space="preserve">
<g>
	<path d="M-660.435-28.568c2.54,0,5.01,0.99,7.38,2.98v-4.87c-2.28-1.33-4.65-2-7.1-2c-4.48,0-8.14,1.67-10.96,5
		c-2.3,2.72-3.45,5.82-3.45,9.29c0,3.87,1.38,7.18,4.12,9.92c0.22,0.21,0.44,0.42,0.66,0.61h16.73v-3.48
		c-0.67,0.56-1.31,1.04-1.91,1.44c-0.61,0.4-1.19,0.72-1.76,0.96c-1.01,0.47-2.24,0.7-3.69,0.7c-2.8,0-5.17-0.98-7.1-2.95
		c-1.93-1.96-2.9-4.38-2.9-7.24c0-2.89,0.97-5.34,2.9-7.34C-665.595-27.568-663.235-28.568-660.435-28.568z"/>
	<path d="M-632.755-33.638l-12.1,26h4.41l1.67-3.64h11.67l1.57,3.64h4.46L-632.755-33.638z M-637.065-15.147l4.24-9.27l4.04,9.27
		H-637.065z"/>
	<path d="M-603.005-16.278c1.81-0.39,3.27-1.28,4.38-2.67c1.1-1.39,1.66-3.05,1.66-4.98c0-2.47-0.89-4.46-2.65-5.97
		c-1.6-1.35-4.2-2.03-7.81-2.03h-4.82v24.29h4.12v-8.18h0.74l5.71,8.18h4.95L-603.005-16.278z M-608.125-19.408v-8.65h1.46
		c3.79,0,5.69,1.39,5.69,4.19c0,2.97-1.95,4.46-5.85,4.46H-608.125z"/>
	<path d="M-582.265-8.528v-23.4h-4.12v24.29h12.14v-0.89H-582.265z"/>
	<path d="M-544.415-28.268c-2.779-2.78-6.109-4.17-10-4.17c-3.93,0-7.3,1.38-10.1,4.13c-2.811,2.76-4.22,6.05-4.22,9.89
		c0,4.37,1.54,7.9,4.63,10.6c0.069,0.06,0.149,0.12,0.22,0.18h18.75c0.24-0.2,0.47-0.42,0.7-0.64c2.8-2.73,4.21-6.06,4.21-9.98
		C-540.225-22.158-541.625-25.488-544.415-28.268z M-547.325-10.978c-1.97,1.97-4.38,2.96-7.239,2.96c-2.641,0-4.971-0.97-6.98-2.91
		c-2.03-1.94-3.04-4.42-3.04-7.44c0-2.87,0.98-5.28,2.931-7.24c1.96-1.97,4.35-2.96,7.189-2.96c2.85,0,5.24,0.99,7.17,2.96
		c1.94,1.97,2.91,4.41,2.91,7.32C-544.385-15.417-545.365-12.978-547.325-10.978z"/>
	<path d="M-516.385-17.598c-1.02-1.29-2.64-2.38-4.85-3.27l-2.721-1.12c-1.979-0.81-2.97-1.88-2.97-3.21c0-0.96,0.38-1.77,1.13-2.4
		c0.75-0.65,1.7-0.97,2.84-0.97c0.931,0,1.69,0.19,2.28,0.56c0.57,0.33,1.16,1.04,1.79,2.12l3.33-1.98
		c-1.76-3.06-4.22-4.59-7.36-4.59c-2.33,0-4.279,0.7-5.85,2.09c-1.561,1.37-2.34,3.09-2.34,5.14c0,3.03,1.859,5.34,5.59,6.92
		l2.63,1.09c0.69,0.3,1.28,0.61,1.77,0.93c0.49,0.32,0.9,0.67,1.211,1.04c0.31,0.37,0.539,0.78,0.689,1.22s0.22,0.93,0.22,1.46
		c0,1.32-0.42,2.4-1.27,3.26c-0.851,0.86-1.91,1.29-3.2,1.29c-1.62,0-2.86-0.59-3.71-1.76c-0.47-0.61-0.8-1.72-0.99-3.32l-4.16,0.92
		c0.261,1.8,0.82,3.31,1.671,4.54h14.159c1.101-1.46,1.65-3.2,1.65-5.22C-514.845-14.728-515.354-16.308-516.385-17.598z"/>
</g>
<g>
	<path d="M-652.625-6.638l-1.67,3.55h-15.64l-1.65-3.55h-0.74l9.83,21.13h0.72l9.92-21.13H-652.625z M-662.115,13.692l-7.48-16.09
		h14.95L-662.115,13.692z"/>
	<path d="M-636.735-0.808l3.35-5.83h-0.79l-3.35,5.83h-7.37v-5.83h-0.66v21.13h8.71c4.21,0,7.65-3.46,7.65-7.67
		C-629.195,2.642-632.575-0.738-636.735-0.808z M-636.845,13.833h-8.05v-13.98h8.05c3.79,0.03,6.93,3.1,6.93,6.97
		C-629.915,10.652-633.015,13.802-636.845,13.833z"/>
	<path d="M-614.835-0.808l3.36-5.83h-0.8l-3.35,5.83h-7.37v-5.83h-0.66v21.13h8.72c4.2,0,7.64-3.46,7.64-7.67
		C-607.295,2.642-610.665-0.738-614.835-0.808z M-614.935,13.833h-8.06v-13.98h8.06c3.78,0.03,6.92,3.1,6.92,6.97
		C-608.015,10.652-611.115,13.802-614.935,13.833z"/>
	<path d="M-600.995-6.638v21.13h0.66v-21.13H-600.995z"/>
	<path d="M-573.145-6.638l-1.67,3.55h-15.64l-1.65-3.55h-0.75l9.84,21.13h0.72l9.92-21.13H-573.145z M-582.635,13.692l-7.48-16.09
		h14.95L-582.635,13.692z"/>
	<path d="M-545.104-6.638h-0.95c1.96,2.19,3.16,5.08,3.16,8.18v0.24h-12.26v0.73h12.979v-0.97
		C-542.175-1.558-543.274-4.408-545.104-6.638z M-546.545,10.312c-2.21,2.17-5.24,3.52-8.609,3.52c-6.79,0-12.261-5.49-12.261-12.29
		c0-3.14,1.17-6.01,3.101-8.18h-0.851c-1.819,2.23-2.91,5.07-2.91,8.18c0,7.15,5.79,12.95,12.921,12.95c3.55,0,6.75-1.42,9.09-3.73
		L-546.545,10.312z"/>
	<path d="M-517.875-6.638l-1.67,3.55h-15.64l-1.65-3.55h-0.74l9.83,21.13h0.721l9.92-21.13H-517.875z M-527.365,13.692l-7.47-16.09
		h14.94L-527.365,13.692z"/>
</g>
<g>
	<path d="M-651.292,49.732v5.14c-2.507-2.098-5.102-3.147-7.783-3.147c-2.955,0-5.443,1.061-7.467,3.184
		c-2.036,2.11-3.054,4.692-3.054,7.746c0,3.017,1.018,5.562,3.054,7.634c2.036,2.073,4.531,3.11,7.485,3.11
		c1.527,0,2.824-0.248,3.892-0.745c0.596-0.249,1.214-0.583,1.853-1.006c0.639-0.422,1.312-0.931,2.02-1.527v5.232
		c-2.482,1.403-5.089,2.104-7.82,2.104c-4.109,0-7.616-1.434-10.521-4.301c-2.892-2.892-4.338-6.38-4.338-10.465
		c0-3.662,1.21-6.927,3.631-9.794c2.979-3.513,6.834-5.27,11.563-5.27C-656.195,47.628-653.7,48.33-651.292,49.732z"/>
	<path d="M-626.713,69.955h-12.309l-3.203,6.983h-4.674l14.226-30.557l13.724,30.557h-4.749L-626.713,69.955z M-628.482,65.876
		l-4.264-9.775l-4.469,9.775H-628.482z"/>
	<path d="M-604.091,64.685l8.901,12.252h-5.307l-8.211-11.769h-0.782v11.769h-4.338v-28.75h5.083c3.798,0,6.542,0.714,8.23,2.142
		c1.862,1.589,2.793,3.687,2.793,6.293c0,2.036-0.583,3.786-1.75,5.251S-602.179,64.275-604.091,64.685z M-609.491,61.389h1.378
		c4.109,0,6.164-1.57,6.164-4.711c0-2.942-1.999-4.413-5.996-4.413h-1.545V61.389z"/>
	<path d="M-585.006,48.187v24.672h8.454v4.078h-12.792v-28.75H-585.006z"/>
</g>
<path d="M-420.928-17.833l6.668-13.748h0.399l6.726,13.748h-0.419l-2.172-4.418h-8.648l-2.133,4.418H-420.928z M-418.185-22.617
	h8.268l-4.134-8.543L-418.185-22.617z"/>
<path d="M-413.708-5.128h-4.077V0.5h-0.362v-13.749h4.819c2.324,0,4.229,1.833,4.229,4.07c0,2.218-1.866,4.015-4.172,4.051
	l3.372,5.628h-0.438L-413.708-5.128z M-413.327-12.9h-4.458v7.423h4.458c2.096-0.018,3.829-1.649,3.829-3.702
	C-409.498-11.214-411.212-12.881-413.327-12.9z"/>
<path d="M-413.708,13.205h-4.077v5.628h-0.362V5.085h4.819c2.324,0,4.229,1.833,4.229,4.069c0,2.218-1.866,4.015-4.172,4.051
	l3.372,5.628h-0.438L-413.708,13.205z M-413.327,5.433h-4.458v7.424h4.458c2.096-0.018,3.829-1.649,3.829-3.703
	C-409.498,7.119-411.212,5.452-413.327,5.433z"/>
<path d="M-414.336,37.166V23.417h0.362v13.749H-414.336z"/>
<path d="M-420.928,55.5l6.668-13.749h0.399l6.726,13.749h-0.419l-2.172-4.419h-8.648l-2.133,4.419H-420.928z M-418.185,50.714h8.268
	l-4.134-8.542L-418.185,50.714z"/>
<path d="M-413.946,66.444h7.181v0.514c0,3.794-3.238,6.874-7.181,6.874s-7.145-3.08-7.145-6.874c0-3.795,3.202-6.875,7.145-6.875
	c1.962,0,3.734,0.752,5.029,1.979l-0.267,0.238c-1.219-1.155-2.896-1.87-4.762-1.87c-3.753,0-6.782,2.915-6.782,6.526
	c0,3.611,3.029,6.525,6.782,6.525c3.752,0,6.782-3.006,6.782-6.525v-0.129h-6.782V66.444z"/>
<path d="M-420.928,92.165l6.668-13.749h0.399l6.726,13.749h-0.419l-2.172-4.417h-8.648l-2.133,4.417H-420.928z M-418.185,87.381
	h8.268l-4.134-8.543L-418.185,87.381z"/>
<text transform="matrix(1 0 0 1 -582.6152 364.375)" font-family="'Futura-Medium'" font-size="48" letter-spacing="1">CARLOS</text>
<text transform="matrix(1.0392 0 0 1 -376.9375 358.002)" font-family="'SlimJoe'" font-size="48">ARRIAGA</text>
<path d="M-462.752-29.364v6.211c-3.032-2.536-6.167-3.804-9.409-3.804c-3.571,0-6.58,1.283-9.025,3.849
	c-2.461,2.551-3.691,5.672-3.691,9.364c0,3.646,1.23,6.722,3.691,9.228c2.461,2.505,5.477,3.759,9.048,3.759
	c1.846,0,3.414-0.3,4.705-0.9c0.72-0.3,1.467-0.706,2.24-1.216c0.772-0.51,1.586-1.125,2.442-1.846v6.325
	c-3.001,1.696-6.153,2.543-9.454,2.543c-4.967,0-9.206-1.733-12.716-5.199c-3.497-3.496-5.245-7.713-5.245-12.649
	c0-4.427,1.463-8.373,4.389-11.839c3.601-4.246,8.26-6.37,13.977-6.37C-468.68-31.908-465.664-31.061-462.752-29.364z"/>
<path d="M-437.081-5.004h-8.487l-6.206,8.545h-6.416l26.848-36.957V3.519h-5.739V-5.004z M-437.081-9.95v-6.735l-4.893,6.735
	H-437.081z"/>
<path d="M-471.021,35.025l10.758,14.811h-6.415l-9.926-14.225h-0.945v14.225h-5.244V15.084h6.145c4.591,0,7.908,0.863,9.948,2.588
	c2.251,1.92,3.376,4.456,3.376,7.607c0,2.461-0.705,4.577-2.115,6.347C-466.85,33.397-468.71,34.53-471.021,35.025z
	 M-477.549,31.042h1.666c4.967,0,7.45-1.898,7.45-5.695c0-3.556-2.416-5.334-7.248-5.334h-1.868V31.042z"/>
<path d="M-431.342,15.084v34.752h-15.462v-4.929h10.218V15.084H-431.342z"/>
<path d="M-493.836,74.776c0-4.892,1.793-9.093,5.379-12.605c3.572-3.511,7.863-5.267,12.875-5.267c4.952,0,9.198,1.771,12.74,5.312
	c3.556,3.542,5.333,7.795,5.333,12.762c0,4.997-1.786,9.235-5.356,12.717c-3.586,3.496-7.916,5.244-12.988,5.244
	c-4.486,0-8.515-1.553-12.086-4.659C-491.87,84.843-493.836,80.342-493.836,74.776z M-488.546,74.843c0,3.841,1.291,7,3.871,9.475
	c2.566,2.476,5.529,3.714,8.891,3.714c3.646,0,6.722-1.26,9.228-3.781c2.505-2.55,3.759-5.657,3.759-9.318
	c0-3.707-1.238-6.812-3.714-9.318c-2.461-2.521-5.507-3.781-9.138-3.781c-3.616,0-6.67,1.26-9.161,3.781
	C-487.301,68.105-488.546,71.182-488.546,74.843z"/>
<path d="M-432.242,62.745l-4.254,2.521c-0.795-1.38-1.553-2.281-2.273-2.701c-0.75-0.48-1.717-0.72-2.903-0.72
	c-1.455,0-2.663,0.412-3.624,1.237c-0.96,0.811-1.44,1.831-1.44,3.062c0,1.696,1.261,3.061,3.781,4.096l3.466,1.418
	c2.821,1.14,4.884,2.532,6.189,4.175c1.306,1.643,1.958,3.657,1.958,6.043c0,3.196-1.065,5.837-3.196,7.922
	c-2.145,2.101-4.809,3.151-7.99,3.151c-3.016,0-5.507-0.893-7.473-2.679c-1.936-1.786-3.144-4.298-3.624-7.54l5.312-1.171
	c0.24,2.041,0.66,3.452,1.26,4.231c1.081,1.501,2.656,2.251,4.727,2.251c1.635,0,2.993-0.548,4.073-1.643
	c1.081-1.096,1.621-2.484,1.621-4.164c0-0.676-0.094-1.294-0.282-1.857c-0.187-0.562-0.48-1.081-0.878-1.553
	c-0.397-0.473-0.911-0.916-1.542-1.328c-0.63-0.412-1.38-0.806-2.25-1.181l-3.354-1.396c-4.756-2.011-7.135-4.952-7.135-8.823
	c0-2.611,0.999-4.795,2.994-6.55c1.996-1.771,4.479-2.656,7.45-2.656C-437.621,56.893-434.492,58.844-432.242,62.745z"/>
<rect x="-427.321" y="-33.416" width="1.681" height="126.355"/>
<g>
	<path d="M-540.991,53.824c-3.527-3.535-7.762-5.299-12.696-5.299c-4.998,0-9.28,1.748-12.839,5.252
		c-3.575,3.496-5.363,7.69-5.363,12.561c0,4.115,1.08,7.651,3.233,10.599h7.158c-0.429-0.326-0.85-0.683-1.255-1.081
		c-2.574-2.471-3.861-5.617-3.861-9.446c0-3.647,1.239-6.714,3.726-9.2c2.479-2.511,5.529-3.766,9.128-3.766
		c3.623,0,6.658,1.255,9.113,3.766c2.463,2.495,3.703,5.593,3.703,9.287c0,3.655-1.248,6.746-3.75,9.288
		c-0.421,0.421-0.85,0.811-1.303,1.152h6.976c2.232-2.988,3.345-6.451,3.345-10.392C-535.676,61.594-537.447,57.352-540.991,53.824z
		"/>
</g>
<g>
	<path d="M-512.484,52.47l-3.519,2.085c-0.658-1.142-1.285-1.887-1.881-2.234c-0.621-0.397-1.421-0.596-2.402-0.596
		c-1.205,0-2.204,0.341-2.998,1.024c-0.794,0.67-1.192,1.515-1.192,2.533c0,1.402,1.043,2.532,3.128,3.389l2.868,1.173
		c2.333,0.943,4.041,2.095,5.121,3.454s1.62,3.026,1.62,5c0,2.644-0.882,4.829-2.645,6.555c-1.775,1.738-3.979,2.606-6.61,2.606
		c-2.495,0-4.556-0.738-6.182-2.216c-1.602-1.477-2.601-3.556-2.998-6.238l4.395-0.968c0.198,1.688,0.546,2.855,1.042,3.5
		c0.894,1.242,2.197,1.862,3.911,1.862c1.353,0,2.477-0.453,3.37-1.359s1.341-2.054,1.341-3.445c0-0.559-0.078-1.071-0.233-1.536
		s-0.397-0.894-0.726-1.285s-0.754-0.757-1.275-1.099c-0.521-0.341-1.142-0.667-1.862-0.978l-2.774-1.155
		c-3.935-1.663-5.903-4.096-5.903-7.299c0-2.16,0.826-3.966,2.477-5.418c1.651-1.465,3.706-2.197,6.164-2.197
		C-516.934,47.628-514.346,49.242-512.484,52.47z"/>
</g>
<path d="M-539.021,37.208c-0.58,0.794-1.248,1.557-1.995,2.28c-3.575,3.487-7.889,5.228-12.942,5.228
	c-4.473,0-8.493-1.542-12.052-4.64c-1.009-0.89-1.891-1.843-2.646-2.868h7.158c2.256,1.748,4.791,2.622,7.603,2.622
	c3.027,0,5.665-0.866,7.897-2.622H-539.021z"/>
<text transform="matrix(1.0392 0 0 1 -672.1562 92.4385)" font-family="'SlimJoe'" font-size="13.6893" letter-spacing="14.434">ARRIAGA</text>
<text transform="matrix(1 0 0 1 -610.6152 196.9858)" font-family="'GeosansLight'" font-size="48" letter-spacing="1">CARLOS</text>
<text transform="matrix(1.0392 0 0 1 -444.4951 196.9854)" font-family="'Antipasto'" font-size="48">ARR</text>
<g>
	<path d="M95.667,121.18c-8.109,7.35-16.338,12.289-24.697,14.818c-8.359,2.535-16.468,3.8-24.317,3.8
		c-7.349,0-14.568-1.265-21.656-3.8c-7.095-2.529-13.429-6.649-18.998-12.349C0.424,117.95-4.012,110.731-7.3,101.992
		c-3.295-8.739-4.939-19.437-4.939-32.106c0-8.864,1.77-17.982,5.318-27.357c3.545-9.368,8.549-17.857,15.01-25.456
		c6.458-7.6,14.372-13.869,23.747-18.808c9.367-4.939,19.757-7.409,31.155-7.409c14.438,0,26.531,2.6,36.285,7.789
		c9.748,5.195,17.537,11.969,23.367,20.328c5.823,8.359,9.938,17.733,12.349,28.116c2.404,10.39,3.609,20.773,3.609,31.156
		c0,14.693-1.965,29.827-5.89,45.404c-3.93,15.578-10.448,30.586-19.567,45.025c-9.119,14.438-21.276,27.926-36.475,40.465
		c-15.198,12.538-33.946,23.236-56.233,32.106c-2.535-3.295-3.8-6.211-3.8-8.739c0-1.775,1.14-3.42,3.42-4.939
		c13.928-8.869,25.326-17.287,34.195-25.267c8.864-7.979,16.018-16.089,21.468-24.317c5.444-8.229,9.623-16.967,12.538-26.217
		C91.167,142.523,93.637,132.329,95.667,121.18z M96.048,101.422c1.769-3.289,3.038-8.104,3.799-14.438
		c0.76-6.329,1.14-12.027,1.14-17.098c0-20.262-3.551-36.096-10.639-47.494C83.253,10.994,74.135,5.294,62.991,5.294
		c-11.149,0-20.708,4.814-28.687,14.438c-7.979,9.629-11.968,24.828-11.968,45.595c0,9.374,1.074,17.478,3.229,24.316
		c2.148,6.839,4.938,12.539,8.358,17.098c3.419,4.56,7.408,7.979,11.969,10.258c4.56,2.28,9.243,3.42,14.058,3.42
		c6.328,0,13.108-1.33,20.327-3.989C87.498,113.771,92.752,108.772,96.048,101.422z"/>
	<path d="M180.398,34.551c-0.511,0.51-1.205,1.08-2.09,1.71c-0.891,0.635-1.84,0.95-2.85,0.95c-3.039,0-5.699-1.645-7.979-4.939
		c9.88-12.663,20.832-22.856,32.867-30.586c12.027-7.724,25.136-11.589,39.324-11.589c17.479,0,30.586,4.5,39.325,13.488
		c8.738,8.994,13.108,20.707,13.108,35.146c0,7.599-1.461,15.198-4.37,22.797c-2.915,7.599-7.788,15.578-14.628,23.937
		c-6.839,8.359-15.957,17.478-27.356,27.356c-11.398,9.879-25.588,21.028-42.555,33.436h64.212c5.064,0,9.309-1.075,12.729-3.23
		c3.419-2.149,6.519-6.519,9.309-13.108c1.266-2.784,3.289-4.179,6.08-4.179c0.759,0,2.148,0.255,4.179,0.76
		c0.76,0.254,1.521,0.379,2.28,0.379c-2.28,6.59-4.369,13.429-6.27,20.518c-1.9,7.094-3.609,13.933-5.13,20.518
		c-0.51,2.03-1.14,3.289-1.899,3.799c-0.76,0.505-2.03,0.76-3.799,0.76c-4.561,0-10.259-0.254-17.099-0.76
		c-6.839-0.51-14.313-0.76-22.418-0.76h-77.89v-9.119c15.703-13.168,29.066-25.012,40.086-35.526
		c11.018-10.508,19.947-20.262,26.786-29.256c6.839-8.988,11.839-17.412,15.009-25.267c3.163-7.849,4.748-15.578,4.748-23.177
		c0-9.119-2.22-17.033-6.648-23.747c-4.435-6.708-12.1-10.068-22.987-10.068c-7.35,0-14.438,1.52-21.277,4.559
		S188.757,27.462,180.398,34.551z"/>
</g>
</svg>
