<?xml version="1.0" encoding="utf-8"?>
<!-- Generator: Adobe Illustrator 21.0.0, SVG Export Plug-In . SVG Version: 6.00 Build 0)  -->
<svg version="1.1" id="Capa_1" xmlns="http://www.w3.org/2000/svg" xmlns:xlink="http://www.w3.org/1999/xlink" x="0px" y="0px"
	 viewBox="0 0 401 317" style="enable-background:new 0 0 401 317;" xml:space="preserve">
<style type="text/css">
	.st0{fill:#F2F2F2;}
</style>
<g>
	<path class="st0" d="M66,85.2c-5.9,5.3-11.8,8.9-17.9,10.7c-6.1,1.8-11.9,2.8-17.6,2.8c-5.3,0-10.6-0.9-15.7-2.8
		C9.6,94.1,5,91.1,1,86.9c-4-4.1-7.3-9.4-9.6-15.7c-2.4-6.3-3.6-14.1-3.6-23.3c0-6.4,1.3-13,3.9-19.8S-2.1,15.2,2.6,9.6
		C7.2,4.1,12.9-0.4,19.7-4S34-9.4,42.3-9.4c10.5,0,19.2,1.9,26.3,5.6C75.7,0.1,81.3,5,85.6,11c4.2,6.1,7.2,12.9,9,20.4
		c1.7,7.5,2.6,15.1,2.6,22.6c0,10.7-1.4,21.6-4.3,32.9c-2.8,11.3-7.6,22.2-14.2,32.6c-6.6,10.5-15.4,20.2-26.4,29.3
		s-24.6,16.9-40.8,23.3c-1.8-2.4-2.8-4.5-2.8-6.3c0-1.3,0.8-2.5,2.5-3.6c10.1-6.4,18.4-12.5,24.8-18.3s11.6-11.7,15.6-17.6
		c3.9-6,7-12.3,9.1-19C62.7,100.6,64.5,93.2,66,85.2z M66.3,70.8c1.3-2.4,2.2-5.9,2.8-10.5c0.6-4.6,0.8-8.7,0.8-12.4
		c0-14.7-2.6-26.2-7.7-34.4C57,5.2,50.4,1.1,42.3,1.1s-15,3.5-20.8,10.5s-8.7,18-8.7,33.1c0,6.8,0.8,12.7,2.3,17.6
		c1.6,5,3.6,9.1,6.1,12.4s5.4,5.8,8.7,7.4c3.3,1.7,6.7,2.5,10.2,2.5c4.6,0,9.5-1,14.7-2.9C60.1,79.8,63.9,76.2,66.3,70.8z"/>
	<path class="st0" d="M127.5,22.3c-0.4,0.4-0.9,0.8-1.5,1.2c-0.6,0.5-1.3,0.7-2.1,0.7c-2.2,0-4.1-1.2-5.8-3.6
		c7.2-9.2,15.1-16.6,23.8-22.2s18.2-8.4,28.5-8.4c12.7,0,22.2,3.3,28.5,9.8s9.5,15,9.5,25.5c0,5.5-1.1,11-3.2,16.5
		c-2.1,5.5-5.6,11.3-10.6,17.4S183,71.9,174.8,79c-8.3,7.2-18.6,15.2-30.9,24.2h46.6c3.7,0,6.8-0.8,9.2-2.3c2.5-1.6,4.7-4.7,6.8-9.5
		c0.9-2,2.4-3,4.4-3c0.6,0,1.6,0.2,3,0.6c0.6,0.2,1.1,0.3,1.7,0.3c-1.7,4.8-3.2,9.7-4.5,14.9c-1.4,5.1-2.6,10.1-3.7,14.9
		c-0.4,1.5-0.8,2.4-1.4,2.8c-0.6,0.4-1.5,0.6-2.8,0.6c-3.3,0-7.4-0.2-12.4-0.6s-10.4-0.6-16.3-0.6H118v-6.6
		c11.4-9.5,21.1-18.1,29.1-25.8c8-7.6,14.5-14.7,19.4-21.2c5-6.5,8.6-12.6,10.9-18.3c2.3-5.7,3.4-11.3,3.4-16.8
		c0-6.6-1.6-12.4-4.8-17.2c-3.2-4.9-8.8-7.3-16.7-7.3c-5.3,0-10.5,1.1-15.4,3.3S133.5,17.2,127.5,22.3z"/>
</g>
</svg>
