<?xml version="1.0" encoding="utf-8"?>
<!-- Generator: Adobe Illustrator 16.0.0, SVG Export Plug-In . SVG Version: 6.00 Build 0)  -->
<!DOCTYPE svg PUBLIC "-//W3C//DTD SVG 1.1//EN" "http://www.w3.org/Graphics/SVG/1.1/DTD/svg11.dtd">
<svg version="1.1" id="Layer_1" xmlns="http://www.w3.org/2000/svg" xmlns:xlink="http://www.w3.org/1999/xlink" x="0px" y="0px"
	 width="712.01px" height="732.01px" viewBox="0 -120.01 712.01 732.01" enable-background="new 0 -120.01 712.01 732.01"
	 xml:space="preserve">
<g>
	<g>
		<g>
			<path fill="#848484" d="M476.188,26.614c0,17.388,9.199,33.197,24.178,41.841v4.554c-2.434,1.843-4.03,4.731-4.03,8.012
				c0,2.277,0.785,4.356,2.063,6.045c-1.277,1.688-2.063,3.768-2.063,6.043c0,5.559,4.517,10.075,10.075,10.075h36.269
				c5.557,0,10.073-4.517,10.073-10.075c0-2.275-0.784-4.356-2.062-6.04c1.276-1.689,2.062-3.769,2.062-6.045
				c0-3.281-1.596-6.17-4.029-8.012v-4.553c14.979-8.644,24.179-24.457,24.179-41.841c0-26.667-21.693-48.358-48.358-48.358
				S476.186-0.048,476.188,26.614z M504.394,93.109c0-1.109,0.907-2.015,2.016-2.015h36.268c1.108,0,2.016,0.905,2.016,2.015
				c0,1.108-0.907,2.015-2.016,2.015h-36.268C505.301,95.125,504.393,94.218,504.394,93.109z M504.394,81.021
				c0-1.108,0.907-2.015,2.016-2.015h36.268c1.108,0,2.016,0.907,2.016,2.015c0,1.108-0.907,2.015-2.016,2.015h-36.268
				C505.301,83.036,504.394,82.129,504.394,81.021z M484.244,26.617c0-22.22,18.078-40.298,40.299-40.298
				s40.299,18.078,40.299,40.298c0,15.18-8.427,28.922-21.987,35.862l-2.191,1.125v7.342h-12.09V42.163
				c6.936-1.8,12.09-8.059,12.09-15.546c0-8.889-7.229-16.119-16.12-16.119c-8.89,0-16.119,7.23-16.119,16.119
				c0,7.486,5.154,13.745,12.089,15.546v28.782h-12.089v-7.342l-2.192-1.128C492.671,55.54,484.244,41.798,484.244,26.617z
				 M516.484,26.618c0-4.446,3.614-8.06,8.059-8.06c4.446,0,8.061,3.615,8.061,8.06s-3.616,8.059-8.061,8.059
				C520.097,34.677,516.482,31.063,516.484,26.618z"/>
			<path fill="#848484" d="M419.93,143.321c13.41,13.411,32.041,20.334,53.882,20.334c8.173,0,16.792-0.971,25.759-2.93
				c12.898-2.82,25.912-7.604,38.666-14.06c2.906,0.847,5.807,1.621,8.704,2.252c8.096,1.77,15.885,2.648,23.268,2.648
				c19.767,0,36.628-6.271,48.776-18.421c18.533-18.533,23.08-48.11,13.509-80.724c6.465-12.759,11.246-25.783,14.072-38.69
				c7.201-32.928,1.024-61.212-17.404-79.642c-18.43-18.429-46.71-24.61-79.64-17.401c-12.897,2.821-25.911,7.604-38.665,14.06
				c-2.906-0.846-5.807-1.619-8.704-2.252c-29.793-6.517-55.362-0.911-72.049,15.772c-18.735,18.731-22.906,48.554-13.508,80.721
				c-6.464,12.759-11.251,25.783-14.076,38.69C395.319,96.611,401.497,124.897,419.93,143.321z M500.541-63.646
				c-15.495,9.074-30.434,20.628-44.074,34.273c-13.645,13.641-25.198,28.58-34.273,44.074
				c-5.763-26.117-1.487-49.639,13.608-64.734C451.051-65.282,474.657-69.349,500.541-63.646z M628.816,41.488
				c-1.504-3.925-3.24-7.883-5.143-11.857c3.461-3.304,5.646-7.934,5.646-13.088c0-9.999-8.137-18.134-18.135-18.134
				c-2.047,0-3.985,0.415-5.819,1.042c-5.803-7.785-12.246-15.289-19.263-22.305c-19.396-19.394-41.684-34.111-64.308-42.727
				c9.772-4.388,19.654-7.717,29.447-9.861c8.382-1.834,16.416-2.74,23.996-2.74c19.705,0,36.369,6.112,48.225,17.969
				c16.418,16.422,21.825,42.07,15.229,72.223C636.548,21.814,633.211,31.703,628.816,41.488z M611.184,6.468
				c5.559,0,10.074,4.522,10.074,10.075s-4.516,10.075-10.074,10.075s-10.074-4.522-10.074-10.075S605.625,6.468,611.184,6.468z
				 M548.533,141.064c15.503-9.076,30.44-20.632,44.086-34.283c13.625-13.62,25.166-28.53,34.232-44.001
				c5.836,26.428,1.323,49.777-13.568,64.667C598.029,142.704,574.424,146.77,548.533,141.064z M537.392,138.05
				c-23.011-7.367-47.094-22.02-68.245-43.038c1.895-2.861,3.011-6.278,3.011-9.961c0-9.999-8.139-18.136-18.136-18.136
				c-2.559,0-4.988,0.545-7.197,1.508c-9.885-14.146-17.127-28.6-21.623-42.581c9.205-17.408,21.725-34.28,36.961-49.518
				c15.242-15.241,32.11-27.762,49.523-36.961c23.178,7.419,47.45,22.216,68.716,43.483c6.558,6.559,12.589,13.559,18.047,20.813
				c-3.325,3.292-5.396,7.847-5.396,12.883c0,9.999,8.136,18.134,18.135,18.134c1.933,0,3.763-0.387,5.513-0.951
				c2.857,6.037,5.274,12.018,7.161,17.884c-9.201,17.393-21.715,34.25-36.939,49.474
				C571.681,116.326,554.804,128.845,537.392,138.05z M454.021,74.974c5.557,0,10.074,4.519,10.074,10.075
				c0,5.557-4.518,10.075-10.074,10.075c-5.559,0-10.075-4.518-10.075-10.075C443.946,79.493,448.463,74.974,454.021,74.974z
				 M410.394,65.407c2.144-9.804,5.48-19.693,9.876-29.481c4.743,12.407,11.456,24.997,20.094,37.324
				c-2.753,3.18-4.478,7.273-4.478,11.799c0,9.999,8.137,18.134,18.135,18.134c3.397,0,6.545-0.994,9.265-2.627
				c19.322,19.25,41.499,33.867,64.006,42.438c-9.776,4.387-19.654,7.717-29.447,9.86c-30.17,6.604-55.808,1.188-72.221-15.228
				C409.206,121.209,403.798,95.555,410.394,65.407z"/>
		</g>
	</g>
</g>
<g>
	<g>
		<g>
			<path fill="#848484" d="M88.839,345.484h138.193V217.161H88.839V345.484z M207.291,296.129h-39.484v-29.613h39.484V296.129z
				 M108.581,236.903h98.71v9.871h-59.226v69.097h59.226v9.871h-98.71V236.903z"/>
			<rect x="118.452" y="256.645" fill="#848484" width="19.742" height="19.742"/>
			<rect x="118.452" y="286.258" fill="#848484" width="19.742" height="19.742"/>
			<path fill="#848484" d="M712.01,197.42v-317.43H335.5v317.43h0.11v59.23h-20.29c-3.4-30.59-22.38-56.53-48.8-69.69v-78.38
				C266.52,48.71,217.8,0,157.94,0C98.07,0,49.35,48.71,49.35,108.58v78.47C20.16,201.62,0,231.72,0,266.52v98.71
				c0,32.659,26.56,59.22,59.23,59.22V612h197.42V333.92c3.08,1.09,6.4,1.69,9.87,1.69h69.09V612h19.739V335.61
				c21.78,0,39.49-17.71,39.49-39.48c0-21.78-17.71-39.48-39.49-39.48v-59.23H712.01z M355.35-100.27h337.16v277.95H355.35V-100.27z
				 M69.1,108.58c0-48.99,39.85-88.84,88.84-88.84c48.99,0,88.83,39.85,88.83,88.84v71.4c-6.35-1.45-12.95-2.3-19.74-2.3h-30.95
				c24.31-13.48,40.82-39.39,40.82-69.1c0-43.54-35.42-78.97-78.96-78.97c-43.55,0-78.97,35.43-78.97,78.97
				c0,29.71,16.51,55.62,40.82,69.1H88.84c-6.79,0-13.39,0.84-19.74,2.29V108.58z M179.64,163.7c-1.8,0.7-3.63,1.33-5.5,1.86
				c-0.94,0.27-1.88,0.51-2.84,0.73c-0.95,0.22-1.91,0.42-2.88,0.59c-3.4,0.61-6.9,0.93-10.48,0.93s-7.08-0.32-10.48-0.93
				c-0.97-0.17-1.93-0.37-2.89-0.59c-0.95-0.22-1.9-0.46-2.83-0.73c0,0,0,0-0.01,0c-1.87-0.54-3.7-1.16-5.49-1.86h-0.01
				c-8.95-3.54-16.83-9.2-23.05-16.35c-0.01-0.01-0.02-0.02-0.02-0.03c-2.16-2.5-4.12-5.18-5.85-8.01
				c-0.01-0.01-0.02-0.03-0.02-0.04c-0.98-1.62-1.89-3.28-2.71-4.99c-1.04-2.16-1.95-4.39-2.73-6.68c-0.17-0.46-0.31-0.92-0.45-1.38
				c-0.01-0.02-0.01-0.04-0.02-0.05c-1.74-5.56-2.67-11.47-2.67-17.59c0-32.66,26.56-59.23,59.23-59.23c3.02,0,5.98,0.26,8.87,0.72
				c0.05,0.01,0.1,0.01,0.14,0.02c26.06,3.98,46.52,24.95,49.73,51.25c0.06,0.4,0.1,0.81,0.14,1.22c0.22,1.98,0.34,3.98,0.34,6.02
				c0,6.12-0.93,12.03-2.67,17.59c-0.01,0.01-0.02,0.03-0.02,0.05c-0.14,0.46-0.28,0.92-0.45,1.38c-0.16,0.45-0.32,0.91-0.48,1.37
				c-0.32,0.89-0.67,1.76-1.03,2.63c-1.51,3.55-3.35,6.94-5.49,10.11c-0.8,1.17-1.63,2.31-2.5,3.42c0,0.01-0.01,0.02-0.02,0.03
				c-0.58,0.73-1.17,1.46-1.79,2.16c0,0.01-0.01,0.02-0.02,0.03C196.47,154.5,188.58,160.16,179.64,163.7z M59.23,404.71
				c-21.78,0-39.49-17.71-39.49-39.479h39.49V404.71z M148.06,592.26H78.97v-19.74h69.09V592.26z M236.9,592.26h-69.09v-19.74h69.09
				V592.26z M236.9,483.68h-19.74v19.74h19.74v49.35h-69.09v-49.35h29.61v-19.74h-29.61V444.19h-19.75v39.489h-19.74v19.74h19.74
				v49.35H78.97v-49.35h29.61v-19.74H78.97v-78.97H236.9V483.68z M296.13,315.87h-29.61c-5.45,0-9.87-4.42-9.87-9.87v-59.23H236.9
				v138.2H78.97v-138.2H59.23v98.71H19.74v-78.96c0-38.1,31.01-69.1,69.1-69.1h138.19c38.09,0,69.1,31,69.1,69.1V315.87z
				 M375.1,296.13c0,10.89-8.859,19.74-19.75,19.74H315.87v-39.48h19.74v0.01h19.739v-0.01C366.24,276.39,375.1,285.24,375.1,296.13
				z"/>
		</g>
	</g>
</g>
</svg>
