<?xml version="1.0" encoding="utf-8"?>
<!-- Generator: Adobe Illustrator 16.0.0, SVG Export Plug-In . SVG Version: 6.00 Build 0)  -->
<!DOCTYPE svg PUBLIC "-//W3C//DTD SVG 1.1//EN" "http://www.w3.org/Graphics/SVG/1.1/DTD/svg11.dtd">
<svg version="1.1" xmlns="http://www.w3.org/2000/svg" xmlns:xlink="http://www.w3.org/1999/xlink" x="0px" y="0px"
	 width="94.146px" height="110.121px" viewBox="0 0 94.146 110.121" enable-background="new 0 0 94.146 110.121"
	 xml:space="preserve">
<g id="Capa_1">
</g>
<g id="Capa_2">
</g>
<g id="Capa_3">
</g>
<g id="Capa_6">
	<g opacity="0.3">
		<path fill="#FFF17D" d="M56.173,18.779c-0.86,0.396-1.699,0.871-2.509,1.421c-0.822,0.56-1.582,1.175-2.276,1.843
			c0.019,1.367,0.506,2.823,1.873,4.675c1.252,1.695,4.598,4.992,7.256,7.021c0.657-0.02,1.322-0.221,1.912-0.621
			c0.605-0.413,1.046-0.979,1.303-1.614c-0.248-0.839-0.555-1.727-0.887-2.612l0.273,2.778l-0.887-2.759l-0.522,0.805l-0.474-2.242
			l-0.561,0.86l-0.462-4.932l0.788,2.785l0.457-0.64c-0.611-1.363-1.205-2.542-1.642-3.29
			C58.659,20.275,57.472,19.288,56.173,18.779z M58.812,30.484c-0.286,0.194-0.638,0.207-0.926,0.066
			c0.226,0.086,0.492,0.061,0.708-0.086c0.358-0.244,0.451-0.729,0.208-1.085c-0.243-0.358-0.729-0.451-1.087-0.207
			c-0.217,0.147-0.336,0.386-0.34,0.628c-0.025-0.321,0.115-0.644,0.4-0.838c0.42-0.286,0.994-0.176,1.28,0.244
			S59.232,30.198,58.812,30.484z M56.643,27.371c-0.477,0.324-1.071,0.347-1.554,0.108c0.381,0.145,0.827,0.103,1.191-0.145
			c0.598-0.407,0.753-1.223,0.346-1.823c-0.408-0.599-1.225-0.752-1.821-0.345c-0.364,0.249-0.566,0.647-0.573,1.055
			c-0.043-0.537,0.194-1.083,0.671-1.408c0.706-0.481,1.67-0.296,2.148,0.409C57.532,25.929,57.35,26.89,56.643,27.371z
			 M62.188,27.23c-0.143-0.344-0.286-0.682-0.43-1.012l0.229,1.268L62.188,27.23z"/>
		<g>
			<path fill="#FFF17D" d="M63.218,38.08c0.299,0.523,0.469,0.908,0.389,0.991c-0.074,0.078-0.464-0.07-1.003-0.337
				c0.114-0.086,0.222-0.181,0.321-0.287C63.034,38.332,63.132,38.208,63.218,38.08z"/>
			<path fill="#FFF17D" d="M59.612,33.474c-0.108,0.451-0.324,0.868-0.652,1.213c-0.32,0.339-0.717,0.574-1.15,0.707
				c-0.114-0.173-0.199-0.343-0.292-0.543c-0.003-0.007-0.006-0.012-0.009-0.02c-0.03-0.064-0.056-0.128-0.082-0.194
				c0,0,0-0.003-0.001-0.004c-0.145-0.438-0.079-0.902,0.22-1.218c0.287-0.302,0.719-0.398,1.147-0.297
				c0.081,0.022,0.163,0.049,0.248,0.081c0-0.001,0.004,0.001,0.005,0.001C59.258,33.28,59.435,33.362,59.612,33.474z"/>
			<path fill="#FFF17D" d="M60.424,34.14c0.45,0.428,1.763,2.239,2.561,3.546c-0.099,0.17-0.218,0.331-0.357,0.478
				c-0.132,0.138-0.274,0.259-0.429,0.361c-1.352-0.717-3.245-1.912-3.707-2.35c-0.183-0.173-0.325-0.324-0.441-0.463
				c0.456-0.14,0.871-0.387,1.209-0.743c0.342-0.36,0.566-0.792,0.681-1.26C60.082,33.825,60.238,33.964,60.424,34.14z"/>
			<polygon fill="#FFF17D" points="57.586,33.719 56.105,31.887 58.013,33.268 			"/>
			
				<ellipse transform="matrix(0.6879 -0.7258 0.7258 0.6879 -6.0545 51.8174)" fill="#FFF17D" cx="57.225" cy="32.949" rx="0.773" ry="0.16"/>
			
				<ellipse transform="matrix(0.6891 -0.7246 0.7246 0.6891 -5.9056 51.219)" fill="#FFF17D" cx="56.744" cy="32.493" rx="0.427" ry="0.087"/>
		</g>
		<path fill="#FFF17D" d="M65.766,34.712c-0.029,0.077-0.064,0.16-0.101,0.23c-0.053,0.119-0.118,0.237-0.189,0.343
			c-0.094,0.154-0.201,0.296-0.326,0.433c-0.171,0.195-0.372,0.373-0.597,0.527c-0.136,0.088-0.267,0.165-0.396,0.23
			c-0.285,0.13-0.562,0.201-0.864,0.237c-0.095,0.012-0.185,0.024-0.278,0.03c-0.083,0-0.166,0.006-0.249,0l-1.994-2.746h0.142
			c0.319-0.012,0.646-0.071,0.953-0.178c0.166-0.053,0.325-0.124,0.479-0.207c0.047-0.024,0.095-0.053,0.142-0.077
			c0.054-0.036,0.101-0.065,0.155-0.1c0.183-0.125,0.354-0.272,0.508-0.433c0.314-0.319,0.557-0.704,0.711-1.083
			c0.011-0.023,0.018-0.047,0.029-0.077L65.766,34.712z"/>
		<g>
			<path fill="#FFF17D" d="M66.925,35.648c0.393,0.457,0.698,0.746,0.804,0.699c0.097-0.043,0.089-0.461,0.019-1.058
				c-0.119,0.079-0.246,0.147-0.378,0.206C67.224,35.559,67.074,35.609,66.925,35.648z"/>
			<path fill="#FFF17D" d="M63.794,30.708c0.461,0.049,0.927-0.014,1.361-0.207c0.427-0.189,0.78-0.483,1.052-0.849
				c-0.126-0.164-0.257-0.302-0.414-0.456c-0.006-0.006-0.01-0.01-0.017-0.016c-0.05-0.049-0.102-0.096-0.154-0.141
				c0,0-0.004-0.001-0.004-0.002c-0.363-0.284-0.822-0.377-1.221-0.201c-0.379,0.169-0.615,0.544-0.664,0.98
				c-0.006,0.085-0.01,0.171-0.007,0.262c-0.001,0,0,0.004-0.001,0.006C63.729,30.309,63.748,30.502,63.794,30.708z"/>
			<path fill="#FFF17D" d="M64.149,31.695c0.252,0.568,1.518,2.411,2.483,3.601c0.193-0.036,0.384-0.094,0.569-0.177
				c0.174-0.078,0.336-0.171,0.484-0.283c-0.223-1.513-0.715-3.698-0.973-4.279c-0.102-0.231-0.194-0.417-0.286-0.574
				c-0.286,0.384-0.657,0.692-1.106,0.892c-0.453,0.201-0.936,0.268-1.415,0.22C63.967,31.268,64.046,31.462,64.149,31.695z"/>
			<polygon fill="#FFF17D" points="64.704,28.88 63.475,26.872 64.136,29.132 			"/>
			
				<ellipse transform="matrix(-0.9143 0.405 -0.405 -0.9143 134.1622 28.1787)" fill="#FFF17D" cx="64.1" cy="28.282" rx="0.773" ry="0.158"/>
			
				<ellipse transform="matrix(-0.9143 0.405 -0.405 -0.9143 133.4027 27.1319)" fill="#FFF17D" cx="63.832" cy="27.676" rx="0.426" ry="0.088"/>
		</g>
		<path fill="#FFF17D" d="M55.707,18.615c-0.766,0.371-1.515,0.803-2.24,1.297c-0.739,0.503-1.428,1.052-2.066,1.641
			c0.063-0.984,0.351-1.941,0.7-2.989l-0.822-1.423c-0.476,0.293-0.875,0.445-0.942,0.344c-0.069-0.1,0.233-0.426,0.696-0.768
			l-0.24-0.415c-0.31,0.189-0.567,0.285-0.611,0.219c-0.046-0.066,0.148-0.278,0.449-0.502l-1.079-1.863l1.34,1.687
			c0.324-0.205,0.604-0.312,0.649-0.246c0.045,0.068-0.148,0.279-0.445,0.502l0.295,0.374c0.492-0.314,0.916-0.479,0.986-0.377
			c0.068,0.101-0.226,0.424-0.681,0.76l1.058,1.335C53.813,18.249,54.789,18.331,55.707,18.615z"/>
	</g>
	<path opacity="0.3" fill="#FFF17D" d="M94.146,110.121H12.104c0.812-4.208,8.802-7.511,18.544-7.511
		c0.918,0,1.817,0.029,2.699,0.089c7.233,0.462,13.116,2.765,15.146,5.794c-1.533-3.438-7.582-6.155-15.307-6.907
		c-0.124-1.396,0.048-2.794,0.492-4.102c0.793-2.35,2.456-4.41,4.823-5.658c4.173-2.196,9.192-1.148,12.175,2.237
		c0.166,0.189,0.326,0.379,0.474,0.58c0.332,0.432,0.622,0.894,0.882,1.385c0.09,0.166,0.166,0.331,0.249,0.503
		c0.178,0.391,0.332,0.794,0.456,1.201c0.148,0.48,0.26,0.965,0.337,1.451c0.006,0.023,0.006,0.053,0.013,0.082
		c0.378,2.646-0.326,5.34-1.919,7.458h0.054c1.628-2.089,2.415-4.729,2.185-7.375c0-0.018-0.006-0.041-0.006-0.06
		c-0.054-0.597-0.16-1.188-0.326-1.781c-0.101-0.385-0.23-0.764-0.379-1.143c-0.136-0.331-0.283-0.662-0.462-0.987
		c-0.236-0.457-0.496-0.877-0.787-1.279c0.427-0.657,1.078-1.172,1.889-1.414c1.504-0.456,3.078,0.178,3.883,1.432
		c0.018,0.03,0.035,0.054,0.054,0.083c0.147,0.243,0.26,0.51,0.349,0.787c0.456,1.521-0.184,3.096-1.456,3.901
		c1.491-0.87,2.249-2.67,1.729-4.404c-0.071-0.219-0.153-0.432-0.255-0.627C62.87,88.92,73.631,72.193,70.37,52.731
		c-0.462-2.729-1.196-5.517-2.262-8.334c-0.112-0.308-0.23-0.609-0.354-0.917c-0.853-2.113-1.895-4.238-3.149-6.375
		c0.13-0.065,0.261-0.142,0.396-0.231c0.225-0.154,0.426-0.332,0.598-0.527c2.084,1.823,3.979,3.765,5.676,5.783
		c0.214,0.255,0.428,0.509,0.628,0.764c1.888,2.32,3.528,4.735,4.942,7.203c7.428,12.975,8.601,27.464,5.451,37.094
		c-0.006,0.006-0.006,0.018-0.006,0.029c-0.65,2.699-1.557,5.304-2.693,7.778c0,0.012-0.006,0.017-0.012,0.029
		c-1.278-0.609-2.711-0.947-4.221-0.947c-4.822,0-8.836,3.45-9.706,8.014c0.876-4.392,4.747-7.7,9.394-7.7
		c1.562,0,3.029,0.373,4.332,1.036c0.006,0.006,0.006,0.006,0.013,0.006c3.101,1.58,5.226,4.812,5.226,8.535
		c0,0.06,0,0.118-0.006,0.177c0.207-0.04,0.42-0.082,0.634-0.105c0.349-0.048,0.71-0.071,1.071-0.071
		c2.421,0,4.588,1.065,6.066,2.752C93.222,107.684,93.838,108.843,94.146,110.121z"/>
</g>
<g id="Capa_4" display="none">
</g>
<g id="Capa_7">
</g>
<g id="Capa_8">
</g>
<g id="Capa_11">
</g>
<g id="Capa_9">
</g>
<g id="Capa_12">
</g>
<g id="Capa_10">
</g>
</svg>
