<?xml version="1.0" encoding="utf-8"?>
<!-- Generator: Adobe Illustrator 16.0.0, SVG Export Plug-In . SVG Version: 6.00 Build 0)  -->
<!DOCTYPE svg PUBLIC "-//W3C//DTD SVG 1.1//EN" "http://www.w3.org/Graphics/SVG/1.1/DTD/svg11.dtd">
<svg version="1.1" xmlns="http://www.w3.org/2000/svg" xmlns:xlink="http://www.w3.org/1999/xlink" x="0px" y="0px" width="400px"
	 height="210px" viewBox="0 0 400 210" enable-background="new 0 0 400 210" xml:space="preserve">
<g id="Capa_1">
</g>
<g id="Capa_2">
</g>
<g id="Capa_3">
</g>
<g id="Capa_6">
</g>
<g id="Capa_4" display="none">
</g>
<g id="Capa_7">
	<path fill="#82DF7E" d="M361.33,56.38v0.01c0,0.77-0.021,1.53-0.061,2.29c-0.039,0.9-0.119,1.8-0.22,2.69
		c-0.09,0.8-0.2,1.59-0.34,2.37c-0.47,2.8-1.21,5.51-2.18,8.11c-0.311,0.84-0.65,1.67-1.021,2.48
		c-6.859,15.36-22.27,26.06-40.18,26.06c-18,0-33.48-10.82-40.29-26.31c-0.38-0.86-0.74-1.74-1.06-2.63
		c-0.931-2.56-1.631-5.23-2.08-7.99c-0.141-0.84-0.25-1.68-0.341-2.53c-0.06-0.61-0.109-1.22-0.14-1.83
		c-0.06-0.81-0.08-1.62-0.09-2.44v-0.27c0-2.53,0.21-5,0.63-7.41c0.14-0.86,0.31-1.71,0.51-2.56c4.511-19.5,21.99-34.03,42.86-34.03
		c20.77,0,38.18,14.39,42.79,33.75c0.2,0.8,0.37,1.6,0.51,2.41C361.09,51.09,361.33,53.7,361.33,56.38z"/>
	<path d="M18.286,205.929v3.211h99.324v-3.211H91.98v-9.61H53.528v-25.631h9.897v6.411l-5.775,15.894h33.995l-5.775-15.894h-0.013
		l-0.046-22.824l-3.153-12.625v-13.722c0-3.847-1.501-7.474-4.228-10.188l-2.183-2.194v-5.74h-3.211v5.74l-2.184,2.194
		c-2.726,2.727-4.216,6.342-4.216,10.188v1.097H53.528v-12.81h-3.2v-3.21h-3.199v3.21h-3.211v-14.496h-3.2v14.496h-3.21v-10.141
		h-3.201v10.141h-3.198v44.863h-3.212v-6.411h-3.199v6.411h-3.211v44.851H18.286z M53.528,199.519H88.78v6.41H53.528V199.519z
		 M79.493,140.241h-9.656v-12.313c0-2.992,1.167-5.811,3.281-7.924l1.523-1.525l1.525,1.525c1.617,1.617,2.668,3.626,3.084,5.821
		h-6.214v3.2h6.422l0.012,4.817h-6.434v3.199h6.445L79.493,140.241z M82.209,153.062H67.076l2.368-9.61h10.361L82.209,153.062z
		 M82.658,159.472H66.638v-3.211h16.021V159.472z M66.638,162.672h3.199v8.016h-3.199V162.672z M76.248,162.672v8.016h-3.211v-8.016
		H76.248z M82.658,170.688h-3.211v-8.016h3.211V170.688z M82.658,177.099H66.638v-3.211h16.021V177.099z M66.18,180.377h17.422
		l3.465,9.495H62.715L66.18,180.377z M53.528,132.167h13.109v9.483l-3.212,13.018v12.59h-9.897V132.167z M34.307,200.142
		l16.021,5.336v0.45H34.307V200.142z M34.307,196.319h16.021v5.787l-16.021-5.336V196.319z M34.307,187.321l16.021,5.348v0.451
		H34.307V187.321z M34.307,183.498h16.021v5.798l-16.021-5.348V183.498z M34.307,170.688h16.021v9.61H34.307V170.688z
		 M34.307,161.69l16.021,5.348v0.439H34.307V161.69z M34.307,157.867h16.021v5.787l-16.021-5.336V157.867z M34.307,148.88
		l16.021,5.336v0.451H34.307V148.88z M34.307,145.057h16.021v5.787l-16.021-5.348V145.057z M34.307,132.167h16.021v9.679H34.307
		V132.167z M34.307,123.238l16.021,5.348v0.438H34.307V123.238z M34.307,119.415h16.021v5.787l-16.021-5.336V119.415z
		 M24.697,164.277h6.411v41.652h-6.411v-3.2h5.51v-3.21h-5.51v-3.2h5.51v-3.2h-5.51v-3.211h5.51v-3.199h-5.51v-3.211h5.51v-3.2
		h-5.51v-3.199h5.51v-3.211h-5.51v-3.2h5.51v-3.211h-5.51V164.277z"/>
	<g>
		<g>
			<g>
				<path d="M196.211,153.971c-0.053-0.067-0.113-0.143-0.166-0.204c-2.066-2.375-5.672-2.737-8.176-0.776
					c0,0-7.55,5.913-12.347,9.729c-0.647,0.513-1.243,0.988-1.757,1.41v-5.92c0-6.034-4.917-10.943-10.951-10.943
					c-6.033,0-10.943,4.91-10.943,10.943v7.912c-2.941,1.471-4.978,4.502-4.978,8.009v9.956c0,3.289,2.678,5.966,5.974,5.966v18.908
					h19.903v-32.513c0.019-1.042,0.36-1.949,0.92-2.429l2.346-1.855l0.331-0.264l1.637-1.297l19.293-15.265L196.211,153.971z
					 M153.862,158.21c0-4.94,4.021-8.952,8.952-8.952c4.94,0,8.96,4.012,8.96,8.952l0.014,6.942
					c-0.061-0.015-1.545,0.027-2.005,0.027h-3.122c0.46-0.257,0.897-0.559,1.298-0.897c1.372-1.162,2.345-2.776,2.684-4.608
					c0.092-0.475,0.137-0.965,0.137-1.463c0-4.389-3.574-7.957-7.965-7.957c-4.39,0-7.956,3.567-7.956,7.957
					c0,2.995,1.667,5.611,4.118,6.969h-3.123c-0.686,0-1.351,0.083-1.991,0.226V158.21z M167.038,162.426
					c-0.331,0.34-0.716,0.641-1.123,0.89c-0.083,0.045-0.167,0.098-0.249,0.143c-0.34,0.189-0.702,0.34-1.071,0.453
					c-0.565,0.174-1.161,0.271-1.78,0.271c-0.618,0-1.215-0.098-1.771-0.271c-0.37-0.113-0.732-0.264-1.072-0.453
					c-0.082-0.045-0.166-0.098-0.248-0.143c-0.166-0.098-0.324-0.211-0.482-0.324c-0.227-0.174-0.445-0.362-0.642-0.566
					c-0.204-0.196-0.393-0.415-0.565-0.648c-0.061-0.076-0.113-0.15-0.166-0.226c-0.316-0.475-0.573-0.996-0.746-1.562
					c-0.03-0.09-0.061-0.188-0.084-0.287c-0.12-0.475-0.188-0.98-0.188-1.493c0-0.121,0-0.249,0.015-0.369
					c0-0.121,0.015-0.242,0.03-0.362c0.332-2.715,2.481-4.865,5.189-5.196c0.12-0.015,0.24-0.03,0.361-0.03
					c0.121-0.015,0.248-0.015,0.369-0.015c0.725,0,1.418,0.128,2.059,0.362c0.182,0.068,0.363,0.144,0.537,0.227
					c0.172,0.083,0.338,0.181,0.505,0.279c0.407,0.249,0.784,0.551,1.123,0.89c1.087,1.078,1.75,2.572,1.75,4.216
					C168.788,159.862,168.117,161.348,167.038,162.426z M152.867,188.061c-2.195,0-3.982-1.78-3.982-3.975h3.982V188.061z
					 M161.818,206.969h-6.96v-1.991h6.96V206.969z M170.779,206.969h-6.969v-1.991h6.969V206.969z M170.779,196.025h-7.783v1.991
					h7.783v4.97h-6.969v-4.97v-1.991v-3.982h-1.992v3.982h-7.782v1.991h7.782v4.97h-6.96v-4.97v-1.991v-7.964h1.991v0.996h3.498
					v-0.996h1.471h1.992h1.479v0.996h3.499v-0.996h1.991V196.025z M176.994,168.852l-1.554,1.229c0,0-1.984,1.607-2.67,2.112
					c-0.971,0.714-1.996,1.656-1.991,3.575v10.302h-1.991v-0.995h-3.499v0.995h-1.479h-1.992h-1.471v-0.995h-3.498v0.995h-1.991
					v-13.93h-1.991v9.955h-3.982v-7.964c0-3.838,3.13-6.961,6.969-6.961h13.93c0.385,0,1.675,0.083,1.938,0.083
					c0.325,0,0.634-0.038,0.935-0.113c0.574-0.143,1.094-0.415,1.539-0.784h0.008l0.008,0.007
					c3.582-2.934,13.357-10.528,13.357-10.528l2.246,2.881L176.994,168.852z M191.376,157.479l-2.278-2.918
					c1.652-1.297,3.998-1.071,5.378,0.453L191.376,157.479z"/>
				<path d="M155.852,182.093h13.932v-12.936h-13.932V182.093z M167.793,177.117h-6.244v-2.985h6.244V177.117z M157.842,171.147
					h9.951v0.995h-8.232v6.966h8.232v0.995h-9.951V171.147z"/>
			</g>
		</g>
	</g>
	<path d="M155.39,136.08c-0.449-0.45-0.949-0.85-1.489-1.18C154.44,135.23,154.95,135.63,155.39,136.08z"/>
	<path d="M194.821,136.468c-0.074-0.093-0.149-0.187-0.226-0.268l0.008-0.006L194.821,136.468z"/>
	<path d="M360.63,48.55c-0.14-0.81-0.31-1.61-0.51-2.41c-4.61-19.36-22.021-33.75-42.79-33.75c-20.87,0-38.35,14.53-42.86,34.03
		c-0.2,0.85-0.37,1.7-0.51,2.56c-0.42,2.41-0.63,4.88-0.63,7.41v0.27c0.01,0.82,0.03,1.63,0.09,2.44c0.03,0.61,0.08,1.22,0.14,1.83
		c0.091,0.85,0.2,1.69,0.341,2.53c0.449,2.76,1.149,5.43,2.08,7.99c0.319,0.89,0.68,1.77,1.06,2.63
		c6.81,15.49,22.29,26.31,40.29,26.31c17.91,0,33.32-10.7,40.18-26.06c0.37-0.81,0.71-1.64,1.021-2.48c0.97-2.6,1.71-5.31,2.18-8.11
		c0.14-0.78,0.25-1.57,0.34-2.37c0.101-0.89,0.181-1.79,0.22-2.69c0.04-0.76,0.061-1.52,0.061-2.29v-0.01
		C361.33,53.7,361.09,51.09,360.63,48.55z M358.31,61.88c-0.109,0.8-0.239,1.59-0.39,2.38c-0.54,2.81-1.37,5.52-2.45,8.09
		c-0.35,0.85-0.729,1.68-1.149,2.5c-6.771,13.57-20.79,22.88-36.99,22.88c-16.28,0-30.37-9.42-37.09-23.11
		c-0.431-0.85-0.82-1.73-1.181-2.62c-1.04-2.54-1.84-5.21-2.35-7.98c-0.16-0.83-0.29-1.67-0.4-2.52
		c-0.119-0.97-0.199-1.96-0.25-2.95c-0.04-0.72-0.06-1.44-0.06-2.16v-0.28c0.02-2.63,0.28-5.21,0.77-7.7
		c0.171-0.86,0.36-1.7,0.58-2.54c4.66-17.73,20.79-30.81,39.98-30.81c19.11,0,35.189,12.96,39.92,30.57
		c0.22,0.79,0.41,1.6,0.58,2.41c0.52,2.54,0.8,5.15,0.84,7.83v0.52c0,0.6-0.01,1.2-0.04,1.79
		C358.58,59.43,358.47,60.67,358.31,61.88z"/>
	<path d="M360.12,46.14c-0.92-0.18-1.88-0.35-2.87-0.51c0.22,0.79,0.41,1.6,0.58,2.41c0.97,0.16,1.9,0.33,2.8,0.51
		c8.79,1.72,14.12,3.98,14.12,6.45c0,2.43-5.16,4.66-13.7,6.37c-0.88,0.17-1.79,0.34-2.74,0.51c-10.21,1.77-24.35,2.87-39.97,2.87
		c-16.689,0-31.7-1.26-42.03-3.25c-0.949-0.18-1.869-0.37-2.75-0.57c-7.3-1.64-11.63-3.7-11.63-5.93c0-2.27,4.49-4.36,12.03-6.02
		c0.9-0.19,1.84-0.39,2.81-0.57c0.171-0.86,0.36-1.7,0.58-2.54c-1,0.17-1.96,0.36-2.88,0.55C263.66,48.63,257,51.66,257,55
		c0,3.28,6.43,6.27,16.9,8.46c0.899,0.19,1.84,0.38,2.81,0.56c10.86,2.01,25.36,3.23,41.29,3.23c15.27,0,29.22-1.13,39.92-2.99
		c0.96-0.16,1.89-0.34,2.79-0.52C372,61.52,379,58.43,379,55C379,51.51,371.76,48.37,360.12,46.14z"/>
	<circle fill="#FF9C00" cx="162.818" cy="158.199" r="6.207"/>
	<path d="M361.33,56.38c-0.85-0.17-1.74-0.34-2.66-0.51v0.52c0,0.6-0.01,1.2-0.04,1.79c0.91,0.16,1.79,0.32,2.64,0.5
		c8.41,1.7,13.48,3.91,13.48,6.32c0,2.67-6.19,5.08-16.22,6.85c-0.98,0.17-2,0.33-3.061,0.5c-9.92,1.49-22.91,2.4-37.13,2.4
		c-15.27,0-29.12-1.05-39.28-2.75c-1.069-0.18-2.09-0.37-3.079-0.55c-8.74-1.73-14.051-3.98-14.051-6.45c0-2.21,4.28-4.26,11.49-5.9
		c0.84-0.19,1.73-0.37,2.64-0.55c-0.04-0.72-0.06-1.44-0.06-2.16v-0.28c-0.93,0.18-1.82,0.37-2.67,0.55
		C263.2,58.85,257,61.78,257,65c0,3.6,7.73,6.84,20.04,9.08c1.03,0.18,2.1,0.37,3.2,0.54c10.38,1.65,23.5,2.63,37.76,2.63
		c13.6,0,26.17-0.89,36.32-2.4c1.09-0.17,2.16-0.34,3.189-0.52C370.66,72.09,379,68.74,379,65C379,61.64,372.26,58.6,361.33,56.38z"
		/>
	<path d="M297.055,33.18c-2.969,0-5.375,2.406-5.375,5.375s2.406,5.375,5.375,5.375s5.375-2.406,5.375-5.375
		S300.023,33.18,297.055,33.18z M297.055,41.305c-1.519,0-2.75-1.231-2.75-2.75s1.231-2.75,2.75-2.75c1.52,0,2.75,1.231,2.75,2.75
		S298.574,41.305,297.055,41.305z"/>
	<path d="M373.25,9.25c-4.971,0-9,4.029-9,9s4.029,9,9,9s9-4.029,9-9S378.221,9.25,373.25,9.25z M373.25,24.167
		c-3.268,0-5.917-2.649-5.917-5.917s2.649-5.917,5.917-5.917s5.917,2.649,5.917,5.917S376.518,24.167,373.25,24.167z"/>
	<circle cx="14.055" cy="13.445" r="1.055"/>
	<circle cx="144.055" cy="65.445" r="1.055"/>
	<circle cx="222.5" cy="60.296" r="1.055"/>
	<circle cx="255.949" cy="89.391" r="1.055"/>
	<circle cx="83.055" cy="90.445" r="1.055"/>
	<circle cx="44.5" cy="62.101" r="1.805"/>
	<circle cx="172.055" cy="17.445" r="1.805"/>
	<circle cx="182.5" cy="100.391" r="1.805"/>
	<circle cx="368.058" cy="106.445" r="1.805"/>
	<g>
		<path d="M109.196,42.303l-18.735-7.307c-2.06-0.803-3.683-2.359-4.57-4.382c-1.833-4.177,0.074-9.067,4.251-10.9
			c2.023-0.888,4.271-0.935,6.33-0.132l23.021,8.978l0.393-1.011l-23.02-8.977c-2.328-0.908-4.871-0.856-7.16,0.148
			c-4.725,2.074-6.881,7.605-4.808,12.33c1.004,2.289,2.84,4.049,5.169,4.957l18.735,7.306L109.196,42.303z"/>
		<path d="M97.624,27.676c-0.481-1.095-1.762-1.594-2.857-1.114c-1.094,0.48-1.594,1.762-1.113,2.857
			c0.48,1.095,1.762,1.594,2.855,1.113C97.604,30.052,98.104,28.771,97.624,27.676z M94.646,28.983
			c-0.24-0.548,0.01-1.188,0.557-1.429c0.548-0.24,1.188,0.01,1.429,0.557c0.239,0.547-0.009,1.188-0.557,1.428
			S94.886,29.53,94.646,28.983z"/>
		<path d="M91.354,26.876c-0.36-0.82-1.321-1.195-2.144-0.835c-0.82,0.36-1.195,1.322-0.834,2.142
			c0.359,0.821,1.321,1.196,2.142,0.836C91.339,28.659,91.714,27.697,91.354,26.876z M89.368,27.748
			c-0.12-0.273,0.004-0.594,0.278-0.714c0.274-0.12,0.595,0.005,0.714,0.279c0.12,0.274-0.004,0.594-0.278,0.715
			C89.809,28.146,89.489,28.021,89.368,27.748z"/>
		<rect x="111.994" y="31.239" transform="matrix(0.9316 0.3634 -0.3634 0.9316 19.5179 -40.1939)" width="9.198" height="1.083"/>
		<rect x="112.195" y="36.141" transform="matrix(0.9317 0.3633 -0.3633 0.9317 21.3613 -40.2053)" width="10.731" height="1.085"/>
		
			<rect x="123.933" y="38.928" transform="matrix(-0.9316 -0.3635 0.3635 -0.9316 226.5198 121.5712)" width="1.533" height="1.084"/>
		<path d="M114.044,40.421l0.395-1.009l-16.901-6.592c0.899-0.683,1.605-1.561,2.081-2.549l11.316,4.412l0.393-1.01l-11.316-4.413
			c0.319-1.048,0.396-2.172,0.196-3.286l10.474,4.084l0.395-1.008l-11.237-4.384c-0.036-0.094-0.067-0.188-0.109-0.282
			c-1.561-3.557-5.725-5.183-9.281-3.621c-3.56,1.562-5.182,5.727-3.62,9.284c1.561,3.558,5.725,5.184,9.284,3.621
			c0.092-0.04,0.177-0.09,0.269-0.136L114.044,40.421z M93.521,22.373c-0.812,0.356-1.76-0.007-2.129-0.811
			c1-0.335,2.038-0.386,3.021-0.195C94.276,21.813,93.96,22.18,93.521,22.373z M93.944,33.141c-2.523,0.283-5.052-1.082-6.126-3.529
			c-1.248-2.844-0.089-6.143,2.58-7.614c0.611,1.35,2.197,1.965,3.558,1.368c0.741-0.325,1.273-0.945,1.496-1.696
			c0.22,0.087,0.434,0.185,0.645,0.297l0.006-0.01c1.135,0.608,2.081,1.585,2.639,2.856c1.02,2.323,0.443,4.94-1.252,6.625
			c-0.053,0.051-0.102,0.101-0.155,0.15c-0.024,0.023-0.052,0.048-0.082,0.074c-0.05,0.045-0.101,0.09-0.153,0.134
			c-0.006,0.005-0.012,0.008-0.018,0.012c-0.063,0.053-0.125,0.104-0.191,0.153c-0.015,0.012-0.029,0.024-0.047,0.034
			c-0.061,0.047-0.125,0.093-0.191,0.138c-0.071,0.049-0.143,0.096-0.217,0.144c-0.111,0.07-0.229,0.136-0.347,0.199
			c-0.052,0.028-0.104,0.056-0.156,0.081c-0.083,0.042-0.169,0.082-0.257,0.12C95.111,32.923,94.527,33.077,93.944,33.141z"/>
		
			<rect x="115.843" y="39.985" transform="matrix(-0.3631 0.9317 -0.9317 -0.3631 196.6194 -52.8897)" width="1.084" height="1.533"/>
		<rect x="110.378" y="43.103" transform="matrix(0.9317 0.3632 -0.3632 0.9317 23.4456 -37.3914)" width="1.532" height="1.084"/>
	</g>
	<circle cx="271.5" cy="145.391" r="1.805"/>
	<circle cx="323.5" cy="177.391" r="1.805"/>
	<circle cx="227.951" cy="172.942" r="1.055"/>
	<circle cx="116.956" cy="144.387" r="1.055"/>
	<rect x="73.037" y="162.672" fill="#A40202" width="3.211" height="8.016"/>
</g>
<g id="Capa_8">
</g>
<g id="Capa_11">
</g>
<g id="Capa_9">
</g>
<g id="Capa_12">
</g>
<g id="Capa_10">
</g>
</svg>
