<?xml version="1.0" encoding="utf-8"?>
<!-- Generator: Adobe Illustrator 16.0.0, SVG Export Plug-In . SVG Version: 6.00 Build 0)  -->
<!DOCTYPE svg PUBLIC "-//W3C//DTD SVG 1.1//EN" "http://www.w3.org/Graphics/SVG/1.1/DTD/svg11.dtd">
<svg version="1.1" xmlns="http://www.w3.org/2000/svg" xmlns:xlink="http://www.w3.org/1999/xlink" x="0px" y="0px" width="401px"
	 height="316.982px" viewBox="0 0 401 316.982" enable-background="new 0 0 401 316.982" xml:space="preserve">
<g id="Capa_1">
	<g>
		<path fill="#C0C0C0" d="M66.009,85.151c-5.881,5.33-11.848,8.911-17.909,10.745c-6.062,1.838-11.941,2.755-17.634,2.755
			c-5.329,0-10.564-0.917-15.704-2.755c-5.145-1.834-9.737-4.822-13.776-8.955c-4.042-4.133-7.259-9.368-9.643-15.705
			c-2.39-6.337-3.582-14.094-3.582-23.282c0-6.427,1.283-13.04,3.856-19.837c2.57-6.793,6.199-12.95,10.885-18.459
			C7.185,4.147,12.924-0.398,19.722-3.98c6.793-3.582,14.327-5.373,22.593-5.373c10.47,0,19.238,1.886,26.312,5.648
			c7.069,3.767,12.717,8.679,16.944,14.741c4.223,6.061,7.207,12.859,8.955,20.388c1.743,7.534,2.617,15.063,2.617,22.593
			c0,10.655-1.425,21.629-4.271,32.925c-2.85,11.296-7.577,22.18-14.189,32.65c-6.612,10.47-15.429,20.25-26.449,29.343
			c-11.021,9.092-24.616,16.85-40.778,23.282c-1.838-2.39-2.755-4.504-2.755-6.337c0-1.287,0.826-2.48,2.479-3.582
			c10.1-6.432,18.365-12.536,24.797-18.322c6.428-5.786,11.615-11.667,15.567-17.633c3.948-5.967,6.979-12.304,9.092-19.011
			C62.746,100.628,64.536,93.236,66.009,85.151z M66.285,70.824c1.282-2.385,2.203-5.876,2.755-10.47
			c0.551-4.589,0.826-8.722,0.826-12.398c0-14.693-2.575-26.174-7.715-34.44C57.007,5.25,50.395,1.117,42.314,1.117
			c-8.086,0-15.017,3.491-20.803,10.47c-5.785,6.982-8.678,18.003-8.678,33.063c0,6.797,0.778,12.674,2.342,17.633
			c1.558,4.959,3.581,9.092,6.061,12.399c2.479,3.306,5.372,5.786,8.68,7.438c3.306,1.653,6.702,2.48,10.193,2.48
			c4.589,0,9.506-0.964,14.74-2.893C60.085,79.778,63.895,76.154,66.285,70.824z"/>
		<path fill="#C0C0C0" d="M127.451,22.333c-0.37,0.37-0.873,0.783-1.515,1.24c-0.646,0.46-1.335,0.689-2.066,0.689
			c-2.204,0-4.133-1.193-5.787-3.582c7.165-9.183,15.106-16.574,23.834-22.179c8.722-5.601,18.228-8.404,28.516-8.404
			c12.675,0,22.18,3.263,28.517,9.781c6.337,6.522,9.506,15.016,9.506,25.486c0,5.51-1.06,11.021-3.169,16.532
			c-2.114,5.51-5.647,11.296-10.607,17.358c-4.959,6.061-11.571,12.674-19.838,19.837c-8.266,7.164-18.555,15.248-30.858,24.246
			h46.563c3.673,0,6.75-0.78,9.229-2.342c2.479-1.559,4.728-4.727,6.751-9.506c0.917-2.019,2.385-3.03,4.408-3.03
			c0.551,0,1.559,0.185,3.03,0.551c0.551,0.185,1.103,0.275,1.654,0.275c-1.654,4.779-3.169,9.738-4.547,14.878
			c-1.378,5.145-2.617,10.104-3.72,14.878c-0.37,1.472-0.826,2.385-1.378,2.755c-0.551,0.367-1.472,0.551-2.754,0.551
			c-3.308,0-7.439-0.185-12.399-0.551c-4.959-0.37-10.38-0.551-16.257-0.551h-56.481v-6.612
			c11.388-9.549,21.078-18.137,29.068-25.762c7.989-7.62,14.465-14.693,19.424-21.215c4.96-6.518,8.585-12.626,10.884-18.322
			c2.294-5.691,3.443-11.296,3.443-16.807c0-6.612-1.609-12.351-4.821-17.22c-3.216-4.865-8.774-7.301-16.669-7.301
			c-5.33,0-10.471,1.102-15.43,3.306S133.513,17.192,127.451,22.333z"/>
	</g>
</g>
<g id="Capa_2">
</g>
<g id="Capa_3">
</g>
<g id="Capa_6">
</g>
<g id="Capa_4" display="none">
</g>
<g id="Capa_7">
</g>
<g id="Capa_8">
</g>
<g id="Capa_11">
</g>
<g id="Capa_9">
</g>
<g id="Capa_12">
</g>
<g id="Capa_10">
</g>
</svg>
