<?xml version="1.0" encoding="utf-8"?>
<!-- Generator: Adobe Illustrator 16.0.0, SVG Export Plug-In . SVG Version: 6.00 Build 0)  -->
<!DOCTYPE svg PUBLIC "-//W3C//DTD SVG 1.1//EN" "http://www.w3.org/Graphics/SVG/1.1/DTD/svg11.dtd">
<svg version="1.1" id="Capa_1" xmlns="http://www.w3.org/2000/svg" xmlns:xlink="http://www.w3.org/1999/xlink" x="0px" y="0px"
	 width="487.294px" height="192.04px" viewBox="0 134.374 487.294 192.04" enable-background="new 0 134.374 487.294 192.04"
	 xml:space="preserve">
<g id="sombras">
	<polygon id="XMLID_2_" fill="#02424C" points="1.167,267.292 1.167,319.823 10.884,319.823 10.884,262.433 	"/>
	<polygon id="XMLID_3_" fill="#02424C" points="29.103,262.433 10.884,262.433 10.884,319.823 28.376,319.823 28.376,319.823 
		35.307,319.823 53.182,319.823 61.996,319.823 63.025,319.823 65.133,319.823 66.79,319.823 86.2,319.823 86.2,230.971 
		74.098,230.971 74.098,224.684 69.304,224.684 69.304,200.167 66.79,200.167 66.79,224.684 61.996,224.684 61.996,230.971 
		61.996,231.727 61.996,271.85 35.307,271.203 29.103,271.886 	"/>
	<polygon id="XMLID_4_" fill="#02424C" points="487.294,286.899 479.512,283.787 479.512,320.553 487.294,320.553 	"/>
	<polygon id="XMLID_5_" fill="#02424C" points="470.549,280.808 463.198,277.132 463.198,320.553 463.95,320.553 470.549,320.553 
		479.512,320.553 479.512,283.787 470.549,283.787 	"/>
	<path id="XMLID_6_" fill="#02424C" d="M427.041,246.372v38.672l-2.514-1.257v36.767h2.514h3.711h3.812h2.848v-0.933h1.945v0.933
		h1.473v-0.934h1.946v0.934h1.282v-0.934h1.918v0.934h0.028h2.307h14.888v-43.421h-14.888v-30.761l-8.724-14.807
		c0.536-0.104,0.942-0.577,0.942-1.145c0-0.645-0.523-1.168-1.168-1.168h-0.129v-10.115h-1.557v10.115h-0.26
		c-0.646,0-1.168,0.523-1.168,1.168c0,0.552,0.386,1.013,0.901,1.134L427.041,246.372L427.041,246.372z"/>
	<polygon id="XMLID_7_" fill="#02424C" points="417.848,283.787 417.848,320.553 420.816,320.553 422.3,320.553 422.3,320.553 
		424.526,320.553 424.526,283.787 422.3,283.787 420.816,283.787 	"/>
	<polygon id="XMLID_8_" fill="#02424C" points="185.895,259.805 139.713,259.805 139.713,330.293 202.91,330.293 202.91,327.863 
		277.651,327.863 277.651,226.384 185.895,226.384 	"/>
	<rect id="XMLID_9_" x="94.139" y="247.652" fill="#02424C" width="30.991" height="80.818"/>
</g>
<rect x="85.308" y="256.279" fill="#004651" width="16.295" height="63.521"/>
<rect x="87.25" y="258.39" fill="#00666B" width="12.411" height="5.785"/>
<rect x="87.25" y="266.237" fill="#00666B" width="12.411" height="5.784"/>
<rect x="87.25" y="274.083" fill="#00666B" width="12.411" height="5.784"/>
<rect x="87.25" y="281.928" fill="#00666B" width="12.411" height="5.784"/>
<rect x="87.25" y="289.171" fill="#00666B" width="12.411" height="5.783"/>
<rect x="87.25" y="297.016" fill="#717277" width="12.411" height="5.784"/>
<rect x="87.25" y="304.863" fill="#717277" width="12.411" height="5.784"/>
<rect x="87.25" y="312.709" fill="#717277" width="12.411" height="5.783"/>
<polygon id="XMLID_10_" fill="#003241" points="81.083,258.089 85.308,256.279 85.308,319.8 81.083,319.8 "/>
<rect y="319.193" fill="#005760" width="487.294" height="7.164"/>
<rect x="372.042" y="185.027" fill="#014651" width="45.806" height="133.101"/>
<polygon fill="#014651" points="354.011,192.926 372.042,185.027 372.042,318.127 354.011,318.127 "/>
<line id="XMLID_13_" fill="none" stroke="#00797F" stroke-miterlimit="10" x1="413.417" y1="318.127" x2="413.417" y2="181.693"/>
<line id="XMLID_14_" fill="none" stroke="#00797F" stroke-miterlimit="10" x1="407.319" y1="318.127" x2="407.319" y2="181.693"/>
<line id="XMLID_15_" fill="none" stroke="#00797F" stroke-miterlimit="10" x1="401.222" y1="318.127" x2="401.222" y2="181.693"/>
<line id="XMLID_16_" fill="none" stroke="#00797F" stroke-miterlimit="10" x1="395.123" y1="318.127" x2="395.123" y2="181.693"/>
<line id="XMLID_17_" fill="none" stroke="#00797F" stroke-miterlimit="10" x1="389.025" y1="318.127" x2="389.025" y2="181.693"/>
<line id="XMLID_18_" fill="none" stroke="#00797F" stroke-miterlimit="10" x1="382.927" y1="318.127" x2="382.927" y2="181.693"/>
<line id="XMLID_19_" fill="none" stroke="#00797F" stroke-miterlimit="10" x1="376.829" y1="318.127" x2="376.829" y2="181.693"/>
<line id="XMLID_21_" fill="none" stroke="#00797F" stroke-miterlimit="10" x1="369.161" y1="318.127" x2="369.161" y2="181.693"/>
<line id="XMLID_22_" fill="none" stroke="#00797F" stroke-miterlimit="10" x1="363.062" y1="318.127" x2="363.062" y2="185.466"/>
<line id="XMLID_23_" fill="none" stroke="#00797F" stroke-miterlimit="10" x1="356.964" y1="318.127" x2="356.964" y2="187.77"/>
<line id="XMLID_25_" fill="none" stroke="#00797F" stroke-miterlimit="10" x1="372.042" y1="194.33" x2="417.848" y2="194.33"/>
<line id="XMLID_26_" fill="none" stroke="#00797F" stroke-miterlimit="10" x1="372.042" y1="208.569" x2="417.848" y2="208.569"/>
<line id="XMLID_27_" fill="none" stroke="#00797F" stroke-miterlimit="10" x1="372.042" y1="222.806" x2="417.848" y2="222.806"/>
<line id="XMLID_28_" fill="none" stroke="#00797F" stroke-miterlimit="10" x1="372.042" y1="237.045" x2="417.848" y2="237.045"/>
<line id="XMLID_29_" fill="none" stroke="#00797F" stroke-miterlimit="10" x1="372.042" y1="251.284" x2="417.848" y2="251.284"/>
<line id="XMLID_30_" fill="none" stroke="#00797F" stroke-miterlimit="10" x1="372.042" y1="265.522" x2="417.848" y2="265.522"/>
<line id="XMLID_31_" fill="none" stroke="#00797F" stroke-miterlimit="10" x1="372.042" y1="279.76" x2="417.848" y2="279.76"/>
<line id="XMLID_32_" fill="none" stroke="#00797F" stroke-miterlimit="10" x1="372.042" y1="293.999" x2="417.848" y2="293.999"/>
<line id="XMLID_33_" opacity="0.4" fill="none" stroke="#F2EFE4" stroke-miterlimit="10" enable-background="new    " x1="372.042" y1="308.238" x2="417.848" y2="308.238"/>
<line id="XMLID_35_" fill="none" stroke="#00797F" stroke-miterlimit="10" x1="372.042" y1="194.33" x2="354.011" y2="202.229"/>
<line id="XMLID_36_" fill="none" stroke="#00797F" stroke-miterlimit="10" x1="372.042" y1="208.569" x2="354.011" y2="216.468"/>
<line id="XMLID_37_" opacity="0.4" fill="none" stroke="#CBC8BF" stroke-miterlimit="10" enable-background="new    " x1="372.042" y1="222.806" x2="354.011" y2="222.806"/>
<line id="XMLID_38_" opacity="0.4" fill="none" stroke="#CBC8BF" stroke-miterlimit="10" enable-background="new    " x1="372.042" y1="237.045" x2="354.011" y2="237.045"/>
<line id="XMLID_39_" opacity="0.4" fill="none" stroke="#CBC8BF" stroke-miterlimit="10" enable-background="new    " x1="372.042" y1="251.284" x2="354.011" y2="251.284"/>
<line id="XMLID_40_" opacity="0.4" fill="none" stroke="#CBC8BF" stroke-miterlimit="10" enable-background="new    " x1="372.042" y1="265.522" x2="354.011" y2="265.522"/>
<line id="XMLID_41_" opacity="0.4" fill="none" stroke="#CBC8BF" stroke-miterlimit="10" enable-background="new    " x1="372.042" y1="279.76" x2="354.011" y2="279.76"/>
<line id="XMLID_42_" fill="none" stroke="#CBC8BF" stroke-miterlimit="10" x1="372.042" y1="293.999" x2="354.011" y2="293.999"/>
<line id="XMLID_43_" fill="none" stroke="#CBC8BF" stroke-miterlimit="10" x1="372.042" y1="308.238" x2="354.011" y2="308.238"/>
<rect x="328.734" y="225.339" fill="#026166" width="45.751" height="95.347"/>
<path id="XMLID_44_" fill="#005760" d="M328.734,222.701V326.33h48.224V222.701h-9.748v-4.104h-14.364v4.104H328.734z
	 M369.519,251.43h3.078v3.077h-3.078V251.43z M369.519,245.274h3.078v3.077h-3.078V245.274z M369.519,239.118h3.078v3.078h-3.078
	V239.118z M369.519,232.961h3.078v3.077h-3.078V232.961z M369.519,226.805h3.078v3.077h-3.078V226.805z M363.363,260.664h3.078
	v60.023h-3.078V260.664z M363.363,251.43h3.078v3.077h-3.078V251.43z M363.363,245.274h3.078v3.077h-3.078V245.274z
	 M363.363,239.118h3.078v3.078h-3.078V239.118z M363.363,232.961h3.078v3.077h-3.078V232.961z M363.363,226.805h3.078v3.077h-3.078
	V226.805z M357.207,260.664h3.078v60.023h-3.078V260.664z M357.207,251.43h3.078v3.077h-3.078V251.43z M357.207,245.274h3.078v3.077
	h-3.078V245.274z M357.207,239.118h3.078v3.078h-3.078V239.118z M357.207,232.961h3.078v3.077h-3.078V232.961z M357.207,226.805
	h3.078v3.077h-3.078V226.805z M351.051,260.664h3.077v60.023h-3.077V260.664z M351.051,251.43h3.077v3.077h-3.077V251.43z
	 M351.051,245.274h3.077v3.077h-3.077V245.274z M351.051,239.118h3.077v3.078h-3.077V239.118z M351.051,232.961h3.077v3.077h-3.077
	V232.961z M351.051,226.805h3.077v3.077h-3.077V226.805z M344.895,251.43h3.079v3.077h-3.079V251.43z M344.895,245.274h3.079v3.077
	h-3.079V245.274z M344.895,239.118h3.079v3.078h-3.079V239.118z M344.895,232.961h3.079v3.077h-3.079V232.961z M344.895,226.805
	h3.079v3.077h-3.079V226.805z M338.738,251.43h3.078v3.077h-3.078V251.43z M338.738,245.274h3.078v3.077h-3.078V245.274z
	 M338.738,239.118h3.078v3.078h-3.078V239.118z M338.738,232.961h3.078v3.077h-3.078V232.961z M338.738,226.805h3.078v3.077h-3.078
	V226.805z M332.583,251.43h3.077v3.077h-3.077V251.43z M332.583,245.274h3.077v3.077h-3.077V245.274z M332.583,239.118h3.077v3.078
	h-3.077V239.118z M332.583,232.961h3.077v3.077h-3.077V232.961z M332.583,226.805h3.077v3.077h-3.077V226.805z"/>
<rect x="279.969" y="180.164" fill="#006B70" width="23.652" height="32.957"/>
<rect x="295.479" y="199.549" fill="#256772" width="16.285" height="126.788"/>
<rect x="271.051" y="193.734" fill="#265560" width="28.693" height="132.605"/>
<rect x="295.091" y="193.734" fill="#004656" width="1.938" height="132.605"/>
<rect x="290.904" y="193.734" fill="#004656" width="1.938" height="132.605"/>
<rect x="286.716" y="193.734" fill="#004656" width="1.939" height="132.605"/>
<rect x="308.159" y="199.549" fill="#265560" width="1.51" height="103.312"/>
<rect x="304.896" y="199.549" fill="#265560" width="1.51" height="103.312"/>
<rect x="301.634" y="199.549" fill="#265560" width="1.51" height="103.312"/>
<rect x="282.529" y="193.734" fill="#004656" width="1.938" height="132.605"/>
<rect x="278.341" y="193.734" fill="#004656" width="1.938" height="132.605"/>
<rect x="274.154" y="193.734" fill="#004656" width="1.938" height="132.605"/>
<polygon id="XMLID_84_" fill="#00797F" points="301.872,245.561 301.872,304.355 341.66,304.355 341.66,245.561 336.486,245.561 
	336.486,201.565 330.312,201.565 330.312,172.819 314.234,172.819 314.234,201.565 307.556,201.565 307.556,245.561 "/>
<path id="XMLID_85_" fill="#005563" d="M300.878,242.372v84.216h43.385v-84.217h-5.87v-42.108h-6.635v-30.624h-4.679V139.44h-2.042
	v30.199h-4.083v-17.313h-2.042v17.312h-6.302v30.624h-5.862v42.109H300.878z M337.457,246.709h3.063v51.806h-3.063V246.709z
	 M332.353,246.709h3.063v51.806h-3.063V246.709z M332.353,202.815h3.063v38.535h-3.063V202.815z M327.249,269.422h3.063v29.093
	h-3.063V269.422z M324.442,235.736h3.062v3.062h-3.062V235.736z M324.442,230.631h3.062v3.062h-3.062V230.631z M319.338,292.901
	h3.062v3.062h-3.062V292.901z M319.338,287.797h3.062v3.062h-3.062V287.797z M319.338,282.693h3.062v3.062h-3.062V282.693z
	 M319.338,277.589h3.062v3.062h-3.062V277.589z M319.21,235.736h3.063v3.062h-3.063V235.736z M319.21,230.631h3.063v3.062h-3.063
	V230.631z M319.21,225.528h3.063v3.062h-3.063V225.528z M319.21,176.529h3.063v3.062h-3.063V176.529z M317.296,189.799h-3.062
	v-3.062h3.062V189.799z M317.296,194.903h-3.062v-3.062h3.062V194.903z M317.296,200.007h-3.062v-3.062h3.062V200.007z
	 M317.296,208.174h-3.062v-3.062h3.062V208.174z M317.296,213.279h-3.062v-3.063h3.062V213.279z M317.296,218.382h-3.062v-3.062
	h3.062V218.382z M317.296,223.486h-3.062v-3.062h3.062V223.486z M317.296,228.59h-3.062v-3.062h3.062V228.59z M317.296,233.694
	h-3.062v-3.062h3.062V233.694z M317.296,238.798h-3.062v-3.062h3.062V238.798z M314.107,292.901h3.062v3.062h-3.062V292.901z
	 M314.107,287.797h3.062v3.062h-3.062V287.797z M314.107,282.693h3.062v3.062h-3.062V282.693z M314.107,277.589h3.062v3.062h-3.062
	V277.589z M309.13,292.901h3.062v3.062h-3.062V292.901z M309.13,287.797h3.062v3.062h-3.062V287.797z M309.13,282.693h3.062v3.062
	h-3.062V282.693z M309.13,277.589h3.062v3.062h-3.062V277.589z M309.13,272.485h3.062v3.062h-3.062V272.485z M309.13,267.38h3.062
	v3.062h-3.062V267.38z M309.13,262.277h3.062v3.062h-3.062V262.277z M309.13,257.172h3.062v3.062h-3.062V257.172z M309.13,252.069
	h3.062v3.062h-3.062V252.069z M309.13,246.964h3.062v3.062h-3.062V246.964z M309.002,235.736h3.062v3.062h-3.062V235.736z
	 M309.002,230.631h3.062v3.062h-3.062V230.631z M309.002,225.528h3.062v3.062h-3.062V225.528z M309.002,220.423h3.062v3.063h-3.062
	V220.423z M309.002,215.32h3.062v3.062h-3.062V215.32z M309.002,210.215h3.062v3.063h-3.062V210.215z M309.002,205.112h3.062v3.062
	h-3.062V205.112z M303.898,292.901h3.063v3.062h-3.063V292.901z M303.898,287.797h3.063v3.062h-3.063V287.797z M303.898,282.693
	h3.063v3.062h-3.063V282.693z M303.898,277.589h3.063v3.062h-3.063V277.589z M303.898,272.485h3.063v3.062h-3.063V272.485z
	 M303.898,267.38h3.063v3.062h-3.063V267.38z M303.898,262.277h3.063v3.062h-3.063V262.277z M303.898,257.172h3.063v3.062h-3.063
	V257.172z M303.898,252.069h3.063v3.062h-3.063V252.069z M303.898,246.964h3.063v3.062h-3.063V246.964z"/>
<rect x="298.567" y="317.182" fill="#676B70" width="47.651" height="9.405"/>
<rect x="306.748" y="200.262" opacity="0.3" fill="#01272D" enable-background="new    " width="31.645" height="42.109"/>
<rect x="312.611" y="169.638" opacity="0.4" fill="#011E23" enable-background="new    " width="19.147" height="30.624"/>
<rect x="166.197" y="223.808" fill="#015F75" width="27.78" height="88.041"/>
<polygon fill="#003E4C" points="149.358,227.945 165.664,219.792 165.664,316.094 149.358,316.094 "/>
<path id="XMLID_142_" fill="#014651" d="M165.664,219.792v96.302h30.571v-96.302H165.664z M176.123,308.096v4.91h-4.911v-4.91
	H176.123L176.123,308.096z M176.123,299.913v4.91h-4.911v-4.91H176.123L176.123,299.913z M176.123,291.73v4.909h-4.911v-4.909
	H176.123L176.123,291.73z M176.123,283.546v4.909h-4.911v-4.909H176.123L176.123,283.546z M176.123,275.486v4.911h-4.911v-4.911
	H176.123L176.123,275.486z M176.123,267.302v4.91h-4.911v-4.91H176.123L176.123,267.302z M176.123,259.12v4.909h-4.911v-4.909
	H176.123L176.123,259.12z M176.123,250.935v4.91h-4.911v-4.91H176.123L176.123,250.935z M176.123,242.752v4.91h-4.911v-4.91H176.123
	L176.123,242.752z M176.123,234.569v4.91h-4.911v-4.91H176.123L176.123,234.569z M176.123,226.385v4.91h-4.911v-4.91H176.123
	L176.123,226.385z M184.511,313.006H179.6v-4.91h4.911V313.006z M184.511,304.823H179.6v-4.91h4.911V304.823z M184.511,296.639
	H179.6v-4.909h4.911V296.639z M184.511,288.456H179.6v-4.909h4.911V288.456z M184.511,280.397H179.6v-4.911h4.911V280.397z
	 M184.511,272.212H179.6v-4.91h4.911V272.212z M184.511,264.029H179.6v-4.909h4.911V264.029z M184.511,255.845H179.6v-4.91h4.911
	V255.845z M184.511,247.663H179.6v-4.91h4.911V247.663z M184.511,239.479H179.6v-4.91h4.911V239.479z M184.511,231.295H179.6v-4.91
	h4.911V231.295z M192.663,313.006h-4.91v-4.91h4.91V313.006z M192.663,304.823h-4.91v-4.91h4.91V304.823z M192.663,296.639h-4.91
	v-4.909h4.91V296.639z M192.663,288.456h-4.91v-4.909h4.91V288.456z M192.663,280.397h-4.91v-4.911h4.91V280.397z M192.663,272.212
	h-4.91v-4.91h4.91V272.212z M192.663,264.029h-4.91v-4.909h4.91V264.029z M192.663,255.845h-4.91v-4.91h4.91V255.845z
	 M192.663,247.663h-4.91v-4.91h4.91V247.663z M192.663,239.479h-4.91v-4.91h4.91V239.479z M192.663,231.295h-4.91v-4.91h4.91
	V231.295z"/>
<polygon id="XMLID_177_" fill="#004651" points="212.751,249.11 200.889,250.682 200.889,305.025 212.751,304.982 "/>
<polygon id="XMLID_178_" fill="#00555E" points="212.751,249.11 237.244,250.64 237.244,304.982 212.751,304.982 "/>
<polygon id="XMLID_179_" fill="#003241" points="211.634,254.989 196.444,257.004 196.444,326.584 211.634,326.53 "/>
<polygon id="XMLID_180_" fill="#004651" points="211.634,254.989 242.994,256.95 242.994,326.53 211.634,326.53 "/>
<polygon id="XMLID_181_" fill="#443E44" points="237.244,259.893 239.398,260.052 239.398,327.719 237.244,327.559 "/>
<polygon id="XMLID_182_" fill="#003241" points="232.986,259.578 235.141,259.738 235.141,327.404 232.986,327.244 "/>
<polygon id="XMLID_183_" fill="#003241" points="228.729,259.262 230.883,259.421 230.883,327.087 228.729,326.927 "/>
<polygon id="XMLID_184_" fill="#003241" points="224.471,258.946 226.625,259.106 226.625,326.772 224.471,326.612 "/>
<polygon id="XMLID_185_" fill="#003241" points="220.214,258.63 222.368,258.791 222.368,326.458 220.214,326.296 "/>
<polygon id="XMLID_186_" fill="#003241" points="215.956,258.315 218.11,258.475 218.11,326.141 215.956,325.981 "/>
<polygon id="XMLID_187_" fill="#003241" points="107.898,270.111 107.898,301.722 139.51,301.722 139.51,270.111 133.968,270.111 
	133.968,241.783 112.969,241.783 112.969,270.111 "/>
<path id="XMLID_188_" fill="#014651" d="M107.412,268.834v57.42h32.922v-57.42h-4.467V240.78c-2.572-0.523-5.302-2.611-7.116-5.764
	c-0.675-1.174-1.159-2.384-1.458-3.569h-6.669c-0.303,1.117-0.762,2.253-1.397,3.356c-1.868,3.247-4.708,5.373-7.348,5.813v28.218
	H107.412z M131.927,291.973v-6.344c0-1.57,1.272-2.844,2.843-2.844c1.652,0,2.99,1.339,2.99,2.99v6.197
	C135.797,291.973,134.141,291.973,131.927,291.973L131.927,291.973z M131.928,280.745v-6.305c0-1.593,1.291-2.884,2.883-2.884
	c1.629,0,2.95,1.32,2.95,2.949v6.239C135.547,280.745,133.89,280.745,131.928,280.745L131.928,280.745z M124.344,291.973v-6.299
	c0-1.596,1.292-2.889,2.888-2.889c1.627,0,2.946,1.318,2.946,2.946v6.241C128.214,291.973,126.557,291.973,124.344,291.973
	L124.344,291.973z M124.344,280.745v-6.284c0-1.604,1.299-2.904,2.904-2.904c1.618,0,2.929,1.312,2.929,2.93v6.259
	C127.963,280.745,126.306,280.745,124.344,280.745L124.344,280.745z M116.761,285.619c0-1.565,1.268-2.833,2.832-2.833
	c1.658,0,3.001,1.343,3.001,3v6.188c-1.964,0-3.618,0-5.833,0V285.619z M116.761,280.745v-6.289c0-1.602,1.297-2.899,2.898-2.899
	c1.622,0,2.935,1.314,2.935,2.935v6.254C120.38,280.745,118.723,280.745,116.761,280.745L116.761,280.745z M109.178,291.973v-6.335
	c0-1.575,1.276-2.853,2.853-2.853c1.646,0,2.98,1.335,2.98,2.98v6.207C113.074,291.973,111.369,291.973,109.178,291.973
	L109.178,291.973z M109.177,280.745v-6.294c0-1.599,1.295-2.895,2.894-2.895c1.624,0,2.94,1.317,2.94,2.939v6.249
	C112.797,280.745,111.14,280.745,109.177,280.745L109.177,280.745z"/>
<path id="XMLID_195_" opacity="0.15" enable-background="new    " d="M118.133,236.417h11.546c-0.327-0.443-0.642-0.903-0.928-1.399
	c-0.675-1.175-1.159-2.385-1.458-3.569h-6.669c-0.303,1.117-0.762,2.253-1.397,3.356
	C118.893,235.382,118.521,235.911,118.133,236.417L118.133,236.417z"/>
<path fill="#014651" d="M119.323,232.17c0,0.62,0.186,1.204,0.509,1.721h8.064c0.006,0,0.011,0.001,0.018,0.001
	c0.324-0.517,0.51-1.101,0.51-1.722c0-1.535-2.488-3.402-3.782-5.48c-0.166-0.264-0.454-0.425-0.766-0.425h-0.015
	c-0.305,0-0.589,0.158-0.751,0.418C121.816,228.765,119.322,230.634,119.323,232.17z"/>
<rect x="107.412" y="296.775" fill="#014651" width="32.922" height="25.908"/>
<rect x="107.412" y="296.775" opacity="0.15" enable-background="new    " width="32.922" height="1.993"/>
<path fill="#003241" d="M115.646,308.053v18.201h17.006v-18.201c0-4.696-3.806-8.504-8.503-8.504
	C119.454,299.549,115.646,303.356,115.646,308.053L115.646,308.053z"/>
<line id="XMLID_214_" fill="none" stroke="#007082" stroke-miterlimit="10" x1="126.142" y1="314.431" x2="126.142" y2="311.375"/>
<line id="XMLID_215_" fill="none" stroke="#007082" stroke-miterlimit="10" x1="122.156" y1="314.431" x2="122.156" y2="311.375"/>
<path id="XMLID_216_" fill="#003B49" d="M123.581,299.579v26.676h1.136v-26.676c-0.188-0.013-0.376-0.029-0.568-0.029
	C123.957,299.549,123.77,299.566,123.581,299.579z"/>
<rect x="104.645" y="322.683" fill="#014651" width="38.53" height="3.572"/>
<rect x="106.504" y="267.811" fill="#003B49" width="35.076" height="1.062"/>
<path fill="none" stroke="#007082" stroke-miterlimit="10" d="M131.989,280.745h5.729v-6.366c0-1.582-1.282-2.864-2.865-2.864
	c-1.582,0-2.864,1.282-2.864,2.864V280.745z"/>
<line id="XMLID_218_" fill="none" stroke="#007082" stroke-miterlimit="10" x1="134.853" y1="280.745" x2="134.853" y2="271.556"/>
<line id="XMLID_221_" fill="none" stroke="#007082" stroke-miterlimit="10" x1="132.031" y1="277.941" x2="137.76" y2="277.941"/>
<line id="XMLID_222_" fill="none" stroke="#007082" stroke-miterlimit="10" x1="132.031" y1="275.285" x2="137.76" y2="275.285"/>
<path fill="none" stroke="#007082" stroke-miterlimit="10" d="M124.416,280.766h5.729V274.4c0-1.582-1.283-2.864-2.865-2.864
	c-1.583,0-2.864,1.282-2.864,2.864V280.766z"/>
<line id="XMLID_224_" fill="none" stroke="#007082" stroke-miterlimit="10" x1="127.28" y1="280.764" x2="127.28" y2="271.578"/>
<line id="XMLID_227_" fill="none" stroke="#007082" stroke-miterlimit="10" x1="124.458" y1="277.962" x2="130.187" y2="277.962"/>
<line id="XMLID_228_" fill="none" stroke="#007082" stroke-miterlimit="10" x1="124.458" y1="275.305" x2="130.187" y2="275.305"/>
<path id="XMLID_230_" fill="#003241" d="M126.13,259.358v5.156h4.892v-5.156c0-1.349-1.097-2.446-2.446-2.446
	C127.227,256.912,126.13,258.009,126.13,259.358z"/>
<path id="XMLID_232_" fill="none" stroke="#007082" stroke-miterlimit="10" d="M116.651,259.358v5.156h4.892v-5.156
	c0-1.349-1.097-2.446-2.445-2.446C117.749,256.912,116.652,258.009,116.651,259.358z"/>
<path id="XMLID_234_" fill="#003241" d="M125.998,248.467v5.155h4.894v-5.155c0-1.349-1.097-2.446-2.446-2.446
	C127.097,246.021,125.999,247.119,125.998,248.467z"/>
<path id="XMLID_236_" fill="#003241" d="M116.52,248.467v5.155h4.893v-5.155c0-1.349-1.097-2.446-2.446-2.446
	C117.619,246.021,116.521,247.119,116.52,248.467z"/>
<path fill="none" stroke="#007082" stroke-miterlimit="10" d="M126.356,259.359v4.928h4.437v-4.928c0-1.225-0.992-2.218-2.218-2.218
	c-1.224,0-2.217,0.992-2.217,2.218H126.356z"/>
<line id="XMLID_239_" fill="none" stroke="#007082" stroke-miterlimit="10" x1="128.576" y1="264.287" x2="128.576" y2="257.172"/>
<line id="XMLID_242_" fill="none" stroke="#007082" stroke-miterlimit="10" x1="126.391" y1="262.117" x2="130.828" y2="262.117"/>
<line id="XMLID_243_" fill="none" stroke="#007082" stroke-miterlimit="10" x1="126.391" y1="260.059" x2="130.828" y2="260.059"/>
<path fill="#003241" d="M116.879,259.359v4.928h4.436v-4.928c0-1.225-0.992-2.218-2.217-2.218S116.88,258.133,116.879,259.359
	L116.879,259.359z"/>
<line id="XMLID_245_" fill="none" stroke="#007082" stroke-miterlimit="10" x1="119.098" y1="264.287" x2="119.098" y2="257.172"/>
<line id="XMLID_248_" fill="none" stroke="#007082" stroke-miterlimit="10" x1="116.913" y1="262.117" x2="121.35" y2="262.117"/>
<line id="XMLID_249_" fill="none" stroke="#007082" stroke-miterlimit="10" x1="116.913" y1="260.059" x2="121.35" y2="260.059"/>
<path fill="none" stroke="#007082" stroke-miterlimit="10" d="M126.227,248.467v4.929h4.437v-4.929c0-1.224-0.993-2.218-2.218-2.218
	C127.221,246.25,126.227,247.243,126.227,248.467L126.227,248.467z"/>
<line id="XMLID_251_" fill="none" stroke="#007082" stroke-miterlimit="10" x1="128.445" y1="253.396" x2="128.445" y2="246.283"/>
<line id="XMLID_254_" fill="none" stroke="#007082" stroke-miterlimit="10" x1="126.26" y1="251.227" x2="130.696" y2="251.227"/>
<line id="XMLID_255_" fill="none" stroke="#007082" stroke-miterlimit="10" x1="126.26" y1="249.168" x2="130.696" y2="249.168"/>
<path fill="none" stroke="#007082" stroke-miterlimit="10" d="M116.749,248.467v4.929h4.437v-4.929c0-1.224-0.993-2.218-2.218-2.218
	S116.749,247.243,116.749,248.467L116.749,248.467z"/>
<line id="XMLID_257_" fill="none" stroke="#007082" stroke-miterlimit="10" x1="118.967" y1="253.396" x2="118.967" y2="246.283"/>
<line id="XMLID_260_" fill="none" stroke="#007082" stroke-miterlimit="10" x1="116.782" y1="251.227" x2="121.218" y2="251.227"/>
<line id="XMLID_261_" fill="none" stroke="#007082" stroke-miterlimit="10" x1="116.782" y1="249.168" x2="121.218" y2="249.168"/>
<path fill="none" stroke="#007082" stroke-miterlimit="10" d="M116.809,280.745h5.73v-6.366c0-1.582-1.283-2.864-2.865-2.864
	s-2.865,1.282-2.865,2.864V280.745z"/>
<line id="XMLID_263_" fill="none" stroke="#007082" stroke-miterlimit="10" x1="119.674" y1="280.745" x2="119.674" y2="271.556"/>
<line id="XMLID_266_" fill="none" stroke="#007082" stroke-miterlimit="10" x1="116.851" y1="277.941" x2="122.581" y2="277.941"/>
<line id="XMLID_267_" fill="none" stroke="#007082" stroke-miterlimit="10" x1="116.851" y1="275.285" x2="122.581" y2="275.285"/>
<path fill="none" stroke="#007082" stroke-miterlimit="10" d="M109.203,280.787h5.729v-6.365c0-1.582-1.282-2.865-2.865-2.865
	c-1.582,0-2.865,1.283-2.865,2.865V280.787z"/>
<line id="XMLID_269_" fill="none" stroke="#007082" stroke-miterlimit="10" x1="112.067" y1="280.786" x2="112.067" y2="271.599"/>
<line id="XMLID_272_" fill="none" stroke="#007082" stroke-miterlimit="10" x1="109.245" y1="277.984" x2="114.974" y2="277.984"/>
<line id="XMLID_273_" fill="none" stroke="#007082" stroke-miterlimit="10" x1="109.245" y1="275.327" x2="114.974" y2="275.327"/>
<path fill="none" stroke="#007082" stroke-miterlimit="10" d="M131.946,291.942h5.73v-6.364c0-1.583-1.283-2.865-2.865-2.865
	c-1.582,0-2.865,1.283-2.865,2.865V291.942z"/>
<line id="XMLID_275_" fill="none" stroke="#007082" stroke-miterlimit="10" x1="134.811" y1="291.942" x2="134.811" y2="282.755"/>
<line id="XMLID_278_" fill="none" stroke="#007082" stroke-miterlimit="10" x1="131.989" y1="289.139" x2="137.718" y2="289.139"/>
<line id="XMLID_279_" fill="none" stroke="#007082" stroke-miterlimit="10" x1="131.989" y1="286.482" x2="137.718" y2="286.482"/>
<path fill="none" stroke="#007082" stroke-miterlimit="10" d="M124.373,291.963h5.729v-6.365c0-1.583-1.282-2.864-2.864-2.864
	c-1.582,0-2.865,1.281-2.865,2.864V291.963z"/>
<line id="XMLID_281_" fill="none" stroke="#007082" stroke-miterlimit="10" x1="127.238" y1="291.963" x2="127.238" y2="282.776"/>
<line id="XMLID_284_" fill="none" stroke="#007082" stroke-miterlimit="10" x1="124.416" y1="289.161" x2="130.145" y2="289.161"/>
<line id="XMLID_285_" fill="none" stroke="#007082" stroke-miterlimit="10" x1="124.416" y1="286.504" x2="130.145" y2="286.504"/>
<path fill="none" stroke="#007082" stroke-miterlimit="10" d="M116.767,291.942h5.729v-6.364c0-1.583-1.283-2.865-2.865-2.865
	c-1.583,0-2.864,1.283-2.864,2.865V291.942z"/>
<line id="XMLID_287_" fill="none" stroke="#007082" stroke-miterlimit="10" x1="119.631" y1="291.942" x2="119.631" y2="282.755"/>
<line id="XMLID_290_" fill="none" stroke="#007082" stroke-miterlimit="10" x1="116.809" y1="289.139" x2="122.539" y2="289.139"/>
<line id="XMLID_291_" fill="none" stroke="#007082" stroke-miterlimit="10" x1="116.809" y1="286.482" x2="122.539" y2="286.482"/>
<path fill="none" stroke="#007082" stroke-miterlimit="10" d="M109.161,291.984h5.729v-6.364c0-1.583-1.282-2.865-2.865-2.865
	c-1.582,0-2.864,1.282-2.864,2.865V291.984z"/>
<line id="XMLID_293_" fill="none" stroke="#007082" stroke-miterlimit="10" x1="112.025" y1="291.984" x2="112.025" y2="282.796"/>
<line id="XMLID_296_" fill="none" stroke="#007082" stroke-miterlimit="10" x1="109.203" y1="289.181" x2="114.932" y2="289.181"/>
<line id="XMLID_297_" fill="none" stroke="#007082" stroke-miterlimit="10" x1="109.203" y1="286.524" x2="114.932" y2="286.524"/>
<rect x="106.504" y="293.719" fill="#007082" width="35.076" height="3.056"/>
<rect x="135.703" y="238.182" fill="#007082" width="2.032" height="29.629"/>
<rect x="111.878" y="265.418" opacity="0.15" enable-background="new    " width="23.989" height="3.416"/>
<rect x="109.822" y="243.364" opacity="0.15" enable-background="new    " width="27.938" height="1.735"/>
<circle id="XMLID_298_" fill="#007082" cx="136.719" cy="238.182" r="1.867"/>
<rect x="109.996" y="238.182" fill="#007082" width="2.031" height="29.629"/>
<circle id="XMLID_299_" fill="#007082" cx="111.012" cy="238.182" r="1.868"/>
<line id="XMLID_300_" fill="none" stroke="#007082" stroke-miterlimit="10" x1="119.822" y1="233.644" x2="128.058" y2="233.644"/>
<rect x="109.246" y="241.072" fill="#003B49" width="29.341" height="2.292"/>
<rect x="145.005" y="284.696" fill="#00666B" width="55.885" height="41.601"/>
<rect x="145.249" y="295.789" fill="#005760" width="55.641" height="30.508"/>
<rect x="145.249" y="288.982" fill="#005760" width="55.641" height="3.087"/>
<rect x="190.5" y="299.488" fill="#038787" width="3.073" height="6.529"/>
<rect x="184.985" y="299.488" fill="#038787" width="3.073" height="6.529"/>
<rect x="179.469" y="299.488" fill="#038787" width="3.074" height="6.529"/>
<rect x="173.953" y="299.488" fill="#038787" width="3.074" height="6.529"/>
<rect x="168.438" y="299.488" fill="#038787" width="3.073" height="6.529"/>
<rect x="162.923" y="299.488" fill="#038787" width="3.073" height="6.529"/>
<rect x="157.407" y="299.488" fill="#038787" width="3.073" height="6.529"/>
<rect x="151.892" y="299.488" fill="#038787" width="3.073" height="6.529"/>
<rect x="190.5" y="307.555" fill="#038787" width="3.073" height="6.528"/>
<rect x="184.985" y="307.555" fill="#038787" width="3.073" height="6.528"/>
<rect x="179.469" y="307.555" fill="#038787" width="3.074" height="6.528"/>
<rect x="173.953" y="307.555" fill="#038787" width="3.074" height="6.528"/>
<rect x="168.438" y="307.555" fill="#038787" width="3.073" height="6.528"/>
<rect x="162.923" y="307.555" fill="#038787" width="3.073" height="6.528"/>
<rect x="157.407" y="307.555" fill="#038787" width="3.073" height="6.528"/>
<rect x="151.892" y="307.555" fill="#038787" width="3.073" height="6.528"/>
<rect x="190.5" y="315.623" fill="#038787" width="3.073" height="6.528"/>
<rect x="184.985" y="315.623" fill="#038787" width="3.073" height="6.528"/>
<rect x="179.469" y="315.623" fill="#038787" width="3.074" height="6.528"/>
<rect x="173.953" y="315.623" fill="#038787" width="3.074" height="6.528"/>
<rect x="168.438" y="315.623" fill="#038787" width="3.073" height="6.528"/>
<rect x="162.923" y="315.623" fill="#038787" width="3.073" height="6.528"/>
<rect x="157.407" y="315.623" fill="#038787" width="3.073" height="6.528"/>
<rect x="151.892" y="315.623" fill="#038787" width="3.073" height="6.528"/>
<polygon id="XMLID_302_" fill="#004656" points="202.738,261.855 229.731,267.486 229.731,316.769 202.738,316.769 "/>
<path id="XMLID_303_" fill="#025B5B" d="M200.89,258.159v68.138h28.841v-60.928L200.89,258.159z M208.334,266.32h-3.475v-3.474
	h3.475V266.32z M208.334,272.087h-3.475v-3.474h3.475V272.087z M208.334,277.878h-3.475v-3.475h3.475V277.878z M208.334,283.668
	h-3.475v-3.475h3.475V283.668z M222.331,303.289h3.474v3.475h-3.474V303.289z M222.331,297.565h3.474v3.474h-3.474V297.565z
	 M222.331,291.774h3.474v3.475h-3.474V291.774z M222.331,285.984h3.474v3.475h-3.474V285.984z M222.331,280.194h3.474v3.475h-3.474
	V280.194z M222.331,274.404h3.474v3.475h-3.474V274.404z M222.331,268.614h3.474v3.474h-3.474V268.614z M216.396,309.079h3.474
	v3.475h-3.474V309.079z M216.396,303.289h3.474v3.475h-3.474V303.289z M216.396,297.565h3.474v3.474h-3.474V297.565z
	 M216.396,291.774h3.474v3.475h-3.474V291.774z M216.396,285.984h3.474v3.475h-3.474V285.984z M216.396,280.194h3.474v3.475h-3.474
	V280.194z M216.396,274.404h3.474v3.475h-3.474V274.404z M216.396,268.614h3.474v3.474h-3.474V268.614z M214.269,272.087h-3.475
	v-3.474h3.475V272.087z M210.751,309.079h3.474v3.475h-3.474V309.079z M210.751,303.289h3.474v3.475h-3.474V303.289z
	 M210.751,297.565h3.474v3.474h-3.474V297.565z M210.751,291.774h3.474v3.475h-3.474V291.774z M210.751,285.984h3.474v3.475h-3.474
	V285.984z M210.628,280.194h3.474v3.475h-3.474V280.194z M210.628,274.404h3.474v3.475h-3.474V274.404z M208.457,289.458h-3.475
	v-3.475h3.475V289.458z M204.816,309.101h3.474v3.475h-3.474V309.101z M204.816,303.311h3.474v3.475h-3.474V303.311z
	 M204.816,297.565h3.474v3.474h-3.474V297.565z M204.816,291.774h3.474v3.475h-3.474V291.774z"/>
<rect x="193.573" y="284.696" opacity="0.4" enable-background="new    " width="7.317" height="41.601"/>
<rect x="143.293" y="284.002" fill="#038787" width="57.597" height="1.73"/>
<rect x="262.566" y="270.1" fill="#00797F" width="22.019" height="36.761"/>
<path id="XMLID_337_" fill="#03535B" d="M261.569,266.663v59.934h25.369v-59.934H261.569z M268.079,304.379h-3.056v-3.056h3.056
	V304.379z M268.079,299.287h-3.056v-3.057h3.056V299.287z M268.079,294.194h-3.056v-3.056h3.056V294.194z M268.079,289.1h-3.056
	v-3.056h3.056V289.1z M268.079,284.007h-3.056v-3.057h3.056V284.007z M268.079,278.914h-3.056v-3.056h3.056V278.914z
	 M268.079,273.821h-3.056v-3.056h3.056V273.821z M273.299,304.379h-3.056v-3.056h3.056V304.379z M273.299,299.287h-3.056v-3.057
	h3.056V299.287z M273.299,294.194h-3.056v-3.056h3.056V294.194z M273.299,289.1h-3.056v-3.056h3.056V289.1z M273.299,284.007h-3.056
	v-3.057h3.056V284.007z M273.299,278.914h-3.056v-3.056h3.056V278.914z M273.299,273.821h-3.056v-3.056h3.056V273.821z
	 M278.265,304.379h-3.056v-3.056h3.056V304.379z M278.265,299.287h-3.056v-3.057h3.056V299.287z M278.265,294.194h-3.056v-3.056
	h3.056V294.194z M283.485,304.379h-3.055v-3.056h3.055V304.379z M283.485,299.287h-3.055v-3.057h3.055V299.287z"/>
<path fill="#003E4C" d="M268.478,314.397v12.362h11.551v-12.362c0-3.19-2.585-5.776-5.775-5.776
	C271.064,308.621,268.479,311.207,268.478,314.397L268.478,314.397z"/>
<line id="XMLID_362_" fill="none" stroke="#047272" stroke-miterlimit="10" x1="275.607" y1="318.728" x2="275.607" y2="316.652"/>
<line id="XMLID_363_" fill="none" stroke="#047272" stroke-miterlimit="10" x1="272.9" y1="318.728" x2="272.9" y2="316.652"/>
<rect x="288.129" y="236.424" fill="#014651" width="20.534" height="49.693"/>
<rect id="XMLID_368_" x="303.185" y="214.403" fill="#014651" width="1.802" height="17.71"/>
<rect id="XMLID_371_" x="292.023" y="221.006" fill="#014651" width="1.801" height="11.105"/>
<rect x="299.508" y="230.461" fill="#003E4C" width="9.155" height="5.963"/>
<rect x="290.09" y="230.461" fill="#003E4C" width="5.665" height="5.665"/>
<path id="XMLID_376_" fill="#014651" d="M286.601,235.51l0.251,90.795h24.538l-0.251-90.795H286.601z M305.174,252.224h2.701v2.701
	h-2.701V252.224z M305.174,247.721h2.701v2.701h-2.701V247.721z M305.174,243.218h2.701v2.701h-2.701V243.218z M305.174,238.716
	h2.701v2.7h-2.701V238.716z M299.873,238.688h1.8v8.104h-1.8V238.688z M296.528,238.688h1.801v8.104h-1.801V238.688z
	 M293.183,238.688h1.802v8.104h-1.802V238.688z M289.838,238.688h1.801v8.104h-1.801V238.688z"/>
<path fill="#00AAA5" d="M301.086,272.602v-9.77c0-0.371,0.302-0.673,0.674-0.673h4.43c0.372,0,0.674,0.302,0.674,0.673v9.77
	c0,0.371-0.302,0.673-0.674,0.673h-4.43C301.388,273.275,301.086,272.973,301.086,272.602z"/>
<path id="XMLID_387_" opacity="0.2" enable-background="new    " d="M301.086,262.721v9.989c0,0.312,0.253,0.564,0.564,0.564h0.854
	c-0.075-0.097-0.127-0.212-0.127-0.343v-9.989c0-0.312,0.251-0.563,0.563-0.563h3.795c-0.103-0.131-0.256-0.221-0.436-0.221h-4.65
	C301.339,262.159,301.086,262.412,301.086,262.721z"/>
<path fill="none" stroke="#047272" stroke-miterlimit="10" d="M301.086,262.833c0-0.372,0.302-0.674,0.674-0.674h4.43
	c0.372,0,0.674,0.302,0.674,0.674v10.442h-5.777V262.833z"/>
<path id="XMLID_388_" fill="#047272" d="M305.265,261.998c-0.026-0.691-0.592-1.245-1.29-1.245c-0.699,0-1.264,0.554-1.292,1.245
	H305.265z"/>
<rect x="301.086" y="266.793" fill="#047272" width="5.776" height="1.144"/>
<rect x="299.979" y="272.427" fill="#047272" width="7.915" height="1.145"/>
<polygon opacity="0.2" enable-background="new    " points="299.979,273.571 307.894,273.571 306.878,274.842 298.962,274.842 "/>
<path fill="#00AAA5" d="M291.022,272.521v-9.769c0-0.372,0.301-0.673,0.673-0.673h4.43c0.371,0,0.672,0.301,0.672,0.673v9.769
	c0,0.371-0.301,0.673-0.672,0.673h-4.43C291.324,273.194,291.022,272.892,291.022,272.521z"/>
<rect x="291.025" y="261.998" fill="#003E4C" width="5.774" height="2.243"/>
<path id="XMLID_403_" opacity="0.2" enable-background="new    " d="M291.022,262.64v9.99c0,0.311,0.252,0.562,0.563,0.562h0.855
	c-0.075-0.095-0.127-0.21-0.127-0.342v-9.989c0-0.311,0.252-0.563,0.563-0.563h3.794c-0.103-0.132-0.256-0.219-0.436-0.219h-4.65
	C291.274,262.08,291.022,262.331,291.022,262.64z"/>
<path fill="none" stroke="#047272" stroke-miterlimit="10" d="M291.022,262.751c0-0.372,0.301-0.672,0.673-0.672h4.43
	c0.371,0,0.672,0.3,0.672,0.672v10.442h-5.776V262.751z"/>
<path id="XMLID_404_" fill="#047272" d="M295.201,261.917c-0.027-0.691-0.592-1.245-1.291-1.245c-0.698,0-1.264,0.554-1.291,1.245
	H295.201z"/>
<rect x="291.023" y="266.713" fill="#047272" width="5.776" height="1.144"/>
<rect x="289.915" y="272.347" fill="#047272" width="7.915" height="1.144"/>
<polygon opacity="0.2" enable-background="new    " points="289.915,273.491 297.83,273.491 296.813,274.761 288.898,274.761 "/>
<path fill="#00AAA5" d="M301.086,292.836v-9.77c0-0.371,0.302-0.673,0.674-0.673h4.43c0.372,0,0.674,0.302,0.674,0.673v9.77
	c0,0.372-0.302,0.672-0.674,0.672h-4.43C301.388,293.508,301.086,293.208,301.086,292.836z"/>
<rect x="301.088" y="282.313" fill="#003E4C" width="5.774" height="3.52"/>
<path id="XMLID_419_" opacity="0.2" enable-background="new    " d="M301.086,282.957v9.989c0,0.312,0.253,0.562,0.564,0.562h0.854
	c-0.075-0.095-0.127-0.211-0.127-0.342v-9.989c0-0.311,0.251-0.562,0.563-0.562h3.795c-0.103-0.132-0.256-0.221-0.436-0.221h-4.65
	C301.339,282.394,301.086,282.646,301.086,282.957z"/>
<path fill="none" stroke="#047272" stroke-miterlimit="10" d="M301.086,283.067c0-0.371,0.302-0.673,0.674-0.673h4.43
	c0.372,0,0.674,0.302,0.674,0.673v10.441h-5.777V283.067z"/>
<path id="XMLID_420_" fill="#047272" d="M305.265,282.233c-0.026-0.692-0.592-1.246-1.29-1.246c-0.699,0-1.264,0.554-1.292,1.246
	H305.265z"/>
<rect x="301.086" y="287.029" fill="#047272" width="5.776" height="1.144"/>
<rect x="299.979" y="292.662" fill="#047272" width="7.915" height="1.144"/>
<polygon opacity="0.2" enable-background="new    " points="299.979,293.805 307.894,293.805 306.878,295.077 298.962,295.077 "/>
<path fill="#00AAA5" d="M291.022,292.755v-9.769c0-0.372,0.301-0.674,0.673-0.674h4.43c0.371,0,0.672,0.302,0.672,0.674v9.769
	c0,0.372-0.301,0.674-0.672,0.674h-4.43C291.324,293.429,291.022,293.127,291.022,292.755z"/>
<rect x="291.025" y="282.232" fill="#003E4C" width="5.774" height="6.607"/>
<path id="XMLID_435_" opacity="0.2" enable-background="new    " d="M291.022,282.875v9.989c0,0.312,0.252,0.563,0.563,0.563h0.855
	c-0.075-0.097-0.127-0.211-0.127-0.343v-9.988c0-0.312,0.252-0.563,0.563-0.563h3.794c-0.103-0.131-0.256-0.221-0.436-0.221h-4.65
	C291.274,282.313,291.022,282.565,291.022,282.875z"/>
<path fill="none" stroke="#047272" stroke-miterlimit="10" d="M291.022,282.986c0-0.371,0.301-0.673,0.673-0.673h4.43
	c0.371,0,0.672,0.302,0.672,0.673v10.443h-5.776V282.986z"/>
<path id="XMLID_436_" fill="#047272" d="M295.201,282.152c-0.027-0.691-0.592-1.245-1.291-1.245c-0.698,0-1.264,0.554-1.291,1.245
	H295.201z"/>
<rect x="291.023" y="286.948" fill="#047272" width="5.776" height="1.144"/>
<rect x="289.915" y="292.582" fill="#047272" width="7.915" height="1.144"/>
<polygon opacity="0.2" enable-background="new    " points="289.915,293.725 297.83,293.725 296.813,294.996 288.898,294.996 "/>
<path fill="#00AAA5" d="M301.071,309.482v-9.77c0-0.371,0.301-0.673,0.673-0.673h4.431c0.371,0,0.672,0.302,0.672,0.673v9.77
	c0,0.371-0.301,0.673-0.672,0.673h-4.431C301.373,310.155,301.071,309.853,301.071,309.482z"/>
<path id="XMLID_451_" opacity="0.2" enable-background="new    " d="M301.071,299.602v9.988c0,0.312,0.252,0.563,0.563,0.563h0.855
	c-0.075-0.095-0.127-0.211-0.127-0.342v-9.989c0-0.311,0.252-0.563,0.563-0.563h3.794c-0.103-0.131-0.256-0.221-0.436-0.221h-4.65
	C301.324,299.039,301.071,299.292,301.071,299.602z"/>
<path fill="none" stroke="#047272" stroke-miterlimit="10" d="M301.071,299.712c0-0.372,0.301-0.674,0.673-0.674h4.43
	c0.371,0,0.673,0.302,0.673,0.674v10.442h-5.776V299.712z"/>
<path id="XMLID_452_" fill="#047272" d="M305.25,298.878c-0.027-0.691-0.592-1.245-1.291-1.245c-0.699,0-1.264,0.554-1.291,1.245
	H305.25z"/>
<rect x="301.071" y="303.673" fill="#047272" width="5.776" height="1.145"/>
<rect x="299.963" y="309.308" fill="#047272" width="7.915" height="1.144"/>
<polygon opacity="0.2" enable-background="new    " points="299.963,310.452 307.878,310.452 306.861,311.722 298.946,311.722 "/>
<path fill="#00AAA5" d="M291.007,309.402v-9.769c0-0.372,0.302-0.674,0.674-0.674h4.43c0.372,0,0.673,0.302,0.673,0.674v9.769
	c0,0.371-0.301,0.673-0.673,0.673h-4.43C291.309,310.075,291.007,309.773,291.007,309.402z"/>
<path id="XMLID_467_" opacity="0.2" enable-background="new    " d="M291.007,299.521v9.99c0,0.311,0.252,0.562,0.564,0.562h0.855
	c-0.075-0.096-0.127-0.21-0.127-0.342v-9.989c0-0.312,0.251-0.563,0.563-0.563h3.795c-0.103-0.132-0.256-0.22-0.436-0.22h-4.649
	C291.259,298.959,291.007,299.211,291.007,299.521z"/>
<path fill="none" stroke="#047272" stroke-miterlimit="10" d="M291.007,299.631c0-0.37,0.302-0.672,0.674-0.672h4.43
	c0.372,0,0.673,0.302,0.673,0.672v10.443h-5.776V299.631z"/>
<path id="XMLID_468_" fill="#047272" d="M295.187,298.797c-0.028-0.691-0.593-1.245-1.291-1.245c-0.699,0-1.264,0.554-1.291,1.245
	H295.187z"/>
<rect x="291.007" y="303.594" fill="#047272" width="5.776" height="1.144"/>
<rect x="289.9" y="309.227" fill="#047272" width="7.914" height="1.145"/>
<polygon opacity="0.2" enable-background="new    " points="289.9,310.372 297.814,310.372 296.797,311.642 288.883,311.642 "/>
<rect x="285.175" y="275.062" fill="#03535B" width="27.841" height="2.146"/>
<path fill="#00AAA5" d="M300.919,252.588v-9.77c0-0.371,0.301-0.673,0.673-0.673h4.429c0.372,0,0.673,0.302,0.673,0.673v9.77
	c0,0.372-0.301,0.673-0.673,0.673h-4.429C301.222,253.261,300.92,252.96,300.919,252.588z"/>
<rect x="300.922" y="242.066" fill="#003E4C" width="5.774" height="6.608"/>
<path id="XMLID_483_" opacity="0.2" enable-background="new    " d="M300.919,242.708v9.99c0,0.311,0.252,0.562,0.563,0.562h0.855
	c-0.076-0.096-0.128-0.21-0.128-0.342v-9.989c0-0.312,0.252-0.563,0.563-0.563h3.795c-0.104-0.132-0.257-0.221-0.436-0.221h-4.65
	C301.172,242.146,300.92,242.399,300.919,242.708z"/>
<path fill="none" stroke="#047272" stroke-miterlimit="10" d="M300.92,242.819c0-0.372,0.302-0.673,0.673-0.673h4.431
	c0.371,0,0.672,0.301,0.672,0.673v10.442h-5.776V242.819z"/>
<path id="XMLID_484_" fill="#047272" d="M305.098,241.985c-0.027-0.692-0.593-1.245-1.291-1.245s-1.264,0.553-1.291,1.245H305.098z"
	/>
<rect x="300.92" y="246.78" fill="#047272" width="5.776" height="1.145"/>
<rect x="299.812" y="252.415" fill="#047272" width="7.915" height="1.144"/>
<polygon opacity="0.2" enable-background="new    " points="299.812,253.558 307.727,253.558 306.71,254.83 298.795,254.83 "/>
<path fill="#E2CB85" d="M290.856,252.508v-9.769c0-0.373,0.301-0.674,0.673-0.674h4.43c0.372,0,0.673,0.301,0.673,0.674v9.769
	c0,0.372-0.301,0.673-0.673,0.673h-4.43C291.157,253.181,290.856,252.88,290.856,252.508z"/>
<rect x="290.858" y="241.985" fill="#003E4C" width="5.774" height="10.307"/>
<path id="XMLID_499_" opacity="0.2" enable-background="new    " d="M290.856,242.628v9.989c0,0.311,0.251,0.563,0.563,0.563h0.855
	c-0.075-0.097-0.127-0.211-0.127-0.343v-9.989c0-0.312,0.252-0.562,0.563-0.562h3.795c-0.103-0.132-0.256-0.221-0.436-0.221h-4.649
	C291.108,242.066,290.856,242.317,290.856,242.628z"/>
<path fill="none" stroke="#047272" stroke-miterlimit="10" d="M290.856,242.739c0-0.372,0.301-0.673,0.673-0.673h4.43
	c0.372,0,0.673,0.301,0.673,0.673v10.442h-5.775V242.739z"/>
<path id="XMLID_500_" fill="#047272" d="M295.035,241.904c-0.027-0.691-0.593-1.245-1.291-1.245c-0.699,0-1.264,0.554-1.292,1.245
	H295.035z"/>
<rect x="290.856" y="246.7" fill="#047272" width="5.775" height="1.145"/>
<rect x="289.749" y="252.334" fill="#047272" width="7.914" height="1.144"/>
<polygon opacity="0.2" enable-background="new    " points="289.749,253.478 297.663,253.478 296.646,254.749 288.732,254.749 "/>
<rect x="285.075" y="254.963" fill="#03535B" width="27.841" height="2.147"/>
<rect x="285.075" y="295.055" fill="#03535B" width="27.841" height="2.147"/>
<rect x="286.852" y="318.97" fill="#003E4C" width="24.538" height="7.334"/>
<rect x="239.794" y="236.629" fill="#014651" width="20.534" height="49.693"/>
<path id="XMLID_517_" fill="#014651" d="M225.437,235.715l0.251,90.795h24.538l-0.251-90.795H225.437z M244.01,252.429h2.701v2.701
	h-2.701V252.429z M244.01,247.927h2.701v2.701h-2.701V247.927z M244.01,243.424h2.701v2.701h-2.701V243.424z M244.01,238.921h2.701
	v2.703h-2.701V238.921z M238.708,238.894h1.801V247h-1.801V238.894z M235.364,238.894h1.8V247h-1.8V238.894z M232.019,238.894h1.801
	V247h-1.801V238.894z M228.675,238.894h1.801V247h-1.801V238.894z"/>
<path fill="#00AAA5" d="M247.371,272.808v-9.77c0-0.371-0.301-0.672-0.673-0.672h-4.429c-0.372,0-0.673,0.301-0.673,0.672v9.77
	c0,0.371,0.301,0.673,0.673,0.673h4.429C247.069,273.481,247.371,273.179,247.371,272.808z"/>
<rect x="241.595" y="262.285" fill="#003E4C" width="5.774" height="6.608"/>
<path id="XMLID_528_" opacity="0.2" enable-background="new    " d="M247.371,262.928v9.989c0,0.311-0.252,0.563-0.563,0.563h-0.855
	c0.075-0.096,0.127-0.211,0.127-0.343v-9.988c0-0.312-0.251-0.564-0.562-0.564h-3.795c0.103-0.131,0.256-0.221,0.436-0.221h4.65
	C247.119,262.365,247.371,262.618,247.371,262.928z"/>
<path fill="none" stroke="#047272" stroke-miterlimit="10" d="M247.371,273.481v-10.443c0-0.371-0.301-0.673-0.673-0.673h-4.429
	c-0.372,0-0.673,0.302-0.673,0.673v10.443H247.371L247.371,273.481z"/>
<path id="XMLID_529_" fill="#047272" d="M243.192,262.205c0.027-0.692,0.593-1.245,1.292-1.245c0.698,0,1.263,0.553,1.291,1.245
	H243.192z"/>
<rect x="241.595" y="267" fill="#047272" width="5.775" height="1.145"/>
<rect x="240.563" y="272.633" fill="#047272" width="7.915" height="1.145"/>
<polygon opacity="0.2" enable-background="new    " points="248.479,273.778 240.563,273.778 241.58,275.049 249.495,275.049 "/>
<path fill="#00AAA5" d="M257.435,272.727v-9.769c0-0.371-0.301-0.673-0.673-0.673h-4.43c-0.371,0-0.673,0.302-0.673,0.673v9.769
	c0,0.372,0.301,0.673,0.673,0.673h4.43C257.134,273.4,257.435,273.099,257.435,272.727z"/>
<rect x="251.659" y="262.205" fill="#003E4C" width="5.774" height="2.242"/>
<path id="XMLID_544_" opacity="0.2" enable-background="new    " d="M257.435,262.847v9.989c0,0.312-0.252,0.563-0.564,0.563h-0.855
	c0.076-0.096,0.127-0.211,0.127-0.343v-9.988c0-0.312-0.251-0.563-0.563-0.563h-3.795c0.104-0.131,0.257-0.221,0.436-0.221h4.649
	C257.183,262.285,257.435,262.538,257.435,262.847z"/>
<path fill="none" stroke="#047272" stroke-miterlimit="10" d="M257.435,262.958c0-0.372-0.301-0.673-0.673-0.673h-4.43
	c-0.371,0-0.673,0.301-0.673,0.673V273.4h5.776V262.958z"/>
<path id="XMLID_545_" fill="#047272" d="M253.256,262.124c0.028-0.691,0.593-1.245,1.291-1.245c0.699,0,1.264,0.554,1.291,1.245
	H253.256z"/>
<rect x="251.659" y="266.919" fill="#047272" width="5.776" height="1.144"/>
<rect x="250.628" y="272.553" fill="#047272" width="7.915" height="1.144"/>
<polygon opacity="0.2" enable-background="new    " points="258.542,273.697 250.627,273.697 251.645,274.968 259.559,274.968 "/>
<path fill="#00AAA5" d="M247.371,293.043v-9.77c0-0.372-0.301-0.673-0.673-0.673h-4.429c-0.372,0-0.673,0.301-0.673,0.673v9.77
	c0,0.371,0.301,0.673,0.673,0.673h4.429C247.069,293.716,247.371,293.415,247.371,293.043z"/>
<rect x="241.595" y="282.52" fill="#003E4C" width="5.774" height="3.519"/>
<path id="XMLID_560_" opacity="0.2" enable-background="new    " d="M247.371,283.164v9.988c0,0.312-0.252,0.563-0.563,0.563h-0.855
	c0.075-0.096,0.127-0.211,0.127-0.342v-9.989c0-0.312-0.251-0.564-0.562-0.564h-3.795c0.103-0.13,0.256-0.219,0.436-0.219h4.65
	C247.119,282.601,247.371,282.852,247.371,283.164z"/>
<path fill="none" stroke="#047272" stroke-miterlimit="10" d="M247.371,283.274c0-0.373-0.301-0.673-0.673-0.673h-4.43
	c-0.371,0-0.672,0.3-0.672,0.673v10.442h5.775V283.274z"/>
<path id="XMLID_561_" fill="#047272" d="M243.192,282.439c0.027-0.691,0.593-1.245,1.292-1.245c0.698,0,1.263,0.554,1.291,1.245
	H243.192z"/>
<rect x="241.595" y="287.235" fill="#047272" width="5.775" height="1.144"/>
<rect x="240.563" y="292.868" fill="#047272" width="7.915" height="1.145"/>
<polygon opacity="0.2" enable-background="new    " points="248.479,294.012 240.563,294.012 241.58,295.283 249.495,295.283 "/>
<path fill="#00AAA5" d="M257.435,292.962v-9.77c0-0.371-0.301-0.673-0.673-0.673h-4.43c-0.371,0-0.673,0.302-0.673,0.673v9.77
	c0,0.371,0.301,0.672,0.673,0.672h4.43C257.134,293.634,257.435,293.333,257.435,292.962z"/>
<rect x="251.659" y="282.439" fill="#003E4C" width="5.774" height="6.607"/>
<path id="XMLID_576_" opacity="0.2" enable-background="new    " d="M257.435,283.083v9.988c0,0.311-0.252,0.563-0.564,0.563h-0.855
	c0.076-0.095,0.127-0.211,0.127-0.342v-9.989c0-0.312-0.251-0.563-0.563-0.563h-3.795c0.104-0.131,0.257-0.22,0.436-0.22h4.649
	C257.183,282.52,257.435,282.772,257.435,283.083z"/>
<path fill="none" stroke="#047272" stroke-miterlimit="10" d="M257.435,283.192c0-0.37-0.301-0.672-0.673-0.672h-4.43
	c-0.371,0-0.673,0.302-0.673,0.672v10.442h5.776V283.192z"/>
<path id="XMLID_577_" fill="#047272" d="M253.256,282.359c0.028-0.692,0.593-1.246,1.291-1.246c0.699,0,1.264,0.554,1.291,1.246
	H253.256z"/>
<rect x="251.659" y="287.155" fill="#047272" width="5.776" height="1.144"/>
<rect x="250.628" y="292.788" fill="#047272" width="7.915" height="1.144"/>
<polygon opacity="0.2" enable-background="new    " points="258.542,293.931 250.627,293.931 251.645,295.203 259.559,295.203 "/>
<path fill="#00AAA5" d="M247.387,309.688v-9.769c0-0.372-0.301-0.674-0.673-0.674h-4.43c-0.371,0-0.672,0.302-0.672,0.674v9.769
	c0,0.372,0.301,0.673,0.672,0.673h4.43C247.085,310.361,247.387,310.06,247.387,309.688z"/>
<path id="XMLID_592_" opacity="0.2" enable-background="new    " d="M247.387,299.808v9.989c0,0.312-0.252,0.563-0.563,0.563h-0.854
	c0.075-0.097,0.127-0.211,0.127-0.343v-9.989c0-0.311-0.252-0.562-0.564-0.562h-3.794c0.103-0.132,0.255-0.221,0.436-0.221h4.649
	C247.135,299.246,247.387,299.498,247.387,299.808z"/>
<path fill="none" stroke="#047272" stroke-miterlimit="10" d="M247.387,299.918c0-0.372-0.301-0.673-0.673-0.673h-4.43
	c-0.371,0-0.672,0.301-0.672,0.673v10.442h5.776V299.918z"/>
<path id="XMLID_593_" fill="#047272" d="M243.208,299.085c0.026-0.692,0.592-1.246,1.291-1.246s1.263,0.554,1.291,1.246H243.208z"/>
<rect x="241.611" y="303.88" fill="#047272" width="5.776" height="1.145"/>
<rect x="240.58" y="309.514" fill="#047272" width="7.915" height="1.144"/>
<polygon opacity="0.2" enable-background="new    " points="248.494,310.658 240.579,310.658 241.596,311.928 249.511,311.928 "/>
<path fill="#00AAA5" d="M257.45,309.608v-9.77c0-0.372-0.301-0.673-0.673-0.673h-4.43c-0.372,0-0.673,0.301-0.673,0.673v9.77
	c0,0.371,0.301,0.673,0.673,0.673h4.43C257.149,310.281,257.45,309.979,257.45,309.608z"/>
<path id="XMLID_608_" opacity="0.2" enable-background="new    " d="M257.451,299.728v9.989c0,0.311-0.252,0.563-0.563,0.563h-0.855
	c0.075-0.097,0.127-0.211,0.127-0.343v-9.989c0-0.312-0.252-0.562-0.563-0.562h-3.795c0.104-0.132,0.256-0.221,0.436-0.221h4.65
	C257.198,299.166,257.45,299.417,257.451,299.728z"/>
<path fill="none" stroke="#047272" stroke-miterlimit="10" d="M257.451,299.837c0-0.372-0.302-0.673-0.673-0.673h-4.43
	c-0.372,0-0.673,0.301-0.673,0.673v10.442h5.776V299.837z"/>
<path id="XMLID_609_" fill="#047272" d="M253.271,299.003c0.027-0.69,0.593-1.244,1.292-1.244s1.263,0.554,1.291,1.244H253.271z"/>
<rect x="251.674" y="303.799" fill="#047272" width="5.775" height="1.144"/>
<rect x="250.643" y="309.434" fill="#047272" width="7.915" height="1.143"/>
<polygon opacity="0.2" enable-background="new    " points="258.558,310.577 250.643,310.577 251.659,311.848 259.574,311.848 "/>
<g>
	<polygon id="XMLID_612_" fill="#014651" points="256.234,309.434 252.846,309.434 252.337,308.036 256.743,308.036 	"/>
	<circle id="XMLID_613_" fill="#003241" cx="252.793" cy="308.068" r="0.667"/>
	<circle id="XMLID_614_" fill="#003241" cx="253.383" cy="307.485" r="0.55"/>
	<circle id="XMLID_615_" fill="#003241" cx="253.962" cy="308.064" r="0.578"/>
	<circle id="XMLID_616_" fill="#003241" cx="254.039" cy="307.062" r="0.501"/>
	<circle id="XMLID_617_" fill="#003241" cx="254.989" cy="308.01" r="0.526"/>
	<circle id="XMLID_619_" fill="#003241" cx="255.806" cy="308.036" r="0.389"/>
	<circle id="XMLID_620_" fill="#003241" cx="256.393" cy="307.647" r="0.657"/>
	<circle id="XMLID_621_" fill="#003241" cx="255.134" cy="307.394" r="0.671"/>
	<ellipse id="XMLID_622_" fill="#003241" cx="254.101" cy="307.641" rx="0.64" ry="0.586"/>
</g>
<rect x="235.441" y="275.268" fill="#03535B" width="27.841" height="2.147"/>
<path fill="#00AAA5" d="M247.538,252.794v-9.769c0-0.372-0.301-0.673-0.673-0.673h-4.43c-0.371,0-0.673,0.301-0.673,0.673v9.769
	c0,0.373,0.302,0.673,0.673,0.673h4.43C247.237,253.467,247.538,253.167,247.538,252.794z"/>
<rect x="241.761" y="242.272" fill="#003E4C" width="5.774" height="6.607"/>
<path id="XMLID_624_" opacity="0.2" enable-background="new    " d="M247.538,242.916v9.989c0,0.311-0.252,0.562-0.564,0.562h-0.854
	c0.076-0.096,0.128-0.211,0.128-0.343v-9.989c0-0.312-0.252-0.562-0.564-0.562h-3.795c0.104-0.131,0.256-0.221,0.436-0.221h4.649
	C247.286,242.352,247.538,242.604,247.538,242.916z"/>
<path fill="none" stroke="#047272" stroke-miterlimit="10" d="M247.538,243.025c0-0.371-0.301-0.673-0.673-0.673h-4.43
	c-0.371,0-0.673,0.302-0.673,0.673v10.442h5.776V243.025z"/>
<path id="XMLID_625_" fill="#047272" d="M243.359,242.191c0.026-0.691,0.592-1.244,1.291-1.244c0.698,0,1.263,0.553,1.291,1.244
	H243.359z"/>
<rect x="241.762" y="246.987" fill="#047272" width="5.776" height="1.144"/>
<rect x="240.731" y="252.622" fill="#047272" width="7.915" height="1.144"/>
<polygon opacity="0.2" enable-background="new    " points="248.646,253.765 240.73,253.765 241.747,255.036 249.663,255.036 "/>
<rect x="251.826" y="242.191" fill="#003E4C" width="5.774" height="10.307"/>
<path id="XMLID_640_" opacity="0.2" enable-background="new    " d="M257.602,242.834v9.99c0,0.311-0.252,0.562-0.563,0.562h-0.855
	c0.075-0.096,0.127-0.211,0.127-0.342v-9.989c0-0.312-0.252-0.563-0.563-0.563h-3.795c0.103-0.132,0.256-0.221,0.436-0.221h4.65
	C257.35,242.272,257.601,242.524,257.602,242.834z"/>
<path fill="none" stroke="#047272" stroke-miterlimit="10" d="M257.601,242.945c0-0.371-0.301-0.673-0.673-0.673h-4.43
	c-0.372,0-0.673,0.302-0.673,0.673v10.443h5.775V242.945z"/>
<path id="XMLID_641_" fill="#047272" d="M253.422,242.111c0.027-0.692,0.593-1.245,1.292-1.245s1.263,0.553,1.291,1.245H253.422z"/>
<rect x="251.826" y="246.907" fill="#047272" width="5.775" height="1.144"/>
<rect x="250.795" y="252.541" fill="#047272" width="7.915" height="1.143"/>
<polygon opacity="0.2" enable-background="new    " points="258.71,253.683 250.794,253.683 251.811,254.956 259.726,254.956 "/>
<rect x="235.542" y="255.17" fill="#03535B" width="27.84" height="2.146"/>
<rect x="235.542" y="295.262" fill="#03535B" width="27.84" height="2.146"/>
<rect x="237.067" y="319.176" fill="#003E4C" width="24.538" height="7.334"/>
<polygon id="XMLID_655_" fill="#003E4C" points="261.569,266.663 286.938,266.663 285.314,255.701 263.193,255.701 "/>
<polygon id="XMLID_656_" opacity="0.2" enable-background="new    " points="285.741,258.58 285.314,255.701 263.193,255.701 
	262.767,258.58 "/>
<rect x="260.404" y="266.663" fill="#047272" width="27.884" height="2.209"/>
<rect x="263.382" y="254.139" fill="#047272" width="21.932" height="1.562"/>
<rect x="261.569" y="268.872" opacity="0.2" enable-background="new    " width="25.369" height="5.024"/>
<polygon fill="#003E4C" points="399.34,264.101 390.208,260.449 390.208,303.599 399.34,303.599 "/>
<rect id="XMLID_658_" x="373.229" y="262.445" fill="#007E84" width="15.724" height="38.509"/>
<rect id="XMLID_659_" x="370.603" y="305.721" fill="#007E84" width="18.351" height="18.35"/>
<path id="XMLID_660_" fill="#014651" d="M371.942,260.449V303.6h18.265v-43.151H371.942z M376.656,269.27h-2.2v-2.2h2.2V269.27z
	 M376.656,272.936h-2.2v-2.199h2.2V272.936z M385.521,285.404h2.2v2.2h-2.2V285.404z M385.521,281.737h2.2v2.2h-2.2V281.737z
	 M385.521,278.071h2.2v2.2h-2.2V278.071z M385.521,274.404h2.2v2.2h-2.2V274.404z M385.521,270.737h2.2v2.199h-2.2V270.737z
	 M385.521,267.07h2.2v2.2h-2.2V267.07z M385.521,263.404h2.2v2.199h-2.2V263.404z M381.763,292.696h2.201v2.2h-2.201V292.696z
	 M381.763,289.03h2.201v2.199h-2.201V289.03z M381.763,285.404h2.201v2.2h-2.201V285.404z M381.763,281.737h2.201v2.2h-2.201
	V281.737z M381.763,278.071h2.201v2.2h-2.201V278.071z M381.763,274.404h2.201v2.2h-2.201V274.404z M381.763,270.737h2.201v2.199
	h-2.201V270.737z M381.763,267.07h2.201v2.2h-2.201V267.07z M381.763,263.404h2.201v2.199h-2.201V263.404z M380.415,269.27h-2.2
	v-2.2h2.2V269.27z M378.188,296.363h2.2v2.2h-2.2V296.363z M378.188,292.696h2.2v2.2h-2.2V292.696z M378.188,289.03h2.2v2.199h-2.2
	V289.03z M378.188,285.404h2.2v2.2h-2.2V285.404z M378.188,281.737h2.2v2.2h-2.2V281.737z M378.188,278.071h2.2v2.2h-2.2V278.071z
	 M376.656,276.604h-2.2v-2.201h2.2V276.604z M374.429,296.363h2.201v2.2h-2.201V296.363z M374.429,292.696h2.201v2.2h-2.201V292.696
	z M374.429,285.404h2.201v2.2h-2.201V285.404z M374.429,281.737h2.201v2.2h-2.201V281.737z"/>
<path id="XMLID_692_" fill="#004651" d="M369.203,302.743v23.63h55.83v-23.63H369.203z M380.522,319.351h2.573v2.573h-2.573V319.351
	z M380.522,315.06h2.573v2.573h-2.573V315.06z M380.522,310.771h2.573v2.573h-2.573V310.771z M380.522,306.482h2.573v2.573h-2.573
	V306.482z M376.125,319.351h2.573v2.573h-2.573V319.351z M376.125,315.06h2.573v2.573h-2.573V315.06z M376.125,310.771h2.573v2.573
	h-2.573V310.771z M376.125,306.482h2.573v2.573h-2.573V306.482z M371.942,321.924v-2.573h2.574v2.573H371.942L371.942,321.924z
	 M371.942,317.633v-2.573h2.574v2.573H371.942L371.942,317.633z M371.942,313.344v-2.573h2.574v2.573H371.942L371.942,313.344z
	 M371.942,309.055v-2.573h2.574v2.573H371.942L371.942,309.055z"/>
<rect x="369.203" y="324.071" fill="#005760" width="55.83" height="2.302"/>
<polygon id="XMLID_706_" fill="#003A47" points="371.942,260.449 384.857,240.499 390.208,260.449 "/>
<polygon id="XMLID_707_" fill="#003241" points="390.208,260.449 399.34,264.101 384.857,240.499 "/>
<path fill="#003241" d="M400.517,326.373h11.252v-12.044c0-3.108-2.52-5.627-5.626-5.627c-3.107,0-5.626,2.519-5.626,5.627V326.373z
	"/>
<rect x="390.673" y="309.914" fill="#007E84" width="8.202" height="8.202"/>
<g>
	<g>
		<path fill="#003241" d="M391.281,310.521h6.986v6.986h-6.986V310.521 M390.674,309.914v8.202h8.201v-8.202H390.674
			L390.674,309.914z"/>
	</g>
</g>
<line id="XMLID_713_" fill="none" stroke="#003241" stroke-miterlimit="10" x1="391.157" y1="314.014" x2="398.408" y2="314.014"/>
<line id="XMLID_717_" fill="none" stroke="#003241" stroke-miterlimit="10" x1="394.774" y1="317.537" x2="394.782" y2="310.507"/>
<rect x="387.3" y="260.449" opacity="0.3" fill="#383137" enable-background="new    " width="2.908" height="65.953"/>
<rect x="413.94" y="309.921" fill="#007E84" width="8.201" height="8.201"/>
<g>
	<g>
		<path fill="#003241" d="M414.549,310.529h6.986v6.986h-6.986V310.529 M413.94,309.921v8.201h8.202v-8.201H413.94L413.94,309.921z"
			/>
	</g>
</g>
<line id="XMLID_720_" fill="none" stroke="#003241" stroke-miterlimit="10" x1="414.425" y1="314.023" x2="421.676" y2="314.023"/>
<line id="XMLID_724_" fill="none" stroke="#003241" stroke-miterlimit="10" x1="418.041" y1="317.545" x2="418.05" y2="310.516"/>
<polygon id="XMLID_726_" fill="#003241" points="385.929,304.167 429.312,304.167 425.033,295.413 390.208,295.413 "/>
<rect x="36.318" y="280.003" fill="#024D51" width="34.294" height="45.97"/>
<rect x="36.318" y="280.003" opacity="0.21" enable-background="new    " width="34.294" height="3.924"/>
<rect x="43.714" y="289.043" fill="#038A91" width="19.502" height="9.67"/>
<polygon id="XMLID_728_" opacity="0.43" enable-background="new    " points="43.714,289.464 43.714,298.713 63.216,298.713 
	63.216,296.296 46.132,296.296 46.132,289.464 "/>
<rect x="43.714" y="289.043" fill="none" stroke="#007177" stroke-miterlimit="10" width="19.502" height="9.67"/>
<line id="XMLID_730_" fill="none" stroke="#007177" stroke-miterlimit="10" x1="56.882" y1="298.713" x2="56.882" y2="289.043"/>
<line id="XMLID_731_" fill="none" stroke="#007177" stroke-miterlimit="10" x1="50.049" y1="298.713" x2="50.049" y2="289.043"/>
<rect x="42.46" y="299.064" fill="#003241" width="22.003" height="1.822"/>
<rect x="43.718" y="306.773" fill="#038A91" width="19.502" height="9.67"/>
<polygon id="XMLID_733_" opacity="0.43" enable-background="new    " points="43.718,307.192 43.718,316.443 63.22,316.443 
	63.22,314.026 46.135,314.026 46.135,307.192 "/>
<rect x="43.718" y="306.773" fill="none" stroke="#007177" stroke-miterlimit="10" width="19.502" height="9.67"/>
<line id="XMLID_735_" fill="none" stroke="#007177" stroke-miterlimit="10" x1="56.885" y1="316.443" x2="56.885" y2="306.773"/>
<line id="XMLID_736_" fill="none" stroke="#007177" stroke-miterlimit="10" x1="50.052" y1="316.443" x2="50.052" y2="306.773"/>
<rect x="42.464" y="316.792" fill="#003241" width="22.003" height="1.822"/>
<line id="XMLID_737_" fill="none" stroke="#003241" stroke-miterlimit="10" x1="36.318" y1="280.003" x2="70.612" y2="280.003"/>
<polygon id="XMLID_738_" opacity="0.21" enable-background="new    " points="42.46,300.887 64.464,300.887 61.941,303.829 
	39.938,303.829 "/>
<polygon id="XMLID_739_" opacity="0.21" enable-background="new    " points="42.46,318.615 64.464,318.615 61.941,321.558 
	39.938,321.558 "/>
<ellipse id="XMLID_740_" fill="#004854" cx="34.49" cy="304.739" rx="7.685" ry="11.134"/>
<path fill="#003241" d="M33.342,326.404v-16.776c0-0.633,0.514-1.146,1.147-1.146s1.146,0.514,1.146,1.146v16.776H33.342
	L33.342,326.404z"/>
<ellipse id="XMLID_741_" fill="#004854" cx="7.685" cy="300.597" rx="7.685" ry="11.133"/>
<path fill="#003241" d="M6.868,326.414v-16.775c0-0.634,0.514-1.147,1.147-1.147s1.147,0.514,1.147,1.147v16.775H6.868
	L6.868,326.414z"/>
<ellipse id="XMLID_744_" fill="#005760" cx="428.618" cy="310.917" rx="5.407" ry="7.834"/>
<path fill="#003B49" d="M427.812,314.356c0-0.445,0.36-0.807,0.807-0.807s0.808,0.361,0.808,0.807v11.807h-1.614V314.356z"/>
<circle id="XMLID_747_" fill="#005760" cx="228.795" cy="307.823" r="8.272"/>
<path fill="#003241" d="M227.581,326.473v-16.776c0-0.634,0.514-1.147,1.147-1.147s1.146,0.514,1.146,1.147v16.776H227.581
	L227.581,326.473z"/>
<circle id="XMLID_751_" fill="#004854" cx="143.293" cy="307.712" r="8.272"/>
<path fill="#003241" d="M142.08,326.364v-16.775c0-0.634,0.514-1.148,1.147-1.148c0.634,0,1.147,0.515,1.147,1.148v16.775h-2.293
	H142.08z"/>
<circle id="XMLID_755_" fill="#005760" cx="22.807" cy="307.712" r="8.272"/>
<path fill="#003241" d="M21.593,326.364v-16.775c0-0.634,0.514-1.148,1.147-1.148s1.147,0.515,1.147,1.148v16.775H21.593
	L21.593,326.364z"/>
<circle id="XMLID_759_" fill="#005760" cx="45.474" cy="313.608" r="5.658"/>
<path fill="#003241" d="M44.645,326.364v-11.475c0-0.433,0.351-0.784,0.784-0.784c0.434,0,0.785,0.352,0.785,0.784v11.475H44.645
	L44.645,326.364z"/>
<circle id="XMLID_763_" fill="#005760" cx="15.869" cy="313.634" r="5.658"/>
<path fill="#003241" d="M15.039,326.39v-11.475c0-0.434,0.351-0.784,0.784-0.784c0.434,0,0.785,0.351,0.785,0.784v11.475H15.039
	L15.039,326.39z"/>
<ellipse id="XMLID_767_" fill="#005760" cx="469.484" cy="304.751" rx="7.685" ry="11.134"/>
<path fill="#003B49" d="M468.337,309.64c0-0.634,0.514-1.146,1.147-1.146c0.633,0,1.146,0.513,1.146,1.146v16.776h-2.294V309.64z"/>
<ellipse id="XMLID_770_" fill="#005760" cx="442.679" cy="304.475" rx="7.685" ry="11.134"/>
<path fill="#003B49" d="M441.532,309.365c0-0.634,0.514-1.147,1.146-1.147s1.146,0.514,1.146,1.147v16.774h-2.293V309.365z"/>
<circle id="XMLID_773_" fill="#004854" cx="457.801" cy="307.725" r="8.272"/>
<path fill="#003B49" d="M456.589,309.6c0-0.633,0.514-1.146,1.146-1.146c0.634,0,1.146,0.514,1.146,1.146v16.776h-2.293V309.6z"/>
<circle id="XMLID_777_" fill="#004854" cx="480.468" cy="313.621" r="5.658"/>
<path fill="#003B49" d="M479.638,326.376v-11.474c0-0.434,0.352-0.785,0.785-0.785c0.433,0,0.784,0.352,0.784,0.785v11.474H479.638
	L479.638,326.376z"/>
<circle id="XMLID_781_" fill="#004854" cx="437.021" cy="313.646" r="5.658"/>
<path fill="#003B49" d="M436.191,314.927c0-0.433,0.352-0.783,0.784-0.783c0.434,0,0.785,0.351,0.785,0.783v11.475h-1.569V314.927z"
	/>
<path fill="#006B70" d="M262.774,313.436c1.353,0,2.449,4.237,2.449,6.422s-1.096,3.955-2.449,3.955
	c-1.352,0-2.448-1.771-2.448-3.955S261.422,313.436,262.774,313.436z"/>
<polygon fill="#008787" points="260.399,322.465 265.15,322.465 264.69,326.296 260.859,326.296 "/>
<path fill="#006B70" d="M286.207,313.436c1.352,0,2.448,4.237,2.448,6.422s-1.097,3.955-2.448,3.955
	c-1.353,0-2.449-1.771-2.449-3.955S284.854,313.436,286.207,313.436z"/>
<polygon fill="#008787" points="283.831,322.465 288.583,322.465 288.123,326.296 284.291,326.296 "/>
<polygon fill="#FFBA1E" points="341.176,299.559 357.175,306.139 357.175,326.123 341.176,326.123 "/>
<line fill="none" stroke="#604123" stroke-width="4" stroke-linecap="round" stroke-miterlimit="10" x1="341.176" y1="299.559" x2="357.175" y2="306.139"/>
<rect x="311.322" y="286.155" fill="#FCB830" width="29.817" height="39.968"/>
<rect x="311.322" y="286.155" opacity="0.21" enable-background="new    " width="29.817" height="3.412"/>
<rect x="317.753" y="294.015" fill="#9AB6B8" width="16.955" height="8.408"/>
<polygon id="XMLID_788_" opacity="0.43" enable-background="new    " points="317.752,294.38 317.752,302.423 334.708,302.423 
	334.708,300.321 319.854,300.321 319.854,294.38 "/>
<rect x="317.753" y="294.015" fill="none" stroke="#FFFFFF" stroke-miterlimit="10" width="16.955" height="8.408"/>
<line id="XMLID_790_" fill="none" stroke="#FFFFFF" stroke-miterlimit="10" x1="329.2" y1="302.423" x2="329.2" y2="294.015"/>
<line id="XMLID_791_" fill="none" stroke="#FFFFFF" stroke-miterlimit="10" x1="323.26" y1="302.423" x2="323.26" y2="294.015"/>
<rect x="316.662" y="302.728" fill="#604123" width="19.13" height="1.583"/>
<rect x="317.755" y="309.43" fill="#9AB6B8" width="16.955" height="8.407"/>
<polygon id="XMLID_793_" opacity="0.43" enable-background="new    " points="317.755,309.795 317.755,317.837 334.71,317.837 
	334.71,315.736 319.857,315.736 319.857,309.795 "/>
<rect x="317.755" y="309.43" fill="none" stroke="#FFFFFF" stroke-miterlimit="10" width="16.955" height="8.407"/>
<line id="XMLID_795_" fill="none" stroke="#FFFFFF" stroke-miterlimit="10" x1="329.203" y1="317.837" x2="329.203" y2="309.43"/>
<line id="XMLID_796_" fill="none" stroke="#FFFFFF" stroke-miterlimit="10" x1="323.263" y1="317.837" x2="323.263" y2="309.43"/>
<rect x="316.665" y="318.141" fill="#604123" width="19.131" height="1.585"/>
<line id="XMLID_797_" fill="none" stroke="#604123" stroke-width="4" stroke-linecap="square" stroke-miterlimit="10" x1="311.322" y1="286.155" x2="341.139" y2="286.155"/>
<polygon id="XMLID_798_" opacity="0.21" enable-background="new    " points="316.662,304.311 335.792,304.311 333.6,306.871 
	314.468,306.871 "/>
<polygon id="XMLID_799_" opacity="0.21" enable-background="new    " points="316.662,319.726 335.792,319.726 333.6,322.285 
	314.468,322.285 "/>
<rect x="345.602" y="309.267" fill="#9AB6B8" width="7.146" height="7.147"/>
<polygon id="XMLID_800_" opacity="0.43" enable-background="new    " points="345.602,309.267 345.602,316.415 352.749,316.415 
	352.749,314.587 347.43,314.587 347.43,309.267 "/>
<rect x="345.602" y="309.267" fill="none" stroke="#FFFFFF" stroke-miterlimit="10" width="7.146" height="7.147"/>
<ellipse id="XMLID_801_" fill="#004854" cx="364.719" cy="304.708" rx="7.685" ry="11.132"/>
<path fill="#003B49" d="M363.573,326.373v-16.776c0-0.634,0.513-1.147,1.146-1.147s1.146,0.514,1.146,1.147v16.776H363.573
	L363.573,326.373z"/>
<rect x="63.317" y="296.422" fill="#014651" width="41.327" height="29.775"/>
<line id="XMLID_802_" fill="none" stroke="#006B70" stroke-width="5" stroke-linecap="square" stroke-miterlimit="10" x1="63.317" y1="296.422" x2="104.645" y2="296.422"/>
<line id="XMLID_805_" fill="none" stroke="#006B70" stroke-width="2" stroke-miterlimit="10" x1="62.73" y1="287.916" x2="105.231" y2="287.916"/>
<rect x="80.873" y="311.31" fill="#014651" width="19.315" height="14.888"/>
<rect x="68.52" y="301.967" fill="#036A75" width="7.147" height="7.146"/>
<polygon id="XMLID_807_" opacity="0.43" enable-background="new    " points="68.52,301.967 68.52,309.114 75.667,309.114 
	75.667,307.286 70.348,307.286 70.348,301.967 "/>
<rect x="68.52" y="301.967" fill="none" stroke="#026666" stroke-miterlimit="10" width="7.147" height="7.146"/>
<rect x="80.673" y="301.967" fill="#036A75" width="7.147" height="7.146"/>
<polygon id="XMLID_809_" opacity="0.43" enable-background="new    " points="80.673,301.967 80.673,309.114 87.82,309.114 
	87.82,307.286 82.501,307.286 82.501,301.967 "/>
<rect x="80.673" y="301.967" fill="none" stroke="#026666" stroke-miterlimit="10" width="7.147" height="7.146"/>
<rect x="92.826" y="301.967" fill="#036A75" width="7.147" height="7.146"/>
<polygon id="XMLID_811_" opacity="0.43" enable-background="new    " points="92.826,301.967 92.826,309.114 99.973,309.114 
	99.973,307.286 94.655,307.286 94.655,301.967 "/>
<rect x="92.826" y="301.967" fill="none" stroke="#026666" stroke-miterlimit="10" width="7.147" height="7.146"/>
<rect x="68.52" y="314.525" fill="#036A75" width="7.147" height="7.147"/>
<polygon id="XMLID_813_" opacity="0.43" enable-background="new    " points="68.52,314.525 68.52,321.672 75.667,321.672 
	75.667,319.843 70.348,319.843 70.348,314.525 "/>
<rect x="68.52" y="314.525" fill="none" stroke="#026666" stroke-miterlimit="10" width="7.147" height="7.147"/>
<rect x="85.131" y="312.83" fill="#00515E" width="10.269" height="13.347"/>
<rect x="86.132" y="313.672" fill="#00404F" width="8.267" height="12.525"/>
<circle id="XMLID_814_" fill="#00515E" cx="93.044" cy="320.598" r="0.663"/>
<line id="XMLID_816_" fill="none" stroke="#006B70" stroke-miterlimit="10" x1="85.196" y1="296.422" x2="85.196" y2="287.916"/>
<line id="XMLID_817_" fill="none" stroke="#006B70" stroke-miterlimit="10" x1="87.627" y1="296.422" x2="87.627" y2="287.916"/>
<line id="XMLID_818_" fill="none" stroke="#006B70" stroke-miterlimit="10" x1="90.058" y1="296.422" x2="90.058" y2="287.916"/>
<line id="XMLID_819_" fill="none" stroke="#006B70" stroke-miterlimit="10" x1="92.488" y1="296.422" x2="92.488" y2="287.916"/>
<line id="XMLID_820_" fill="none" stroke="#006B70" stroke-miterlimit="10" x1="94.918" y1="296.422" x2="94.918" y2="287.916"/>
<line id="XMLID_821_" fill="none" stroke="#006B70" stroke-miterlimit="10" x1="97.349" y1="296.422" x2="97.349" y2="287.916"/>
<line id="XMLID_822_" fill="none" stroke="#006B70" stroke-miterlimit="10" x1="99.78" y1="296.422" x2="99.78" y2="287.916"/>
<line id="XMLID_823_" fill="none" stroke="#006B70" stroke-miterlimit="10" x1="102.21" y1="296.422" x2="102.21" y2="287.916"/>
<line id="XMLID_824_" fill="none" stroke="#006B70" stroke-miterlimit="10" x1="104.641" y1="296.422" x2="104.641" y2="287.916"/>
<line id="XMLID_825_" fill="none" stroke="#006B70" stroke-miterlimit="10" x1="63.32" y1="296.422" x2="63.32" y2="287.916"/>
<line id="XMLID_826_" fill="none" stroke="#006B70" stroke-miterlimit="10" x1="65.751" y1="296.422" x2="65.751" y2="287.916"/>
<line id="XMLID_827_" fill="none" stroke="#006B70" stroke-miterlimit="10" x1="68.182" y1="296.422" x2="68.182" y2="287.916"/>
<line id="XMLID_828_" fill="none" stroke="#006B70" stroke-miterlimit="10" x1="70.612" y1="296.422" x2="70.612" y2="287.916"/>
<line id="XMLID_829_" fill="none" stroke="#006B70" stroke-miterlimit="10" x1="73.043" y1="296.422" x2="73.043" y2="287.916"/>
<line id="XMLID_830_" fill="none" stroke="#006B70" stroke-miterlimit="10" x1="75.474" y1="296.422" x2="75.474" y2="287.916"/>
<line id="XMLID_831_" fill="none" stroke="#006B70" stroke-miterlimit="10" x1="77.904" y1="296.422" x2="77.904" y2="287.916"/>
<line id="XMLID_832_" fill="none" stroke="#006B70" stroke-miterlimit="10" x1="80.335" y1="296.422" x2="80.335" y2="287.916"/>
<line id="XMLID_833_" fill="none" stroke="#006B70" stroke-miterlimit="10" x1="82.766" y1="296.422" x2="82.766" y2="287.916"/>
<g id="DESIGNED_BY_FREEPIK">
</g>
<g>
	<polygon id="XMLID_48_" fill="#014651" points="246.023,292.843 242.635,292.843 242.126,291.445 246.532,291.445 	"/>
	<circle id="XMLID_47_" fill="#003241" cx="242.582" cy="291.477" r="0.667"/>
	<circle id="XMLID_46_" fill="#003241" cx="243.172" cy="290.894" r="0.551"/>
	<circle id="XMLID_45_" fill="#003241" cx="243.751" cy="291.473" r="0.578"/>
	<circle id="XMLID_34_" fill="#003241" cx="243.828" cy="290.471" r="0.501"/>
	<circle id="XMLID_24_" fill="#003241" cx="244.778" cy="291.42" r="0.526"/>
	<circle id="XMLID_20_" fill="#003241" cx="245.595" cy="291.445" r="0.389"/>
	<circle id="XMLID_12_" fill="#003241" cx="246.182" cy="291.056" r="0.657"/>
	<circle id="XMLID_11_" fill="#003241" cx="244.923" cy="290.803" r="0.671"/>
	<ellipse id="XMLID_1_" fill="#003241" cx="243.89" cy="291.051" rx="0.64" ry="0.585"/>
</g>
<g>
	<polygon id="XMLID_58_" fill="#014651" points="305.417,252.401 302.027,252.401 301.519,251.002 305.924,251.002 	"/>
	<circle id="XMLID_57_" fill="#003241" cx="301.975" cy="251.035" r="0.667"/>
	<circle id="XMLID_56_" fill="#003241" cx="302.565" cy="250.452" r="0.551"/>
	<circle id="XMLID_55_" fill="#003241" cx="303.143" cy="251.031" r="0.578"/>
	<circle id="XMLID_54_" fill="#003241" cx="303.221" cy="250.029" r="0.501"/>
	<circle id="XMLID_53_" fill="#003241" cx="304.17" cy="250.977" r="0.526"/>
	<circle id="XMLID_52_" fill="#003241" cx="304.988" cy="251.002" r="0.389"/>
	<circle id="XMLID_51_" fill="#003241" cx="305.575" cy="250.614" r="0.657"/>
	<circle id="XMLID_50_" fill="#003241" cx="304.316" cy="250.361" r="0.671"/>
	<ellipse id="XMLID_49_" fill="#003241" cx="303.282" cy="250.608" rx="0.64" ry="0.586"/>
</g>
<g>
	<polygon id="XMLID_68_" fill="#014651" points="295.559,252.333 292.169,252.333 291.661,250.934 296.066,250.934 	"/>
	<circle id="XMLID_67_" fill="#003241" cx="292.117" cy="250.966" r="0.667"/>
	<circle id="XMLID_66_" fill="#003241" cx="292.707" cy="250.383" r="0.551"/>
	<circle id="XMLID_65_" fill="#003241" cx="293.285" cy="250.962" r="0.578"/>
	<circle id="XMLID_64_" fill="#003241" cx="293.363" cy="249.96" r="0.501"/>
	<circle id="XMLID_63_" fill="#003241" cx="294.312" cy="250.91" r="0.526"/>
	<circle id="XMLID_62_" fill="#003241" cx="295.13" cy="250.934" r="0.389"/>
	<circle id="XMLID_61_" fill="#003241" cx="295.717" cy="250.545" r="0.657"/>
	<circle id="XMLID_60_" fill="#003241" cx="294.458" cy="250.292" r="0.671"/>
	<ellipse id="XMLID_59_" fill="#003241" cx="293.425" cy="250.541" rx="0.64" ry="0.585"/>
</g>
<g>
	<polygon id="XMLID_78_" fill="#014651" points="246.445,252.622 243.056,252.622 242.547,251.223 246.953,251.223 	"/>
	<circle id="XMLID_77_" fill="#003241" cx="243.004" cy="251.255" r="0.667"/>
	<circle id="XMLID_76_" fill="#003241" cx="243.593" cy="250.672" r="0.55"/>
	<circle id="XMLID_75_" fill="#003241" cx="244.172" cy="251.251" r="0.578"/>
	<circle id="XMLID_74_" fill="#003241" cx="244.25" cy="250.25" r="0.501"/>
	<circle id="XMLID_73_" fill="#003241" cx="245.199" cy="251.198" r="0.526"/>
	<circle id="XMLID_72_" fill="#003241" cx="246.017" cy="251.223" r="0.389"/>
	<circle id="XMLID_71_" fill="#003241" cx="246.604" cy="250.834" r="0.657"/>
	<circle id="XMLID_70_" fill="#003241" cx="245.344" cy="250.582" r="0.672"/>
	<ellipse id="XMLID_69_" fill="#003241" cx="244.311" cy="250.83" rx="0.64" ry="0.585"/>
</g>
<g>
	<polygon id="XMLID_90_" fill="#014651" points="246.168,272.625 242.779,272.625 242.271,271.226 246.676,271.226 	"/>
	<circle id="XMLID_89_" fill="#003241" cx="242.726" cy="271.258" r="0.667"/>
	<circle id="XMLID_88_" fill="#003241" cx="243.316" cy="270.675" r="0.551"/>
	<circle id="XMLID_87_" fill="#003241" cx="243.895" cy="271.254" r="0.578"/>
	<circle id="XMLID_86_" fill="#003241" cx="243.972" cy="270.252" r="0.501"/>
	<circle id="XMLID_83_" fill="#003241" cx="244.922" cy="271.201" r="0.526"/>
	<circle id="XMLID_82_" fill="#003241" cx="245.74" cy="271.226" r="0.389"/>
	<circle id="XMLID_81_" fill="#003241" cx="246.326" cy="270.837" r="0.657"/>
	<circle id="XMLID_80_" fill="#003241" cx="245.067" cy="270.584" r="0.671"/>
	<ellipse id="XMLID_79_" fill="#003241" cx="244.034" cy="270.832" rx="0.64" ry="0.586"/>
</g>
<g>
	<polygon id="XMLID_100_" fill="#014651" points="256.232,272.568 252.843,272.568 252.334,271.169 256.74,271.169 	"/>
	<circle id="XMLID_99_" fill="#003241" cx="252.791" cy="271.202" r="0.667"/>
	<circle id="XMLID_98_" fill="#003241" cx="253.38" cy="270.619" r="0.551"/>
	<circle id="XMLID_97_" fill="#003241" cx="253.959" cy="271.198" r="0.579"/>
	<circle id="XMLID_96_" fill="#003241" cx="254.037" cy="270.196" r="0.501"/>
	<circle id="XMLID_95_" fill="#003241" cx="254.986" cy="271.145" r="0.526"/>
	<circle id="XMLID_94_" fill="#003241" cx="255.804" cy="271.169" r="0.389"/>
	<circle id="XMLID_93_" fill="#003241" cx="256.391" cy="270.781" r="0.657"/>
	<circle id="XMLID_92_" fill="#003241" cx="255.132" cy="270.528" r="0.671"/>
	<ellipse id="XMLID_91_" fill="#003241" cx="254.098" cy="270.776" rx="0.64" ry="0.585"/>
</g>
<g>
	<polygon id="XMLID_110_" fill="#014651" points="305.721,272.405 302.331,272.405 301.823,271.007 306.229,271.007 	"/>
	<circle id="XMLID_109_" fill="#003241" cx="302.279" cy="271.04" r="0.667"/>
	<circle id="XMLID_108_" fill="#003241" cx="302.869" cy="270.457" r="0.551"/>
	<circle id="XMLID_107_" fill="#003241" cx="303.447" cy="271.036" r="0.579"/>
	<circle id="XMLID_106_" fill="#003241" cx="303.525" cy="270.034" r="0.501"/>
	<circle id="XMLID_105_" fill="#003241" cx="304.475" cy="270.982" r="0.526"/>
	<circle id="XMLID_104_" fill="#003241" cx="305.292" cy="271.007" r="0.389"/>
	<circle id="XMLID_103_" fill="#003241" cx="305.879" cy="270.619" r="0.657"/>
	<circle id="XMLID_102_" fill="#003241" cx="304.62" cy="270.366" r="0.671"/>
	<ellipse id="XMLID_101_" fill="#003241" cx="303.586" cy="270.613" rx="0.64" ry="0.585"/>
</g>
<g>
	<polygon id="XMLID_120_" fill="#014651" points="295.479,292.573 292.089,292.573 291.581,291.174 295.986,291.174 	"/>
	<circle id="XMLID_119_" fill="#003241" cx="292.037" cy="291.207" r="0.667"/>
	<circle id="XMLID_118_" fill="#003241" cx="292.627" cy="290.624" r="0.551"/>
	<circle id="XMLID_117_" fill="#003241" cx="293.205" cy="291.203" r="0.578"/>
	<circle id="XMLID_116_" fill="#003241" cx="293.283" cy="290.201" r="0.501"/>
	<circle id="XMLID_115_" fill="#003241" cx="294.232" cy="291.149" r="0.526"/>
	<circle id="XMLID_114_" fill="#003241" cx="295.05" cy="291.174" r="0.389"/>
	<circle id="XMLID_113_" fill="#003241" cx="295.637" cy="290.786" r="0.657"/>
	<circle id="XMLID_112_" fill="#003241" cx="294.378" cy="290.533" r="0.671"/>
	<ellipse id="XMLID_111_" fill="#003241" cx="293.344" cy="290.78" rx="0.64" ry="0.586"/>
</g>
<g>
	<polygon id="XMLID_130_" fill="#014651" points="295.425,309.247 292.036,309.247 291.527,307.848 295.933,307.848 	"/>
	<circle id="XMLID_129_" fill="#003241" cx="291.984" cy="307.88" r="0.667"/>
	<circle id="XMLID_128_" fill="#003241" cx="292.573" cy="307.297" r="0.55"/>
	<circle id="XMLID_127_" fill="#003241" cx="293.152" cy="307.876" r="0.578"/>
	<circle id="XMLID_126_" fill="#003241" cx="293.23" cy="306.875" r="0.501"/>
	<circle id="XMLID_125_" fill="#003241" cx="294.179" cy="307.823" r="0.526"/>
	<circle id="XMLID_124_" fill="#003241" cx="294.997" cy="307.848" r="0.389"/>
	<circle id="XMLID_123_" fill="#003241" cx="295.583" cy="307.459" r="0.657"/>
	<circle id="XMLID_122_" fill="#003241" cx="294.324" cy="307.207" r="0.672"/>
	<ellipse id="XMLID_121_" fill="#003241" cx="293.291" cy="307.454" rx="0.64" ry="0.586"/>
</g>
<g>
	<polygon id="XMLID_140_" fill="#014651" points="306.214,309.308 302.826,309.308 302.317,307.91 306.723,307.91 	"/>
	<circle id="XMLID_139_" fill="#003241" cx="302.773" cy="307.942" r="0.667"/>
	<circle id="XMLID_138_" fill="#003241" cx="303.363" cy="307.359" r="0.55"/>
	<circle id="XMLID_137_" fill="#003241" cx="303.941" cy="307.938" r="0.578"/>
	<circle id="XMLID_136_" fill="#003241" cx="304.019" cy="306.936" r="0.501"/>
	<circle id="XMLID_135_" fill="#003241" cx="304.968" cy="307.885" r="0.526"/>
	<circle id="XMLID_134_" fill="#003241" cx="305.786" cy="307.91" r="0.389"/>
	<circle id="XMLID_133_" fill="#003241" cx="306.373" cy="307.521" r="0.657"/>
	<circle id="XMLID_132_" fill="#003241" cx="305.114" cy="307.268" r="0.672"/>
	<ellipse id="XMLID_131_" fill="#003241" cx="304.081" cy="307.516" rx="0.64" ry="0.585"/>
</g>
<polygon fill="#FCB830" points="7.288,320.208 10.324,319.172 9.938,318.707 12.231,318.117 11.802,317.574 16.608,316.792 
	13.591,317.823 13.977,318.289 11.692,318.889 12.105,319.405 "/>
<polygon fill="#FCB830" points="3.327,320.663 6.473,321.289 6.374,320.692 8.653,321.332 8.554,320.646 13.104,322.379 
	9.977,321.759 10.077,322.355 7.799,321.73 7.898,322.382 "/>
<polygon fill="#FCB830" points="2.627,320.208 5.664,319.172 5.279,318.707 7.572,318.116 7.142,317.574 11.948,316.792 
	8.932,317.822 9.316,318.289 7.032,318.889 7.445,319.404 "/>
</svg>
