<?xml version="1.0" encoding="utf-8"?>
<!-- Generator: Adobe Illustrator 16.0.0, SVG Export Plug-In . SVG Version: 6.00 Build 0)  -->
<!DOCTYPE svg PUBLIC "-//W3C//DTD SVG 1.1//EN" "http://www.w3.org/Graphics/SVG/1.1/DTD/svg11.dtd">
<svg version="1.1" id="Capa_1" xmlns="http://www.w3.org/2000/svg" xmlns:xlink="http://www.w3.org/1999/xlink" x="0px" y="0px"
	 width="213px" height="210px" viewBox="0 0 213 210" enable-background="new 0 0 213 210" xml:space="preserve">
<g id="Capa_1_1_">
</g>
<g id="Capa_2">
</g>
<path fill="none" d="M193.754,106.129c0-48.395-39.207-87.582-87.574-87.582c-48.367,0-87.418,39.188-87.418,87.582
	c0,48.324,39.051,87.578,87.418,87.578C154.547,193.707,193.754,154.453,193.754,106.129z"/>
<text transform="matrix(0.835 0.5501 -0.5502 0.8351 51.7939 175.1436)" fill="#FFFFFF" font-family="'SlimJoe'" font-size="20.2867">A</text>
<text transform="matrix(0.9196 0.3927 -0.3928 0.9196 66.0713 184.2383)" fill="#FFFFFF" font-family="'SlimJoe'" font-size="20.2845">P</text>
<text transform="matrix(0.9781 0.2077 -0.2077 0.9782 79.2964 189.9648)" fill="#FFFFFF" font-family="'SlimJoe'" font-size="20.2845">O</text>
<text transform="matrix(0.9998 0.0166 -0.0166 0.9999 98.2549 193.5869)" fill="#FFFFFF" font-family="'SlimJoe'" font-size="20.2861">L</text>
<text transform="matrix(0.9845 -0.175 0.1751 0.9846 112.9004 193.8984)" fill="#FFFFFF" font-family="'SlimJoe'" font-size="20.2865">O</text>
<text transform="matrix(0.9381 -0.3462 0.3463 0.9381 131.7217 190.0723)" font-family="'SlimJoe'" font-size="20.2845"> </text>
<text transform="matrix(0.8805 -0.4739 0.4739 0.8806 142.3877 186.1094)" fill="#FFFFFF" font-family="'SlimJoe'" font-size="20.2845">2</text>
<text transform="matrix(0.7999 -0.6 0.6 0.8 153.918 179.791)" fill="#FFFFFF" font-family="'SlimJoe'" font-size="20.2845">2</text>
<path fill="#E2E1E0" d="M144.688,67.764c-3.746-7.833-16.793-9.954-25.022-10.423c-9.437-0.546-20.169,0.236-29.303,2.638
	c-3.883,1.042-21.349,9.65-21.496,10.355c-0.053,0.207-0.908,0.534-0.962,0.737c-1.734,1.346,0.709,44.517,1.104,48.686
	c0.785,8.046,2.484,14.558,3.11,17.003c1.133,4.449,3.629,9.907,5.239,11.491c2.974,3.629,12.898,12.489,18.298,15.56
	c4.484,2.508,9.116,2.325,14.156,2.325c4.178,0,7.059-0.891,10.633-2.886c3.134-1.749,14.517-14.468,16.457-20.688
	c0.549-1.797,3.994-13.269,4.943-18.062c1.477-7.786,3.316-36.197,3.411-39.894C145.312,78.011,144.945,68.319,144.688,67.764z"/>
<path d="M104.339,90.555c-5.092-2.522-20.05-9.993-22.499-8.883c-1.021,0.469-1.971,0.891-2.897,1.599
	c-0.082,0.056-0.702,0.487-1.604,1.215c-2.242,1.803-6.385,6.792-3.027,5.662c1.629-0.555,5.353-2.876,5.913-2.924
	c0.867-0.071,4.23,0.788,4.295,0.809c4.591,1.439,8.792,3.992,13.619,4.638C100.45,92.924,107.432,92.101,104.339,90.555z"/>
<path d="M142.869,92.116c-4.143-2.835-6.844-6.154-11.824-6.154c-4.467,0-2.695,2.892-14.049,1.133
	c-1.936-0.298-5.135,2.614-2.29,3.095c3.353,0.563,6.137,1.658,9.553,2.177c2.325,0.328,10.875-0.797,12.728,0.437
	C138.691,93.883,144.876,93.394,142.869,92.116z"/>
<path fill="#44240A" d="M65.454,98.657c0.826,0.543,1.286,1.263,1.563,2.192c0.72,2.39,1.511,4.776,2.248,7.165
	c1.299,4.125,4.16,6.502,8.249,7.467c4.951,1.174,9.824,0.658,14.687-0.336c3.753-0.765,6.738-3.347,8.143-7.094
	c0.986-2.611,1.776-4.723,2.649-7.37c0.525-1.567,1.216-2.174,2.821-2.313c0.489-0.039,0.991-0.018,1.48-0.006
	c2.36,0.062,3.062,0.737,3.683,3.039c0.637,2.511,1.146,5.098,2.2,7.46c1.623,3.671,3.865,5.363,7.808,6.763
	c2.996,1.056,5.843,1.49,9.033,1.549c2.448,0.048,5.211-0.276,7.487-1.032c2.998-0.978,5.334-2.76,6.497-5.773
	c1.079-2.794,2.023-5.62,3.092-8.405c0.219-0.584,0.625-1.215,1.139-1.514c0.838-0.496,1.094-1.165,1.1-2.039
	c0.012-0.531-0.036-1.059,0.02-1.575c0.123-1.083-0.354-1.573-1.363-1.773c-4.002-0.767-8.024-1.796-12.127-2.248
	c-8.254-1.039-16.367-0.788-24.232,2.281c-3.027,1.263-6.302,1.142-9.341-0.177c-5.476-2.263-11.128-3.419-16.822-3.354
	c-5.972-0.224-11.801,0.67-17.619,1.717c-3.269,0.646-3.594,0.988-3.074,4.269C64.834,97.949,65.111,98.438,65.454,98.657z
	 M115.479,95.388c2.646-1.254,5.465-1.693,8.326-1.936c6.029-0.499,11.948,0.053,17.695,1.968c2.667,0.918,3.552,2.187,3.486,5.048
	c-0.094,3.717-0.743,7.313-2.508,10.668c-0.893,1.697-2.283,2.785-4.041,3.446c-2.668,1.006-5.453,1.27-8.42,1.26
	c-3.39-0.115-6.8-0.755-10.037-2.162c-1.76-0.756-3.198-1.88-4.195-3.521c-1.895-3.089-3.157-6.37-3.232-10.037
	C112.512,97.901,113.502,96.35,115.479,95.388z M69.071,98.81c0.112-2.57,1.038-3.773,3.476-4.561
	c4.343-1.36,8.827-1.62,13.323-1.658c3.712,0.168,7.518,0.416,11.146,1.832c0.519,0.195,1.032,0.452,1.54,0.696
	c1.959,1.021,2.885,2.676,2.702,4.868c-0.349,4.266-1.906,8.07-4.809,11.248c-1.44,1.591-3.458,2.211-5.477,2.75
	c-4.855,1.33-9.747,1.404-14.704-0.104c-2.814-0.859-4.732-2.634-5.699-5.445C69.49,105.312,68.924,102.123,69.071,98.81z"/>
<path fill="none" stroke="#000000" stroke-miterlimit="10" d="M131.959,68.41c-5.357-1.136-10.945-1.731-16.682-1.731
	c-8.797,0-17.271,1.422-25.088,4.021c0.419-3.295,1.139-6.378,2.13-9.013c7.24-1.979,14.958-3.042,22.958-3.042
	c5.123,0,10.103,0.434,14.93,1.248C131.045,62.335,131.641,65.215,131.959,68.41z"/>
<path fill="#191F4F" d="M145.254,73.394c-4.125-1.522-8.621-2.741-13.171-3.6c-0.041-0.469-0.076-0.935-0.124-1.384
	c-0.318-3.195-0.914-6.075-1.752-8.518c-4.827-0.814-9.807-1.248-14.93-1.248c-8,0-15.718,1.062-22.958,3.042
	c-0.991,2.635-1.711,5.718-2.13,9.013c-0.054,0.387-0.095,0.779-0.13,1.174c-8.296,2.561-16.015,6.375-22.735,11.155
	c-0.105-1.106-0.159-2.221-0.188-3.349c-0.012-0.236-0.012-0.478-0.012-0.723v-0.413c0-24.195,16.94-41.85,40.095-41.85
	c22.67,0,37.161,12.807,37.924,35.725C145.124,72.411,145.248,73.063,145.254,73.394z"/>
<path fill="#F94848" d="M132.083,69.794c-5.175-1.006-10.532-1.555-16.079-1.59h-0.023c-0.229-0.012-0.465-0.012-0.701-0.012
	c-8.844,0-17.364,1.313-25.218,3.682c0.035-0.396,0.076-0.788,0.13-1.174c0.419-3.295,1.139-6.378,2.13-9.013
	c7.24-1.979,14.958-3.042,22.958-3.042c5.121,0,10.103,0.434,14.93,1.248c0.838,2.443,1.436,5.323,1.752,8.518
	C132.007,68.859,132.042,69.325,132.083,69.794z"/>
<path fill="#A5A5A5" d="M128.867,55.408c3.08,0.856,5.146,1.626,5.081,1.944c-0.071,0.301-2.013,0.15-4.845-0.336
	c0.059,0.13,0.11,0.248,0.17,0.384c2.855,0.799,4.738,1.522,4.675,1.82c-0.065,0.271-1.646,0.171-4.054-0.209
	c0.117,0.295,0.217,0.587,0.312,0.882c-4.827-0.814-9.808-1.248-14.929-1.248c-6.58,0-13,0.726-19.125,2.092
	c-1.168,0.253-2.318,0.537-3.457,0.85c-0.13,0.032-0.242,0.062-0.378,0.1c0.242-0.705,0.514-1.381,0.779-2.044
	c0.247-1.139,0.566-2.357,0.932-3.638c1.623-5.582,3.706-9.89,4.662-9.618c0.53,0.163,0.566,1.809,0.188,4.26
	c0.602-0.799,1.286-1.634,2.012-2.478c3.983-4.62,7.965-7.683,8.898-6.868c0.378,0.321,0.198,1.212-0.399,2.472
	c2.873-1.641,5.051-2.417,5.428-1.871c0.308,0.44-0.603,1.641-2.26,3.175c0.736,0.029,1.469,0.094,2.158,0.209
	c5.376-1.744,9.872-2.419,10.167-1.522c0.214,0.643-1.733,1.9-4.772,3.236c1.394,0.685,2.68,1.582,3.848,2.664
	c3.924-0.375,6.732-0.41,6.779-0.026c0.048,0.31-2.117,0.888-5.363,1.442c0.159,0.189,0.318,0.378,0.479,0.579h0.006
	c4.77,0.195,8.345,1.009,8.345,1.979C134.201,54.388,132.042,55.054,128.867,55.408z"/>
<path fill="none" d="M205.121,106.133c0-54.617-44.355-98.945-98.941-98.945c-54.609,0-98.828,44.328-98.828,98.945
	c0,54.605,44.219,98.953,98.828,98.953C160.766,205.086,205.121,160.738,205.121,106.133z"/>
<text transform="matrix(0.7712 0.6366 -0.6366 0.7712 42.0088 181.4062)" fill="#E2E1E0" font-family="'Anton'" font-size="7.0459">D</text>
<text transform="matrix(0.7975 0.6033 -0.6033 0.7975 45.9609 184.6016)" fill="#E2E1E0" font-family="'Anton'" font-size="7.0459">I</text>
<text transform="matrix(0.8223 0.569 -0.569 0.8223 48.6489 186.6133)" fill="#E2E1E0" font-family="'Anton'" font-size="7.0455">G</text>
<text transform="matrix(0.8456 0.5337 -0.5338 0.8456 52.811 189.4326)" fill="#E2E1E0" font-family="'Anton'" font-size="7.0459">I</text>
<text transform="matrix(0.8659 0.5001 -0.5002 0.8659 55.6704 191.2129)" fill="#E2E1E0" font-family="'Anton'" font-size="7.0459">T</text>
<text transform="matrix(0.8885 0.4589 -0.4589 0.8885 59.4951 193.3848)" fill="#E2E1E0" font-family="'Anton'" font-size="7.0459">A</text>
<text transform="matrix(0.909 0.4168 -0.4168 0.909 63.8213 195.5713)" fill="#E2E1E0" font-family="'Anton'" font-size="7.0459">L</text>
<text transform="matrix(0.9244 0.3813 -0.3813 0.9244 67.8047 197.3516)" fill="#6D6D6D" font-family="'Anton'" font-size="7.0453"> </text>
<text transform="matrix(0.9397 0.3418 -0.3418 0.9398 70.8047 198.5732)" fill="#E2E1E0" font-family="'Anton'" font-size="7.0459">&amp;</text>
<text transform="matrix(0.9534 0.3017 -0.3018 0.9534 75.5771 200.2539)" fill="#6D6D6D" font-family="'Anton'" font-size="7.0459"> </text>
<text transform="matrix(0.9652 0.2613 -0.2613 0.9653 78.6787 201.2217)" fill="#E2E1E0" font-family="'Anton'" font-size="7.0465">C</text>
<text transform="matrix(0.9774 0.2114 -0.2114 0.9774 83.543 202.4932)" fill="#E2E1E0" font-family="'Anton'" font-size="7.0459">R</text>
<text transform="matrix(0.9865 0.1634 -0.1634 0.9866 88.4746 203.5127)" fill="#E2E1E0" font-family="'Anton'" font-size="7.0465">E</text>
<text transform="matrix(0.9932 0.1161 -0.1161 0.9932 92.9766 204.2236)" fill="#E2E1E0" font-family="'Anton'" font-size="7.0453">A</text>
<text transform="matrix(0.9976 0.0697 -0.0697 0.9976 97.8076 204.7461)" fill="#E2E1E0" font-family="'Anton'" font-size="7.0463">T</text>
<text transform="matrix(0.9995 0.0309 -0.0309 0.9995 102.1875 205.0107)" fill="#E2E1E0" font-family="'Anton'" font-size="7.0459">I</text>
<text transform="matrix(0.9998 -0.0162 0.0162 0.9999 105.5361 205.1074)" fill="#E2E1E0" font-family="'Anton'" font-size="7.0463">V</text>
<text transform="matrix(0.9984 -0.0561 0.0561 0.9984 110.3184 205.0117)" fill="#E2E1E0" font-family="'Anton'" font-size="7.0459">E</text>
<text transform="matrix(0.9954 -0.0951 0.0951 0.9955 114.8613 204.7129)" fill="#6D6D6D" font-family="'Anton'" font-size="7.0463"> </text>
<text transform="matrix(0.9906 -0.1369 0.1369 0.9906 118.0732 204.3926)" fill="#E2E1E0" font-family="'Anton'" font-size="7.0459">D</text>
<text transform="matrix(0.9826 -0.1854 0.1854 0.9827 123.1328 203.6455)" fill="#E2E1E0" font-family="'Anton'" font-size="7.0465">E</text>
<text transform="matrix(0.9726 -0.2325 0.2325 0.9726 127.625 202.7637)" fill="#E2E1E0" font-family="'Anton'" font-size="7.0459">S</text>
<text transform="matrix(0.9619 -0.2732 0.2732 0.962 132.3584 201.5811)" fill="#E2E1E0" font-family="'Anton'" font-size="7.0465">I</text>
<text transform="matrix(0.9495 -0.3139 0.3139 0.9495 135.5684 200.6523)" fill="#E2E1E0" font-family="'Anton'" font-size="7.0458">G</text>
<text transform="matrix(0.9317 -0.3633 0.3633 0.9317 140.3857 199.0166)" fill="#E2E1E0" font-family="'Anton'" font-size="7.0459">N</text>
<text transform="matrix(0.9154 -0.4025 0.4025 0.9154 145.1553 197.0996)" fill="#6D6D6D" font-family="'Anton'" font-size="7.0459"> </text>
<text transform="matrix(0.8981 -0.4397 0.4397 0.8981 148.1094 195.7812)" fill="#E2E1E0" font-family="'Anton'" font-size="7.0453">A</text>
<text transform="matrix(0.8749 -0.4843 0.4843 0.8749 152.4609 193.6094)" fill="#E2E1E0" font-family="'Anton'" font-size="7.0459">G</text>
<text transform="matrix(0.8503 -0.5263 0.5263 0.8503 156.8662 191.1201)" fill="#E2E1E0" font-family="'Anton'" font-size="7.0459">E</text>
<text transform="matrix(0.8234 -0.5674 0.5674 0.8234 160.7412 188.6855)" fill="#E2E1E0" font-family="'Anton'" font-size="7.0455">N</text>
<text transform="matrix(0.793 -0.6092 0.6092 0.793 165.0059 185.6914)" fill="#E2E1E0" font-family="'Anton'" font-size="7.0459">C</text>
<text transform="matrix(0.7628 -0.6466 0.6466 0.7628 168.96 182.5977)" fill="#E2E1E0" font-family="'Anton'" font-size="7.0459">Y</text>
<g>
	<path fill="#D3D3D3" d="M25.625,127.854c-1.369,0.845-2.726,1.822-4.019,2.931c-1.321,1.13-2.537,2.343-3.61,3.638
		c0.26,2.389,1.362,4.85,4.029,7.863c2.432,2.758,8.769,7.947,13.767,11.027c1.156-0.149,2.277-0.619,3.228-1.416
		c1.003-0.836,1.682-1.899,2.018-3.061c-0.584-1.428-1.28-2.927-2.023-4.425l0.974,4.827l-2.03-4.682l-0.772,1.508l-1.228-3.862
		l-0.838,1.612l-1.682-8.562l1.883,4.738l0.684-1.209c-1.315-2.281-2.566-4.237-3.457-5.471
		C30.187,130.042,27.956,128.514,25.625,127.854z M32.233,147.915c-0.483,0.39-1.073,0.472-1.599,0.28
		c0.407,0.107,0.855,0.018,1.204-0.28c0.596-0.49,0.672-1.36,0.183-1.938c-0.49-0.584-1.346-0.658-1.918-0.168
		c-0.354,0.299-0.52,0.729-0.478,1.154c-0.095-0.552,0.082-1.143,0.549-1.531c0.673-0.578,1.682-0.486,2.26,0.197
		C33.007,146.314,32.912,147.339,32.233,147.915z M27.927,142.828c-0.773,0.661-1.782,0.806-2.638,0.469
		c0.66,0.189,1.404,0.039,2-0.469c0.968-0.82,1.092-2.277,0.277-3.258c-0.815-0.979-2.219-1.104-3.163-0.291
		c-0.572,0.507-0.85,1.238-0.784,1.953c-0.165-0.935,0.136-1.935,0.891-2.582c1.104-0.965,2.797-0.812,3.747,0.336
		C29.23,140.145,29.077,141.861,27.927,142.828z M37.586,141.602c-0.307-0.578-0.62-1.146-0.944-1.692l0.638,2.183L37.586,141.602z"
		/>
	<path fill="#D3D3D3" d="M41.279,160.3c0.602,0.862,0.968,1.499,0.85,1.661c-0.118,0.15-0.814-0.044-1.806-0.416
		c0.189-0.171,0.366-0.357,0.52-0.555C41.014,160.766,41.161,160.536,41.279,160.3z"/>
	<path fill="#D3D3D3" d="M34.163,153.001c-0.112,0.817-0.425,1.587-0.944,2.251c-0.501,0.584-1.145,1.012-1.876,1.316
		c-0.225-0.277-0.401-0.563-0.596-0.838c-0.006-0.014-0.018-0.023-0.023-0.037c-0.065-0.07-0.118-0.174-0.172-0.276
		c0,0,0-0.003-0.012-0.003c-0.318-0.734-0.289-1.555,0.178-2.165c0.442-0.582,1.168-0.826,1.935-0.729
		c0.148,0.03,0.296,0.061,0.449,0.102c0,0,0.006,0,0.006,0.003C33.496,152.725,33.827,152.836,34.163,153.001z"/>
	<path fill="#D3D3D3" d="M35.709,154.037c0.861,0.667,3.464,3.486,5.104,5.617c-0.142,0.314-0.325,0.613-0.549,0.894
		c-0.195,0.263-0.431,0.501-0.685,0.705c-2.49-1.015-6.03-2.762-6.909-3.437c-0.349-0.268-0.626-0.504-0.862-0.729
		c0.785-0.321,1.458-0.829,1.995-1.438c0.543-0.646,0.85-1.438,0.968-2.287C35.049,153.541,35.35,153.756,35.709,154.037z"/>
	<polygon fill="#D3D3D3" points="30.67,153.794 27.779,150.85 31.325,152.921 	"/>
	<path fill="#D3D3D3" d="M30.729,151.438c0.124,0.096-0.153,0.649-0.597,1.236c-0.46,0.6-0.914,1.006-1.044,0.912
		c-0.118-0.094,0.159-0.661,0.602-1.254C30.151,151.75,30.605,151.34,30.729,151.438z"/>
	<path fill="#D3D3D3" d="M29.455,151.204c0.07,0.05-0.077,0.36-0.331,0.688c-0.248,0.317-0.513,0.543-0.584,0.491
		c-0.064-0.053,0.083-0.354,0.343-0.682C29.13,151.375,29.396,151.15,29.455,151.204z"/>
	<path fill="#D3D3D3" d="M45.15,154.102c-0.035,0.138-0.083,0.293-0.136,0.42c-0.077,0.211-0.165,0.435-0.277,0.635
		c-0.136,0.268-0.301,0.51-0.496,0.732c-0.271,0.334-0.59,0.68-0.95,0.988c-0.224,0.178-0.442,0.336-0.648,0.473
		c-0.484,0.276-0.956,0.447-1.458,0.562c-0.171,0.042-0.324,0.075-0.483,0.104c-0.147,0.016-0.295,0.045-0.442,0.047l-3.966-4.34
		l0.242-0.022c0.561-0.08,1.121-0.242,1.635-0.487c0.283-0.121,0.549-0.277,0.797-0.451c0.076-0.048,0.153-0.106,0.235-0.156
		c0.089-0.073,0.165-0.133,0.26-0.205c0.301-0.243,0.572-0.529,0.809-0.834c0.501-0.623,0.855-1.334,1.056-2.023
		c0.019-0.044,0.024-0.083,0.03-0.141L45.15,154.102z"/>
	<path fill="#D3D3D3" d="M47.321,155.509c0.756,0.638,1.346,1.085,1.517,0.985c0.153-0.092,0.071-0.762-0.147-1.735
		c-0.194,0.153-0.401,0.302-0.631,0.431C47.829,155.326,47.569,155.423,47.321,155.509z"/>
	<path fill="#D3D3D3" d="M40.996,147.432c0.809,0.002,1.611-0.188,2.343-0.604c0.708-0.407,1.28-0.982,1.693-1.67
		c-0.248-0.27-0.508-0.493-0.814-0.729c-0.012-0.013-0.023-0.021-0.023-0.029c-0.106-0.076-0.2-0.146-0.307-0.215l-0.006-0.002
		c-0.679-0.439-1.505-0.519-2.172-0.141c-0.613,0.361-0.962,1.064-0.968,1.838c0,0.146,0.018,0.303,0.029,0.458
		c0,0.003,0,0.013,0,0.013C40.819,146.736,40.89,147.074,40.996,147.432z"/>
	<path fill="#D3D3D3" d="M41.781,149.098c0.543,0.95,3.086,3.947,4.985,5.868c0.319-0.097,0.638-0.233,0.944-0.407
		c0.277-0.162,0.555-0.354,0.791-0.58c-0.644-2.607-1.877-6.353-2.426-7.33c-0.224-0.379-0.425-0.688-0.607-0.948
		c-0.425,0.723-1.026,1.323-1.782,1.758c-0.761,0.428-1.593,0.634-2.425,0.634C41.397,148.378,41.562,148.705,41.781,149.098z"/>
	<polygon fill="#D3D3D3" points="42.253,144.064 39.769,140.749 41.32,144.604 	"/>
	<path fill="#D3D3D3" d="M39.928,143.793c0.077,0.137,0.673-0.057,1.316-0.432c0.637-0.371,1.109-0.784,1.032-0.92
		c-0.076-0.135-0.661,0.06-1.304,0.432C40.317,143.25,39.852,143.663,39.928,143.793z"/>
	<path fill="#D3D3D3" d="M39.881,142.471c0.047,0.077,0.366-0.029,0.731-0.236c0.354-0.209,0.608-0.434,0.579-0.506
		c-0.048-0.074-0.372,0.031-0.732,0.235C40.105,142.17,39.84,142.396,39.881,142.471z"/>
	<path fill="#D3D3D3" d="M24.828,127.654c-1.238,0.777-2.454,1.664-3.622,2.652c-1.175,1.021-2.278,2.106-3.281,3.254
		c-0.059-1.74,0.271-3.471,0.708-5.367l-1.682-2.324c-0.778,0.605-1.457,0.932-1.593,0.77c-0.136-0.156,0.336-0.787,1.092-1.457
		l-0.496-0.572c-0.514,0.312-0.944,0.483-1.038,0.391c-0.089-0.08,0.218-0.404,0.696-0.857l-2.225-3.074l2.661,2.723
		c0.524-0.416,0.997-0.655,1.092-0.543c0.082,0.111-0.213,0.511-0.69,0.953l0.578,0.568c0.802-0.603,1.505-0.965,1.651-0.803
		c0.13,0.165-0.33,0.768-1.056,1.333l2.06,2.134C21.524,127.346,23.218,127.318,24.828,127.654z"/>
</g>
<g>
	<path fill="#D3D3D3" d="M183.275,133.293c-0.901,1.23-2.152,3.189-3.48,5.471l0.703,1.206l1.876-4.741l-1.683,8.564l-0.838-1.611
		l-1.209,3.862l-0.763-1.51l-2.034,4.682l0.955-4.823c-0.721,1.498-1.423,2.994-1.994,4.424c0.33,1.16,1.004,2.224,1.978,3.059
		c0.974,0.796,2.095,1.268,3.222,1.416c5.021-3.08,11.471-8.268,13.973-11.027c2.709-3.013,3.83-5.477,4.09-7.859
		c-1.092-1.297-2.317-2.508-3.646-3.637c-1.325-1.109-2.72-2.094-4.166-2.935C187.896,128.493,185.637,130.021,183.275,133.293z
		 M183.395,145.607c0.566-0.687,1.588-0.773,2.268-0.198c0.473,0.393,0.661,0.981,0.564,1.534c0.03-0.426-0.141-0.858-0.5-1.153
		c-0.584-0.493-1.438-0.416-1.925,0.168c-0.483,0.575-0.407,1.449,0.177,1.937c0.345,0.301,0.797,0.387,1.211,0.279
		c-0.537,0.192-1.133,0.109-1.594-0.279C182.904,147.318,182.811,146.298,183.395,145.607z M187.59,138.966
		c0.975-1.146,2.686-1.301,3.836-0.333c0.79,0.646,1.109,1.646,0.938,2.582c0.066-0.717-0.229-1.451-0.824-1.953
		c-0.984-0.812-2.426-0.688-3.245,0.286c-0.832,0.981-0.702,2.438,0.283,3.267c0.597,0.5,1.362,0.651,2.062,0.463
		c-0.887,0.34-1.92,0.188-2.703-0.463C186.775,141.84,186.634,140.123,187.59,138.966z M178.551,142.07l0.625-2.186
		c-0.307,0.553-0.625,1.115-0.933,1.697L178.551,142.07z"/>
	<path fill="#D3D3D3" d="M174.557,160.279c-0.597,0.861-0.963,1.498-0.839,1.66c0.118,0.149,0.81-0.041,1.788-0.416
		c-0.189-0.168-0.354-0.354-0.508-0.559C174.833,160.749,174.686,160.516,174.557,160.279z"/>
	<path fill="#D3D3D3" d="M181.654,152.98c0.111,0.818,0.425,1.586,0.938,2.25c0.502,0.588,1.157,1.013,1.883,1.315
		c0.227-0.276,0.401-0.562,0.604-0.841c0.012-0.014,0.02-0.016,0.02-0.025c0.069-0.074,0.123-0.185,0.184-0.277v-0.004
		c0.336-0.739,0.295-1.562-0.166-2.168c-0.461-0.584-1.18-0.828-1.952-0.729c-0.142,0.022-0.296,0.06-0.449,0.099l-0.012,0.002
		C182.314,152.703,181.99,152.814,181.654,152.98z"/>
	<path fill="#D3D3D3" d="M180.104,154.016c-0.854,0.668-3.459,3.487-5.076,5.618c0.138,0.315,0.313,0.614,0.537,0.894
		c0.207,0.264,0.438,0.5,0.69,0.705c2.479-1.008,6.001-2.756,6.897-3.438c0.354-0.266,0.625-0.504,0.854-0.729
		c-0.778-0.321-1.464-0.826-1.993-1.433c-0.543-0.653-0.855-1.444-0.976-2.295C180.764,153.52,180.456,153.738,180.104,154.016z"/>
	<polygon fill="#D3D3D3" points="185.159,153.773 188.074,150.83 184.492,152.902 	"/>
	<path fill="#D3D3D3" d="M185.094,151.417c-0.123,0.095,0.147,0.651,0.608,1.239c0.472,0.596,0.944,1.003,1.062,0.912
		c0.125-0.098-0.146-0.664-0.605-1.258C185.686,151.729,185.218,151.322,185.094,151.417z"/>
	<path fill="#D3D3D3" d="M186.398,151.182c-0.071,0.053,0.082,0.362,0.33,0.692c0.26,0.317,0.52,0.54,0.578,0.487
		c0.063-0.057-0.082-0.353-0.33-0.676C186.723,151.357,186.469,151.13,186.398,151.182z"/>
	<path fill="#D3D3D3" d="M170.715,154.078c0.041,0.143,0.076,0.295,0.137,0.428c0.069,0.207,0.164,0.428,0.258,0.628
		c0.138,0.277,0.295,0.515,0.496,0.738c0.268,0.333,0.59,0.676,0.957,0.987c0.229,0.175,0.438,0.336,0.647,0.47
		c0.483,0.274,0.944,0.451,1.458,0.563c0.159,0.033,0.307,0.072,0.473,0.1c0.143,0.018,0.289,0.044,0.43,0.047l3.941-4.34
		l-0.234-0.026c-0.543-0.077-1.104-0.239-1.623-0.483c-0.288-0.121-0.549-0.276-0.803-0.451c-0.076-0.049-0.16-0.106-0.229-0.159
		c-0.089-0.071-0.165-0.13-0.254-0.201c-0.297-0.245-0.572-0.526-0.805-0.835c-0.5-0.617-0.85-1.333-1.056-2.023
		c-0.012-0.037-0.024-0.082-0.036-0.14L170.715,154.078z"/>
	<path fill="#D3D3D3" d="M168.514,155.488c-0.756,0.637-1.352,1.088-1.517,0.988c-0.177-0.097-0.083-0.763,0.142-1.742
		c0.2,0.16,0.413,0.305,0.639,0.435C168.018,155.305,168.271,155.411,168.514,155.488z"/>
	<path fill="#D3D3D3" d="M174.846,147.41c-0.798,0.003-1.611-0.189-2.332-0.605c-0.714-0.406-1.285-0.979-1.682-1.666
		c0.242-0.27,0.484-0.494,0.791-0.731c0.012-0.013,0.018-0.019,0.029-0.026c0.101-0.076,0.207-0.15,0.301-0.215l0.012-0.006
		c0.686-0.438,1.506-0.518,2.16-0.141c0.625,0.367,0.962,1.065,0.968,1.836c-0.006,0.152-0.012,0.308-0.028,0.459
		c0,0.008-0.006,0.011,0,0.014C175.021,146.721,174.951,147.053,174.846,147.41z"/>
	<path fill="#D3D3D3" d="M174.072,149.08c-0.549,0.949-3.08,3.943-4.986,5.865c-0.318-0.098-0.645-0.23-0.949-0.407
		c-0.289-0.159-0.562-0.354-0.81-0.578c0.667-2.61,1.889-6.354,2.442-7.332c0.225-0.378,0.406-0.688,0.603-0.95
		c0.442,0.728,1.026,1.325,1.782,1.758c0.761,0.433,1.599,0.635,2.431,0.635C174.438,148.359,174.271,148.688,174.072,149.08z"/>
	<polygon fill="#D3D3D3" points="173.588,144.047 176.066,140.729 174.521,144.587 	"/>
	<path fill="#D3D3D3" d="M175.9,143.775c-0.076,0.133-0.666-0.061-1.305-0.436c-0.638-0.372-1.104-0.781-1.025-0.92
		c0.07-0.133,0.654,0.061,1.304,0.432C175.518,143.229,175.979,143.646,175.9,143.775z"/>
	<path fill="#D3D3D3" d="M175.948,142.454c-0.041,0.073-0.372-0.035-0.726-0.242c-0.351-0.204-0.604-0.428-0.562-0.505
		c0.041-0.074,0.357,0.033,0.714,0.236C175.729,142.152,175.995,142.377,175.948,142.454z"/>
	<path fill="#D3D3D3" d="M191.096,127.634c1.299,0.776,2.536,1.667,3.723,2.655c1.191,1.021,2.312,2.104,3.316,3.249
		c0.064-1.738-0.254-3.468-0.689-5.364l1.693-2.322c0.783,0.601,1.444,0.934,1.58,0.769c0.147-0.157-0.324-0.785-1.068-1.458
		l0.49-0.566c0.496,0.315,0.938,0.481,1.026,0.385c0.089-0.068-0.206-0.404-0.696-0.855l2.219-3.074l-2.644,2.721
		c-0.53-0.416-1.003-0.654-1.091-0.547c-0.096,0.112,0.206,0.515,0.689,0.957l-0.584,0.574c-0.814-0.607-1.522-0.971-1.664-0.809
		c-0.138,0.171,0.324,0.781,1.051,1.337l-2.096,2.133C194.5,127.328,192.771,127.298,191.096,127.634z"/>
</g>
<path fill="#FFFFFF" d="M206.648,107.159L187.43,120.73l-0.089-0.017c0.731-4.397,1.115-8.927,1.115-13.557
	c0-45.233-36.688-81.844-81.917-81.844c-45.175,0-81.823,36.61-81.823,81.844c0,4.629,0.377,9.157,1.062,13.557l-0.094,0.017
	L6.648,107.159c0-55.208,44.656-100.08,99.892-100.08C161.738,7.08,206.648,51.951,206.648,107.159z"/>
<g id="Capa_6">
</g>
<g id="Capa_4" display="none">
	<g display="inline">
		<path d="M87.63,153.834c-4.229-0.71-8.58-1.07-13.01-1.07c-4.5,0-8.91,0.37-13.21,1.102c-3.41,5.158-5.29,11.85-4.891,22.26
			c0.37,9.529,4.49,30.38,9.271,44.74c2.51,1.6,5.51,2.539,8.729,2.539c3.32,0,6.41-1,8.99-2.721c1.21-3.77,2.32-7.869,3.33-12.029
			l-6.05,11.091l3.71-12.58l-4.01,1.68l3.939-9.59l-4.29,1.79l10.83-19.63l-4.14,12.43l3.34-1.229
			c1.18-6.659,1.96-12.579,2.23-16.489C93.12,165.764,91.19,159.044,87.63,153.834z M67.7,204.344c-1.561,0-2.91-0.85-3.63-2.109
			c0.63,0.899,1.689,1.479,2.87,1.479c1.96,0,3.54-1.58,3.54-3.53c0-1.959-1.58-3.539-3.54-3.539c-1.19,0-2.24,0.59-2.87,1.489
			c0.72-1.27,2.069-2.12,3.63-2.12c2.3,0,4.17,1.87,4.17,4.17C71.87,202.484,70,204.344,67.7,204.344z M67.51,187.174
			c-2.609,0-4.89-1.43-6.09-3.55c1.061,1.51,2.83,2.49,4.83,2.49c3.27,0,5.93-2.66,5.93-5.94c0-3.279-2.66-5.93-5.93-5.93
			c-2,0-3.77,0.98-4.83,2.49c1.2-2.12,3.48-3.562,6.09-3.562c3.87,0,7,3.142,7,7C74.51,184.044,71.38,187.174,67.51,187.174z
			 M88.61,200.764c0.34-1.648,0.67-3.279,0.97-4.88l-2.37,5.33L88.61,200.764z"/>
		<g>
			<polygon points="54.875,213.325 54.004,202.705 57.623,212.727 			"/>
			<ellipse transform="matrix(-0.9771 0.2129 -0.2129 -0.9771 154.324 402.4258)" cx="55.492" cy="209.523" rx="3.497" ry="0.719"/>
			
				<ellipse transform="matrix(-0.9772 0.2123 -0.2123 -0.9772 152.3218 396.8192)" cx="54.853" cy="206.589" rx="1.927" ry="0.397"/>
		</g>
		<g>
			<polygon points="93.828,213.346 94.34,202.702 91.061,212.841 			"/>
			<ellipse transform="matrix(0.9837 0.1797 -0.1797 0.9837 39.1751 -13.3164)" cx="93.09" cy="209.575" rx="3.497" ry="0.718"/>
			<path d="M91.731,206.273c-0.04,0.213,0.776,0.543,1.824,0.734c1.046,0.189,1.927,0.172,1.966-0.045
				c0.038-0.215-0.779-0.545-1.823-0.734C92.648,206.038,91.77,206.059,91.731,206.273z"/>
		</g>
		<path d="M86.3,152.034c-3.81-0.56-7.71-0.851-11.68-0.851c-4.05,0-8.021,0.301-11.91,0.881c2.74-3.521,6.25-6.371,10.23-9.4
			l0.54-7.42c-2.521-0.11-4.4-0.561-4.4-1.11c0-0.549,1.96-1,4.56-1.1l0.16-2.16c-1.64-0.08-2.85-0.38-2.85-0.74
			s1.27-0.659,2.96-0.729l0.71-9.721l0.72,9.721c1.73,0.061,3.05,0.369,3.05,0.729c0,0.37-1.26,0.671-2.939,0.75l0.149,2.15
			c2.641,0.079,4.65,0.54,4.65,1.1c0,0.55-1.92,1.011-4.48,1.11l0.561,7.689C80.15,145.844,83.59,148.634,86.3,152.034z"/>
	</g>
</g>
</svg>
