<?xml version="1.0" encoding="utf-8"?>
<!-- Generator: Adobe Illustrator 16.0.0, SVG Export Plug-In . SVG Version: 6.00 Build 0)  -->
<!DOCTYPE svg PUBLIC "-//W3C//DTD SVG 1.1//EN" "http://www.w3.org/Graphics/SVG/1.1/DTD/svg11.dtd">
<svg version="1.1" id="Capa_1" xmlns="http://www.w3.org/2000/svg" xmlns:xlink="http://www.w3.org/1999/xlink" x="0px" y="0px"
	 width="213px" height="210px" viewBox="0 0 213 210" enable-background="new 0 0 213 210" xml:space="preserve">
<g id="Capa_1_1_">
</g>
<g id="Capa_2">
</g>
<path fill="none" d="M193.754,106.129c0-48.395-39.207-87.582-87.574-87.582c-48.367,0-87.418,39.188-87.418,87.582
	c0,48.324,39.051,87.578,87.418,87.578C154.547,193.707,193.754,154.453,193.754,106.129z"/>
<g enable-background="new    ">
	<path fill="#FFFFFF" d="M52.083,175.332l14.301-8.805l0.355,0.234l-2.396,16.648l-0.373-0.246l0.761-5.355l-7.688-5.064
		l-4.588,2.834L52.083,175.332z M57.434,172.516l7.351,4.843l1.527-10.319L57.434,172.516z"/>
</g>
<g enable-background="new    ">
	<path fill="#FFFFFF" d="M81.058,178.995c-0.972,2.275-3.626,3.325-5.901,2.354l-4.364-1.864l-2.445,5.726l-0.354-0.151
		l5.974-13.986l4.719,2.016C80.96,174.059,82.029,176.721,81.058,178.995z M74.17,171.578l-3.227,7.553l4.364,1.863
		c2.06,0.857,4.465-0.078,5.357-2.166c0.892-2.089-0.079-4.51-2.168-5.402L74.17,171.578z"/>
</g>
<g enable-background="new    ">
	<path fill="#FFFFFF" d="M91.084,176.919c4.125,0.876,6.755,4.896,5.878,9.022c-0.876,4.126-4.912,6.73-9.037,5.855
		c-4.126-0.877-6.736-4.893-5.86-9.02C82.942,178.651,86.958,176.043,91.084,176.919z M88.006,191.42
		c3.928,0.834,7.746-1.631,8.58-5.559s-1.654-7.732-5.582-8.566c-3.929-0.834-7.728,1.635-8.562,5.562S84.077,190.586,88.006,191.42
		z"/>
</g>
<g enable-background="new    ">
	<path fill="#FFFFFF" d="M100.735,193.242l9.103,0.15l-0.006,0.387l-9.489-0.158l0.253-15.219l0.385,0.006L100.735,193.242z"/>
</g>
<g enable-background="new    ">
	<path fill="#FFFFFF" d="M118.92,177.369c4.153-0.738,8.101,2.003,8.84,6.158c0.739,4.156-2.021,8.089-6.175,8.827
		c-4.152,0.738-8.08-2.006-8.819-6.162C112.026,182.037,114.768,178.107,118.92,177.369z M121.518,191.975
		c3.953-0.703,6.566-4.423,5.863-8.38c-0.704-3.956-4.44-6.55-8.394-5.847s-6.546,4.421-5.843,8.377
		C113.849,190.082,117.564,192.678,121.518,191.975z"/>
</g>
<g enable-background="new    ">
	<path fill="#FFFFFF" d="M138.717,175.352c-1.048-1.947-0.322-4.363,1.624-5.412c1.946-1.047,4.363-0.322,5.411,1.625
		c0.403,0.75,0.548,1.617,0.42,2.492l-1.217,10.233l5.946-3.2l0.183,0.34l-6.607,3.557l1.296-10.945
		c0.122-0.758,0.017-1.553-0.377-2.285c-0.942-1.75-3.112-2.401-4.862-1.459c-1.75,0.941-2.401,3.111-1.459,4.861L138.717,175.352z"
		/>
</g>
<g enable-background="new    ">
	<path fill="#FFFFFF" d="M148.682,169.701c-1.326-1.77-0.969-4.268,0.799-5.594c1.769-1.326,4.267-0.97,5.594,0.799
		c0.51,0.682,0.781,1.516,0.786,2.4l0.324,10.302l5.402-4.052l0.231,0.309l-6.002,4.502l-0.354-11.016
		c0.008-0.767-0.215-1.537-0.713-2.201c-1.193-1.59-3.436-1.911-5.025-0.719s-1.91,3.436-0.718,5.025L148.682,169.701z"/>
</g>
<path fill="#E2E1E0" d="M144.688,67.764c-3.746-7.833-16.793-9.954-25.021-10.423c-9.438-0.546-20.169,0.236-29.303,2.638
	c-3.883,1.042-21.349,9.65-21.496,10.355c-0.053,0.207-0.908,0.534-0.962,0.737c-1.734,1.346,0.709,44.517,1.104,48.686
	c0.785,8.046,2.484,14.558,3.11,17.003c1.133,4.449,3.629,9.907,5.239,11.491c2.974,3.629,12.898,12.489,18.298,15.56
	c4.484,2.508,9.116,2.325,14.157,2.325c4.178,0,7.059-0.891,10.633-2.886c3.134-1.749,14.517-14.468,16.457-20.688
	c0.549-1.797,3.994-13.27,4.943-18.062c1.477-7.786,3.315-36.197,3.41-39.894C145.312,78.011,144.945,68.319,144.688,67.764z"/>
<path d="M104.339,90.555c-5.092-2.522-20.05-9.993-22.499-8.883c-1.021,0.469-1.971,0.891-2.897,1.599
	c-0.082,0.056-0.702,0.487-1.604,1.215c-2.242,1.803-6.385,6.792-3.027,5.662c1.629-0.555,5.353-2.876,5.913-2.924
	c0.867-0.071,4.23,0.788,4.295,0.809c4.591,1.439,8.792,3.992,13.619,4.638C100.45,92.924,107.432,92.101,104.339,90.555z"/>
<path d="M142.869,92.116c-4.143-2.835-6.844-6.154-11.824-6.154c-4.467,0-2.695,2.892-14.049,1.133
	c-1.936-0.298-5.135,2.614-2.29,3.095c3.353,0.563,6.137,1.658,9.553,2.177c2.325,0.328,10.875-0.797,12.728,0.437
	C138.691,93.883,144.876,93.394,142.869,92.116z"/>
<path fill="#44240A" d="M65.454,98.657c0.826,0.543,1.286,1.263,1.563,2.192c0.72,2.39,1.511,4.776,2.248,7.165
	c1.299,4.125,4.16,6.502,8.249,7.467c4.951,1.174,9.824,0.658,14.687-0.336c3.753-0.765,6.738-3.347,8.143-7.094
	c0.986-2.611,1.776-4.723,2.649-7.37c0.525-1.567,1.216-2.174,2.821-2.313c0.489-0.039,0.991-0.018,1.48-0.006
	c2.36,0.062,3.062,0.737,3.683,3.039c0.637,2.511,1.146,5.098,2.2,7.46c1.623,3.671,3.865,5.363,7.808,6.763
	c2.996,1.056,5.844,1.49,9.033,1.549c2.448,0.048,5.211-0.276,7.487-1.032c2.998-0.978,5.334-2.76,6.497-5.772
	c1.079-2.794,2.023-5.62,3.092-8.405c0.219-0.584,0.625-1.215,1.139-1.514c0.838-0.496,1.095-1.165,1.101-2.039
	c0.013-0.531-0.036-1.059,0.021-1.575c0.123-1.083-0.354-1.573-1.363-1.773c-4.002-0.767-8.024-1.796-12.127-2.248
	c-8.254-1.039-16.367-0.788-24.232,2.281c-3.027,1.263-6.302,1.142-9.341-0.177c-5.476-2.263-11.128-3.419-16.822-3.354
	c-5.972-0.224-11.801,0.67-17.619,1.717c-3.269,0.646-3.594,0.988-3.074,4.269C64.834,97.949,65.111,98.438,65.454,98.657z
	 M115.479,95.388c2.646-1.254,5.465-1.693,8.326-1.936c6.029-0.499,11.948,0.053,17.695,1.968c2.667,0.918,3.552,2.187,3.486,5.048
	c-0.094,3.717-0.743,7.313-2.508,10.668c-0.894,1.697-2.283,2.785-4.041,3.446c-2.668,1.006-5.453,1.27-8.42,1.26
	c-3.391-0.115-6.801-0.755-10.037-2.162c-1.76-0.756-3.198-1.88-4.195-3.521c-1.895-3.089-3.157-6.37-3.232-10.037
	C112.512,97.901,113.502,96.35,115.479,95.388z M69.071,98.81c0.112-2.57,1.038-3.773,3.476-4.561
	c4.343-1.36,8.827-1.62,13.323-1.658c3.712,0.168,7.518,0.416,11.146,1.832c0.519,0.195,1.032,0.452,1.54,0.696
	c1.959,1.021,2.885,2.676,2.702,4.868c-0.349,4.266-1.906,8.07-4.809,11.248c-1.44,1.592-3.458,2.211-5.477,2.75
	c-4.855,1.33-9.747,1.404-14.704-0.104c-2.814-0.859-4.732-2.634-5.699-5.445C69.49,105.312,68.924,102.123,69.071,98.81z"/>
<path fill="none" stroke="#000000" stroke-miterlimit="10" d="M131.959,68.41c-5.357-1.136-10.945-1.731-16.682-1.731
	c-8.797,0-17.271,1.422-25.088,4.021c0.419-3.295,1.139-6.378,2.13-9.013c7.24-1.979,14.958-3.042,22.958-3.042
	c5.123,0,10.103,0.434,14.93,1.248C131.045,62.335,131.641,65.215,131.959,68.41z"/>
<path fill="#191F4F" d="M145.254,73.394c-4.125-1.522-8.621-2.741-13.171-3.6c-0.041-0.469-0.076-0.935-0.124-1.384
	c-0.318-3.195-0.914-6.075-1.752-8.518c-4.827-0.814-9.807-1.248-14.93-1.248c-8,0-15.718,1.062-22.958,3.042
	c-0.991,2.635-1.711,5.718-2.13,9.013c-0.054,0.387-0.095,0.779-0.13,1.174c-8.296,2.561-16.015,6.375-22.735,11.155
	c-0.105-1.106-0.159-2.221-0.188-3.349c-0.012-0.236-0.012-0.478-0.012-0.723v-0.413c0-24.195,16.94-41.85,40.095-41.85
	c22.67,0,37.161,12.807,37.924,35.725C145.124,72.411,145.248,73.063,145.254,73.394z"/>
<path fill="#F94848" d="M132.083,69.794c-5.175-1.006-10.532-1.555-16.079-1.59h-0.023c-0.229-0.012-0.465-0.012-0.701-0.012
	c-8.843,0-17.363,1.313-25.217,3.682c0.035-0.396,0.076-0.788,0.13-1.174c0.419-3.295,1.139-6.378,2.13-9.013
	c7.24-1.979,14.958-3.042,22.958-3.042c5.121,0,10.104,0.434,14.931,1.248c0.838,2.443,1.437,5.323,1.752,8.518
	C132.007,68.859,132.042,69.325,132.083,69.794z"/>
<path fill="#A5A5A5" d="M128.867,55.408c3.08,0.856,5.146,1.626,5.081,1.944c-0.071,0.301-2.013,0.15-4.845-0.336
	c0.059,0.13,0.109,0.248,0.17,0.384c2.854,0.799,4.738,1.522,4.675,1.82c-0.065,0.271-1.646,0.171-4.054-0.209
	c0.117,0.295,0.217,0.587,0.312,0.882c-4.827-0.814-9.808-1.248-14.929-1.248c-6.58,0-13,0.726-19.125,2.092
	c-1.168,0.253-2.318,0.537-3.457,0.85c-0.13,0.032-0.242,0.062-0.378,0.1c0.242-0.705,0.514-1.381,0.779-2.044
	c0.247-1.139,0.566-2.357,0.932-3.638c1.623-5.582,3.706-9.89,4.662-9.618c0.53,0.163,0.566,1.809,0.188,4.26
	c0.602-0.799,1.286-1.634,2.012-2.478c3.983-4.62,7.965-7.683,8.898-6.868c0.378,0.321,0.198,1.212-0.399,2.472
	c2.873-1.641,5.051-2.417,5.428-1.871c0.309,0.44-0.603,1.641-2.26,3.175c0.736,0.029,1.469,0.094,2.158,0.209
	c5.376-1.744,9.872-2.419,10.167-1.522c0.214,0.643-1.733,1.9-4.772,3.236c1.395,0.685,2.681,1.582,3.849,2.664
	c3.924-0.375,6.731-0.41,6.778-0.026c0.049,0.31-2.116,0.888-5.362,1.442c0.159,0.189,0.317,0.378,0.479,0.579h0.006
	c4.77,0.195,8.345,1.009,8.345,1.979C134.201,54.388,132.042,55.054,128.867,55.408z"/>
<path fill="none" d="M205.121,106.133c0-54.617-44.355-98.945-98.941-98.945c-54.609,0-98.828,44.328-98.828,98.945
	c0,54.605,44.219,98.953,98.828,98.953C160.766,205.086,205.121,160.738,205.121,106.133z"/>
<g enable-background="new    ">
	<path fill="#E2E1E0" d="M42.239,181.597l3.489-4.227l1.287,1.062c0.349,0.288,0.529,0.587,0.542,0.896
		c0.013,0.311-0.107,0.621-0.361,0.932l-1.619,1.982c-0.349,0.423-0.692,0.67-1.028,0.74c-0.336,0.07-0.688-0.047-1.056-0.35
		L42.239,181.597z M46.05,178.893l-2.234,2.707c0.007,0.003,0.019,0.011,0.035,0.023c0.011,0.009,0.029,0.027,0.057,0.053
		c0.028,0.025,0.051,0.045,0.069,0.06c0.179,0.147,0.33,0.147,0.454-0.004l1.722-2.085c0.127-0.154,0.19-0.28,0.189-0.377
		c-0.001-0.098-0.062-0.197-0.182-0.297C46.139,178.957,46.103,178.931,46.05,178.893z"/>
</g>
<g enable-background="new    ">
	<path fill="#E2E1E0" d="M46.2,184.781l3.307-4.37l0.933,0.706l-3.307,4.37L46.2,184.781z"/>
</g>
<g enable-background="new    ">
	<path fill="#E2E1E0" d="M50.9,188.171l0.095-0.499c-0.377,0.166-0.75,0.121-1.121-0.135c-0.719-0.498-0.756-1.211-0.112-2.141
		l1.351-1.952c0.147-0.213,0.304-0.38,0.471-0.498c0.165-0.12,0.319-0.194,0.461-0.223c0.141-0.028,0.29-0.028,0.443,0.003
		c0.154,0.031,0.284,0.073,0.392,0.127c0.106,0.053,0.217,0.119,0.33,0.197c0.14,0.096,0.259,0.193,0.358,0.291
		c0.1,0.099,0.175,0.197,0.229,0.295c0.054,0.099,0.093,0.195,0.12,0.29s0.033,0.194,0.021,0.299
		c-0.013,0.104-0.03,0.203-0.058,0.294c-0.025,0.094-0.069,0.196-0.127,0.31c-0.059,0.114-0.118,0.218-0.175,0.312
		c-0.059,0.094-0.129,0.202-0.214,0.324l-0.951-0.657l0.247-0.356c0.05-0.072,0.084-0.136,0.101-0.193
		c0.018-0.059,0.02-0.105,0.006-0.145s-0.03-0.07-0.048-0.092c-0.018-0.022-0.041-0.043-0.069-0.062
		c-0.057-0.039-0.108-0.064-0.153-0.073c-0.044-0.009-0.085-0.009-0.121,0c-0.034,0.01-0.078,0.04-0.128,0.093
		c-0.051,0.053-0.095,0.105-0.134,0.156c-0.039,0.053-0.097,0.135-0.175,0.247l-1.206,1.743c-0.046,0.066-0.081,0.123-0.108,0.172
		c-0.026,0.049-0.05,0.104-0.069,0.169c-0.02,0.064-0.02,0.124,0,0.179c0.021,0.054,0.061,0.102,0.12,0.144
		c0.101,0.069,0.194,0.076,0.28,0.021c0.089-0.055,0.192-0.171,0.313-0.346l0.36-0.521l-0.266-0.184l0.538-0.777l1.205,0.834
		l-1.816,2.625L50.9,188.171z"/>
</g>
<g enable-background="new    ">
	<path fill="#E2E1E0" d="M53.064,189.592l2.926-4.634l0.989,0.624l-2.926,4.635L53.064,189.592z"/>
</g>
<g enable-background="new    ">
	<path fill="#E2E1E0" d="M58.471,186.502l2.295,1.325l-0.528,0.915l-0.623-0.359l-2.213,3.83l-1.048-0.605l2.213-3.832l-0.624-0.359
		L58.471,186.502z"/>
</g>
<g enable-background="new    ">
	<path fill="#E2E1E0" d="M64.302,189.7l-1.976,5.147l-1.04-0.537l0.303-0.773l-0.544-0.281l-0.446,0.699l-1.046-0.54l3.065-4.585
		L64.302,189.7z M63.026,190.198l-0.098-0.05l-1.35,2.262l0.385,0.199L63.026,190.198z"/>
</g>
<g enable-background="new    ">
	<path fill="#E2E1E0" d="M64.093,195.696l2.284-4.982l1.101,0.505l-1.838,4.009l1.133,0.52l-0.446,0.973L64.093,195.696z"/>
</g>
<g enable-background="new    ">
	<path fill="#E2E1E0" d="M71.355,197.36c0.036-0.099,0.066-0.179,0.09-0.237c0.025-0.061,0.06-0.138,0.105-0.233
		c0.045-0.096,0.09-0.176,0.136-0.239c0.045-0.064,0.104-0.137,0.177-0.219c0.072-0.08,0.148-0.15,0.229-0.209
		c0.081-0.058,0.178-0.115,0.291-0.17c0.113-0.056,0.236-0.103,0.37-0.143c-0.026-0.217-0.034-0.436-0.022-0.658
		c0.011-0.221,0.044-0.408,0.101-0.562c0.12-0.332,0.321-0.548,0.602-0.649c0.281-0.1,0.58-0.093,0.899,0.023
		c0.14,0.051,0.267,0.121,0.383,0.208c0.114,0.087,0.212,0.188,0.291,0.307s0.127,0.255,0.143,0.409
		c0.018,0.155-0.004,0.315-0.064,0.481c-0.165,0.452-0.574,0.79-1.228,1.011l0.029,0.556c0.246-0.281,0.524-0.467,0.832-0.558
		l0.195,0.865c-0.326,0.109-0.66,0.368-1.005,0.777l0.07,1.606l-1.098-0.399l-0.007-0.356c-0.14,0.085-0.296,0.134-0.468,0.148
		c-0.171,0.013-0.334-0.009-0.492-0.066c-0.133-0.048-0.252-0.12-0.354-0.214c-0.103-0.096-0.185-0.212-0.247-0.349
		c-0.062-0.138-0.091-0.304-0.086-0.499C71.229,197.797,71.273,197.587,71.355,197.36z M72.388,197.602
		c-0.002,0.006-0.006,0.017-0.012,0.031c-0.026,0.071-0.046,0.13-0.06,0.174c-0.014,0.045-0.027,0.106-0.041,0.186
		c-0.014,0.078-0.011,0.143,0.009,0.193c0.021,0.052,0.058,0.087,0.111,0.106c0.045,0.017,0.092,0.021,0.141,0.013
		c0.047-0.008,0.087-0.022,0.119-0.042c0.033-0.021,0.064-0.046,0.097-0.077c0.033-0.03,0.055-0.052,0.064-0.064
		c0.009-0.013,0.016-0.022,0.022-0.03l-0.052-1.084l-0.062,0.046c-0.042,0.029-0.096,0.094-0.162,0.192
		S72.438,197.463,72.388,197.602z M73.892,195.036c-0.042,0.116-0.06,0.309-0.052,0.577l0.077-0.038
		c0.053-0.026,0.114-0.077,0.185-0.152c0.07-0.074,0.121-0.159,0.156-0.254c0.049-0.136,0.012-0.227-0.116-0.273
		c-0.054-0.02-0.104-0.015-0.15,0.014S73.912,194.979,73.892,195.036z"/>
</g>
<g enable-background="new    ">
	<path fill="#E2E1E0" d="M82.406,199.786l-0.271,1c-0.125,0.46-0.347,0.763-0.667,0.908c-0.32,0.146-0.713,0.154-1.183,0.027
		c-0.416-0.112-0.723-0.323-0.919-0.632c-0.197-0.309-0.237-0.683-0.118-1.121l0.665-2.454c0.142-0.524,0.365-0.886,0.666-1.084
		c0.303-0.197,0.699-0.229,1.193-0.095c0.202,0.054,0.381,0.129,0.539,0.225c0.156,0.096,0.288,0.211,0.393,0.344
		c0.104,0.133,0.173,0.289,0.207,0.468c0.032,0.179,0.02,0.37-0.036,0.577l-0.253,0.934l-1.155-0.313l0.167-0.614
		c0.085-0.316,0.035-0.5-0.151-0.551c-0.111-0.029-0.193-0.015-0.248,0.045c-0.053,0.061-0.098,0.152-0.131,0.277l-0.677,2.5
		c-0.029,0.109-0.031,0.21-0.001,0.303c0.028,0.094,0.083,0.151,0.165,0.174c0.075,0.02,0.148,0.008,0.22-0.035
		c0.07-0.044,0.127-0.142,0.168-0.292l0.246-0.91L82.406,199.786z"/>
</g>
<g enable-background="new    ">
	<path fill="#E2E1E0" d="M85.559,200.378l-0.527,2.438l-1.197-0.259l1.158-5.356l1.816,0.393c0.186,0.04,0.34,0.1,0.46,0.179
		c0.122,0.079,0.211,0.167,0.271,0.266c0.058,0.099,0.094,0.221,0.109,0.366c0.015,0.145,0.014,0.286-0.002,0.425
		s-0.044,0.304-0.086,0.496c-0.022,0.102-0.041,0.184-0.058,0.246c-0.018,0.064-0.047,0.143-0.09,0.235
		c-0.042,0.092-0.09,0.167-0.141,0.225c-0.052,0.056-0.124,0.107-0.215,0.153c-0.091,0.047-0.195,0.074-0.312,0.084
		c0.105,0.044,0.188,0.102,0.248,0.171c0.059,0.071,0.096,0.15,0.11,0.238c0.015,0.087,0.02,0.166,0.016,0.237
		c-0.003,0.071-0.014,0.148-0.032,0.233c-0.192,0.886-0.342,1.558-0.45,2.015l-1.157-0.25l0.452-2.089
		c0.018-0.083,0.024-0.15,0.018-0.203c-0.007-0.053-0.03-0.095-0.072-0.126c-0.041-0.032-0.083-0.054-0.124-0.068
		C85.712,200.413,85.647,200.397,85.559,200.378z M85.983,198.452l-0.216,1l0.296,0.063c0.156,0.034,0.271-0.113,0.342-0.441
		c0.047-0.218,0.046-0.362-0.002-0.437c-0.048-0.073-0.167-0.131-0.355-0.172L85.983,198.452z"/>
</g>
<g enable-background="new    ">
	<path fill="#E2E1E0" d="M88.77,203.561l0.896-5.407l2.39,0.396l-0.174,1.049l-1.174-0.193l-0.175,1.055l1.126,0.188l-0.168,1.014
		l-1.126-0.186l-0.204,1.232l1.252,0.207l-0.175,1.056L88.77,203.561z"/>
</g>
<g enable-background="new    ">
	<path fill="#E2E1E0" d="M96.176,199.08l-0.036,5.514l-1.161-0.137l0.01-0.83l-0.608-0.071l-0.17,0.812l-1.169-0.136l1.252-5.371
		L96.176,199.08z M95.156,199.996l-0.108-0.013l-0.466,2.592l0.431,0.051L95.156,199.996z"/>
</g>
<g enable-background="new    ">
	<path fill="#E2E1E0" d="M98.258,199.284l2.643,0.185l-0.074,1.053l-0.717-0.05l-0.309,4.414l-1.208-0.085l0.309-4.414l-0.718-0.049
		L98.258,199.284z"/>
</g>
<g enable-background="new    ">
	<path fill="#E2E1E0" d="M102.486,205.02l0.169-5.478l1.169,0.036l-0.169,5.478L102.486,205.02z"/>
</g>
<g enable-background="new    ">
	<path fill="#E2E1E0" d="M107.965,205.067l-1.651,0.026l-0.835-5.469l1.221-0.02l0.4,3.628l0.302-3.64l1.222-0.02L107.965,205.067z"
		/>
</g>
<g enable-background="new    ">
	<path fill="#E2E1E0" d="M110.617,204.994l-0.307-5.471l2.418-0.137l0.06,1.062l-1.188,0.066l0.06,1.067l1.141-0.063l0.058,1.027
		l-1.141,0.063l0.07,1.246l1.268-0.071l0.06,1.069L110.617,204.994z"/>
</g>
<g enable-background="new    ">
	<path fill="#E2E1E0" d="M118.37,204.352l-0.751-5.43l1.653-0.229c0.447-0.062,0.79,0.008,1.027,0.207
		c0.237,0.201,0.385,0.5,0.441,0.896l0.364,2.533c0.074,0.543,0.024,0.963-0.151,1.258s-0.5,0.476-0.973,0.541L118.37,204.352z
		 M118.958,199.717l0.48,3.477c0.007-0.004,0.021-0.008,0.041-0.01c0.014-0.002,0.04-0.004,0.077-0.007
		c0.038-0.003,0.068-0.007,0.091-0.01c0.229-0.032,0.331-0.144,0.305-0.337l-0.37-2.679c-0.027-0.197-0.078-0.329-0.15-0.394
		s-0.187-0.088-0.341-0.066C119.065,199.694,119.021,199.703,118.958,199.717z"/>
</g>
<g enable-background="new    ">
	<path fill="#E2E1E0" d="M123.426,203.589l-1.016-5.386l2.38-0.449l0.196,1.045l-1.17,0.221l0.199,1.053l1.123-0.213l0.19,1.01
		l-1.123,0.213l0.231,1.227l1.248-0.234l0.198,1.051L123.426,203.589z"/>
</g>
<g enable-background="new    ">
	<path fill="#E2E1E0" d="M129.319,202.423c-0.547,0.131-0.967,0.099-1.26-0.095c-0.292-0.193-0.502-0.553-0.627-1.074l-0.124-0.522
		l1.164-0.278l0.114,0.479c0.082,0.344,0.217,0.493,0.404,0.448c0.088-0.021,0.148-0.071,0.182-0.149
		c0.034-0.08,0.039-0.172,0.013-0.281c-0.034-0.145-0.082-0.26-0.145-0.35c-0.063-0.088-0.144-0.166-0.245-0.236
		c-0.1-0.068-0.259-0.16-0.477-0.273l-0.602-0.312c-0.484-0.249-0.779-0.592-0.883-1.026c-0.113-0.473-0.076-0.854,0.11-1.143
		c0.187-0.289,0.492-0.483,0.917-0.585c0.011-0.003,0.021-0.006,0.029-0.008c0.01-0.002,0.068-0.016,0.178-0.042
		s0.256-0.034,0.439-0.026c0.184,0.01,0.356,0.057,0.519,0.143c0.161,0.084,0.302,0.224,0.418,0.416
		c0.117,0.192,0.211,0.439,0.283,0.74l-1.194,0.285l-0.084-0.319c-0.017-0.059-0.055-0.107-0.115-0.142
		c-0.061-0.035-0.121-0.045-0.181-0.031c-0.078,0.019-0.14,0.059-0.182,0.12c-0.044,0.06-0.056,0.13-0.038,0.204
		c0.036,0.152,0.187,0.291,0.449,0.417l0.851,0.405c0.138,0.065,0.263,0.137,0.372,0.213c0.108,0.076,0.199,0.156,0.272,0.24
		c0.073,0.082,0.134,0.158,0.184,0.229c0.05,0.068,0.091,0.146,0.125,0.234s0.058,0.154,0.071,0.198
		c0.013,0.046,0.028,0.104,0.046,0.179c0.045,0.188,0.073,0.36,0.085,0.52c0.012,0.158,0.004,0.316-0.025,0.473
		c-0.028,0.156-0.082,0.295-0.16,0.414c-0.08,0.118-0.193,0.227-0.342,0.319C129.715,202.299,129.532,202.372,129.319,202.423z"/>
</g>
<g enable-background="new    ">
	<path fill="#E2E1E0" d="M132.646,201.5l-1.497-5.273l1.125-0.32l1.498,5.273L132.646,201.5z"/>
</g>
<g enable-background="new    ">
	<path fill="#E2E1E0" d="M138.168,199.792l-0.342-0.376c-0.095,0.401-0.355,0.672-0.781,0.813c-0.83,0.273-1.423-0.126-1.777-1.198
		l-0.745-2.254c-0.082-0.247-0.12-0.472-0.115-0.676c0.005-0.205,0.038-0.373,0.1-0.504c0.063-0.13,0.152-0.248,0.271-0.351
		c0.118-0.104,0.229-0.184,0.337-0.237c0.106-0.053,0.225-0.102,0.355-0.145c0.161-0.054,0.312-0.091,0.449-0.11
		c0.139-0.021,0.263-0.022,0.373-0.007c0.111,0.018,0.212,0.044,0.304,0.08c0.092,0.035,0.176,0.09,0.252,0.163
		s0.143,0.147,0.2,0.224c0.058,0.077,0.115,0.173,0.17,0.288c0.055,0.116,0.103,0.226,0.143,0.328s0.083,0.226,0.13,0.367
		l-1.098,0.362l-0.136-0.412c-0.027-0.082-0.059-0.148-0.095-0.197c-0.035-0.049-0.072-0.079-0.111-0.091
		c-0.039-0.013-0.073-0.019-0.102-0.019c-0.028,0.002-0.06,0.008-0.092,0.019c-0.065,0.021-0.115,0.048-0.15,0.078
		c-0.034,0.031-0.059,0.063-0.072,0.098c-0.015,0.033-0.016,0.086-0.004,0.158s0.026,0.14,0.045,0.202
		c0.018,0.06,0.048,0.157,0.092,0.288l0.665,2.012c0.024,0.076,0.049,0.14,0.071,0.19c0.023,0.05,0.055,0.103,0.094,0.156
		c0.04,0.056,0.087,0.092,0.143,0.108c0.056,0.016,0.117,0.013,0.188-0.011c0.115-0.038,0.177-0.108,0.186-0.21
		c0.008-0.104-0.021-0.257-0.089-0.459l-0.198-0.603l-0.308,0.102l-0.297-0.897l1.392-0.46l1.002,3.031L138.168,199.792z"/>
</g>
<g enable-background="new    ">
	<path fill="#E2E1E0" d="M141.443,192.722l1.99,5.106l-1.102,0.43l-1.561-2.335l0.996,2.555l-1.104,0.431l-1.99-5.106l1.16-0.452
		l1.472,2.239l-0.952-2.442L141.443,192.722z"/>
</g>
<g enable-background="new    ">
	<path fill="#E2E1E0" d="M148.018,189.725l2.953,4.654l-1.051,0.515l-0.439-0.703l-0.551,0.269l0.295,0.775l-1.057,0.518
		l-1.853-5.193L148.018,189.725z M147.657,191.047l-0.099,0.048l1.01,2.431l0.39-0.191L147.657,191.047z"/>
</g>
<g enable-background="new    ">
	<path fill="#E2E1E0" d="M154.857,192.283l-0.406-0.307c-0.018,0.412-0.224,0.727-0.617,0.944c-0.764,0.423-1.42,0.14-1.968-0.849
		l-1.149-2.077c-0.126-0.228-0.205-0.441-0.238-0.643c-0.033-0.203-0.031-0.374,0.006-0.513c0.037-0.14,0.104-0.271,0.199-0.396
		c0.097-0.123,0.191-0.222,0.287-0.294s0.203-0.142,0.323-0.208c0.148-0.083,0.288-0.146,0.421-0.191
		c0.132-0.046,0.254-0.071,0.365-0.074c0.112-0.006,0.216,0.002,0.312,0.021c0.098,0.019,0.189,0.056,0.277,0.114
		c0.088,0.058,0.168,0.118,0.239,0.182c0.071,0.064,0.145,0.148,0.22,0.252c0.076,0.104,0.143,0.202,0.201,0.297
		c0.059,0.092,0.123,0.205,0.195,0.335l-1.011,0.56l-0.21-0.379c-0.042-0.076-0.085-0.135-0.129-0.176
		c-0.044-0.042-0.086-0.064-0.127-0.07c-0.041-0.005-0.075-0.004-0.104,0.003c-0.027,0.006-0.057,0.018-0.087,0.034
		c-0.06,0.033-0.104,0.068-0.133,0.104s-0.046,0.073-0.054,0.108c-0.008,0.036,0,0.088,0.025,0.157
		c0.025,0.068,0.053,0.132,0.082,0.189c0.028,0.058,0.076,0.146,0.144,0.267l1.026,1.854c0.039,0.07,0.074,0.128,0.105,0.174
		c0.031,0.045,0.072,0.09,0.121,0.137s0.103,0.073,0.16,0.079c0.057,0.007,0.117-0.008,0.182-0.044
		c0.106-0.059,0.154-0.14,0.143-0.242c-0.01-0.103-0.067-0.248-0.171-0.434l-0.306-0.554L152.9,190.8l-0.459-0.828l1.283-0.71
		l1.545,2.793L154.857,192.283z"/>
</g>
<g enable-background="new    ">
	<path fill="#E2E1E0" d="M157.121,190.963l-2.885-4.66l2.06-1.275l0.56,0.904l-1.012,0.627l0.562,0.909l0.971-0.602l0.542,0.876
		l-0.972,0.602l0.657,1.061l1.079-0.668l0.563,0.91L157.121,190.963z"/>
</g>
<g enable-background="new    ">
	<path fill="#E2E1E0" d="M160.324,182.316l3.109,4.513l-0.975,0.671l-2.055-1.914l1.557,2.258l-0.975,0.672l-3.109-4.513
		l1.025-0.706l1.946,1.842l-1.487-2.158L160.324,182.316z"/>
</g>
<g enable-background="new    ">
	<path fill="#E2E1E0" d="M166.125,181.855l0.631,0.822c0.291,0.377,0.396,0.738,0.318,1.08s-0.311,0.661-0.696,0.957
		c-0.343,0.263-0.694,0.379-1.06,0.35c-0.365-0.031-0.686-0.228-0.963-0.588l-1.549-2.016c-0.331-0.432-0.484-0.826-0.457-1.186
		c0.025-0.359,0.241-0.695,0.646-1.008c0.166-0.127,0.335-0.223,0.506-0.291c0.171-0.066,0.342-0.102,0.512-0.104
		c0.17-0.004,0.335,0.037,0.497,0.119s0.308,0.208,0.438,0.377l0.588,0.767l-0.949,0.729l-0.389-0.505
		c-0.199-0.261-0.375-0.331-0.527-0.214c-0.092,0.07-0.129,0.145-0.114,0.225c0.015,0.079,0.061,0.17,0.14,0.272l1.578,2.054
		c0.068,0.09,0.147,0.15,0.239,0.186c0.091,0.033,0.171,0.025,0.237-0.027c0.062-0.047,0.098-0.112,0.105-0.196
		c0.008-0.083-0.035-0.187-0.129-0.31l-0.575-0.748L166.125,181.855z"/>
</g>
<g enable-background="new    ">
	<path fill="#E2E1E0" d="M170.523,181.271l-0.871,0.738l-1.165-1.375l-3.115-2.18l0.915-0.777l1.458,1.199l-0.943-1.635l0.913-0.773
		l1.644,3.428L170.523,181.271z"/>
</g>
<g>
	<path fill="#D3D3D3" d="M25.625,127.854c-1.369,0.846-2.726,1.822-4.019,2.932c-1.321,1.13-2.537,2.343-3.61,3.638
		c0.26,2.39,1.362,4.851,4.029,7.863c2.432,2.758,8.769,7.946,13.767,11.026c1.156-0.148,2.277-0.619,3.228-1.416
		c1.003-0.836,1.682-1.898,2.018-3.061c-0.584-1.428-1.28-2.927-2.023-4.425l0.974,4.827l-2.03-4.682l-0.772,1.508l-1.228-3.862
		l-0.838,1.612l-1.682-8.562l1.883,4.738l0.684-1.209c-1.315-2.281-2.566-4.237-3.457-5.471
		C30.187,130.042,27.956,128.514,25.625,127.854z M32.233,147.915c-0.483,0.39-1.073,0.472-1.599,0.28
		c0.407,0.106,0.855,0.018,1.204-0.28c0.596-0.49,0.672-1.36,0.183-1.938c-0.49-0.584-1.346-0.658-1.918-0.168
		c-0.354,0.299-0.52,0.729-0.478,1.154c-0.095-0.552,0.082-1.143,0.549-1.531c0.673-0.578,1.682-0.486,2.26,0.197
		C33.007,146.314,32.912,147.339,32.233,147.915z M27.927,142.828c-0.773,0.661-1.782,0.806-2.638,0.469
		c0.66,0.189,1.404,0.039,2-0.469c0.968-0.82,1.092-2.277,0.277-3.258c-0.815-0.979-2.219-1.104-3.163-0.291
		c-0.572,0.507-0.85,1.238-0.784,1.953c-0.165-0.936,0.136-1.936,0.891-2.582c1.104-0.965,2.797-0.812,3.747,0.336
		C29.23,140.145,29.077,141.861,27.927,142.828z M37.586,141.602c-0.307-0.578-0.62-1.146-0.944-1.691l0.638,2.183L37.586,141.602z"
		/>
	<path fill="#D3D3D3" d="M41.279,160.3c0.602,0.862,0.968,1.499,0.85,1.661c-0.118,0.15-0.814-0.044-1.806-0.416
		c0.189-0.171,0.366-0.357,0.52-0.555C41.014,160.766,41.161,160.536,41.279,160.3z"/>
	<path fill="#D3D3D3" d="M34.163,153.001c-0.112,0.817-0.425,1.587-0.944,2.251c-0.501,0.584-1.145,1.012-1.876,1.316
		c-0.225-0.277-0.401-0.563-0.596-0.838c-0.006-0.015-0.018-0.023-0.023-0.037c-0.065-0.07-0.118-0.174-0.172-0.276
		c0,0,0-0.003-0.012-0.003c-0.318-0.734-0.289-1.555,0.178-2.165c0.442-0.582,1.168-0.826,1.935-0.729
		c0.148,0.03,0.296,0.062,0.449,0.103c0,0,0.006,0,0.006,0.003C33.496,152.725,33.827,152.836,34.163,153.001z"/>
	<path fill="#D3D3D3" d="M35.709,154.037c0.861,0.667,3.464,3.486,5.104,5.617c-0.142,0.313-0.325,0.613-0.549,0.894
		c-0.195,0.263-0.431,0.501-0.685,0.705c-2.49-1.015-6.03-2.762-6.909-3.437c-0.349-0.269-0.626-0.504-0.862-0.729
		c0.785-0.321,1.458-0.829,1.995-1.438c0.543-0.646,0.85-1.438,0.968-2.287C35.049,153.541,35.35,153.756,35.709,154.037z"/>
	<polygon fill="#D3D3D3" points="30.67,153.794 27.779,150.85 31.325,152.921 	"/>
	<path fill="#D3D3D3" d="M30.729,151.438c0.124,0.097-0.153,0.649-0.597,1.236c-0.46,0.6-0.914,1.006-1.044,0.912
		c-0.118-0.094,0.159-0.661,0.602-1.254C30.151,151.75,30.605,151.34,30.729,151.438z"/>
	<path fill="#D3D3D3" d="M29.455,151.204c0.07,0.05-0.077,0.36-0.331,0.688c-0.248,0.316-0.513,0.543-0.584,0.49
		c-0.064-0.053,0.083-0.354,0.343-0.682C29.13,151.375,29.396,151.15,29.455,151.204z"/>
	<path fill="#D3D3D3" d="M45.15,154.102c-0.035,0.139-0.083,0.293-0.136,0.42c-0.077,0.211-0.165,0.436-0.277,0.636
		c-0.136,0.268-0.301,0.51-0.496,0.731c-0.271,0.334-0.59,0.68-0.95,0.988c-0.224,0.178-0.442,0.336-0.648,0.473
		c-0.484,0.276-0.956,0.447-1.458,0.562c-0.171,0.042-0.324,0.074-0.483,0.104c-0.147,0.017-0.295,0.045-0.442,0.047l-3.966-4.34
		l0.242-0.021c0.561-0.08,1.121-0.242,1.635-0.487c0.283-0.121,0.549-0.276,0.797-0.45c0.076-0.049,0.153-0.106,0.235-0.156
		c0.089-0.073,0.165-0.133,0.26-0.205c0.301-0.243,0.572-0.529,0.809-0.834c0.501-0.623,0.855-1.334,1.056-2.023
		c0.019-0.044,0.024-0.083,0.03-0.141L45.15,154.102z"/>
	<path fill="#D3D3D3" d="M47.321,155.509c0.756,0.638,1.346,1.085,1.517,0.985c0.153-0.092,0.071-0.762-0.147-1.735
		c-0.194,0.153-0.401,0.302-0.631,0.431C47.829,155.326,47.569,155.423,47.321,155.509z"/>
	<path fill="#D3D3D3" d="M40.996,147.432c0.809,0.002,1.611-0.188,2.343-0.604c0.708-0.407,1.28-0.982,1.693-1.67
		c-0.248-0.27-0.508-0.493-0.814-0.729c-0.012-0.014-0.023-0.021-0.023-0.029c-0.106-0.076-0.2-0.146-0.307-0.215l-0.006-0.002
		c-0.679-0.439-1.505-0.52-2.172-0.142c-0.613,0.36-0.962,1.063-0.968,1.838c0,0.146,0.018,0.304,0.029,0.458
		c0,0.003,0,0.014,0,0.014C40.819,146.736,40.89,147.074,40.996,147.432z"/>
	<path fill="#D3D3D3" d="M41.781,149.098c0.543,0.95,3.086,3.947,4.985,5.868c0.319-0.097,0.638-0.233,0.944-0.407
		c0.277-0.162,0.555-0.354,0.791-0.58c-0.644-2.606-1.877-6.353-2.426-7.33c-0.224-0.379-0.425-0.688-0.607-0.947
		c-0.425,0.723-1.026,1.322-1.782,1.758c-0.761,0.428-1.593,0.634-2.425,0.634C41.397,148.378,41.562,148.705,41.781,149.098z"/>
	<polygon fill="#D3D3D3" points="42.253,144.064 39.769,140.749 41.32,144.604 	"/>
	<path fill="#D3D3D3" d="M39.928,143.793c0.077,0.137,0.673-0.057,1.316-0.432c0.637-0.371,1.109-0.784,1.032-0.92
		c-0.076-0.135-0.661,0.06-1.304,0.432C40.317,143.25,39.852,143.663,39.928,143.793z"/>
	<path fill="#D3D3D3" d="M39.881,142.471c0.047,0.077,0.366-0.029,0.731-0.236c0.354-0.209,0.608-0.434,0.579-0.506
		c-0.048-0.074-0.372,0.031-0.732,0.235C40.105,142.17,39.84,142.396,39.881,142.471z"/>
	<path fill="#D3D3D3" d="M24.828,127.654c-1.238,0.777-2.454,1.664-3.622,2.652c-1.175,1.021-2.278,2.105-3.281,3.254
		c-0.059-1.74,0.271-3.472,0.708-5.367l-1.682-2.324c-0.778,0.605-1.457,0.932-1.593,0.77c-0.136-0.156,0.336-0.787,1.092-1.457
		l-0.496-0.572c-0.514,0.312-0.944,0.483-1.038,0.392c-0.089-0.08,0.218-0.403,0.696-0.856l-2.225-3.074l2.661,2.723
		c0.524-0.416,0.997-0.654,1.092-0.543c0.082,0.111-0.213,0.511-0.69,0.953l0.578,0.568c0.802-0.604,1.505-0.965,1.651-0.804
		c0.13,0.165-0.33,0.769-1.056,1.333l2.06,2.135C21.524,127.346,23.218,127.318,24.828,127.654z"/>
</g>
<g>
	<path fill="#D3D3D3" d="M183.275,133.293c-0.901,1.23-2.152,3.189-3.48,5.471l0.703,1.206l1.876-4.741l-1.683,8.564l-0.838-1.611
		l-1.209,3.862l-0.764-1.51l-2.033,4.682l0.955-4.823c-0.722,1.498-1.424,2.994-1.994,4.424c0.33,1.16,1.004,2.225,1.978,3.06
		c0.974,0.796,2.095,1.269,3.222,1.416c5.021-3.08,11.471-8.269,13.973-11.026c2.709-3.014,3.83-5.478,4.09-7.859
		c-1.092-1.297-2.316-2.508-3.646-3.637c-1.325-1.109-2.72-2.095-4.166-2.936C187.896,128.493,185.637,130.021,183.275,133.293z
		 M183.395,145.607c0.566-0.688,1.588-0.773,2.269-0.198c0.474,0.393,0.661,0.981,0.563,1.534c0.03-0.426-0.141-0.858-0.5-1.153
		c-0.584-0.493-1.438-0.416-1.925,0.168c-0.483,0.575-0.407,1.449,0.177,1.937c0.346,0.301,0.797,0.388,1.211,0.279
		c-0.537,0.192-1.133,0.109-1.594-0.279C182.904,147.318,182.811,146.298,183.395,145.607z M187.59,138.966
		c0.975-1.146,2.686-1.301,3.836-0.333c0.79,0.646,1.109,1.646,0.938,2.582c0.066-0.717-0.229-1.451-0.823-1.953
		c-0.983-0.812-2.427-0.688-3.245,0.286c-0.832,0.981-0.702,2.438,0.283,3.267c0.597,0.5,1.361,0.651,2.062,0.463
		c-0.888,0.341-1.92,0.188-2.703-0.463C186.775,141.84,186.634,140.123,187.59,138.966z M178.551,142.07l0.625-2.187
		c-0.307,0.554-0.625,1.115-0.933,1.697L178.551,142.07z"/>
	<path fill="#D3D3D3" d="M174.557,160.279c-0.597,0.861-0.963,1.498-0.839,1.66c0.118,0.148,0.81-0.041,1.788-0.416
		c-0.189-0.168-0.354-0.354-0.508-0.56C174.833,160.749,174.686,160.516,174.557,160.279z"/>
	<path fill="#D3D3D3" d="M181.654,152.98c0.111,0.817,0.425,1.586,0.938,2.25c0.502,0.588,1.157,1.013,1.883,1.314
		c0.228-0.275,0.401-0.562,0.604-0.841c0.012-0.015,0.021-0.017,0.021-0.024c0.068-0.074,0.123-0.186,0.184-0.277v-0.004
		c0.336-0.739,0.295-1.562-0.166-2.168c-0.461-0.584-1.18-0.828-1.952-0.729c-0.142,0.022-0.296,0.06-0.449,0.099l-0.012,0.002
		C182.314,152.703,181.99,152.814,181.654,152.98z"/>
	<path fill="#D3D3D3" d="M180.104,154.016c-0.854,0.668-3.459,3.487-5.076,5.618c0.139,0.315,0.313,0.614,0.537,0.894
		c0.207,0.265,0.438,0.5,0.69,0.705c2.479-1.008,6.001-2.756,6.897-3.438c0.354-0.266,0.625-0.504,0.854-0.729
		c-0.777-0.321-1.464-0.826-1.992-1.434c-0.543-0.652-0.855-1.443-0.977-2.295C180.764,153.52,180.456,153.738,180.104,154.016z"/>
	<polygon fill="#D3D3D3" points="185.159,153.773 188.074,150.83 184.492,152.902 	"/>
	<path fill="#D3D3D3" d="M185.094,151.417c-0.123,0.095,0.147,0.651,0.608,1.239c0.472,0.596,0.944,1.003,1.062,0.912
		c0.125-0.098-0.146-0.664-0.604-1.258C185.686,151.729,185.218,151.322,185.094,151.417z"/>
	<path fill="#D3D3D3" d="M186.398,151.182c-0.071,0.053,0.082,0.362,0.33,0.692c0.26,0.317,0.52,0.54,0.578,0.487
		c0.062-0.057-0.082-0.354-0.33-0.676C186.723,151.357,186.469,151.13,186.398,151.182z"/>
	<path fill="#D3D3D3" d="M170.715,154.078c0.041,0.143,0.076,0.295,0.137,0.428c0.069,0.207,0.164,0.428,0.258,0.628
		c0.139,0.277,0.295,0.515,0.496,0.738c0.269,0.333,0.59,0.676,0.957,0.987c0.229,0.175,0.438,0.336,0.647,0.47
		c0.483,0.274,0.944,0.451,1.458,0.563c0.159,0.032,0.307,0.071,0.473,0.1c0.144,0.018,0.289,0.044,0.43,0.047l3.941-4.34
		l-0.234-0.026c-0.543-0.077-1.104-0.239-1.623-0.483c-0.287-0.121-0.549-0.275-0.803-0.45c-0.076-0.05-0.16-0.106-0.229-0.159
		c-0.089-0.071-0.165-0.13-0.254-0.201c-0.297-0.245-0.572-0.525-0.805-0.835c-0.5-0.617-0.851-1.333-1.057-2.022
		c-0.012-0.037-0.023-0.082-0.035-0.141L170.715,154.078z"/>
	<path fill="#D3D3D3" d="M168.514,155.488c-0.756,0.637-1.352,1.088-1.517,0.988c-0.177-0.098-0.083-0.764,0.142-1.742
		c0.2,0.16,0.413,0.305,0.639,0.435C168.018,155.305,168.271,155.411,168.514,155.488z"/>
	<path fill="#D3D3D3" d="M174.846,147.41c-0.798,0.003-1.611-0.189-2.332-0.605c-0.714-0.406-1.285-0.979-1.682-1.666
		c0.242-0.27,0.484-0.494,0.791-0.73c0.012-0.014,0.018-0.02,0.029-0.026c0.101-0.075,0.207-0.149,0.301-0.215l0.012-0.006
		c0.686-0.438,1.506-0.519,2.16-0.142c0.625,0.367,0.962,1.065,0.968,1.836c-0.006,0.152-0.012,0.309-0.028,0.459
		c0,0.009-0.006,0.012,0,0.015C175.021,146.721,174.951,147.053,174.846,147.41z"/>
	<path fill="#D3D3D3" d="M174.072,149.08c-0.549,0.949-3.08,3.943-4.986,5.865c-0.318-0.098-0.645-0.23-0.949-0.407
		c-0.289-0.159-0.562-0.354-0.81-0.578c0.667-2.61,1.889-6.354,2.442-7.332c0.225-0.378,0.405-0.688,0.603-0.95
		c0.442,0.729,1.026,1.325,1.782,1.758c0.761,0.434,1.599,0.635,2.431,0.635C174.438,148.359,174.271,148.688,174.072,149.08z"/>
	<polygon fill="#D3D3D3" points="173.588,144.047 176.066,140.729 174.521,144.587 	"/>
	<path fill="#D3D3D3" d="M175.9,143.775c-0.076,0.133-0.666-0.062-1.305-0.437c-0.639-0.372-1.104-0.78-1.025-0.92
		c0.07-0.133,0.654,0.062,1.304,0.433C175.518,143.229,175.979,143.646,175.9,143.775z"/>
	<path fill="#D3D3D3" d="M175.948,142.454c-0.041,0.073-0.372-0.035-0.726-0.242c-0.352-0.204-0.604-0.428-0.562-0.505
		c0.041-0.074,0.357,0.033,0.714,0.236C175.729,142.152,175.995,142.377,175.948,142.454z"/>
	<path fill="#D3D3D3" d="M191.096,127.634c1.299,0.776,2.536,1.667,3.723,2.655c1.191,1.021,2.312,2.104,3.316,3.249
		c0.064-1.738-0.254-3.468-0.689-5.364l1.693-2.322c0.783,0.602,1.444,0.935,1.58,0.77c0.147-0.157-0.324-0.785-1.068-1.458
		l0.49-0.565c0.496,0.314,0.938,0.48,1.026,0.385c0.089-0.068-0.206-0.404-0.696-0.855l2.219-3.074l-2.644,2.721
		c-0.53-0.416-1.003-0.653-1.091-0.547c-0.096,0.112,0.206,0.516,0.689,0.957l-0.584,0.574c-0.814-0.607-1.522-0.971-1.664-0.809
		c-0.139,0.171,0.324,0.781,1.051,1.337l-2.096,2.133C194.5,127.328,192.771,127.298,191.096,127.634z"/>
</g>
<path fill="#FFFFFF" d="M206.648,107.159L187.43,120.73l-0.089-0.018c0.731-4.396,1.115-8.927,1.115-13.557
	c0-45.233-36.688-81.844-81.917-81.844c-45.175,0-81.823,36.61-81.823,81.844c0,4.629,0.377,9.156,1.062,13.557l-0.094,0.018
	L6.648,107.159c0-55.208,44.656-100.08,99.892-100.08C161.738,7.08,206.648,51.951,206.648,107.159z"/>
<g id="Capa_6">
</g>
<g id="Capa_4" display="none">
	<g display="inline">
		<path d="M87.63,153.834c-4.229-0.71-8.58-1.07-13.01-1.07c-4.5,0-8.91,0.37-13.21,1.103c-3.41,5.157-5.29,11.85-4.891,22.26
			c0.37,9.528,4.49,30.38,9.271,44.74c2.51,1.6,5.51,2.538,8.729,2.538c3.32,0,6.41-1,8.99-2.721c1.21-3.77,2.32-7.869,3.33-12.029
			l-6.05,11.092l3.71-12.58l-4.01,1.68l3.939-9.59l-4.29,1.79l10.83-19.63l-4.14,12.43l3.34-1.229
			c1.18-6.659,1.96-12.579,2.23-16.489C93.12,165.764,91.19,159.044,87.63,153.834z M67.7,204.344c-1.561,0-2.91-0.85-3.63-2.109
			c0.63,0.899,1.689,1.479,2.87,1.479c1.96,0,3.54-1.58,3.54-3.53c0-1.959-1.58-3.539-3.54-3.539c-1.19,0-2.24,0.59-2.87,1.489
			c0.72-1.27,2.069-2.12,3.63-2.12c2.3,0,4.17,1.87,4.17,4.17C71.87,202.484,70,204.344,67.7,204.344z M67.51,187.174
			c-2.609,0-4.89-1.43-6.09-3.55c1.061,1.51,2.83,2.49,4.83,2.49c3.27,0,5.93-2.66,5.93-5.94c0-3.279-2.66-5.93-5.93-5.93
			c-2,0-3.77,0.98-4.83,2.49c1.2-2.12,3.48-3.562,6.09-3.562c3.87,0,7,3.143,7,7C74.51,184.044,71.38,187.174,67.51,187.174z
			 M88.61,200.764c0.34-1.647,0.67-3.279,0.97-4.88l-2.37,5.33L88.61,200.764z"/>
		<g>
			<polygon points="54.875,213.325 54.004,202.705 57.623,212.727 			"/>
			<ellipse transform="matrix(0.2129 0.9771 -0.9771 0.2129 248.3956 110.6929)" cx="55.495" cy="209.515" rx="0.719" ry="3.497"/>
			<ellipse transform="matrix(0.212 0.9773 -0.9773 0.212 245.1152 109.1666)" cx="54.861" cy="206.585" rx="0.397" ry="1.927"/>
		</g>
		<g>
			<polygon points="93.828,213.346 94.34,202.702 91.061,212.841 			"/>
			<ellipse transform="matrix(0.1798 -0.9837 0.9837 0.1798 -129.8061 263.4572)" cx="93.087" cy="209.571" rx="0.718" ry="3.497"/>
			<path d="M91.731,206.273c-0.04,0.213,0.776,0.543,1.824,0.733c1.046,0.188,1.927,0.173,1.966-0.045
				c0.038-0.215-0.779-0.545-1.823-0.733C92.648,206.038,91.77,206.059,91.731,206.273z"/>
		</g>
		<path d="M86.3,152.034c-3.81-0.56-7.71-0.851-11.68-0.851c-4.05,0-8.021,0.301-11.91,0.881c2.74-3.521,6.25-6.371,10.23-9.4
			l0.54-7.42c-2.521-0.11-4.4-0.561-4.4-1.11c0-0.549,1.96-1,4.56-1.1l0.16-2.16c-1.64-0.08-2.85-0.38-2.85-0.74
			s1.27-0.659,2.96-0.729l0.71-9.721l0.72,9.721c1.73,0.062,3.05,0.369,3.05,0.729c0,0.37-1.26,0.671-2.939,0.75l0.149,2.15
			c2.641,0.079,4.65,0.54,4.65,1.1c0,0.55-1.92,1.011-4.48,1.11l0.561,7.689C80.15,145.844,83.59,148.634,86.3,152.034z"/>
	</g>
</g>
</svg>
