<?xml version="1.0" encoding="utf-8"?>
<!-- Generator: Adobe Illustrator 21.0.0, SVG Export Plug-In . SVG Version: 6.00 Build 0)  -->
<svg version="1.1" id="Capa_1" xmlns="http://www.w3.org/2000/svg" xmlns:xlink="http://www.w3.org/1999/xlink" x="0px" y="0px"
	 viewBox="0 0 213 210" style="enable-background:new 0 0 213 210;" xml:space="preserve">
<style type="text/css">
	.st0{display:none;}
	.st1{display:inline;}
	.st2{fill:#F2F2F2;}
	.st3{fill:#44240A;}
	.st4{fill:#191F4F;}
	.st5{fill:#F94848;}
	.st6{fill:#7C7C7C;}
</style>
<g id="Capa_1_1_">
</g>
<g id="Capa_2">
</g>
<g id="Capa_6">
</g>
<g id="Capa_4" class="st0">
	<g class="st1">
		<path d="M87.6,153.8c-4.2-0.7-8.6-1.1-13-1.1c-4.5,0-8.9,0.4-13.2,1.1c-3.4,5.2-5.3,11.9-4.9,22.3c0.4,9.5,4.5,30.4,9.3,44.7
			c2.5,1.6,5.5,2.5,8.7,2.5c3.3,0,6.4-1,9-2.7c1.2-3.8,2.3-7.9,3.3-12l-6.1,11.1l3.7-12.6l-4,1.7l3.9-9.6l-4.3,1.8L91,181.4
			l-4.1,12.4l3.3-1.2c1.2-6.7,2-12.6,2.2-16.5C93.1,165.8,91.2,159,87.6,153.8z M67.7,204.3c-1.6,0-2.9-0.9-3.6-2.1
			c0.6,0.9,1.7,1.5,2.9,1.5c2,0,3.5-1.6,3.5-3.5c0-2-1.6-3.5-3.5-3.5c-1.2,0-2.2,0.6-2.9,1.5c0.7-1.3,2.1-2.1,3.6-2.1
			c2.3,0,4.2,1.9,4.2,4.2C71.9,202.5,70,204.3,67.7,204.3z M67.5,187.2c-2.6,0-4.9-1.4-6.1-3.6c1.1,1.5,2.8,2.5,4.8,2.5
			c3.3,0,5.9-2.7,5.9-5.9c0-3.3-2.7-5.9-5.9-5.9c-2,0-3.8,1-4.8,2.5c1.2-2.1,3.5-3.6,6.1-3.6c3.9,0,7,3.1,7,7
			C74.5,184,71.4,187.2,67.5,187.2z M88.6,200.8c0.3-1.6,0.7-3.3,1-4.9l-2.4,5.3L88.6,200.8z"/>
		<g>
			<polygon points="54.9,213.3 54,202.7 57.6,212.7 			"/>
			<ellipse transform="matrix(0.9771 -0.2129 0.2129 0.9771 -43.3341 16.6175)" cx="55.5" cy="209.5" rx="3.5" ry="0.7"/>
			<ellipse transform="matrix(0.9773 -0.212 0.212 0.9773 -42.5466 16.3232)" cx="54.9" cy="206.6" rx="1.9" ry="0.4"/>
		</g>
		<g>
			<polygon points="93.8,213.3 94.3,202.7 91.1,212.8 			"/>
			<ellipse transform="matrix(0.1798 -0.9837 0.9837 0.1798 -129.8041 263.4568)" cx="93.1" cy="209.6" rx="0.7" ry="3.5"/>
			<path d="M91.7,206.3c0,0.2,0.8,0.5,1.8,0.7c1,0.2,1.9,0.2,2,0c0-0.2-0.8-0.5-1.8-0.7C92.6,206,91.8,206.1,91.7,206.3z"/>
		</g>
		<path d="M86.3,152c-3.8-0.6-7.7-0.9-11.7-0.9c-4.1,0-8,0.3-11.9,0.9c2.7-3.5,6.3-6.4,10.2-9.4l0.5-7.4c-2.5-0.1-4.4-0.6-4.4-1.1
			s2-1,4.6-1.1l0.2-2.2c-1.6-0.1-2.8-0.4-2.8-0.7s1.3-0.7,3-0.7l0.7-9.7l0.7,9.7c1.7,0.1,3.1,0.4,3.1,0.7c0,0.4-1.3,0.7-2.9,0.8
			l0.1,2.1c2.6,0.1,4.7,0.5,4.7,1.1c0,0.6-1.9,1-4.5,1.1l0.6,7.7C80.2,145.8,83.6,148.6,86.3,152z"/>
	</g>
</g>
<path class="st2" d="M161.9,55.9c-5.5-11.5-24.7-14.6-36.7-15.3c-13.9-0.8-29.6,0.3-43,3.9C76.4,46,50.8,58.6,50.5,59.6
	c-0.1,0.3-1.3,0.8-1.4,1.1c-2.5,2,1,65.4,1.6,71.5c1.2,11.8,3.6,21.4,4.6,25c1.7,6.5,5.3,14.5,7.7,16.9c4.4,5.3,20.5,22.3,28.4,26.8
	c6.6,3.7,9.2,3.1,16.6,3.1c6.1,0,10.4-1.3,15.6-4.2c4.6-2.6,23.9-24.9,26.8-34c0.8-2.6,5.9-19.5,7.3-26.5c2.2-11.4,4.9-53.1,5-58.6
	C162.8,70.9,162.3,56.7,161.9,55.9z"/>
<path d="M102.6,89.3c-7.5-3.7-29.4-14.7-33-13c-1.5,0.7-2.9,1.3-4.3,2.3c-0.1,0.1-1,0.7-2.4,1.8c-3.3,2.6-9.4,10-4.4,8.3
	c2.4-0.8,7.9-4.2,8.7-4.3c1.3-0.1,6.2,1.2,6.3,1.2c6.7,2.1,12.9,5.9,20,6.8C96.9,92.8,107.2,91.6,102.6,89.3z"/>
<path d="M159.2,91.6c-6.1-4.2-10-9-17.4-9c-6.6,0-4,4.2-20.6,1.7c-2.8-0.4-7.5,3.8-3.4,4.5c4.9,0.8,9,2.4,14,3.2
	c3.4,0.5,16-1.2,18.7,0.6C153.1,94.2,162.2,93.5,159.2,91.6z"/>
<g>
	
		<image style="overflow:visible;opacity:0.31;" width="137" height="51" xlink:href="FED68293EA674972.png"  transform="matrix(1 0 0 1 41 87)">
	</image>
	<g>
		<path class="st3" d="M45.5,101.2c1.2,0.8,1.9,1.9,2.3,3.2c1.1,3.5,2.2,7,3.3,10.5c1.9,6.1,6.1,9.5,12.1,11
			c7.3,1.7,14.4,1,21.6-0.5c5.5-1.1,9.9-4.9,12-10.4c1.4-3.8,2.6-6.9,3.9-10.8c0.8-2.3,1.8-3.2,4.1-3.4c0.7-0.1,1.5,0,2.2,0
			c3.5,0.1,4.5,1.1,5.4,4.5c0.9,3.7,1.7,7.5,3.2,11c2.4,5.4,5.7,7.9,11.5,9.9c4.4,1.5,8.6,2.2,13.3,2.3c3.6,0.1,7.7-0.4,11-1.5
			c4.4-1.4,7.8-4.1,9.5-8.5c1.6-4.1,3-8.3,4.5-12.3c0.3-0.9,0.9-1.8,1.7-2.2c1.2-0.7,1.6-1.7,1.6-3c0-0.8-0.1-1.6,0-2.3
			c0.2-1.6-0.5-2.3-2-2.6c-5.9-1.1-11.8-2.6-17.8-3.3c-12.1-1.5-24-1.2-35.6,3.3c-4.4,1.9-9.3,1.7-13.7-0.3c-8-3.3-16.3-5-24.7-4.9
			c-8.8-0.3-17.3,1-25.9,2.5c-4.8,0.9-5.3,1.5-4.5,6.3C44.6,100.2,45,100.9,45.5,101.2z M119,96.4c3.9-1.8,8-2.5,12.2-2.8
			c8.9-0.7,17.5,0.1,26,2.9c3.9,1.3,5.2,3.2,5.1,7.4c-0.1,5.5-1.1,10.7-3.7,15.7c-1.3,2.5-3.4,4.1-5.9,5.1c-3.9,1.5-8,1.9-12.4,1.8
			c-5-0.2-10-1.1-14.7-3.2c-2.6-1.1-4.7-2.8-6.2-5.2c-2.8-4.5-4.6-9.4-4.7-14.7C114.6,100.1,116.1,97.8,119,96.4z M50.8,101.5
			c0.2-3.8,1.5-5.5,5.1-6.7c6.4-2,13-2.4,19.6-2.4c5.5,0.2,11,0.6,16.4,2.7c0.8,0.3,1.5,0.7,2.3,1c2.9,1.5,4.2,3.9,4,7.1
			c-0.5,6.3-2.8,11.8-7.1,16.5c-2.1,2.3-5.1,3.2-8,4c-7.1,2-14.3,2.1-21.6-0.2c-4.1-1.3-6.9-3.9-8.4-8
			C51.5,111,50.6,106.3,50.8,101.5z"/>
	</g>
</g>
<path class="st4" d="M162.7,64.1c-6.1-2.2-12.7-4-19.3-5.3c-0.1-0.7-0.1-1.4-0.2-2c-0.5-4.7-1.3-8.9-2.6-12.5
	c-7.1-1.2-14.4-1.8-21.9-1.8c-11.7,0-23.1,1.6-33.7,4.5c-1.5,3.9-2.5,8.4-3.1,13.2c-0.1,0.6-0.1,1.1-0.2,1.7
	c-12.2,3.8-23.5,9.4-33.4,16.4c-0.2-1.6-0.2-3.3-0.3-4.9c0-0.3,0-0.7,0-1.1v-0.6c0-35.5,24.9-61.4,58.9-61.4
	c33.3,0,54.6,18.8,55.7,52.5C162.5,62.7,162.7,63.7,162.7,64.1z"/>
<path class="st5" d="M143.4,58.9c-7.6-1.5-15.5-2.3-23.6-2.3h0c-0.3,0-0.7,0-1,0c-13,0-25.5,1.9-37,5.4c0.1-0.6,0.1-1.2,0.2-1.7
	c0.6-4.8,1.7-9.4,3.1-13.2c10.6-2.9,22-4.5,33.7-4.5c7.5,0,14.8,0.6,21.9,1.8c1.2,3.6,2.1,7.8,2.6,12.5
	C143.3,57.5,143.3,58.2,143.4,58.9z"/>
<path class="st6" d="M138.6,37.7c4.5,1.3,7.6,2.4,7.5,2.9c-0.1,0.4-3,0.2-7.1-0.5c0.1,0.2,0.2,0.4,0.2,0.6c4.2,1.2,7,2.2,6.9,2.7
	c-0.1,0.4-2.4,0.3-6-0.3c0.2,0.4,0.3,0.9,0.5,1.3c-7.1-1.2-14.4-1.8-21.9-1.8c-9.7,0-19.1,1.1-28.1,3.1c-1.7,0.4-3.4,0.8-5.1,1.2
	c-0.2,0-0.4,0.1-0.6,0.1c0.4-1,0.8-2,1.1-3c0.4-1.7,0.8-3.5,1.4-5.3c2.4-8.2,5.4-14.5,6.8-14.1c0.8,0.2,0.8,2.7,0.3,6.3
	c0.9-1.2,1.9-2.4,3-3.6c5.8-6.8,11.7-11.3,13.1-10.1c0.6,0.5,0.3,1.8-0.6,3.6c4.2-2.4,7.4-3.5,8-2.7c0.5,0.6-0.9,2.4-3.3,4.7
	c1.1,0,2.2,0.1,3.2,0.3c7.9-2.6,14.5-3.6,14.9-2.2c0.3,0.9-2.5,2.8-7,4.8c2,1,3.9,2.3,5.7,3.9c5.8-0.6,9.9-0.6,10,0
	c0.1,0.5-3.1,1.3-7.9,2.1c0.2,0.3,0.5,0.6,0.7,0.9h0c7,0.3,12.3,1.5,12.3,2.9C146.5,36.2,143.3,37.2,138.6,37.7z"/>
</svg>
