<?xml version="1.0" encoding="utf-8"?>
<!-- Generator: Adobe Illustrator 16.0.0, SVG Export Plug-In . SVG Version: 6.00 Build 0)  -->
<!DOCTYPE svg PUBLIC "-//W3C//DTD SVG 1.1//EN" "http://www.w3.org/Graphics/SVG/1.1/DTD/svg11.dtd">
<svg version="1.1" id="Capa_1" xmlns="http://www.w3.org/2000/svg" xmlns:xlink="http://www.w3.org/1999/xlink" x="0px" y="0px"
	 width="55px" height="55px" viewBox="0 0 55 55" enable-background="new 0 0 55 55" xml:space="preserve">
<path fill="none" d="M46.945,46.945C38.071,55.819,24.65,57.36,14.207,51.57l13.59-13.591c-2.786,0.085-5.593-0.927-7.722-3.055
	c-2.128-2.128-3.14-4.936-3.055-7.722L3.43,40.794C-2.361,30.35-0.819,16.929,8.055,8.055c10.741-10.741,28.149-10.741,38.891,0
	C57.686,18.795,57.687,36.204,46.945,46.945z"/>
<circle fill="#FFFFFF" cx="27.5" cy="27.5" r="7.625"/>
<path fill="#FFFFFF" d="M27.797,37.979L14.207,51.57c-2.213-1.21-4.278-2.751-6.152-4.625s-3.416-3.938-4.625-6.151l13.59-13.591
	c-0.085,2.786,0.927,5.594,3.055,7.722C22.204,37.053,25.011,38.064,27.797,37.979z"/>
</svg>
