<?xml version="1.0" encoding="utf-8"?>
<!-- Generator: Adobe Illustrator 16.0.0, SVG Export Plug-In . SVG Version: 6.00 Build 0)  -->
<!DOCTYPE svg PUBLIC "-//W3C//DTD SVG 1.1//EN" "http://www.w3.org/Graphics/SVG/1.1/DTD/svg11.dtd">
<svg version="1.1" xmlns="http://www.w3.org/2000/svg" xmlns:xlink="http://www.w3.org/1999/xlink" x="0px" y="0px"
	 width="52.251px" height="46.386px" viewBox="0 0 52.251 46.386" enable-background="new 0 0 52.251 46.386" xml:space="preserve">
<g id="Capa_1">
</g>
<g id="Capa_2">
</g>
<g id="Capa_4">
</g>
<g id="Capa_3">
</g>
<g id="Capa_6">
</g>
<g id="Capa_7">
</g>
<g id="Capa_5">
	<g>
		<path fill="none" stroke="#000100" stroke-linecap="round" stroke-linejoin="round" stroke-miterlimit="10" d="M51,42.536
			c0,1.284-0.97,2.323-2.177,2.323H3.177C1.97,44.859,1,43.819,1,42.536c0-1.286,0.97-2.326,2.177-2.326h45.646
			C50.03,40.209,51,41.25,51,42.536z"/>
		
			<line fill="none" stroke="#000100" stroke-linecap="round" stroke-linejoin="round" stroke-miterlimit="10" x1="42.306" y1="40.209" x2="42.306" y2="44.859"/>
		
			<line fill="none" stroke="#000100" stroke-linecap="round" stroke-linejoin="round" stroke-miterlimit="10" x1="14.041" y1="32.071" x2="11.868" y2="29.746"/>
		
			<line fill="none" stroke="#000100" stroke-linecap="round" stroke-linejoin="round" stroke-miterlimit="10" x1="29.264" y1="32.071" x2="31.434" y2="29.746"/>
		
			<line fill="none" stroke="#000100" stroke-linecap="round" stroke-linejoin="round" stroke-miterlimit="10" x1="12.956" y1="35.559" x2="9.694" y2="35.559"/>
		
			<line fill="none" stroke="#000100" stroke-linecap="round" stroke-linejoin="round" stroke-miterlimit="10" x1="33.609" y1="35.559" x2="30.348" y2="35.559"/>
		<path fill="none" stroke="#000100" stroke-linejoin="round" stroke-miterlimit="10" d="M28.826,22.555
			c2.168,1.83,5.515,1.906,7.707-0.132"/>
		<path fill="none" stroke="#000100" stroke-linecap="round" stroke-linejoin="round" stroke-miterlimit="10" d="M41.219,0.707
			l-9.785,2.324L19.318,29.496c-0.611,1.342-0.581,2.473,0.37,3.267c0.939,0.794,2.309,0.618,3.048-0.39l10.277-16.578l4.27,3.592
			l-1.43,5.278c-0.116,0.823,0.143,1.653,0.679,2.249c0.542,0.594,1.314,0.886,2.079,0.79c0.837-0.106,1.568-0.659,1.942-1.466
			l4.231-13.045L51,11.392V0.707H41.219z"/>
	</g>
</g>
</svg>
