<?xml version="1.0" encoding="utf-8"?>
<!-- Generator: Adobe Illustrator 16.0.0, SVG Export Plug-In . SVG Version: 6.00 Build 0)  -->
<!DOCTYPE svg PUBLIC "-//W3C//DTD SVG 1.1//EN" "http://www.w3.org/Graphics/SVG/1.1/DTD/svg11.dtd">
<svg version="1.1" xmlns="http://www.w3.org/2000/svg" xmlns:xlink="http://www.w3.org/1999/xlink" x="0px" y="0px"
	 width="282.18px" height="291.745px" viewBox="0 0 282.18 291.745" enable-background="new 0 0 282.18 291.745"
	 xml:space="preserve">
<g id="guias" display="none">
</g>
<g id="Capa_1">
</g>
<g id="guias_1_" display="none">
</g>
<g id="Capa_3">
</g>
<g id="Capa_5" display="none">
</g>
<g id="Capa_6">
</g>
<g id="Capa_8" display="none">
</g>
<g id="Capa_7">
</g>
<g id="Capa_10" display="none">
</g>
<g id="Capa_9">
</g>
<g id="Capa_11" display="none">
	
		<rect x="-149.141" y="4.327" transform="matrix(0.8109 0.5852 -0.5852 0.8109 112.8389 118.459)" display="inline" fill="none" stroke="#000000" stroke-miterlimit="10" width="44.534" height="459"/>
	
		<rect x="-168.097" y="-99.655" transform="matrix(-0.8109 0.5852 -0.5852 -0.8109 -188.1024 320.4729)" display="inline" fill="none" stroke="#000000" stroke-miterlimit="10" width="44.534" height="459"/>
</g>
<g id="Capa_12" display="none">
	
		<rect x="-149.141" y="4.327" transform="matrix(0.8109 0.5852 -0.5852 0.8109 112.8389 118.459)" display="inline" fill="none" stroke="#000000" stroke-miterlimit="10" width="44.534" height="459"/>
	
		<rect x="-168.097" y="-99.655" transform="matrix(-0.8109 0.5852 -0.5852 -0.8109 -188.1024 320.4729)" display="inline" fill="none" stroke="#000000" stroke-miterlimit="10" width="44.534" height="459"/>
</g>
<g id="Capa_13">
	<polygon fill="#FFFFFF" points="280.814,231.681 280.814,231.931 238.424,290.531 183.594,290.531 196.524,272.622 
		196.524,272.542 253.444,193.751 254.444,192.361 280.734,155.931 280.774,192.361 	"/>
	<polygon fill="#EDEFEF" points="70.86,252.149 43.4,290.2 1.45,232.06 1.45,231.55 28.721,193.76 	"/>
	<polygon fill="#FFFFFF" points="168.54,0 168.54,0.01 141.08,38.06 98.7,96.78 71.24,134.84 29.73,192.36 28.721,193.76 
		1.45,231.55 1.41,192.36 1.37,155.86 1.37,155.55 43.78,96.79 71.24,58.73 113.62,0 	"/>
	<polygon fill="#EDEFEF" points="211.061,252.479 183.591,290.53 140.841,231.28 168.301,193.23 	"/>
	<polygon fill="#FFFFFF" points="168.301,193.23 140.841,231.28 98.32,290.2 43.4,290.2 70.86,252.149 113.381,193.23 
		114.011,192.36 167.67,192.36 	"/>
	<polygon fill="#EDEFEF" points="280.73,155.48 280.73,155.93 254.44,192.36 253.44,193.75 252.431,192.36 210.681,134.5 
		183.221,96.45 141.08,38.06 168.54,0.01 210.681,58.4 238.141,96.45 	"/>
	<polygon opacity="0.5" points="148.719,48.644 141.08,38.06 168.54,0 	"/>
	<polygon opacity="0.5" points="148.62,242.062 140.841,231.28 168.301,193.23 	"/>
	<polygon opacity="0.5" points="28.721,193.76 35.436,203.063 1.449,231.55 	"/>
</g>
</svg>
