<?xml version="1.0" encoding="utf-8"?>
<!-- Generator: Adobe Illustrator 22.0.0, SVG Export Plug-In . SVG Version: 6.00 Build 0)  -->
<svg version="1.1" id="Layer_1" xmlns="http://www.w3.org/2000/svg" xmlns:xlink="http://www.w3.org/1999/xlink" x="0px" y="0px"
	 viewBox="0 0 142.2 51.8" style="enable-background:new 0 0 142.2 51.8;" xml:space="preserve">
<style type="text/css">
	.st0{fill:#FFFFFF;}
</style>
<title>Blanco</title>
<path class="st0" d="M25.9,22c-2.2,1.9-5.1,3-8,3c-1.1,0-2.2-0.1-3.3-0.5c-2.1-0.6-3.9-1.7-5.5-3.2c-0.8-0.7-1.4-1.6-1.9-2.5
	c-0.5-0.9-0.9-1.9-1.2-3c-0.6-2.2-0.6-4.4,0-6.6c0.3-1,0.7-2.1,1.2-3c1.1-1.8,2.6-3.4,4.5-4.5c0.9-0.5,1.9-0.9,2.9-1.2
	C17.1,0,19.8,0.1,22.2,1c1.4,0.5,2.6,1.3,3.7,2.2l-2.5,4.1c-0.7-0.8-1.5-1.3-2.5-1.7c-0.9-0.4-2-0.6-3-0.6c-1,0-2.1,0.2-3,0.6
	C14,6,13.2,6.5,12.5,7.2c-0.7,0.7-1.3,1.5-1.6,2.4c-0.8,1.9-0.8,4,0,5.9c0.8,1.8,2.2,3.3,4.1,4.1c0.9,0.4,2,0.6,3,0.6
	c1,0,2.1-0.2,3-0.6c0.9-0.4,1.8-1,2.5-1.7L25.9,22z"/>
<path class="st0" d="M47.6,24.5h-4.8v-4.8h-9.6v4.8h-4.8V10.1c0-1.3,0.2-2.6,0.8-3.7c0.5-1.1,1.2-2.1,2-3c0.9-0.9,1.9-1.5,3-2
	c2.4-1,5.1-1,7.5,0c2.3,1,4.1,2.8,5.1,5.1c0.5,1.2,0.8,2.4,0.8,3.7L47.6,24.5z M42.8,14.9v-4.8c0-0.6-0.1-1.3-0.4-1.9
	c-0.5-1.2-1.4-2.1-2.6-2.6c-0.6-0.3-1.2-0.4-1.8-0.4c-0.6,0-1.3,0.1-1.9,0.4c-0.6,0.2-1.1,0.6-1.5,1c-0.4,0.4-0.8,1-1,1.5
	c-0.3,0.6-0.4,1.2-0.4,1.9v4.8H42.8z"/>
<path class="st0" d="M56.5,24.5h-4.8V0.5h9.6c0.9,0,1.7,0.1,2.5,0.4c1.6,0.4,3,1.3,4.2,2.5c0.6,0.6,1.1,1.2,1.5,1.9
	c0.4,0.7,0.8,1.5,1,2.3c0.2,0.8,0.3,1.7,0.3,2.5c0,0.8-0.1,1.6-0.3,2.4c-0.2,0.8-0.5,1.5-0.9,2.2c-0.4,0.7-0.9,1.4-1.4,1.9
	c-0.6,0.6-1.2,1.1-1.9,1.5l2.6,6.3h-5l-2.1-4.8h-5.4L56.5,24.5z M56.5,5.3v9.6h4.8c0.6,0,1.3-0.1,1.8-0.4c1.1-0.5,2.1-1.4,2.6-2.5
	c0.5-1.2,0.5-2.5,0-3.7c-0.5-1.2-1.4-2.1-2.6-2.6c-0.6-0.3-1.2-0.4-1.8-0.4H56.5z"/>
<path class="st0" d="M90.7,24.5H74V0.5h4.8v19.1h12L90.7,24.5z"/>
<path class="st0" d="M115.8,12.6c0,1.1-0.1,2.2-0.4,3.3c-0.3,1-0.7,2-1.2,2.9c-0.5,0.9-1.2,1.8-1.9,2.5c-0.7,0.7-1.6,1.4-2.5,1.9
	c-0.9,0.5-1.9,1-3,1.2c-2.1,0.6-4.4,0.6-6.6,0c-1.1-0.3-2.1-0.7-3-1.2c-1.8-1.1-3.4-2.6-4.4-4.4c-0.5-0.9-1-1.9-1.2-2.9
	c-0.3-1.1-0.4-2.2-0.4-3.3c0-2.2,0.6-4.4,1.8-6.2c0.5-0.9,1.2-1.8,1.9-2.5c0.8-0.7,1.6-1.4,2.5-1.9c0.9-0.5,1.9-1,3-1.2
	c2.1-0.6,4.4-0.6,6.6,0c1.1,0.3,2.1,0.7,3,1.2c1.8,1.1,3.4,2.6,4.4,4.4C115.4,8.3,115.9,10.4,115.8,12.6L115.8,12.6z M111.1,12.6
	c0-1-0.2-2.1-0.6-3c-0.8-1.8-2.2-3.3-4-4.1c-1.9-0.8-4-0.8-5.9,0c-0.9,0.4-1.8,1-2.5,1.7c-0.7,0.7-1.3,1.5-1.6,2.4
	c-0.8,1.9-0.8,4,0,5.9c0.8,1.8,2.2,3.3,4.1,4.1c1.9,0.8,4,0.8,5.9,0c0.9-0.4,1.7-0.9,2.4-1.6c0.7-0.7,1.2-1.5,1.6-2.4
	C110.9,14.6,111.1,13.6,111.1,12.6z"/>
<path class="st0" d="M117.6,7.7c0-1,0.2-1.9,0.6-2.8c0.4-0.8,0.9-1.6,1.5-2.3c0.7-0.7,1.4-1.2,2.3-1.5c0.9-0.4,1.8-0.6,2.8-0.6h11
	v4.8h-11c-0.3,0-0.6,0.1-0.9,0.2c-0.6,0.2-1,0.7-1.3,1.3c-0.1,0.3-0.2,0.6-0.2,0.9c0,0.3,0.1,0.6,0.2,0.9c0.1,0.3,0.3,0.5,0.5,0.8
	c0.2,0.2,0.5,0.4,0.8,0.5c0.3,0.1,0.6,0.2,0.9,0.2h4.8c1,0,1.9,0.2,2.8,0.6c0.9,0.4,1.6,0.9,2.3,1.5c0.7,0.7,1.2,1.4,1.5,2.3
	c0.7,1.8,0.7,3.8,0,5.6c-0.4,0.9-0.9,1.6-1.5,2.3c-0.7,0.7-1.4,1.2-2.3,1.5c-0.9,0.4-1.8,0.6-2.8,0.6h-10.7v-4.8h10.6
	c0.3,0,0.6-0.1,0.9-0.2c0.3-0.1,0.5-0.3,0.8-0.5c0.2-0.2,0.4-0.5,0.5-0.8c0.2-0.6,0.2-1.3,0-1.9c-0.2-0.6-0.7-1-1.3-1.3
	c-0.3-0.1-0.6-0.2-0.9-0.2h-4.8c-1,0-1.9-0.2-2.8-0.6c-1.7-0.7-3.1-2.1-3.8-3.8C117.8,9.6,117.6,8.7,117.6,7.7z"/>
<path class="st0" d="M19.4,50.8h-4.8V46H5.1v4.8H0.3V36.5c0-1.3,0.2-2.5,0.7-3.7c0.5-1.1,1.1-2.2,2-3c0.9-0.9,1.9-1.6,3-2
	c1.2-0.5,2.4-0.8,3.7-0.8c1.3,0,2.6,0.2,3.7,0.8c2.3,1,4.1,2.8,5.1,5.1c0.5,1.2,0.8,2.4,0.8,3.7L19.4,50.8z M14.6,41.3v-4.8
	c0-0.6-0.1-1.3-0.4-1.9c-0.5-1.2-1.4-2.1-2.6-2.5c-0.6-0.2-1.2-0.4-1.9-0.4c-0.6,0-1.3,0.1-1.8,0.4c-0.6,0.2-1.1,0.6-1.5,1
	c-0.4,0.4-0.8,1-1,1.5c-0.3,0.6-0.4,1.2-0.4,1.9v4.8L14.6,41.3z"/>
<path class="st0" d="M28.4,50.8h-4.8V26.9h9.6c0.9,0,1.7,0.1,2.5,0.3c0.8,0.2,1.6,0.6,2.3,1c0.7,0.4,1.4,0.9,1.9,1.5
	c0.6,0.6,1.1,1.2,1.5,1.9c0.4,0.7,0.8,1.5,1,2.3c0.2,0.8,0.4,1.7,0.3,2.5c0,1.6-0.4,3.2-1.2,4.6c-0.4,0.7-0.9,1.3-1.4,1.9
	c-0.6,0.6-1.2,1.1-1.9,1.5l2.7,6.2h-5.1L33.7,46h-5.4V50.8z M28.4,31.7v9.6h4.8c0.6,0,1.3-0.1,1.8-0.4c1.1-0.5,2.1-1.4,2.5-2.5
	c0.5-1.2,0.5-2.5,0-3.7c-0.5-1.1-1.4-2.1-2.5-2.5c-0.6-0.2-1.2-0.4-1.8-0.4H28.4z"/>
<path class="st0" d="M50.6,50.8h-4.8V26.9h9.6c1.7,0,3.4,0.4,4.8,1.3c1.4,0.8,2.6,2,3.4,3.4c0.4,0.7,0.8,1.5,1,2.3
	c0.4,1.6,0.4,3.3,0,4.9c-0.2,0.8-0.5,1.5-0.9,2.2c-0.8,1.4-1.9,2.6-3.3,3.5l2.7,6.2h-5.1L56,46h-5.4V50.8z M50.6,31.7v9.6h4.8
	c0.6,0,1.3-0.1,1.8-0.4c1.1-0.5,2.1-1.4,2.5-2.5c0.5-1.2,0.5-2.5,0-3.7c-0.5-1.1-1.4-2.1-2.5-2.5c-0.6-0.2-1.2-0.4-1.8-0.4
	L50.6,31.7z"/>
<path class="st0" d="M72.9,50.8h-4.8V26.9h4.8V50.8z"/>
<path class="st0" d="M96.2,50.8h-4.8V46h-9.6v4.8h-4.8V36.5c0-1.3,0.2-2.5,0.8-3.7c0.5-1.1,1.2-2.2,2-3c0.9-0.9,1.9-1.6,3-2
	c2.4-1,5.1-1,7.5,0c2.3,1,4.1,2.8,5.1,5.1c0.5,1.2,0.8,2.4,0.8,3.7L96.2,50.8z M91.4,41.3v-4.8c0-0.6-0.1-1.3-0.4-1.9
	c-0.2-0.6-0.6-1.1-1-1.5c-0.9-0.9-2.1-1.4-3.4-1.4c-2.6,0-4.8,2.1-4.8,4.7c0,0,0,0,0,0v4.8L91.4,41.3z"/>
<path class="st0" d="M119.4,48.4c-3.1,2.6-7.3,3.6-11.3,2.5c-1-0.3-2-0.7-2.9-1.2c-0.9-0.5-1.8-1.2-2.5-1.9
	c-0.8-0.7-1.4-1.6-1.9-2.5c-0.5-0.9-1-2-1.2-3c-0.3-1-0.4-2.1-0.4-3.2c0-1.1,0.1-2.2,0.4-3.3c0.3-1,0.7-2,1.2-2.9
	c0.5-0.9,1.2-1.8,1.9-2.5c2.3-2.3,5.5-3.6,8.7-3.6c2.9,0,5.8,1,8,2.9l-2.5,4.2c-0.7-0.7-1.6-1.3-2.5-1.7c-1.9-0.8-4-0.8-5.9,0
	c-0.9,0.4-1.7,0.9-2.4,1.6c-0.7,0.7-1.2,1.5-1.6,2.3c-0.4,0.9-0.6,1.9-0.6,2.9c0,1,0.2,2.1,0.6,3c0.8,1.8,2.2,3.2,4,4
	c0.9,0.4,2,0.6,3,0.6c0.6,0,1.2-0.1,1.8-0.2c0.6-0.1,1.1-0.3,1.6-0.6V39h4.6L119.4,48.4z"/>
<path class="st0" d="M142,50.8h-4.8V46h-9.6v4.8h-4.8V36.5c0-1.3,0.2-2.5,0.8-3.7c1-2.3,2.8-4.1,5.1-5.1c2.4-1,5.1-1,7.5,0
	c2.3,1,4.1,2.8,5.1,5.1c0.5,1.2,0.8,2.4,0.8,3.7L142,50.8z M137.2,41.3v-4.8c0-0.6-0.1-1.3-0.4-1.9c-0.5-1.2-1.4-2.1-2.6-2.5
	c-1.2-0.5-2.5-0.5-3.7,0c-1.2,0.5-2.1,1.4-2.6,2.5c-0.3,0.6-0.4,1.2-0.4,1.9v4.8L137.2,41.3z"/>
</svg>
