<?xml version="1.0" encoding="utf-8"?>
<!-- Generator: Adobe Illustrator 16.0.0, SVG Export Plug-In . SVG Version: 6.00 Build 0)  -->
<!DOCTYPE svg PUBLIC "-//W3C//DTD SVG 1.1//EN" "http://www.w3.org/Graphics/SVG/1.1/DTD/svg11.dtd">
<svg version="1.1" xmlns="http://www.w3.org/2000/svg" xmlns:xlink="http://www.w3.org/1999/xlink" x="0px" y="0px"
	 width="298.911px" height="347.515px" viewBox="0 0 298.911 347.515" enable-background="new 0 0 298.911 347.515"
	 xml:space="preserve">
<g id="guias" display="none">
</g>
<g id="Capa_1">
</g>
<g id="guias_1_" display="none">
</g>
<g id="Capa_3">
	<g>
		<path fill="#FFFFFF" d="M172.139,13c-12.384-7.15-32.649-7.15-45.033,0L22.85,73.192c-12.384,7.15-22.517,24.7-22.517,39v120.384
			c0,14.3,10.132,31.85,22.517,39l104.256,60.191c12.384,7.15,32.649,7.15,45.033,0l104.256-60.191
			c12.384-7.15,22.517-24.7,22.517-39V112.192c0-14.3-10.133-31.85-22.517-39L172.139,13z M292.05,228.614
			c0,14.3-10.133,31.85-22.517,39l-97.395,56.23c-12.384,7.15-32.649,7.15-45.033,0l-97.395-56.23
			c-12.384-7.15-22.517-24.7-22.517-39V116.153c0-14.3,10.132-31.85,22.517-39l97.395-56.23c12.384-7.15,32.649-7.15,45.033,0
			l97.395,56.23c12.384,7.15,22.517,24.7,22.517,39V228.614z"/>
	</g>
	<g>
		<path fill="#FFFFFF" d="M239.886,72.274c12.384,7.15,12.381,18.844-0.008,25.987l-67.809,39.095
			c-12.389,7.143-32.657,7.137-45.041-0.013l-67.67-39.069c-12.384-7.15-12.384-18.85,0-26l67.747-39.113
			c12.384-7.15,32.649-7.15,45.033,0L239.886,72.274z"/>
	</g>
</g>
<g id="Capa_5" display="none">
</g>
<g id="Capa_6">
</g>
<g id="Capa_7">
</g>
</svg>
