<?xml version="1.0" encoding="utf-8"?>
<!-- Generator: Adobe Illustrator 16.0.0, SVG Export Plug-In . SVG Version: 6.00 Build 0)  -->
<!DOCTYPE svg PUBLIC "-//W3C//DTD SVG 1.1//EN" "http://www.w3.org/Graphics/SVG/1.1/DTD/svg11.dtd">
<svg version="1.1" xmlns="http://www.w3.org/2000/svg" xmlns:xlink="http://www.w3.org/1999/xlink" x="0px" y="0px" width="49px"
	 height="32.885px" viewBox="0 0 49 32.885" enable-background="new 0 0 49 32.885" xml:space="preserve">
<g id="Capa_1">
</g>
<g id="Capa_2">
</g>
<g id="Capa_4">
</g>
<g id="Capa_3">
</g>
<g id="Capa_6">
</g>
<g id="Capa_7">
</g>
<g id="Capa_5">
	<g>
		<path d="M11.37,12.584c0.152,0,0.283,0.053,0.393,0.158c0.105,0.105,0.158,0.234,0.158,0.387s-0.053,0.281-0.158,0.387
			c-0.109,0.109-0.24,0.164-0.393,0.164H7.421c-0.152,0-0.283-0.055-0.393-0.164c-0.105-0.105-0.158-0.234-0.158-0.387V5.354
			c0-0.152,0.053-0.281,0.158-0.387c0.109-0.109,0.24-0.164,0.393-0.164c0.148,0,0.277,0.055,0.387,0.164
			c0.105,0.105,0.158,0.234,0.158,0.387v7.23H11.37z"/>
		<path d="M15.466,7.071c0.895,0,1.66,0.324,2.297,0.973c0.637,0.645,0.955,1.424,0.955,2.338c0,0.91-0.318,1.688-0.955,2.332
			s-1.402,0.967-2.297,0.967c-0.898,0-1.664-0.322-2.297-0.967c-0.637-0.645-0.955-1.422-0.955-2.332
			c0-0.914,0.318-1.693,0.955-2.338C13.802,7.395,14.567,7.071,15.466,7.071z M15.466,12.584c0.594,0,1.102-0.215,1.523-0.645
			c0.422-0.434,0.633-0.953,0.633-1.559c0-0.609-0.211-1.131-0.633-1.564c-0.422-0.43-0.93-0.645-1.523-0.645
			s-1.102,0.215-1.523,0.645c-0.422,0.434-0.633,0.955-0.633,1.564c0,0.605,0.211,1.125,0.633,1.559
			C14.364,12.37,14.872,12.584,15.466,12.584z"/>
		<path d="M22.632,7.071c0.152,0,0.281,0.055,0.387,0.164c0.109,0.105,0.164,0.234,0.164,0.387s-0.055,0.281-0.164,0.387
			c-0.105,0.109-0.234,0.164-0.387,0.164c-0.535,0-0.992,0.215-1.371,0.645c-0.379,0.434-0.568,0.955-0.568,1.564v2.754
			c0,0.152-0.053,0.281-0.158,0.387c-0.109,0.105-0.238,0.158-0.387,0.158c-0.152,0-0.283-0.053-0.393-0.158
			c-0.105-0.105-0.158-0.234-0.158-0.387V7.622c0-0.152,0.053-0.281,0.158-0.387c0.109-0.109,0.24-0.164,0.393-0.164
			c0.148,0,0.277,0.055,0.387,0.164c0.105,0.105,0.158,0.234,0.158,0.387v0.217C21.255,7.327,21.901,7.071,22.632,7.071z"/>
		<path d="M24.448,12.713c-0.305-0.305-0.541-0.652-0.709-1.043c-0.176-0.41-0.264-0.838-0.264-1.283
			c0-0.914,0.324-1.695,0.973-2.344c0.309-0.305,0.662-0.541,1.061-0.709c0.41-0.176,0.842-0.264,1.295-0.264
			c0.914,0,1.697,0.324,2.35,0.973c0.305,0.305,0.541,0.656,0.709,1.055c0.176,0.41,0.264,0.84,0.264,1.289
			c0,0.152-0.053,0.281-0.158,0.387c-0.109,0.109-0.24,0.164-0.393,0.164h-4.934c0.125,0.477,0.387,0.869,0.785,1.178
			c0.402,0.312,0.861,0.469,1.377,0.469c0.812,0,1.439-0.248,1.881-0.744c0.098-0.113,0.223-0.174,0.375-0.182
			s0.285,0.037,0.398,0.135c0.113,0.102,0.174,0.229,0.182,0.381c0.008,0.148-0.039,0.279-0.141,0.393
			c-0.656,0.742-1.555,1.113-2.695,1.113C25.886,13.68,25.101,13.358,24.448,12.713z M28.96,9.836
			c-0.125-0.484-0.385-0.883-0.779-1.195c-0.406-0.316-0.865-0.475-1.377-0.475c-0.516,0-0.977,0.158-1.383,0.475
			c-0.395,0.312-0.654,0.711-0.779,1.195H28.96z"/>
		<path d="M38.61,7.071c0.801,0,1.484,0.324,2.051,0.973c0.566,0.645,0.85,1.424,0.85,2.338v2.754c0,0.148-0.053,0.277-0.158,0.387
			c-0.109,0.105-0.238,0.158-0.387,0.158c-0.152,0-0.283-0.053-0.393-0.158c-0.105-0.109-0.158-0.238-0.158-0.387v-2.754
			c0-0.609-0.176-1.131-0.527-1.564c-0.355-0.43-0.781-0.645-1.277-0.645s-0.922,0.215-1.277,0.645
			c-0.352,0.434-0.527,0.953-0.527,1.559v2.76c0,0.148-0.053,0.277-0.158,0.387c-0.109,0.105-0.238,0.158-0.387,0.158
			c-0.152,0-0.283-0.053-0.393-0.158c-0.105-0.109-0.158-0.238-0.158-0.387v-2.76c0-0.605-0.176-1.125-0.527-1.559
			c-0.355-0.43-0.781-0.645-1.277-0.645s-0.922,0.215-1.277,0.645c-0.352,0.434-0.527,0.955-0.527,1.564v2.754
			c0,0.152-0.053,0.281-0.158,0.387c-0.109,0.105-0.238,0.158-0.387,0.158c-0.152,0-0.283-0.053-0.393-0.158
			c-0.105-0.105-0.158-0.234-0.158-0.387V7.622c0-0.152,0.053-0.281,0.158-0.387c0.109-0.109,0.24-0.164,0.393-0.164
			c0.148,0,0.277,0.055,0.387,0.164c0.105,0.105,0.158,0.234,0.158,0.387v0.17c0.531-0.48,1.133-0.721,1.805-0.721
			c0.988,0,1.773,0.459,2.355,1.377C36.839,7.53,37.622,7.071,38.61,7.071z"/>
	</g>
	<g>
		<path d="M7.479,16.803c0.148,0,0.277,0.055,0.387,0.164c0.105,0.105,0.158,0.234,0.158,0.387v7.775
			c0,0.152-0.053,0.281-0.158,0.387c-0.109,0.109-0.238,0.164-0.387,0.164c-0.152,0-0.283-0.055-0.393-0.164
			c-0.105-0.105-0.158-0.234-0.158-0.387v-7.775c0-0.152,0.053-0.281,0.158-0.387C7.196,16.858,7.327,16.803,7.479,16.803z"/>
		<path d="M13.247,19.065c0.895,0,1.66,0.324,2.297,0.973c0.633,0.645,0.949,1.424,0.949,2.338c0,0.91-0.316,1.688-0.949,2.332
			c-0.637,0.645-1.402,0.967-2.297,0.967c-0.82,0-1.539-0.277-2.156-0.832v2.525c0,0.152-0.053,0.281-0.158,0.387
			c-0.109,0.105-0.238,0.158-0.387,0.158c-0.152,0-0.283-0.053-0.393-0.158c-0.105-0.105-0.158-0.234-0.158-0.387v-7.752
			c0-0.152,0.053-0.281,0.158-0.387c0.109-0.109,0.24-0.164,0.393-0.164c0.148,0,0.277,0.055,0.387,0.164
			c0.105,0.105,0.158,0.234,0.158,0.387v0.281C11.708,19.342,12.427,19.065,13.247,19.065z M13.247,24.579
			c0.594,0,1.102-0.215,1.523-0.645c0.418-0.434,0.627-0.953,0.627-1.559c0-0.609-0.209-1.131-0.627-1.564
			c-0.422-0.43-0.93-0.645-1.523-0.645s-1.102,0.215-1.523,0.645c-0.422,0.434-0.633,0.955-0.633,1.564
			c0,0.605,0.211,1.125,0.633,1.559C12.146,24.364,12.653,24.579,13.247,24.579z"/>
		<path d="M18.691,25.282c-0.332-0.223-0.6-0.498-0.803-0.826c-0.078-0.129-0.1-0.266-0.064-0.41
			c0.035-0.148,0.115-0.264,0.24-0.346c0.129-0.078,0.268-0.1,0.416-0.064s0.262,0.117,0.34,0.246
			c0.117,0.188,0.273,0.346,0.469,0.475c0.219,0.152,0.439,0.229,0.662,0.229c0.262,0,0.484-0.082,0.668-0.246
			c0.188-0.16,0.281-0.355,0.281-0.586c0-0.234-0.076-0.408-0.229-0.521c-0.133-0.102-0.424-0.213-0.873-0.334
			c-0.566-0.156-0.977-0.328-1.23-0.516c-0.445-0.32-0.668-0.781-0.668-1.383c0-0.531,0.201-0.986,0.604-1.365
			c0.398-0.375,0.881-0.562,1.447-0.562c0.406,0,0.781,0.105,1.125,0.316c0.34,0.211,0.59,0.492,0.75,0.844
			c0.066,0.137,0.072,0.277,0.018,0.422c-0.051,0.141-0.146,0.242-0.287,0.305c-0.137,0.062-0.275,0.068-0.416,0.018
			s-0.244-0.146-0.311-0.287c-0.07-0.156-0.186-0.283-0.346-0.381c-0.16-0.094-0.338-0.141-0.533-0.141
			c-0.262,0-0.486,0.082-0.674,0.246c-0.184,0.16-0.275,0.355-0.275,0.586s0.072,0.4,0.217,0.51
			c0.133,0.094,0.424,0.203,0.873,0.328c0.57,0.16,0.982,0.332,1.236,0.516c0.445,0.328,0.668,0.795,0.668,1.4
			c0,0.531-0.199,0.986-0.598,1.365c-0.402,0.375-0.885,0.562-1.447,0.562C19.51,25.68,19.09,25.547,18.691,25.282z"/>
		<path d="M28.584,19.071c0.152,0,0.281,0.053,0.387,0.158c0.105,0.109,0.158,0.24,0.158,0.393v5.514
			c0,0.148-0.053,0.277-0.158,0.387c-0.105,0.105-0.234,0.158-0.387,0.158s-0.281-0.053-0.387-0.158
			c-0.109-0.109-0.164-0.238-0.164-0.387v-0.176c-0.527,0.48-1.129,0.721-1.805,0.721c-0.801,0-1.484-0.322-2.051-0.967
			c-0.566-0.648-0.85-1.428-0.85-2.338v-2.771c0-0.152,0.053-0.281,0.158-0.387c0.109-0.109,0.24-0.164,0.393-0.164
			c0.148,0,0.277,0.055,0.387,0.164c0.105,0.105,0.158,0.234,0.158,0.387v2.771c0,0.609,0.176,1.129,0.527,1.559
			c0.355,0.434,0.781,0.65,1.277,0.65c0.5,0,0.926-0.217,1.277-0.65c0.352-0.43,0.527-0.949,0.527-1.559v-2.754
			c0-0.152,0.055-0.283,0.164-0.393C28.303,19.124,28.432,19.071,28.584,19.071z"/>
		<path d="M38.587,19.071c0.801,0,1.484,0.324,2.051,0.973c0.566,0.645,0.85,1.424,0.85,2.338v2.754
			c0,0.148-0.053,0.277-0.158,0.387c-0.109,0.105-0.238,0.158-0.387,0.158c-0.152,0-0.283-0.053-0.393-0.158
			c-0.105-0.109-0.158-0.238-0.158-0.387v-2.754c0-0.609-0.176-1.131-0.527-1.564c-0.355-0.43-0.781-0.645-1.277-0.645
			s-0.922,0.215-1.277,0.645c-0.352,0.434-0.527,0.953-0.527,1.559v2.76c0,0.148-0.053,0.277-0.158,0.387
			c-0.109,0.105-0.238,0.158-0.387,0.158c-0.152,0-0.283-0.053-0.393-0.158c-0.105-0.109-0.158-0.238-0.158-0.387v-2.76
			c0-0.605-0.176-1.125-0.527-1.559c-0.355-0.43-0.781-0.645-1.277-0.645s-0.922,0.215-1.277,0.645
			c-0.352,0.434-0.527,0.955-0.527,1.564v2.754c0,0.152-0.053,0.281-0.158,0.387c-0.109,0.105-0.238,0.158-0.387,0.158
			c-0.152,0-0.283-0.053-0.393-0.158c-0.105-0.105-0.158-0.234-0.158-0.387v-5.514c0-0.152,0.053-0.281,0.158-0.387
			c0.109-0.109,0.24-0.164,0.393-0.164c0.148,0,0.277,0.055,0.387,0.164c0.105,0.105,0.158,0.234,0.158,0.387v0.17
			c0.531-0.48,1.133-0.721,1.805-0.721c0.988,0,1.773,0.459,2.355,1.377C36.815,19.53,37.599,19.071,38.587,19.071z"/>
	</g>
	<g>
		<path d="M4.047,0.66c-1.65,0-3,1.35-3,3v25.41c0,1.65,1.35,3,3,3h40.74c1.65,0,3-1.35,3-3V3.66c0-1.65-1.35-3-3-3H4.047z
			 M46.287,27.68c0,1.65-1.35,3-3,3H5.547c-1.65,0-3-1.35-3-3V5.06c0-1.65,1.35-3,3-3h37.74c1.65,0,3,1.35,3,3V27.68z"/>
	</g>
</g>
</svg>
