<?xml version="1.0" encoding="utf-8"?>
<!-- Generator: Adobe Illustrator 16.0.0, SVG Export Plug-In . SVG Version: 6.00 Build 0)  -->
<!DOCTYPE svg PUBLIC "-//W3C//DTD SVG 1.1//EN" "http://www.w3.org/Graphics/SVG/1.1/DTD/svg11.dtd">
<svg version="1.1" xmlns="http://www.w3.org/2000/svg" xmlns:xlink="http://www.w3.org/1999/xlink" x="0px" y="0px" width="365px"
	 height="232.385px" viewBox="0 0 365 232.385" enable-background="new 0 0 365 232.385" xml:space="preserve">
<g id="Capa_1">
</g>
<g id="Capa_2">
</g>
<g id="Capa_4">
</g>
<g id="Capa_3">
</g>
<g id="Capa_6">
	<path fill="#999999" d="M290.213,103.883c-15.374-57.374-74.346-91.421-131.719-76.048
		c-57.373,15.373-91.422,74.345-76.048,131.718c15.373,57.374,74.346,91.421,131.719,76.049
		C271.538,220.229,305.586,161.255,290.213,103.883z M209.351,217.633c-47.45,12.714-96.222-15.445-108.936-62.894
		c-12.714-47.45,15.444-96.222,62.894-108.935c47.449-12.715,96.221,15.444,108.936,62.893
		C284.957,156.147,256.8,204.919,209.351,217.633z"/>
</g>
<g id="Capa_7">
	<path fill="#ADADAD" d="M110.284,263.438L82.45,159.554c-0.138-0.512-0.268-1.021-0.385-1.531
		c-3.795-15.804-0.753-31.729,7.289-44.577c3.882-6.217,8.938-11.715,14.957-16.124l0.005-0.008
		c5.686-4.178,12.226-7.38,19.444-9.314c19.904-5.333,40.164,0.281,54.382,13.152c7.93,7.176,13.974,16.607,17.033,27.667
		c0.037,0.162,0.082,0.33,0.126,0.496c0.045,0.167,0.09,0.333,0.14,0.493c5.888,20.95,27.554,33.319,48.639,27.668
		c20.901-5.594,33.445-26.816,28.431-47.726c-0.011-0.016-0.01-0.036-0.017-0.06c-0.033-0.15-0.071-0.312-0.113-0.467
		c-0.047-0.179-0.092-0.345-0.139-0.524L261.19,67.428L256.6,50.3l-7.372-27.517l-27.518,7.373l-58.403,15.649l-4.81-17.97
		L262.381-0.001l27.828,103.88l-0.013,0.003l-0.003,0.007c4.373,16.3,1.396,32.827-6.888,46.077
		c-3.874,6.222-8.932,11.72-14.943,16.133c-5.686,4.179-12.241,7.391-19.473,9.329c-19.904,5.333-40.156-0.277-54.366-13.143
		c-8.049-7.285-14.165-16.889-17.185-28.156c-5.687-21.247-27.519-33.852-48.765-28.165c-20.898,5.606-33.434,26.813-28.431,47.726
		c0.048,0.179,0.091,0.365,0.142,0.555c0.037,0.163,0.082,0.33,0.128,0.497c0.044,0.166,0.089,0.333,0.138,0.493l22.888,85.419
		l85.909-23.018l4.82,17.967L110.284,263.438z"/>
</g>
<g id="Capa_5">
	<g>
		<g>
			
				<line fill="none" stroke="#64FFFB" stroke-miterlimit="10" stroke-dasharray="3.9092,5.8637" x1="108.246" y1="255.84" x2="55.887" y2="60.435"/>
			<polyline fill="none" stroke="#64FFFB" stroke-miterlimit="10" points="55.128,57.603 54.61,55.671 56.542,55.153 			"/>
			
				<line fill="none" stroke="#64FFFB" stroke-miterlimit="10" stroke-dasharray="3.9092,5.8638" x1="62.206" y1="53.636" x2="257.613" y2="1.276"/>
			<polyline fill="none" stroke="#64FFFB" stroke-miterlimit="10" points="260.445,0.518 262.377,0 262.895,1.932 			"/>
			
				<line fill="none" stroke="#64FFFB" stroke-miterlimit="10" stroke-dasharray="3.9092,5.8638" x1="264.412" y1="7.596" x2="316.771" y2="203.002"/>
			<polyline fill="none" stroke="#64FFFB" stroke-miterlimit="10" points="317.53,205.834 318.048,207.766 316.116,208.284 			"/>
			
				<line fill="none" stroke="#64FFFB" stroke-miterlimit="10" stroke-dasharray="3.9092,5.8638" x1="310.452" y1="209.801" x2="115.045" y2="262.16"/>
		</g>
	</g>
	<g>
		
			<circle fill="none" stroke="#64FFFB" stroke-miterlimit="10" stroke-dasharray="3.9751,5.9627" cx="186.33" cy="131.719" r="107.548"/>
	</g>
	<g>
		<g>
			
				<line fill="none" stroke="#64FFFB" stroke-miterlimit="10" stroke-dasharray="3.9521,5.9281" x1="121.385" y1="232.995" x2="78.68" y2="73.619"/>
			<polyline fill="none" stroke="#64FFFB" stroke-miterlimit="10" points="77.912,70.756 77.395,68.824 79.326,68.307 			"/>
			
				<line fill="none" stroke="#64FFFB" stroke-miterlimit="10" stroke-dasharray="3.9521,5.9281" x1="85.053" y1="66.772" x2="244.429" y2="24.067"/>
			<polyline fill="none" stroke="#64FFFB" stroke-miterlimit="10" points="247.292,23.3 249.224,22.783 249.741,24.714 			"/>
			
				<line fill="none" stroke="#64FFFB" stroke-miterlimit="10" stroke-dasharray="3.9521,5.9281" x1="251.275" y1="30.441" x2="293.979" y2="189.817"/>
			<polyline fill="none" stroke="#64FFFB" stroke-miterlimit="10" points="294.746,192.681 295.264,194.612 293.332,195.13 			"/>
			
				<line fill="none" stroke="#64FFFB" stroke-miterlimit="10" stroke-dasharray="3.952,5.928" x1="287.605" y1="196.664" x2="128.231" y2="239.368"/>
		</g>
	</g>
	<g>
		
			<circle fill="none" stroke="#64FFFB" stroke-miterlimit="10" stroke-dasharray="3.992,5.988" cx="186.33" cy="131.719" r="88.945"/>
	</g>
	<g>
		
			<circle fill="none" stroke="#64FFFB" stroke-miterlimit="10" stroke-dasharray="3.9677,5.9516" cx="138.88" cy="144.432" r="58.425"/>
	</g>
	<g>
		<path fill="none" stroke="#64FFFB" stroke-miterlimit="10" stroke-dasharray="4.0023,6.0034" d="M149.187,182.898
			c-21.244,5.692-43.08-6.917-48.771-28.159c-5.692-21.243,6.914-43.079,28.159-48.772c21.244-5.692,43.079,6.915,48.771,28.16
			C183.037,155.368,170.43,177.206,149.187,182.898z"/>
	</g>
	<g>
		
			<circle fill="none" stroke="#64FFFB" stroke-miterlimit="10" stroke-dasharray="3.9672,5.9508" cx="233.771" cy="119.006" r="58.417"/>
	</g>
	<g>
		
			<circle fill="none" stroke="#64FFFB" stroke-miterlimit="10" stroke-dasharray="4.0031,6.0047" cx="233.772" cy="119.006" r="39.83"/>
	</g>
	
		<line fill="none" stroke="#64FFFB" stroke-miterlimit="10" stroke-dasharray="4,6" x1="142.028" y1="-33.615" x2="227.338" y2="284.761"/>
	
		<line fill="#ADADAD" stroke="#64FFFB" stroke-miterlimit="10" stroke-dasharray="4,6" x1="22.446" y1="175.63" x2="345.566" y2="89.052"/>
</g>
</svg>
