<?xml version="1.0" encoding="utf-8"?>
<!-- Generator: Adobe Illustrator 16.0.0, SVG Export Plug-In . SVG Version: 6.00 Build 0)  -->
<!DOCTYPE svg PUBLIC "-//W3C//DTD SVG 1.1//EN" "http://www.w3.org/Graphics/SVG/1.1/DTD/svg11.dtd">
<svg version="1.1" id="Capa_1" xmlns="http://www.w3.org/2000/svg" xmlns:xlink="http://www.w3.org/1999/xlink" x="0px" y="0px"
	 width="288.448px" height="315.818px" viewBox="-20.337 -0.687 288.448 315.818"
	 enable-background="new -20.337 -0.687 288.448 315.818" xml:space="preserve">
<g id="guias" display="none">
</g>
<g id="Capa_1_1_">
</g>
<g id="guias_1_" display="none">
</g>
<g id="Capa_3">
</g>
<g id="Capa_5" display="none">
</g>
<g id="Capa_6">
</g>
<g id="Capa_8" display="none">
</g>
<g id="Capa_7">
</g>
<g id="Capa_10" display="none">
</g>
<g id="Capa_9">
</g>
<g id="Capa_11" display="none">
	
		<rect x="-149.146" y="4.321" transform="matrix(-0.8109 -0.5852 0.5852 -0.8109 -366.5963 349.1768)" display="inline" fill="none" stroke="#000000" stroke-miterlimit="10" width="44.534" height="459.004"/>
	
		<rect x="-168.101" y="-99.66" transform="matrix(0.8109 -0.5852 0.5852 0.8109 -103.5626 -60.7878)" display="inline" fill="none" stroke="#000000" stroke-miterlimit="10" width="44.534" height="459.004"/>
</g>
<g id="Capa_12" display="none">
	
		<rect x="-149.146" y="4.321" transform="matrix(-0.8109 -0.5852 0.5852 -0.8109 -366.5963 349.1768)" display="inline" fill="none" stroke="#000000" stroke-miterlimit="10" width="44.534" height="459.004"/>
	
		<rect x="-168.101" y="-99.66" transform="matrix(0.8109 -0.5852 0.5852 0.8109 -103.5626 -60.7878)" display="inline" fill="none" stroke="#000000" stroke-miterlimit="10" width="44.534" height="459.004"/>
</g>
<g id="Capa_13">
	<polygon fill="#FFFFFF" points="241.606,274.767 241.518,275.001 181.348,315.131 129.963,296.001 148.328,283.73 148.356,283.655 
		229.189,229.671 230.61,228.717 267.958,203.75 255.286,237.904 	"/>
	<polygon fill="#EDEFEF" points="37.703,220.699 -1.307,246.782 -20.337,177.658 -20.158,177.18 18.583,151.278 	"/>
	<polygon fill="#FFFFFF" points="217.216,18.474 217.212,18.483 178.204,44.562 118,84.807 78.987,110.894 20.017,150.318 
		18.583,151.278 -20.158,177.18 -6.523,140.438 6.174,106.217 6.281,105.927 66.527,65.656 105.54,39.567 165.746,-0.687 	"/>
	<polygon fill="#EDEFEF" points="168.979,269.923 129.961,296 110.569,225.558 149.576,199.479 	"/>
	<polygon fill="#FFFFFF" points="149.576,199.479 110.569,225.558 50.162,265.941 -1.307,246.782 37.703,220.699 98.109,180.319 
		99.002,179.722 149.29,198.444 	"/>
	<polygon fill="#EDEFEF" points="268.112,203.325 267.954,203.747 230.607,228.716 229.186,229.668 228.725,228.015 
		209.783,159.224 197.325,113.985 178.204,44.562 217.212,18.483 236.335,87.907 248.793,133.145 	"/>
	<polygon opacity="0.5" enable-background="new    " points="181.669,57.146 178.204,44.562 217.216,18.474 	"/>
	<polygon opacity="0.5" enable-background="new    " points="114.097,238.376 110.569,225.558 149.576,199.479 	"/>
	<polygon opacity="0.5" enable-background="new    " points="18.583,151.278 21.63,162.339 -20.159,177.18 	"/>
</g>
</svg>
