<?xml version="1.0" encoding="utf-8"?>
<!-- Generator: Adobe Illustrator 16.0.0, SVG Export Plug-In . SVG Version: 6.00 Build 0)  -->
<!DOCTYPE svg PUBLIC "-//W3C//DTD SVG 1.1//EN" "http://www.w3.org/Graphics/SVG/1.1/DTD/svg11.dtd">
<svg version="1.1" xmlns="http://www.w3.org/2000/svg" xmlns:xlink="http://www.w3.org/1999/xlink" x="0px" y="0px" width="180px"
	 height="77.833px" viewBox="0 0 180 77.833" enable-background="new 0 0 180 77.833" xml:space="preserve">
<g id="Capa_1">
</g>
<g id="Capa_2">
</g>
<g id="Capa_4">
</g>
<g id="Capa_3">
</g>
<g id="Capa_6">
</g>
<g id="Capa_7">
</g>
<g id="Capa_5">
	<g>
		<g>
			<path d="M62.086,31.144c0.326,0,0.605,0.113,0.84,0.338c0.227,0.226,0.338,0.501,0.338,0.828c0,0.326-0.111,0.602-0.338,0.827
				c-0.234,0.234-0.514,0.351-0.84,0.351h-8.449c-0.326,0-0.605-0.117-0.84-0.351c-0.227-0.226-0.338-0.501-0.338-0.827V15.674
				c0-0.326,0.111-0.602,0.338-0.828c0.234-0.234,0.514-0.351,0.84-0.351c0.318,0,0.594,0.117,0.828,0.351
				c0.225,0.226,0.338,0.501,0.338,0.828v15.469H62.086z"/>
			<path d="M70.848,19.347c1.914,0,3.553,0.694,4.916,2.081c1.361,1.379,2.043,3.046,2.043,5.002c0,1.947-0.682,3.61-2.043,4.989
				c-1.363,1.379-3.002,2.068-4.916,2.068c-1.922,0-3.559-0.689-4.914-2.068c-1.361-1.379-2.043-3.042-2.043-4.989
				c0-1.956,0.682-3.623,2.043-5.002C67.289,20.041,68.926,19.347,70.848,19.347z M70.848,31.144c1.271,0,2.357-0.459,3.26-1.379
				c0.902-0.928,1.354-2.039,1.354-3.334c0-1.304-0.451-2.419-1.354-3.347c-0.902-0.919-1.988-1.379-3.26-1.379
				c-1.27,0-2.355,0.459-3.258,1.379c-0.902,0.928-1.355,2.043-1.355,3.347c0,1.295,0.453,2.407,1.355,3.334
				C68.492,30.684,69.578,31.144,70.848,31.144z"/>
			<path d="M86.18,19.347c0.326,0,0.602,0.117,0.828,0.351c0.234,0.226,0.352,0.501,0.352,0.827c0,0.326-0.117,0.602-0.352,0.828
				c-0.227,0.234-0.502,0.351-0.828,0.351c-1.145,0-2.123,0.459-2.934,1.379c-0.811,0.928-1.215,2.043-1.215,3.347v5.892
				c0,0.326-0.113,0.602-0.34,0.828c-0.232,0.226-0.51,0.338-0.826,0.338c-0.326,0-0.605-0.113-0.84-0.338
				c-0.227-0.226-0.34-0.501-0.34-0.828V20.525c0-0.326,0.113-0.602,0.34-0.827c0.234-0.234,0.514-0.351,0.84-0.351
				c0.316,0,0.594,0.117,0.826,0.351c0.227,0.226,0.34,0.501,0.34,0.827v0.464C83.234,19.895,84.617,19.347,86.18,19.347z"/>
			<path d="M90.066,31.419c-0.652-0.652-1.158-1.396-1.518-2.231c-0.375-0.877-0.564-1.793-0.564-2.746
				c0-1.956,0.695-3.627,2.082-5.014c0.66-0.652,1.416-1.158,2.27-1.517c0.877-0.376,1.801-0.564,2.77-0.564
				c1.955,0,3.631,0.694,5.027,2.081c0.652,0.652,1.158,1.404,1.518,2.256c0.375,0.877,0.562,1.797,0.562,2.758
				c0,0.326-0.111,0.602-0.338,0.828c-0.234,0.234-0.514,0.351-0.84,0.351H90.48c0.268,1.02,0.826,1.859,1.68,2.52
				c0.861,0.668,1.842,1.003,2.945,1.003c1.738,0,3.08-0.531,4.025-1.592c0.207-0.242,0.475-0.372,0.801-0.388
				c0.326-0.017,0.611,0.079,0.854,0.288c0.242,0.217,0.371,0.489,0.389,0.815c0.016,0.317-0.084,0.598-0.301,0.84
				c-1.404,1.588-3.326,2.382-5.768,2.382C93.143,33.488,91.463,32.798,90.066,31.419z M99.719,25.264
				c-0.268-1.036-0.822-1.889-1.666-2.558c-0.869-0.677-1.852-1.015-2.947-1.015c-1.104,0-2.09,0.338-2.959,1.015
				c-0.844,0.669-1.398,1.521-1.666,2.558H99.719z"/>
			<path d="M120.365,19.347c1.715,0,3.176,0.694,4.389,2.081c1.211,1.379,1.816,3.046,1.816,5.002v5.892
				c0,0.318-0.111,0.594-0.338,0.828c-0.234,0.226-0.51,0.338-0.826,0.338c-0.326,0-0.607-0.113-0.84-0.338
				c-0.227-0.234-0.34-0.51-0.34-0.828V26.43c0-1.304-0.375-2.419-1.127-3.347c-0.762-0.919-1.672-1.379-2.734-1.379
				c-1.061,0-1.971,0.459-2.732,1.379c-0.752,0.928-1.129,2.039-1.129,3.334v5.904c0,0.318-0.111,0.594-0.338,0.828
				c-0.234,0.226-0.51,0.338-0.826,0.338c-0.326,0-0.607-0.113-0.84-0.338c-0.227-0.234-0.34-0.51-0.34-0.828v-5.904
				c0-1.295-0.375-2.407-1.127-3.334c-0.762-0.919-1.672-1.379-2.734-1.379c-1.061,0-1.971,0.459-2.732,1.379
				c-0.752,0.928-1.129,2.043-1.129,3.347v5.892c0,0.326-0.111,0.602-0.338,0.828c-0.234,0.226-0.51,0.338-0.826,0.338
				c-0.326,0-0.607-0.113-0.84-0.338c-0.227-0.226-0.34-0.501-0.34-0.828V20.525c0-0.326,0.113-0.602,0.34-0.827
				c0.232-0.234,0.514-0.351,0.84-0.351c0.316,0,0.592,0.117,0.826,0.351c0.227,0.226,0.338,0.501,0.338,0.827v0.364
				c1.137-1.028,2.424-1.542,3.861-1.542c2.115,0,3.795,0.982,5.041,2.946C116.576,20.329,118.252,19.347,120.365,19.347z"/>
		</g>
		<g>
			<path d="M53.762,40.169c0.318,0,0.594,0.117,0.828,0.351c0.225,0.226,0.338,0.501,0.338,0.827v16.636
				c0,0.326-0.113,0.602-0.338,0.827c-0.234,0.234-0.51,0.351-0.828,0.351c-0.326,0-0.605-0.117-0.84-0.351
				c-0.225-0.226-0.338-0.501-0.338-0.827V41.348c0-0.326,0.113-0.602,0.338-0.827C53.156,40.287,53.436,40.169,53.762,40.169z"/>
			<path d="M66.102,45.008c1.914,0,3.553,0.694,4.914,2.081c1.354,1.379,2.031,3.046,2.031,5.002c0,1.947-0.678,3.61-2.031,4.989
				c-1.361,1.379-3,2.068-4.914,2.068c-1.756,0-3.293-0.593-4.613-1.78v5.403c0,0.326-0.113,0.602-0.338,0.827
				c-0.234,0.226-0.51,0.339-0.828,0.339c-0.326,0-0.605-0.113-0.84-0.339c-0.225-0.226-0.338-0.501-0.338-0.827V46.187
				c0-0.326,0.113-0.602,0.338-0.828c0.234-0.234,0.514-0.351,0.84-0.351c0.318,0,0.594,0.117,0.828,0.351
				c0.225,0.226,0.338,0.501,0.338,0.828v0.602C62.809,45.602,64.346,45.008,66.102,45.008z M66.102,56.805
				c1.27,0,2.357-0.459,3.26-1.379c0.895-0.928,1.342-2.039,1.342-3.334c0-1.304-0.447-2.419-1.342-3.347
				c-0.902-0.919-1.99-1.379-3.26-1.379s-2.357,0.459-3.26,1.379c-0.902,0.928-1.354,2.043-1.354,3.347
				c0,1.295,0.451,2.407,1.354,3.334C63.744,56.345,64.832,56.805,66.102,56.805z"/>
			<path d="M77.75,58.309c-0.711-0.476-1.283-1.065-1.717-1.768c-0.168-0.276-0.215-0.568-0.139-0.877
				c0.074-0.317,0.246-0.564,0.514-0.74c0.275-0.167,0.572-0.213,0.891-0.138c0.316,0.075,0.559,0.25,0.727,0.526
				c0.25,0.401,0.586,0.74,1.004,1.016c0.467,0.326,0.939,0.489,1.416,0.489c0.559,0,1.035-0.175,1.428-0.526
				c0.402-0.343,0.604-0.761,0.604-1.254c0-0.501-0.164-0.873-0.49-1.116c-0.283-0.217-0.906-0.456-1.867-0.714
				c-1.213-0.334-2.09-0.702-2.633-1.103c-0.953-0.686-1.43-1.672-1.43-2.958c0-1.137,0.432-2.11,1.291-2.921
				c0.854-0.803,1.885-1.204,3.098-1.204c0.869,0,1.672,0.226,2.406,0.677c0.727,0.452,1.262,1.053,1.605,1.805
				c0.141,0.292,0.154,0.594,0.037,0.903c-0.109,0.301-0.314,0.518-0.615,0.652c-0.291,0.134-0.588,0.146-0.889,0.038
				c-0.301-0.109-0.523-0.313-0.664-0.614c-0.15-0.334-0.398-0.606-0.74-0.815c-0.344-0.201-0.723-0.301-1.141-0.301
				c-0.561,0-1.041,0.175-1.441,0.526c-0.393,0.343-0.59,0.761-0.59,1.254c0,0.493,0.154,0.856,0.463,1.09
				c0.285,0.201,0.908,0.435,1.869,0.702c1.221,0.343,2.102,0.71,2.645,1.103c0.953,0.702,1.43,1.701,1.43,2.996
				c0,1.137-0.426,2.11-1.279,2.921c-0.861,0.802-1.893,1.204-3.096,1.204C79.5,59.162,78.602,58.877,77.75,58.309z"/>
			<path d="M98.914,45.021c0.326,0,0.602,0.113,0.828,0.338c0.225,0.234,0.338,0.514,0.338,0.84v11.796
				c0,0.318-0.113,0.594-0.338,0.828c-0.227,0.226-0.502,0.338-0.828,0.338s-0.602-0.113-0.826-0.338
				c-0.234-0.234-0.352-0.51-0.352-0.828V57.62c-1.129,1.028-2.416,1.542-3.861,1.542c-1.713,0-3.176-0.689-4.387-2.068
				c-1.213-1.387-1.818-3.055-1.818-5.002v-5.93c0-0.326,0.113-0.602,0.338-0.827c0.234-0.234,0.514-0.351,0.84-0.351
				c0.318,0,0.594,0.117,0.828,0.351c0.225,0.226,0.338,0.501,0.338,0.827v5.93c0,1.304,0.377,2.415,1.129,3.334
				c0.76,0.928,1.672,1.392,2.732,1.392c1.07,0,1.98-0.464,2.732-1.392c0.752-0.919,1.129-2.031,1.129-3.334v-5.892
				c0-0.326,0.117-0.606,0.352-0.84C98.312,45.134,98.588,45.021,98.914,45.021z"/>
			<path d="M120.316,45.021c1.713,0,3.176,0.693,4.387,2.081c1.213,1.379,1.818,3.046,1.818,5.002v5.892
				c0,0.318-0.113,0.594-0.338,0.828c-0.234,0.226-0.51,0.338-0.828,0.338c-0.326,0-0.605-0.113-0.84-0.338
				c-0.227-0.234-0.338-0.51-0.338-0.828v-5.892c0-1.304-0.377-2.419-1.129-3.347c-0.76-0.919-1.672-1.379-2.732-1.379
				c-1.062,0-1.973,0.459-2.734,1.379c-0.752,0.928-1.127,2.039-1.127,3.334v5.904c0,0.318-0.113,0.594-0.338,0.828
				c-0.234,0.226-0.512,0.338-0.828,0.338c-0.326,0-0.605-0.113-0.84-0.338c-0.227-0.234-0.338-0.51-0.338-0.828v-5.904
				c0-1.295-0.377-2.407-1.129-3.334c-0.76-0.919-1.672-1.379-2.732-1.379c-1.062,0-1.973,0.459-2.734,1.379
				c-0.752,0.928-1.127,2.043-1.127,3.347v5.892c0,0.326-0.113,0.602-0.34,0.828c-0.232,0.226-0.51,0.338-0.826,0.338
				c-0.326,0-0.605-0.113-0.84-0.338c-0.227-0.226-0.338-0.501-0.338-0.828V46.199c0-0.326,0.111-0.602,0.338-0.827
				c0.234-0.234,0.514-0.351,0.84-0.351c0.316,0,0.594,0.117,0.826,0.351c0.227,0.226,0.34,0.501,0.34,0.827v0.364
				c1.137-1.028,2.424-1.542,3.861-1.542c2.113,0,3.793,0.982,5.039,2.946C116.525,46.003,118.201,45.021,120.316,45.021z"/>
		</g>
		<g>
			<path d="M43,5.632c-1.65,0-3,1.35-3,3v61.201c0,1.65,1.35,3,3,3h94c1.65,0,3-1.35,3-3V8.632c0-1.65-1.35-3-3-3H43z
				 M136.791,66.859c0,1.65-1.35,3-3,3H46.209c-1.65,0-3-1.35-3-3V11.627c0-1.65,1.35-3,3-3h87.582c1.65,0,3,1.35,3,3V66.859z"/>
		</g>
	</g>
</g>
</svg>
