<?xml version="1.0" encoding="utf-8"?>
<!-- Generator: Adobe Illustrator 22.0.0, SVG Export Plug-In . SVG Version: 6.00 Build 0)  -->
<svg version="1.1" id="Layer_1" xmlns="http://www.w3.org/2000/svg" xmlns:xlink="http://www.w3.org/1999/xlink" x="0px" y="0px"
	 viewBox="0 0 460.1 445.1" style="enable-background:new 0 0 460.1 445.1;" xml:space="preserve">
<style type="text/css">
	.st0{fill:#E4E7F0;}
</style>
<g>
	<path class="st0" d="M324.6,63.9c0,8.9,0,17.8,0,26.6c0,2.1-0.2,2.2-2.3,2.1c-2.4-0.1-4.8,0-7.2,0c-0.9,0-1.3,0.5-1.3,1.4
		c0,2.5,0,5,0,7.4c0,1,0.7,1.3,1.5,1.3c2.5,0,5,0,7.6,0c1.5,0,1.7,0.2,1.7,1.7c0,7,0,14,0,21c0,1.1-0.4,1.6-1.6,1.6
		c-2.5,0-5,0-7.6,0c-1.5,0-1.7,0.3-1.7,1.8c0,6,0,12,0,18c0,1.9,0.3,2.2,2.2,2.2c2.3,0,4.6,0.1,6.9-0.2c1.3-0.2,1.6,0.4,1.6,1.4
		c0,2.3,0,4.6,0,7c0,2.5,0,2.4,2.4,2.5c2.2,0.1,4.4-0.1,6.6,0.1c1.1,0.1,1.3-0.4,1.3-1.3c0-4.9,0-9.8,0-14.8
		c0-5.6-0.1-11.3-0.1-16.9c0-0.8,0.4-1.2,1.2-1.2c3.6,0,7.1,0,10.7-0.1c0.9,0,0.7,0.7,0.7,1.2c0,2.8,0,5.6,0,8.4
		c0,1.9,0.2,2.1,2,2.1c2.6,0,5.2,0.2,7.8-0.1c1.4-0.2,2.1,0.5,1.9,1.9c-0.3,2.6-0.1,5.2-0.1,7.8c0,1.9,0.4,2.2,2.3,2.2
		c2.3,0,4.6-0.1,6.8-0.2c0.8,0,1.2-0.4,1.1-1.2c-0.2-6.6,0.1-13.2-0.2-19.8c0-0.5,0.1-1,0.1-1.4c0.1-0.8,0.5-1,1.3-1
		c3.2,0.1,6.5,0.1,9.7,0c1.1,0,1.4,0.3,1.4,1.2c0,2.8,0,5.6,0,8.4c0,1.8,0.1,2,1.9,2.1c2.2,0.1,4.3,0.1,6.5,0
		c1.5-0.1,1.8-0.5,1.8-1.9c0-2.7,0-5.4,0-8c0-1.5,0.2-1.7,1.6-1.7c6.9,0,13.8,0,20.6,0c1.8,0,2,0.3,1.9,2.1c-0.2,2.7-0.2,5.4,0,8.2
		c0.1,1.6-0.3,2.2-2,2.1c-3.6-0.2-7.2-0.1-10.8-0.1c-2.7,0-5.4,0-8,0c-1.2,0-1.6,0.4-1.7,1.6c-0.2,2.6-0.1,5.1-0.1,7.7
		c0,1.8,0.3,2,2.1,2c4.8,0,9.6,0,14.4,0c1.4,0,2.9-0.2,4.3-0.2c1.6,0,2,0.5,1.9,2.1c-0.3,2.9-0.3,5.8,0,8.7c0.1,1-0.3,1.4-1.3,1.5
		c-2.8,0.3-5.6,0.2-8.4,0.1c-2.1-0.1-2.3,0-2.3,2.1c0,2-0.1,4.1,0,6.1c0.1,2,0.3,2.2,2.3,2.2c2.6,0,5.3,0,7.9,0c1.6,0,1.9,0.4,1.7,2
		c-0.2,2.7-0.3,5.4,0,8.1c0.2,1.7-0.2,2.2-2,2.2c-2.6,0-5.3,0-7.9,0c-1.7,0-2,0.3-2,1.9c0,2.4-0.1,4.8,0.1,7.2
		c0.1,1.1-0.7,1.9-1.7,1.8c-2.5-0.3-5-0.1-7.5-0.1c-1,0-1.4,0.3-1.4,1.3c-0.3,5.2-0.1,10.3-0.1,15.5c0,1.8,0,3.6,0.1,5.4
		c0.1,1.2-0.7,1.3-1.6,1.3c-2.5,0-5,0-7.4,0c-3.4,0-2.9-0.4-2.9,2.8c0,5.5,0,11,0,16.4c0,1.1,0.2,1.6,1.5,1.6
		c6.3,0.3,12.6,0.2,18.9,0c1.7-0.1,2.2,0.3,2.2,2c0,6.3,0,12.6,0,19c0,0.2,0,0.3,0,0.5c0.2,2.7,0.1,2.8-2.6,2.8c-2.2,0-4.4,0-6.6,0
		c-0.9,0-1.3,0.3-1.4,1.3c-0.3,2.6-0.1,5.3-0.1,7.9c0,3.6,0,7.2,0,10.8c0,1.6,0.1,1.7,1.7,1.9c2.4,0.3,4.7,0.1,7.1,0.2
		c0.9,0,1.2-0.4,1.2-1.2c0-3.1,0-6.2-0.1-9.2c0-1.2,0.2-1.5,1.4-1.4c3.1,0.2,6.1,0.2,9.2,0c1.6-0.1,2.2,0.4,2.1,2.1
		c-0.4,17.2-0.1,34.5-0.2,51.7c0,1,0.1,2,0.2,3c0.1,1.3-0.4,1.8-1.6,1.8c-7,0-14.1,0-21.1,0c-1.4,0-1.7-0.4-1.6-1.8c0.3-3,0.2-6,0-9
		c-0.1-1,0.3-1.4,1.2-1.5c2.4-0.3,4.9-0.1,7.3,0c0.3,0,0.6,0,1,0c2.2,0,2.2-0.1,2.2-2.2c0-5.8,0-11.6,0-17.4c0-0.5,0-1,0-1.4
		c-0.1-0.8-0.5-1.1-1.3-1.1c-4.6,0.3-9.1,0.1-13.7,0.1c-1.8,0-3.6,0-5.4,0c-1.6,0-1.9-0.3-2-1.9c0-2.8,0-5.5,0-8.3
		c0-1.5-0.1-1.6-1.5-1.6c-2.4,0-4.9,0-7.3,0c-1,0-1.4,0.4-1.4,1.4c0,2.8,0,5.6,0,8.4c0,1.7-0.3,2-1.9,2c-2.7,0-5.4,0-8.2,0
		c-1.1,0-1.5,0.4-1.6,1.6c-0.1,2.6,0.1,5.1,0,7.7c0,0.5,0.3,0.8,0.8,0.8c0.4,0,0.8,0,1.2,0c6.2,0,12.5,0,18.7,0
		c1.6,0,1.8,0.1,1.8,1.7c0,7,0,14,0,21c0,1.5-0.2,1.6-1.7,1.6c-2.5,0-5,0-7.6,0c-1.4,0-1.6,0.2-1.6,1.6c0,2.3,0,4.6,0,6.8
		c0,1.4,0.2,1.6,1.6,1.6c6.3,0,12.6,0,19,0c2.1,0,2.3,0.3,2.2,2.4c-0.1,2.4-0.1,4.8-0.1,7.2c0,3.9,0.1,7.8,0,11.8
		c0,0.9,0.3,1.2,1.1,1.2c2.6,0,5.2,0,7.8,0c0.6,0,1.2,0,1.1-1c-0.2-6,0-12.1-0.1-18.1c0-0.7,0-1.4,0-2c0-0.9,0.4-1.4,1.3-1.4
		c3.4,0,6.7-0.1,10.1,0c1,0,1.4,0.7,1.3,1.7c-0.4,9.4-0.1,18.7-0.2,28.1c0,1.2,0,2.4,0.1,3.6c0.2,1.2-0.2,1.6-1.4,1.7
		c-1.4,0.1-2.9,0-4.3,0c-5,0-10.1,0-15.1,0c-1.6,0-1.6,0.1-1.7,1.7c-0.2,2.7-0.1,5.4-0.1,8.2c0,1.8-0.5,2.1-2.2,2
		c-2.8-0.1-5.7-0.1-8.5-0.1c-0.6,0-1,0.4-1,1c0,2.7,0,5.4,0,8.2c0,0.8,0.6,0.9,1.2,0.9c2.9,0,5.8,0,8.6,0c1.6,0,2.1,0.4,2,2.1
		c-0.2,3-0.2,6,0,9c0.1,1.1-0.6,1.4-1.5,1.4c-10,0-19.9-0.1-29.9-0.1c-1,0-2,0.1-3,0.1c-1.3,0.1-2-0.5-1.8-1.8
		c0.4-2.8-0.1-5.7,0.1-8.5c0.1-0.9-0.5-1.4-1.4-1.4c-2.6,0-5.2,0-7.8,0c-1.1,0-1.8-0.6-1.6-1.7c0.3-2.5,0.1-5,0.1-7.4
		c0-1.3-0.3-1.6-1.6-1.6c-2.4,0-4.7,0-7.1,0c-1.2,0-1.6,0.6-1.6,1.6c0,2.4,0,4.8,0,7.2c0,0.5,0,1-0.1,1.4c-0.1,0.7-0.5,1.1-1.3,0.8
		c-0.3-0.1-0.7-0.2-1.1-0.2c-6.2,0-12.3-0.4-18.5,0c-1.3,0.1-1.7,0.4-1.7,1.8c0,2.8-0.2,5.7,0.1,8.5c0.1,1.2-0.7,1.4-1.5,1.4
		c-1.3,0-2.6,0.1-3.8,0c-2-0.1-4.1-0.1-6.1,0c-1.6,0.1-2.2-0.5-2.1-2.1c0.2-2.6,0.1-5.3,0.1-7.9c0-1.1-0.6-1.6-1.8-1.8
		c-2.4-0.3-4.7,0.1-7.1,0.1c-0.9,0-1.1,0.5-1.1,1.3c0,2.8,0,5.5,0,8.3c0,1.9-0.1,2-2,2c-13.3,0-26.6,0-39.8,0
		c-1.1,0-2.2,0.1-3.2,0.2c-1.5,0-1.9-0.5-1.9-2c0.1-2.8,0.1-5.5,0.2-8.3c0-0.9-0.4-1.3-1.4-1.5c-2.6-0.3-5.2,0.1-7.8,0
		c-0.9,0-1.3,0.6-1.2,1.4c0.2,2.9,0.2,5.8,0.1,8.7c0,1.1-0.3,1.5-1.4,1.5c-3.2-0.1-6.4-0.2-9.6,0c-0.9,0.1-1.4-0.3-1.4-1.2
		c0-3.2,0-6.5,0-9.7c0-1.2,0.6-1.5,1.7-1.5c2.7,0,5.4,0,8.2,0c1.8,0,1.9-0.2,1.9-1.9c0-2.2,0-4.5,0-6.7c0-1-0.4-1.4-1.4-1.4
		c-6.2,0-12.4,0-18.6,0c-1.8,0-2.1,0.3-2,2.1c0,5.4,0,10.8,0,16.2c0,0.7,0,1.4,0.1,2c0.1,1.6-0.2,2-1.8,2c-3,0-6,0.1-9,0.1
		c-1.1,0-1.6-0.4-1.6-1.6c0-2.8,0-5.5,0-8.3c0-1.5-0.3-1.7-1.8-1.8c-7.8-0.3-15.7-0.2-23.5-0.1c-2.4,0-4.7,0.1-7.1,0.1
		c-1.8,0-2-0.2-2-2c0-2.3,0-4.6,0-7c0-1.6-0.2-1.8-1.8-1.8c-10.1,0-20.2,0-30.2,0c-1.9,0-2.2-0.2-2.2-2.2c0-6.9,0-13.8,0-20.6
		c0-1.2,0.6-1.5,1.5-1.5c2.9,0,5.8,0,8.8,0c1.5,0,1.5,0,1.5-1.5c0-2.2,0.1-4.3,0-6.5c-0.1-1.7-0.4-2.2-2.1-2.2
		c-2.5-0.1-5-0.2-7.4,0.1c-1.7,0.2-2.2-0.2-2.2-1.9c0-10.5,0-21,0-31.6c0-0.8,0.3-1.3,1.1-1.3c0.7,0,1.4-0.1,2-0.1
		c6,0,11.9,0,17.9,0.1c0.4,0,0.8,0,1.2,0c1,0,1.5-0.3,1.4-1.5c-0.2-2.3-0.1-4.7-0.1-7.1c0-1.6-0.1-1.7-1.7-1.7c-2.6,0-5.3,0-7.9,0
		c-1.6,0-2.1-0.4-2.1-2c0-2.6,0.3-5.3,0.1-7.9c-0.1-1.5-0.2-1.8-1.8-1.8c-10,0-19.9,0-29.9,0c-0.4,0-0.9,0-1.3,0
		c-1,0-1.5-0.4-1.5-1.4c0-3.3,0-6.6,0-9.8c0-1.1,0.8-1.2,1.6-1.2c2.4,0,4.8,0.2,7.2,0.2c3.1,0,3.1,0,3.1-3.1c0-1.8,0-3.7,0-5.5
		c0-1.6-0.1-1.6-1.6-1.6c-6.2,0-12.4,0-18.6,0c-2.2,0-2.4-0.1-2.3-2.3c0.3-5.2,0.1-10.4,0.1-15.6c0-1.2-0.1-2.3-0.2-3.5
		c0-0.9-0.4-1.2-1.3-1.2c-2.9,0-5.8,0-8.6,0c-1,0-1.2,0.6-1.2,1.4c0,2.5,0,5,0,7.6c0,1.6-0.2,1.8-1.8,1.8c-6.5,0-13,0-19.4,0
		c-2,0-2.1-0.2-2.1-2.1c0-2.8,0-5.6,0-8.4c0-1.6,0.3-2,2-2c2.4,0,4.9,0,7.3,0c1.6,0,1.6-0.1,1.6-1.6c-0.1-2.9,0-5.8,0-8.6
		c0-1.2,0.6-1.6,1.6-1.5c2.9,0.2,5.8,0.2,8.7,0c1.3-0.1,1.6-0.7,1.6-1.8c0-5,0-10,0-15c0-1.5,0.1-3-0.1-4.4
		c-0.1-0.7,0.3-1.1,0.9-1.1c0.8-0.1,1.5-0.1,2.3-0.1c2.4,0,4.9,0,7.3,0c1.8,0,2,0.2,2,2c0,2.8,0,5.7,0,8.5c0,1.1,0.4,1.5,1.5,1.5
		c2.2-0.1,4.4,0,6.6,0c1.6,0,1.9-0.2,1.9-1.9c0.1-2.8,0.1-5.6,0-8.4c0-1,0.3-1.5,1.3-1.6c2.9-0.3,5.8-0.1,8.6-0.1
		c1.9,0,1.9,0,1.9-1.9c0-2.2,0-4.3,0-6.5c0-1.4-0.2-1.7-1.7-1.7c-6.2,0-12.5,0-18.7,0c-1.8,0-2.3-0.3-2.1-2.1c0.2-2.7,0-5.4,0-8.1
		c0-1.8,0.4-2.2,2.2-2.2c6.1,0,12.2,0,18.4,0c1.9,0,2-0.2,2-2.1c0-2.2,0-4.3,0-6.5c0-1.1-0.5-1.5-1.5-1.5c-2.8,0-5.5,0-8.3,0
		c-1.9,0-2-0.2-2-2c0-2.8,0-5.6,0-8.4c0-1-0.4-1.4-1.4-1.4c-2.4,0-4.9,0-7.3,0c-1,0-1.3,0.4-1.3,1.4c0,3,0,5.9,0,8.9
		c0,1.1-0.4,1.6-1.5,1.6c-2.6-0.1-5.2,0-7.8,0c-0.4,0-0.8,0-1.2,0c-1.6,0.2-1.7,0.1-1.9-1.5c0-0.4,0.1-0.9,0.1-1.3
		c0-6.7,0.2-13.4-0.1-20c0-0.9,0.3-1.2,1.1-1.3c2-0.2,4-0.2,6,0c1.3,0.1,2.6,0.1,3.9-0.1c0.5-0.1,0.8-0.2,0.8-0.8
		c-0.1-2.3,0-4.7,0-7c0.1-2-0.2-2.2-2.2-2.2c-6.5,0-13,0-19.4,0c-1.8,0-2.1-0.2-2.1-2.1c0-2.8,0-5.5,0-8.3c0-1.1-0.4-1.5-1.5-1.4
		c-2.3,0.1-4.6,0-6.8,0c-1.2,0-1.8,0.4-1.9,1.7c-0.2,2.3,0,4.6,0.1,6.9c0.1,3.9,0,7.8,0,11.6c0,1.5,0.2,1.7,1.7,1.7
		c2.8,0,5.5-0.1,8.3-0.2c1.2,0,1.8,0.4,1.8,1.6c0,3.3,0,6.6,0,9.8c0,1-0.7,1.1-1.5,1.1c-2.8,0-5.7,0-8.5,0c-1.7,0-1.6,0-1.7,1.7
		c-0.2,2.8-0.2,5.6,0,8.4c0.1,1.2-0.5,1.8-1.6,1.7c-5.1-0.3-10.2-0.1-15.4-0.1c-1.6,0-3.2-0.1-4.8,0.1c-0.9,0.1-1.5-0.5-1.4-1.7
		c0.2-3.2,0.2-6.3,0-9.5c-0.1-1,0.6-1.3,1.5-1.3c2.5,0,5,0,7.4,0c1.7,0,1.8-0.1,1.8-1.8c0-2.4,0-4.8,0-7.2c0-0.9-0.4-1.3-1.3-1.3
		c-2.3,0-4.6,0-7,0c-2.3,0-2.7-0.4-2.4-2.7c0.1-0.8,0.1-1.5,0.1-2.3c0-9.3,0-18.6,0-27.8c0,0,0-0.1,0-0.1c0-2.9,0-2.9,2.9-2.9
		c2.6,0,5.2,0,7.8,0c1.6,0,1.8,0.4,1.6,1.9c-0.2,2.8-0.1,5.6-0.1,8.4c0,0.9,0.5,1.4,1.4,1.4c2.4,0.1,4.7,0.1,7.1-0.1
		c1.1-0.1,1.5-0.6,1.5-1.7c0-2.8,0-5.6-0.1-8.4c0-1.2,0.4-1.5,1.4-1.5c3.2,0,6.4,0,9.6,0c3.6,0,7.2,0,10.8,0c1.1,0,1.6,0.4,1.6,1.6
		c0,2.8,0,5.7,0,8.5c0,1.5,0.2,1.7,1.7,1.7c2.4,0,4.9,0,7.3,0c1.9,0,2.3-0.3,2.2-2.2c0-2.6-0.1-5.2-0.2-7.8c0-1.6,0.4-1.8,1.9-1.8
		c2.6,0.1,5.2,0,7.8,0c7.3,0,14.6,0,21.8,0c1.7,0,1.8-0.1,1.8-1.8c0-6.3,0-12.6,0-19c0-1.9,0.2-2,2-2.1c2.8-0.1,5.6,0.2,8.4,0
		c1-0.1,1.3-0.4,1.4-1.4c0.2-6.1,0.2-12.2,0.1-18.4c0-1.6-0.3-2-1.8-2c-2.8-0.1-5.5,0-8.3,0c-1.4,0-1.8-0.2-1.8-1.6
		c-0.1-3.2,0-6.5,0-9.7c0-0.8,0.4-1.1,1.1-1.1c3.4,0,6.9,0,10.3,0c0.9,0,1.1,0.5,1.1,1.3c-0.1,3,0,6.1-0.1,9.1
		c0,1.1,0.4,1.4,1.4,1.4c6.6,0,13.3,0,19.9,0c2.1,0,2.4,0.3,2.1,2.4c-0.3,2.4,0,4.8,0,7.2c0,1.7,0.6,2.2,2.3,2.1
		c2.1,0,4.2-0.1,6.2-0.2c1.6,0,1.6-0.1,1.6-1.6c0-6.6,0-13.2,0-19.8c0-1.8,0.1-1.9,1.9-1.9c2.4,0,4.8,0,7.2,0c1.6,0,1.8-0.2,1.9-1.7
		c0.1-2.6,0-5.1-0.1-7.7c0-1.2,0.2-1.7,1.4-1.5c2.8,0.3,5.7-0.1,8.5,0.1c1.5,0.1,1.7-0.2,1.7-1.7c0-2.8,0-5.5,0-8.3
		c0-1.6,0.5-2,2-1.9c2.9,0.3,5.7,0.1,8.6,0c1,0,1.1-0.8,1.1-1.4c0-2.2,0.1-4.5-0.1-6.7c-0.2-2.2,0.3-2.8,2.5-2.7
		c5.9,0.4,11.8,0.1,17.7,0.2c0.5,0,1,0,1.4,0c1.1-0.1,1.7,0.4,1.6,1.5c-0.1,2.3,0.3,4.6,0.1,6.9c0,0.4,0,0.8,0,1.2
		c0,0.7,0.4,1.1,1.1,1.1c2.6,0,5.1,0.1,7.7-0.1c1.2-0.1,1.6-0.7,1.5-1.7c-0.2-2.4-0.1-4.8-0.1-7.2c0-1.5,0.5-1.9,2.1-1.8
		c1.6,0.1,3.2,0.1,4.8,0.1c5.3,0,10.6,0.1,15.8-0.1c0.9,0,1.6,0.7,1.5,1.8c-0.3,3-0.1,6.1-0.1,9.1c0,1.5-0.5,1.8-1.9,1.7
		c-6.4-0.3-12.9-0.3-19.3,0c-0.8,0-1.1,0.4-1.1,1.2c0,2.5,0,5,0,7.6c0,1.2,0.8,1.3,1.7,1.3c7.4-0.1,14.9-0.2,22.3-0.1
		c3,0,6.1,0.1,9.1-0.1c0.9-0.1,1,0.4,1,1.1c0,2.4,0,4.7,0.1,7.1c0.1,3.5-0.3,2.9,2.8,2.9c2,0,4,0,6,0c2.1,0,2.2,0.1,2.2,2.3
		c0,2.7,0,5.4,0,8c0,1.1,0.3,1.5,1.5,1.5c6.2,0,12.5,0,18.7,0c1.4,0,1.6-0.2,1.6-1.6c0-6,0-12,0-18c0-0.1,0-0.2,0-0.4
		c-0.1-2-0.2-2.1-2.1-2.1c-2.6,0-5.1,0-7.7,0c-1.9,0-2.2-0.5-2-2.3c0.1-1.6,0.1-3.3,0.1-4.9c-0.1-4.8,0.2-9.6-0.1-14.4
		c-0.1-1.1,0.6-1.7,1.8-1.6c6.2,0.4,12.3,0.1,18.5,0.2c0.6,0,1.2,0,1.8,0c2-0.2,2.2,0.1,2.2,2C324.6,46.1,324.6,55,324.6,63.9
		C324.6,63.9,324.6,63.9,324.6,63.9z M267.2,176.7C267.2,176.7,267.2,176.7,267.2,176.7c0-5.1,0-10.2,0-15.2c0-1.5,0.2-1.9,1.7-1.9
		c2.6,0,5.3,0,7.9,0.1c0.9,0,1.2-0.2,1.2-1c0-2.6,0-5.2,0-7.8c0-1-0.5-1.4-1.5-1.4c-5.9,0-11.8,0-17.8,0c-1,0-1.5,0.4-1.6,1.4
		c-0.2,2.4-0.4,4.8-0.1,7.2c0.2,2.8,0.7,3.1-3,3.2c-2.4,0-4.8,0.1-7.2-0.1c-0.7-0.1-1.4,0-1.4,0.9c0.1,2.6-0.4,5.3-0.1,7.9
		c0.2,1.8,0,2.1-1.9,2.1c-2.8,0-5.7,0-8.5,0c-1.4,0-1.6,0.2-1.4,1.5c0,0.4,0.1,0.7,0.1,1.1c-0.1,2.9-0.2,2.9-3,2.7
		c-5.8-0.4-11.6,0.3-17.1,2.3c-1,0.3-2,0.6-2.9,1.2c-1.5,1.1-3.2,1.7-4.9,2.5c-1.7,0.8-3.6,1.5-5,3c-0.4,0.4-0.7,1.2-1.4,0.9
		c-0.8-0.3-0.7-1.1-0.8-1.7c0-0.4,0-0.9,0-1.3c0-3.6,0-7.1,0-10.7c0-1.8,0.1-2,1.9-2c0.4,0,0.7,0,1.1,0c6,0,12,0,18,0
		c1.5,0,1.6-0.2,1.6-1.7c0-1.6,0-3.2,0-4.8c0-4.7,0-9.4,0-14c0-0.8-0.1-1.5-1.2-1.5c-6.4,0-12.9,0-19.3,0c-0.9,0-1.3,0.4-1.4,1.3
		c-0.2,2.4-0.3,4.7,0,7.1c0.3,3.1,0.1,3.3-3,3.3c-6.1,0-12.2,0.2-18.4-0.1c-0.9,0-1.4,0.2-1.4,1.2c0,2.6,0,5.2,0,7.8
		c0,1,0.4,1.4,1.5,1.4c2.3,0,4.6,0,7,0c4,0,3.5-0.4,3.5,3.4c0,0.2,0,0.5,0,0.7c0.1,2.2-0.2,4.5,0,6.7c0.1,1.4-0.3,1.6-1.7,1.5
		c-2.9-0.1-5.8,0-8.6,0c-1.1,0-1.6,0.5-1.6,1.6c0,2.3,0,4.6,0,6.8c0,1.1,0.4,1.6,1.5,1.6c2.9-0.1,5.8,0,8.6,0c1.4,0,1.8,0.3,1.8,1.8
		c-0.1,2.5-0.2,5-1.6,7.3c-0.2,0.3-0.3,0.6-0.4,0.9c-0.7,2.3-1.2,2.6-3.6,2.6c-5,0-10.1,0-15.1,0c-1.6,0-2,0.3-2,1.9
		c0,6.2-0.2,12.4,0.1,18.6c0.1,1.7-0.2,2.2-2,2.2c-2.7,0-5.4,0-8.2,0c-1.4,0-1.5,0.2-1.6,1.6c-0.2,2.2,0,4.5,0,6.7
		c0,1.4,0.2,1.7,1.6,1.8c6.2,0.3,12.4,0.3,18.6-0.1c1.6-0.1,1.6-0.1,1.6-1.8c0-2.4,0-4.9,0-7.3c0-0.9,0.2-1.7,1.3-1.6
		c1.3,0.2,2.6,0.1,3.8,0.1c1.2,0,1.7,0.7,1.9,1.9c0.5,3.8,1.9,7.4,3.6,10.9c0.4,0.9,0.6,1.7,0.3,2.7c-0.7,2.7-1.2,5.4-2.1,8
		c-1.8,5.4-3,11-4.6,16.5c-0.2,0.5-0.1,1,0.3,1.3c0.4,0.4,0.8,0.4,1.3,0.2c1.4-0.6,2.9-0.7,4.4-1.1c2-0.6,2.3-0.2,2.3,1.9
		c0,4,0,7.9,0,11.9c0,3.1-0.5,2.8,2.9,2.9c5.8,0.2,11.7,0,17.5,0.1c0.9,0,1.4-0.3,1.4-1.3c0-2.8,0-5.5-0.1-8.3c-0.1-2,0-2.2,2-2.2
		c2.4,0,4.7,0,7.1,0c1.6,0,1.8-0.2,1.8-1.7c0-1,0-2,0-3c0-1.3,0.3-1.6,1.6-1.5c2.9,0.3,5.8,0.3,8.6,0.1c2.5-0.2,2.3,0.5,2.3,2.3
		c-0.1,4.6,0.2,9.2-0.1,13.8c0,0.7,0,1.4,1.1,1.5c2.8,0.3,5.7,0.3,8.5,0.1c1.8-0.2,2.6,0.5,2.3,2.3c-0.3,2.2,0.2,4.5-0.1,6.7
		c0,0.3,0.1,0.7,0.1,1.1c0.1,0.6,0.4,0.8,1,0.8c2.5,0,5-0.1,7.6-0.1c1,0,1.6-0.4,1.5-1.5c-0.1-2.5,0.1-5-0.1-7.6
		c-0.1-1.1,0.4-1.7,1.6-1.7c0.4,0,0.9,0,1.3,0c2.5,0.3,5,0.1,7.4,0.1c1.4,0,1.6-0.2,1.6-1.7c0-2.3,0-4.6,0-7c0-1.5-0.1-1.6-1.6-1.6
		c-2.8,0-5.7,0-8.5,0c-1.4,0-1.8-0.6-1.7-1.9c0.2-2.6,0.1-5.1,0.1-7.7c0-2.1-0.3-2.3-2.3-2.2c-1.6,0-3.1-0.1-4.7-0.3
		c-0.3-0.1-0.8-0.1-0.9-0.5c0-0.5,0.5-0.5,0.8-0.5c1.1-0.2,2.1-0.7,3.1-1.3c1.2-0.8,2.4-1.8,3.5-2.7c0.4-0.4,0.9-0.7,1.5-0.5
		c0.6,0.2,0.6,0.8,0.6,1.3c0.1,0.9,0.1,1.8,0,2.6c-0.1,1.1,0.5,1.4,1.5,1.3c2.2-0.2,4.4-0.1,6.6-0.1c1.8,0,2-0.2,2-2
		c0-4.9,0-9.8,0-14.8c0-1.1,0.1-2.1,0.6-3c1.2-2.3,2-4.7,2.9-7c0.5-1.3,1-2.6,1.3-4c0.8-4.6,1.1-9.2,0.7-13.9
		c-0.1-0.8,0.2-1.1,0.9-1.2c1.1-0.2,2.2-0.2,3.3-0.2c0.8,0,1.1-0.3,1.1-1.1c0-2.6,0-5.2,0-7.8c0-0.8-0.4-1.2-1.3-1.2
		c-1.7,0-3.4,0-5.2,0c-1.7,0-2.2-0.4-2.9-2c-0.4-1-0.7-2-1.2-3c-0.9-1.9-2-3.7-3.5-5.1c-0.5-0.5-1.1-1.1-0.8-1.9
		c0.3-0.8,1.2-0.4,1.8-0.5c0.2,0,0.5,0,0.7,0c1.2,0.1,1.5-0.4,1.5-1.5C267.2,187.1,267.2,181.9,267.2,176.7z M242.8,298.8
		c-0.1-1.4-0.9-1.2-1.7-1.2c-2.1,0-4.2,0-6.2,0c-1.7,0-2-0.3-2-1.9c0-2.6,0-5.3,0-7.9c0-1.7-0.2-1.8-1.9-1.9c-2.3,0-4.6,0-6.8,0
		c-1.3,0-1.6,0.3-1.6,1.7c0,6.2,0,12.4,0,18.6c0,1.2,0.4,1.6,1.6,1.6c2.7-0.1,5.4,0,8,0c0.8,0,1.3,0.2,1.3,1.2
		c-0.1,3.3,0.1,6.5,0,9.8c0,1.2-0.4,1.5-1.5,1.4c-2.4,0-4.9,0-7.3,0c-2,0-2.2,0.1-2.2,2.2c0,2.6,0,5.1,0,7.7c0,1.8-0.1,1.9-2,1.9
		c-2.8,0-5.6,0-8.4,0c-0.8,0-1.4,0.1-1.4,1.2c0.1,2.6,0,5.2,0,7.8c0,1.5-0.3,1.8-1.9,1.8c-2.5,0-5,0-7.6,0c-1.9,0-2.1,0.2-2.1,2.1
		c-0.1,2.5-0.2,5,0,7.5c0.2,1.8-0.4,2.2-2.2,2.1c-2.6-0.2-5.2-0.2-7.8,0c-2,0.2-2.5-0.3-2.4-2.3c0.2-2.6,0.2-5.2,0-7.8
		c-0.1-2,0.1-2.3,2.1-2.3c2.4,0,4.7,0,7.1,0c1.9,0,2.4-0.6,2.4-2.5c0-2,0-4,0-6c0-1.1-0.5-1.5-1.5-1.5c-0.4,0-0.8,0-1.2,0
		c-12.9,0-25.8,0-38.8,0c-0.6,0-1.3,0-1.9,0c-0.6,0-1,0.3-1,0.9c0,2.6-0.4,5.1,0,7.7c0.2,1,0.6,1.5,1.7,1.4c2.8-0.1,5.6,0,8.4,0
		c1.3,0,1.7,0.4,1.7,1.6c-0.1,2.5-0.1,4.9-0.1,7.4c0,1.3,0.3,1.8,1.6,1.8c2.4,0,4.7,0,7.1,0c1.9,0,2.1,0.2,2.1,2.1
		c0,3,0,6.1-0.1,9.1c0,3.4,0,6.9,0,10.3c0,2.2,0,2.2,2.2,2.2c6.2,0,12.3,0,18.5,0c2.1,0,2.1,0.1,2.1,2.2c-0.1,2.1-0.1,4.1-0.2,6.2
		c0,1.8,0.3,2.2,2.1,2.2c2.4,0,4.8,0,7.2,0c1.6,0,1.9-0.3,1.9-1.9c0-2.5,0-5-0.1-7.6c0-0.8,0.2-1.2,1.2-1.2c2.8,0.1,5.6,0,8.4,0.1
		c1,0,1.3-0.4,1.3-1.4c0-2.4,0-4.9,0-7.3c0-1.6-0.1-1.6-1.6-1.6c-0.5,0-1,0-1.6,0c-2,0-4.1,0-6.1-0.1c-1.4-0.1-1.8-0.4-1.7-1.6
		c0.3-3.1,0.1-6.2,0.2-9.3c0-2.2,0.2-2.5,2.4-2.5c6.2,0,12.5,0,18.7,0c1.1,0,1.5-0.3,1.5-1.4c-0.1-3.1,0-6.2,0-9.4
		c0-3.4,0-6.7,0-10.1c0-1.6,0.4-1.8,1.9-1.6c2.5,0.3,4.9,0.2,7.4,0.1c1,0,1.5-0.6,1.4-1.6c0-1.8,0-3.6,0-5.4c0-3.9,0-3.9,3.9-3.9
		c2.1,0,4.2,0.1,6.4,0.2c1,0,1.5-0.4,1.5-1.5c-0.1-2.3,0-4.6,0-7c0-1.5-0.3-1.8-1.8-1.8c-2.7,0-5.4,0-8,0c-1.5,0-1.9-0.4-1.9-1.8
		c0-1.7,0.1-3.4,0.1-5c0-1.4,0.1-2.9-0.2-4.3c0-0.1-0.1-0.2-0.2-0.4C243.2,298.1,243.1,298.3,242.8,298.8z M279.1,342.7
		C279.1,342.7,279.1,342.7,279.1,342.7c-3.3,0-6.6,0-10,0c-0.8,0-1.4,0.1-1.4,1.2c0,2.8,0,5.7,0.1,8.5c0,1.7-0.4,2.1-2.1,2
		c-2.4-0.1-4.9-0.1-7.3-0.1c-0.8,0-1.4,0.4-1.4,1.4c0.1,2.5-0.1,4.9,0.1,7.4c0.1,1.3,0.4,1.5,1.5,1.4c2.6-0.1,5.2,0,7.8,0
		c1,0,1.6,0.4,1.5,1.5c-0.3,3.1-0.1,6.2-0.1,9.2c0,1,0.4,1.2,1.3,1.2c2.9,0,5.8,0,8.6,0c1.7,0,1.8,0.1,1.8,1.8c0,6.2,0,12.3,0,18.5
		c0,0.4,0,0.9,0.1,1.3c0.1,0.6,0.3,0.8,1,0.8c2.6,0,5.3-0.1,7.9,0c1.1,0,1.3-0.4,1.4-1.4c0.2-2.8,0-5.7,0-8.5c0-1.5,0.3-1.8,1.8-1.8
		c2.8,0,5.7,0,8.5,0c1.9,0,2.2,0.4,2,2.3c-0.2,2.7-0.1,5.3,0,8c0.1,1.1,0.6,1.5,1.6,1.4c2.2,0,4.5-0.1,6.7,0c1,0,1.5-0.3,1.6-1.4
		c0.2-6.3,0.2-12.5,0-18.8c-0.1-1.6-0.1-1.6-1.7-1.6c-6.3,0-12.6,0-18.8,0c-1.6,0-1.8-0.3-1.8-1.8c0-6.8,0-13.7,0-20.5
		c0-1.8,0.2-2,2-2c6.2,0,12.5,0,18.7,0c1.6,0,1.8-0.2,1.8-1.8c0-2.1-0.1-4.2-0.1-6.4c0-1.6-0.2-1.9-1.8-1.9c-2.6,0-5.3,0-7.9,0
		c-1.7,0-2.2-0.5-2.1-2.1c0.2-2.3,0.1-4.6,0.1-7c0-1.4-0.3-1.7-1.7-1.7c-2.3,0-4.6,0-6.8,0c-1.4,0-1.6,0.2-1.6,1.6c0,2.5,0,5,0,7.4
		c0,1.5-0.3,1.8-1.8,1.8C285.5,342.7,282.3,342.7,279.1,342.7z M325.3,183.8c-3.8,0-6.9,0-10,0c-0.8,0-1.5,0.1-1.5,1.1
		c0,2.6-0.2,5.1,0.1,7.7c0.1,1.4-0.4,2.2-1.8,2.1c-3.3-0.2-6.6-0.1-10-0.1c-1.3,0-1.9-0.5-1.7-1.8c0.3-2.5,0.1-5,0.2-7.4
		c0.1-1.2-0.5-1.6-1.6-1.6c-2.2,0-4.4,0-6.6,0c-1.8,0-1.9,0-1.9,1.9c0,2.5,0,5,0,7.6c0,0.9-0.2,1.6-1.4,1.5
		c-2.8-0.3-5.6-0.1-8.4-0.1c-0.8,0-1.2,0.3-1.2,1.1c0,3,0,6.1,0,9.1c0,0.6,0.4,1,1.1,1c1.7-0.1,3.4-0.1,5.2-0.1c14,0,28,0,42,0
		c1.8,0,3.7,0.3,5.5,0.1c1.2-0.1,1.7-0.6,1.6-1.8c-0.1-2.8,0-5.5,0-8.3c0-1.6,0.2-1.8,1.8-1.8c2.9,0,5.8,0,8.8,0
		c0.7,0,1.3-0.2,1.2-1.1c0-2.8,0-5.5-0.1-8.3c-0.1-1.9,0.4-2.4,2.4-2.3c2.4,0.1,4.8,0.1,7.2,0.1c0.8,0,1.3-0.4,1.2-1.2
		c-0.1-2.5,0.2-5-0.1-7.5c-0.1-1.3-0.6-1.6-1.8-1.6c-5.8,0-11.5,0-17.3,0c-1.8,0-1.9,0-1.9,1.9c0,2.9,0,5.8,0,8.8
		c0,0.8-0.2,1.4-1.1,1.3C331.7,183.6,328.2,183.9,325.3,183.8z M176,302.8c0-5,0-10.1,0-15.1c0-1.8-0.1-1.8-1.8-1.8
		c-6.3,0-12.6,0-19,0c-1.5,0-1.8-0.3-1.8-1.8c0-3.1,0-6.2,0-9.2c0-0.9,0.2-1.3,1.3-1.3c2.7,0.1,5.4,0,8,0c0.7,0,1.4-0.1,1.4-1
		c0-2.6,0-5.3,0-7.9c0-1-0.5-1.3-1.5-1.3c-6.2,0-12.5,0-18.7,0c-1.2,0-1.5,0.5-1.5,1.6c0,2.8,0,5.7,0,8.5c0,1.6-0.1,1.7-1.7,1.7
		c-2.1,0-4.2,0-6.4,0c-2.7,0-2.7,0-2.7,2.6c0,2.1,0,4.2,0,6.4c0,0.5-0.1,1.2,0.7,1.1c2.6-0.2,5.2,0.4,7.9,0c1.8-0.2,2.2,0.3,2.2,2.2
		c0,2.4,0,4.9,0,7.3c0,0.7,0.1,1.4,1.1,1.3c3-0.1,6-0.1,9-0.1c1.6,0,1.8,0.3,1.7,1.8c-0.3,2.8-0.2,5.6,0,8.4
		c0.1,1.2,0.6,1.6,1.7,1.5c2.8,0,5.5,0,8.3,0c1.5,0,1.9,0.3,1.8,1.8c-0.2,2.9,0,5.8,0,8.7c0,1,0.4,1.5,1.3,1.3
		c2.4-0.3,4.8,0.1,7.2,0c1.5,0,1.6-0.1,1.6-1.6C176,312.9,176,307.8,176,302.8z M312.7,297.5C312.7,297.5,312.7,297.5,312.7,297.5
		c-6.7,0-13.4,0-20.2,0c-2.5,0-2.8-0.3-2.7-2.8c0-2.3,0.1-4.6,0.2-6.8c0-2-0.1-2.1-2-2.1c-2.2,0-4.5,0-6.7,0c-1.6,0-1.7,0.1-1.7,1.8
		c0,5.6,0,11.2,0,16.8c0,1.2,0,2.5-0.1,3.7c-0.1,1.3-0.5,1.5-1.7,1.3c-0.5-0.1-1-0.1-1.4-0.1c-2.2-0.1-4.5,0.1-6.7-0.1
		c-1.4-0.1-1.8,0.3-1.9,1.7c0,0.4,0,0.9,0,1.3c0,5,0,10.1,0,15.1c0,0.7-0.4,1.6,0.7,1.9c0.1,0,0.1,0.1,0,0.3
		c-0.8,0.9,0.2,0.8,0.6,0.8c2.5,0.1,5,0,7.5,0.1c1.1,0,1.4-0.5,1.4-1.5c0-2.6,0-5.3-0.1-7.9c0-1,0.3-1.4,1.3-1.4
		c1.6,0,3.2-0.2,4.8-0.1c1.5,0.1,3.1,0.1,4.7,0c0.9-0.1,1.2-0.4,1.3-1.3c0.2-3.1-0.3-6.1-0.1-9.2c0.1-0.9,0.3-1.3,1.2-1.3
		c3.3,0,6.6,0,9.8,0c1,0,1.5,0.5,1.4,1.5c-0.1,1-0.1,2.1-0.2,3.1c-0.1,2,0.2,3.9,0.1,5.9c-0.1,1.1,0.4,1.4,1.4,1.4c2.5,0,5,0,7.4,0
		c1,0,1.3-0.4,1.3-1.4c-0.1-2.9,0.1-5.8-0.2-8.7c-0.1-1.2,0.4-1.7,1.7-1.8c0.3,0,0.6,0,1,0c6.2,0,12.4,0,18.6,0c0.8,0,1.5,0,1.5-1.2
		c0-2.6,0-5.3,0-7.9c0-0.8-0.4-1.1-1.2-1.1C326.7,297.5,319.7,297.5,312.7,297.5z M381.5,166.8C381.5,166.8,381.5,166.8,381.5,166.8
		c0,4.4,0,8.7,0,13.1c0,1,0,2.1-0.1,3.1c0,0.8-0.4,1.3-1.3,1c-0.6-0.2-1.3-0.2-1.9-0.2c-4.3,0-8.6,0-13,0c-1.6,0-3.1,0-4.7,0
		c-1.3,0-1.6,0.3-1.6,1.6c0,0.7-0.1,1.4-0.1,2c0.1,9.4-0.2,18.7,0.1,28.1c0,0.7,0.2,0.9,0.8,0.9c2.8,0,5.5,0,8.3,0c0.7,0,1-0.3,1-1
		c-0.1-6.2,0.2-12.4-0.1-18.6c-0.1-2.4,0.3-2.9,2.7-2.9c6,0,12.1,0,18.1,0c1.5,0,1.8-0.2,1.9-1.7c0.1-2.7,0.2-5.4,0-8
		c-0.1-1.5,0.5-2.1,2-2c2.6,0.3,5.3,0.1,7.9,0.1c1.4,0,1.7-0.4,1.7-1.9c0-2.2,0-4.4,0-6.6c0-1.7-0.1-1.8-1.7-1.8c-2.8,0-5.6,0-8.4,0
		c-0.9,0-1.6-0.2-1.5-1.3c0.4-6.2,0.1-12.3,0.1-18.5c0-2.3-0.3-2.7-2.7-2.7c-1.9,0-3.8,0-5.6,0c-1.7,0-1.9,0.2-1.9,2
		C381.5,156.6,381.5,161.7,381.5,166.8z M341,352.7C341,352.7,341,352.7,341,352.7c4.9,0,9.8,0,14.7,0c1.5,0,1.7-0.2,1.7-1.6
		c0-8.5,0-16.9,0-25.4c0-1.4-0.4-2.8-0.1-4.2c0.2-1.2-0.3-1.4-1.3-1.4c-10,0-20,0-30,0c-1.1,0-1.5,0.4-1.4,1.5c0,9.8,0,19.6,0,29.4
		c0,1.7,0.1,1.7,1.8,1.8C331.3,352.7,336.1,352.7,341,352.7z M142.4,115.7c0,3.2,0,6.4,0,9.6c0,1.5-0.2,1.6-1.7,1.6
		c-2.6,0-5.2,0-7.8,0c-0.8,0-1.4,0.2-1.4,1.1c0,2.7,0,5.4,0,8c0,0.6,0.2,1,1,1c6.5,0.2,12.9,0.2,19.4,0c1.5-0.1,2.3,0.6,2.1,2.1
		c-0.3,2.6-0.2,5.2-0.1,7.8c0.1,1.9,0.2,2,2.2,2c6.2,0,12.5-0.1,18.7-0.1c0.6,0,1-0.2,1-0.8c0-3.1,0-6.2,0-9.4
		c0-0.6-0.3-0.8-0.9-0.8c-3,0-6.1,0-9.1-0.1c-1.4,0-1.7-0.3-1.7-1.8c0-2.5,0-5,0-7.4c0-1.5-0.1-1.5-1.6-1.5c-2.5,0-5,0-7.6,0
		c-1.3,0-1.6-0.3-1.7-1.6c0-1.1,0-2.2,0-3.2c0-5.1,0-10.2,0-15.2c0-2.3-0.2-2.5-2.4-2.5c-2.2,0-4.3,0.1-6.5-0.1
		c-1.6-0.1-2.1,0.4-2.1,2C142.4,109.4,142.4,112.5,142.4,115.7z M164.2,193.9C164.2,193.9,164.2,193.9,164.2,193.9
		c0-3.3,0-6.6,0-9.8c0-1.7,0.4-2,2.1-1.9c2.7,0.3,5.4,0.2,8,0.1c1.5-0.1,1.7-0.4,1.7-1.9c0-2.2,0-4.5,0-6.7c0-1.5-0.1-1.6-1.6-1.6
		c-4.8,0-9.7,0-14.5,0c-1.5,0-3,0-4.4,0c-0.8,0-1.2,0.3-1.3,1.2c0,1.3-0.1,2.6-0.2,3.8c-0.1,1.7,0.1,3.4,0.2,5.1
		c0.1,1.3-0.5,1.9-1.8,1.7c-1.2-0.2-2.3-0.1-3.5-0.1c-5.3,0-10.6,0-15.8,0c-0.7,0-1.4,0-1.4,0.9c0,2.8,0,5.6,0,8.4
		c0,0.5,0.2,0.9,0.9,0.9c2.7,0.1,5.4,0.1,8.1-0.1c1.6-0.1,1.7,0,1.8,1.6c0,2.6,0,5.3,0,7.9c0,2.2,0,2.2,2.2,2.2c6,0,11.9,0,17.9,0
		c1.6,0,1.8-0.2,1.8-1.8C164.3,200.5,164.2,197.2,164.2,193.9z M136.7,250.7c5.1,0,10.2,0,15.2,0c1.1,0,1.6-0.3,1.5-1.5
		c-0.1-2.2-0.1-4.5,0-6.7c0.1-1.3-0.5-1.8-1.7-1.8c-2.6-0.1-5.2-0.2-7.8,0.1c-1.7,0.2-2.3-0.2-2.3-2c0-1.2,0.1-2.4,0.1-3.6
		c0-7.8,0-15.7,0-23.5c0-1.3-0.2-2.6-0.3-3.9c-0.1-1.2-0.7-1.5-1.7-1.4c-2.3,0.1-4.5,0-6.8,0.1c-1.2,0.1-1.4,0.5-1.4,1.5
		c0,2.8,0,5.6,0,8.4c0,1.7-0.1,1.8-1.8,1.8c-3,0-5.9,0-8.9,0c-0.6,0-1.3,0-1.3,0.9c0,2.8-0.2,5.6,0.1,8.4c0.1,0.7,0.4,1,1.2,1
		c3,0,6,0,9,0c1.4,0,1.7,0.1,1.7,1.5c0,3.3-0.1,6.6,0,9.8c0,1.1-0.6,1.3-1.5,1.2c-2.9-0.4-5.9-0.1-8.9-0.1c-1.1,0-1.5,0.6-1.5,1.7
		c0.1,2,0,3.9,0,5.9c0,2.3,0.1,2.5,2.4,2.5C127,250.7,131.8,250.7,136.7,250.7z M278,86.3C278,86.3,278,86.3,278,86.3
		c0-4.9,0-9.8,0-14.8c0-1.2-0.4-1.5-1.5-1.5c-6,0.1-11.9,0-17.9,0c-0.3,0-0.6,0-1,0.1c-0.4,0.1-0.7,0.3-0.6,0.7
		c0.3,1.4-0.1,2.8-0.1,4.2c0.1,12.6-0.2,25.3,0.2,37.9c0,1.5,0.2,1.8,1.7,1.6c2.1-0.2,4.2-0.1,6.4-0.1c1.8,0,2-0.2,2-2
		c0-2.6,0-5.3,0-7.9c0-1.6,0.5-2,2-1.8c2.4,0.2,4.7,0.2,7.1,0c1.7-0.2,1.7-0.2,1.7-1.9C278,95.9,278,91.1,278,86.3z M256.6,126.9
		C256.6,126.9,256.6,126.9,256.6,126.9c-3.2,0-6.4,0-9.6,0c-1.6,0-1.7,0.2-1.7,1.7c0,0.4,0,0.8,0,1.2c0,5.8,0,11.5,0,17.3
		c0,1.7,0.2,1.9,1.9,1.8c2.1,0,4.2-0.1,6.4-0.2c1.4,0,1.8-0.3,1.8-1.8c0-2.7,0.1-5.4-0.1-8.1c-0.1-1.3,0.4-1.9,1.7-1.8
		c1.2,0,2.4,0.2,3.6,0.2c5.1,0,10.2,0,15.2,0c1.8,0,2-0.2,2.1-2.1c0-0.4,0-0.8,0-1.2c0-2.4,0-4.8,0-7.2c0-0.8,0.1-1.4,1.2-1.4
		c2.9,0.1,5.8,0.1,8.8,0.1c1.9,0,2-0.1,2-2c0-2.3-0.1-4.6-0.1-7c0-3.5,0.1-7,0.1-10.5c0-1-0.2-1.6-1.4-1.5c-2.4,0.1-4.8,0-7.2,0
		c-1.5,0-1.8,0.2-1.8,1.7c0,2.5,0,5,0,7.4c0,1.4-0.1,1.7-1.6,1.7c-2.8,0-5.6,0-8.4,0c-1,0-1.5,0.3-1.6,1.4c-0.3,2.8-0.2,5.5,0,8.3
		c0.1,1.7-0.2,2.1-2,2.1C262.8,126.9,259.7,126.9,256.6,126.9z M194.3,137.2c4.8,0,9.5,0,14.3,0c1.5,0,1.8-0.3,1.8-1.7
		c0-6,0-11.9,0-17.9c0-2.4-0.1-2.4-2.5-2.4c-2.5,0-5,0-7.6,0c-1.4,0-1.7-0.5-1.7-1.8c0.1-2.5,0-5,0.1-7.6c0-1-0.5-1.4-1.5-1.5
		c-2.2,0-4.5,0.1-6.7-0.1c-1.6-0.1-1.9,0.3-1.9,1.9c0,6.4,0,12.7,0,19.1c0,1.6-0.2,1.8-1.8,1.8c-2.9,0-5.8,0-8.6,0
		c-0.7,0-1.5,0-1.5,1c0,2.6,0,5.2,0,7.8c0,0.8,0.4,1.3,1.3,1.3c1,0,2.1,0.2,3.1,0.2C185.5,137.2,189.9,137.2,194.3,137.2z
		 M336.4,261.8C336.4,261.8,336.4,261.8,336.4,261.8c0,1.4,0,2.9,0,4.3c0.1,2.1-0.2,4.2,0.1,6.2c0.1,0.8,0.4,1.1,1.2,1.1
		c2.4,0,4.8,0,7.2,0c1.4,0,1.7-0.3,1.7-1.7c0-2.7,0.1-5.4-0.1-8c-0.1-0.6,0.2-0.9,0.7-1c0.6-0.1,1.2-0.2,1.8-0.2c2.2,0,4.5,0,6.7,0
		c1,0,1.5-0.3,1.5-1.4c0-2.3,0.1-4.5,0.1-6.8c0-1.5-0.4-1.9-1.9-1.9c-2.4,0-4.7,0-7.1,0c-1.4,0-2-0.6-1.9-1.6
		c0.3-2.8,0.1-5.5,0.2-8.3c0-1.5-0.2-1.8-1.7-1.8c-2.6-0.1-5.2-0.1-7.8,0c-1.9,0.1-2.3-0.1-2.3-2c0-2.8,0-5.6,0-8.4
		c0-1-0.3-1.5-1.4-1.4c-2.4,0-4.7,0-7.1,0c-1.4,0-1.8,0.5-1.8,1.9c0,6.1,0,12.2,0,18.4c0,1.1,0.4,1.6,1.6,1.5c2.8-0.1,5.5,0,8.3,0
		c1.8,0,2,0.1,2,2C336.4,255.8,336.4,258.8,336.4,261.8z M205.5,92.1c4.7-0.2,9.4,0.2,14.2-0.2c1.1-0.1,1.5-0.4,1.5-1.5
		c0-2.7-0.1-5.4,0-8c0-1.1-0.4-1.5-1.5-1.5c-2.6,0-5.1,0-7.7,0c-1.4,0-1.7-0.3-1.7-1.7c0-2.5,0-5,0-7.6c0-1.5-0.1-1.5-1.6-1.5
		c-1.7,0-3.4,0-5,0c-4.6,0-9.3,0-13.9,0c-0.7,0-1.4-0.1-1.4,1c0,6.1,0.1,12.1,0.1,18.2c0,2.5,0,2.4,2.4,2.6
		C195.8,92.2,200.6,91.9,205.5,92.1z M210.1,309.2C210.1,309.3,210.1,309.3,210.1,309.2c-3.2,0.1-6.4,0.1-9.6,0.1
		c-1.7,0-2-0.4-2-2.1c0-2.7,0-5.4,0-8.2c0-1.4-0.4-1.8-1.8-1.7c-2.2,0.2-4.3,0.1-6.5,0.1c-1.8,0-1.8,0-1.8,1.7c0,6.4,0,12.9,0,19.3
		c0,0.8,0.3,1,1,1c1.2,0,2.3-0.1,3.5-0.1c1.8,0,3.6-0.2,5.4,0.1c0.8,0.1,1.2,0.5,1.1,1.4c-0.1,2.3-0.2,4.6-0.2,6.9
		c0,2.1,0.3,2.5,2.4,2.5c2.4,0,4.7,0,7.1,0c1.2,0,1.6-0.5,1.6-1.5c0-2.5,0.1-5,0-7.6c-0.1-1.6-0.1-1.6,1.6-1.8
		c2.6-0.3,5.2,0.1,7.8,0c1,0,1.5-0.4,1.5-1.4c0-2.6,0-5.3,0-7.9c0-0.7-0.3-1.1-1.1-1C216.7,309.3,213.4,309.2,210.1,309.2z
		 M244.4,366.2c-2.8,0-5.5,0-8.3,0c-2.6,0-2.6,0-2.5,2.6c0,0.3,0,0.6,0,0.8c0,1.8,0,3.5-0.1,5.3c-0.1,1.3,0.5,1.6,1.7,1.6
		c2.9-0.1,5.8-0.1,8.6,0c1.5,0,1.6,0.2,1.6,1.6c-0.1,2.4,0.1,4.7-0.1,7.1c-0.1,1.5,0.3,1.9,1.8,1.9c2.7,0,5.4,0,8.2,0
		c1.6,0,2,0.4,1.9,2c-0.2,2.8-0.2,5.5,0,8.3c0.1,1,0.5,1.5,1.6,1.5c2.3,0,4.6-0.1,7,0c1.1,0,1.6-0.4,1.6-1.5c0-6.2,0-12.5-0.1-18.7
		c0-1.4-0.2-1.6-1.6-1.6c-2.8,0-5.7,0-8.5,0c-1.3,0-1.6-0.3-1.6-1.6c0-2.6,0-5.1,0-7.7c0-1.2-0.4-1.5-1.6-1.5
		C250.7,366.2,247.6,366.2,244.4,366.2z M380.4,376.5c3.3,0,6.6,0,9.8,0c0.9,0,1.4-0.1,1.4-1.2c0.2-2.6,0-5.1,0.1-7.7
		c0-1.1-0.4-1.4-1.4-1.4c-2.4,0-4.9,0-7.3,0c-2,0-2.1-0.1-2.1-2c0-2.9,0-5.8,0-8.8c0-0.8-0.2-1.2-1.2-1.2c-2.4,0-4.8,0-7.2,0
		c-1.8,0-1.9,0.1-1.9,1.9c0,2.7,0,5.4,0,8c0,1.9-0.1,2-2.1,2c-2.6,0-5.2,0-7.8,0c-0.4,0-0.7,0-1.1,0c-0.5,0-0.8,0.3-0.7,0.8
		c0.2,1-0.1,2.1-0.1,3.1c0,4.7,0,9.4,0,14c0,0.6,0.1,1.1,0.1,1.7c0.1,0.9,0.5,1.3,1.4,1.3c2.5,0,5,0,7.4,0c0.8,0,1.3-0.4,1.3-1.2
		c0-2.5,0-5-0.1-7.4c-0.1-1.6,0.2-1.9,1.8-1.9C374,376.4,377.2,376.5,380.4,376.5z M243.7,75.2C243.7,75.2,243.7,75.2,243.7,75.2
		c0-5.2,0-10.3,0-15.5c0-1.1-0.4-1.5-1.5-1.5c-2.4,0-4.8,0-7.2,0c-1.1,0-1.6,0.6-1.6,1.6c0.2,2.8,0.1,5.7,0.1,8.5
		c0,1.5,0,1.6-1.6,1.6c-2.6,0-5.3,0-7.9,0c-0.6,0-1.4-0.1-1.4,0.9c0,2.8-0.1,5.5,0.1,8.3c0.1,0.9,0.6,1.2,1.4,1.2c2.5,0,5,0,7.6,0
		c1.5,0,1.9,0.3,1.9,1.8c0,2.4,0,4.8,0,7.2c0,0.8-0.3,1.6,0.1,2.2c0.5,0.9,1.5,0.1,2.2,0.3c0.2,0.1,0.4,0.1,0.6,0.1
		c1.8,0.1,3.6,0.2,5.4,0c1.8-0.2,1.8-0.2,1.8-2C243.7,85,243.7,80.1,243.7,75.2z M314.9,375.1c-0.2,0.6-1,0.4-0.8,1
		c0.2,0.4,0.7,0.4,1.1,0.4c2.6,0,5.2,0,7.8,0c1.6,0,1.7,0.1,1.7,1.7c0,2.5,0,5,0,7.6c0,0.8,0.2,1.2,1.2,1.3c2.5,0.2,5,0.1,7.4,0.1
		c1.5,0,1.7-0.2,1.7-1.8c0-2.4,0-4.7,0-7.1c0-1.6,0.1-1.7,1.7-1.8c2.9,0,5.8,0,8.8,0c1,0,1.4-0.3,1.3-1.3c0-2.5,0-5,0-7.6
		c0-1-0.4-1.4-1.4-1.4c-10,0-20,0-30,0c-1,0-1.5,0.4-1.5,1.4c0,2.2,0,4.3,0,6.5C313.8,374.8,313.9,375.2,314.9,375.1z M300.6,137.8
		C300.5,137.8,300.5,137.8,300.6,137.8c0-3.1,0-6.2,0-9.2c0-1.5-0.2-1.7-1.7-1.7c-2.2,0-4.4,0-6.6,0c-1.6,0-1.7,0.1-1.7,1.7
		c0,2.6,0,5.3,0,7.9c0,0.8-0.2,1.5-1.2,1.4c-2.7-0.3-5.5,0-8.3-0.1c-0.9,0-1.4,0.3-1.4,1.2c0,1.6-0.1,3.2-0.1,4.8c0,1.3,0,2.6,0,4
		c0,0.6,0.1,1.2,1,1.2c4.5,0,9,0,13.5,0.1c1.6,0,3.3,0,4.9,0c1.1,0,1.6-0.5,1.6-1.7C300.5,144.1,300.6,141,300.6,137.8z M369.1,274
		C369.1,274,369.1,274,369.1,274c0-1.9,0-3.8,0-5.8c0-1.3,0-2.6-0.1-3.9c0-0.8-0.4-1.1-1.2-1.1c-2.4,0-4.8,0.1-7.2-0.1
		c-0.9-0.1-1.5,0.3-1.6,1.4c-0.2,2.9-0.3,5.7,0,8.6c0.1,1.5-0.2,1.9-1.7,1.9c-0.5,0-1,0-1.6,0c-2.4,0-4.9,0-7.3,0
		c-0.6,0-1.3,0-1.2,0.9c0.1,2.6,0.1,5.1,0,7.7c-0.1,0.9,0.2,1.5,1.3,1.5c6.2,0.3,12.4,0.1,18.6,0.1c1.8,0,2-0.3,2-2.1
		C369.2,280.1,369.1,277,369.1,274z M312.3,251.7C312.3,251.7,312.2,251.7,312.3,251.7c-0.1-3.2-0.1-6.3-0.1-9.5
		c0-1.2-0.4-1.6-1.5-1.6c-6.3,0-12.5,0-18.8,0c-1,0-1.4,0.4-1.4,1.4c0,2.4,0,4.8,0,7.2c0,1.1,0.4,1.5,1.5,1.5c2.8,0,5.6,0,8.4,0
		c1.5,0,2,0.5,1.9,2.1c-0.3,2.9-0.2,5.8,0,8.7c0.1,0.8,0.5,1.2,1.2,1.1c2.5-0.2,5-0.1,7.5-0.1c1,0,1.3-0.3,1.3-1.3
		C312.3,258,312.3,254.9,312.3,251.7z M279.1,273.5C279.1,273.5,279.1,273.4,279.1,273.5c3.2-0.1,6.5-0.1,9.7,0
		c0.9,0,1.1-0.3,1.1-1.2c-0.1-1.9-0.1-3.8-0.1-5.6c0-4.2,0-8.5,0.2-12.7c0-1.1-0.3-1.5-1.5-1.5c-2.4,0.1-4.9,0-7.3,0
		c-1.5,0-1.7,0.2-1.7,1.8c0,2.5,0,5,0,7.6c0,1.4-0.2,1.5-1.6,1.5c-2.8-0.1-5.6,0-8.4,0c-1.1,0-1.6,0.5-1.7,1.6
		c-0.1,2.4-0.2,4.7,0,7.1c0.1,1.5,0.4,1.6,1.9,1.6C272.8,273.5,276,273.5,279.1,273.5z M370.7,251.6c0,3.2,0,6.3,0,9.5
		c0,1.1,0.4,1.5,1.5,1.5c5.9,0,11.8,0,17.6-0.1c1.6,0,1.9-0.2,2-1.8c0.1-2.3,0-4.6,0-7c0-0.8-0.4-1.2-1.2-1.2c-2.6,0-5.1-0.1-7.7,0
		c-1.5,0-1.8-0.2-1.9-1.7c0-2.8,0-5.6,0-8.4c0-1.3-0.3-1.6-1.6-1.6c-2.4,0-4.8,0-7.2,0c-1.1,0-1.5,0.4-1.5,1.5
		C370.7,245.3,370.7,248.5,370.7,251.6z M131.6,160.5C131.6,160.5,131.6,160.5,131.6,160.5c0,3.2,0,6.5,0,9.7c0,0.7,0.1,1.2,0.9,1.2
		c2.8,0,5.5,0,8.3,0c0.5,0,0.9-0.2,0.9-0.9c0.2-6.5,0.3-13.1,0-19.6c-0.1-1.1-0.5-1.5-1.6-1.5c-2.3,0-4.6,0-7,0
		c-1.4,0-1.6,0.1-1.6,1.6C131.6,154.2,131.6,157.4,131.6,160.5z M221.8,47.5c-3.2,0.1-6.4-0.1-9.6,0.2c-1.1,0.1-1.4,0.5-1.4,1.6
		c0.1,1.9,0,3.8,0,5.8c0,2.7,0,2.7,2.8,2.7c3.1,0,6.2-0.1,9.4-0.1c2.8,0,5.7,0.1,8.5,0c1.1,0,1.4-0.5,1.4-1.5c0-2.4,0-4.7,0-7.1
		c0-1-0.4-1.3-1.4-1.4C228.3,47.3,225.1,47.6,221.8,47.5z M312.3,114.7c-0.1-2.8,0.1-6-0.1-9.1c-0.1-0.9-0.4-1.2-1.3-1.2
		c-2.4,0-4.8,0.1-7.2-0.1c-0.7-0.1-1.3,0.2-1.4,1c-0.1,0.5-0.2,1-0.2,1.5c0,5.4,0,10.8,0,16.2c0,0.4,0.1,0.7,0.1,1.1
		c0,1,0.6,1.4,1.6,1.4c2.1-0.1,4.2,0,6.4,0c1.9,0,2.1-0.2,2.1-2.1C312.3,120.6,312.3,117.8,312.3,114.7z M352.4,218.1
		C352.4,218.1,352.4,218.1,352.4,218.1c-0.8,0-1.7,0-2.5,0c-2.5,0-2.5,0-2.5,2.4c0,5.6-0.1,11.3-0.1,16.9c0,0.9,0.2,1.6,1.3,1.6
		c2.5,0,5,0,7.4,0c0.9,0,1.4-0.5,1.3-1.3c-0.2-1.4,0.1-2.8,0.1-4.2c-0.1-4.8-0.1-9.6-0.1-14.4c0-0.8-0.3-1-1-1
		C355,218.1,353.7,218.1,352.4,218.1z M129.9,200.1C129.9,200.1,129.9,200.1,129.9,200.1c0-1.4,0-2.9,0-4.3c0-0.7-0.2-1.2-1-1.2
		c-2.5,0-5,0-7.6,0c-1,0-1.6,0.5-1.6,1.5c-0.1,2.8-0.3,5.7,0.1,8.5c0.1,0.7,0.4,1,1.1,1c2.6,0,5.3,0,7.9,0c0.8,0,1.1-0.3,1.1-1.1
		C129.9,203.1,129.9,201.6,129.9,200.1z M119.1,143.2C119.1,143.2,119.1,143.2,119.1,143.2c0-1.4,0-2.9,0-4.3c0-0.8-0.3-1.2-1.1-1.2
		c-2.5,0-5,0-7.4,0c-1,0-1.5,0.4-1.5,1.4c0,2.7,0,5.4,0,8.1c0,1.3,0.4,1.7,1.7,1.6c2.4,0,4.8-0.1,7.2-0.2c0.9,0,1.2-0.4,1.2-1.2
		C119.1,146.1,119.1,144.6,119.1,143.2z M147.9,352.7c1.4,0,2.7,0,4.1,0c1.1,0,1.5-0.5,1.5-1.5c0-2.3-0.1-4.6,0-6.8
		c0-1.2-0.4-1.7-1.6-1.7c-2.7,0-5.4,0-8,0c-1,0-1.4,0.4-1.4,1.4c0,2.4,0,4.8,0,7.2c0,1,0.4,1.4,1.4,1.4
		C145.2,352.7,146.6,352.7,147.9,352.7z M284.7,228.9C284.7,228.9,284.7,228.9,284.7,228.9c-1.4,0-2.7,0-4.1,0
		c-0.6,0-1.1,0.2-1.1,0.9c0,2.8,0,5.5,0,8.3c0,0.5,0.2,0.9,0.8,0.9c2.7,0.1,5.3,0.2,8-0.1c1.3-0.1,1.6-0.7,1.6-1.7
		c0-2.4,0-4.8,0-7.2c0-0.8-0.4-1.1-1.2-1.1C287.4,229,286.1,228.9,284.7,228.9z M369.2,166.7c0,0-0.1,0-0.1,0c0-1.5,0-2.9,0-4.4
		c0-0.9-0.3-1.2-1.3-1.2c-2,0.1-4.1,0.1-6.1,0c-2.4-0.1-2.4-0.2-2.6,2c0,0.1,0,0.2,0,0.2c0,2.3-0.2,4.6,0.1,6.9
		c0.1,0.7,0.4,1.2,1.2,1.2c2.6,0,5.3,0,7.9,0c0.7,0,1-0.3,1-1C369.2,169.2,369.2,168,369.2,166.7z M319.2,218.1
		C319.2,218.1,319.2,218.1,319.2,218.1c-1.4,0.1-2.7,0.1-4.1,0c-1,0-1.4,0.4-1.4,1.4c0,2,0,3.9,0,5.9c0,0.6-0.5,1.6,0.7,1.8
		c0.2,0,0.1,0.2,0,0.3c-0.8,0.9,0,0.9,0.6,0.9c2.6,0,5.3,0,7.9,0c0.7,0,1-0.3,1-1c0-2.8,0-5.7,0-8.5c0-0.6-0.2-0.8-0.9-0.8
		C321.8,218.1,320.5,218.1,319.2,218.1z M232.9,132c0-1.4,0-2.7,0-4.1c0-0.7-0.3-1-1-1c-2.7,0-5.4,0-8,0c-0.8,0-1.3,0.3-1.3,1.2
		c0,2.6,0,5.1,0,7.7c0,0.8,0.4,1.1,1.1,1.2c2.8,0.3,5.5,0.2,8.3,0.1c0.7,0,0.9-0.4,0.9-1C232.9,134.7,232.9,133.4,232.9,132z
		 M129.9,268.2C129.9,268.2,129.9,268.2,129.9,268.2c0-1.4,0-2.8,0-4.2c0-0.5-0.1-0.9-0.7-0.9c-2.8,0-5.5,0.1-8.3,0.1
		c-0.7,0-1,0.3-1.1,1c-0.4,2.7-0.2,5.3-0.1,8c0.1,0.9,0.6,1.3,1.5,1.3c2.5,0,4.9,0,7.4,0c1,0,1.3-0.4,1.3-1.3
		C129.9,270.9,129.9,269.6,129.9,268.2z M324.1,279.9C324.1,279.9,324.1,279.9,324.1,279.9c0-1.3,0-2.6,0-3.8c0-0.7-0.3-1.1-1.1-1.1
		c-2.6,0-5.3,0-7.9,0c-0.8,0-1.3,0.3-1.3,1.2c0,2.5,0,4.9,0,7.4c0,0.7,0.3,1.3,1.1,1.4c2.7,0.3,5.3,0.3,8,0.1
		c0.9-0.1,1.2-0.5,1.1-1.3C324.1,282.5,324.1,281.2,324.1,279.9z M307.2,171.5C307.2,171.5,307.2,171.5,307.2,171.5
		c1.4,0,2.8,0,4.2,0c0.5,0,1.2-0.2,0.4-0.9c-0.3-0.3-0.4-0.4,0.1-0.5c0.4-0.1,0.4-0.6,0.4-0.9c0-2.4,0.1-4.8-0.1-7.2
		c-0.1-0.5-0.2-0.9-0.8-0.8c-2.7,0.2-5.4,0.1-8,0c-0.5,0-1.1,0.1-1.1,0.8c-0.1,2.8-0.3,5.7,0.1,8.5c0.1,0.8,0.4,1.1,1.2,1.1
		C304.7,171.5,305.9,171.5,307.2,171.5z M210.9,109.5C210.9,109.5,210.9,109.5,210.9,109.5c0.1,1.4,0.1,2.7,0.1,4.1
		c0,0.5,0.1,0.8,0.6,0.8c2.8,0.1,5.7,0.1,8.5,0.1c0.8,0,1.1-0.4,1.1-1.2c0-2.6,0-5.1,0-7.7c0-0.9-0.4-1.3-1.3-1.3
		c-2.6,0-5.2,0-7.8,0c-0.9,0-1.2,0.4-1.2,1.2C210.9,106.9,210.9,108.2,210.9,109.5z M159.2,364.5
		C159.2,364.5,159.2,364.5,159.2,364.5c1.3,0,2.6,0,3.9,0c0.7,0,1.1-0.3,1.1-1.1c0-2.5,0-5,0-7.5c0-1-0.3-1.5-1.4-1.5
		c-2.5-0.2-4.9-0.1-7.4-0.1c-0.9,0-1.2,0.5-1.3,1.4c-0.3,2.6,0,5.2,0,7.8c0,0.8,0.4,1.1,1.2,1.1
		C156.7,364.5,157.9,364.5,159.2,364.5z M119.1,166.3C119.1,166.3,119.1,166.3,119.1,166.3c0-1.4,0-2.8,0-4.2c0-0.6-0.1-1-0.9-1
		c-2.6,0.2-5.3,0.2-7.9,0c-0.7-0.1-1.3,0.2-1.3,1.1c0,2.7,0,5.3,0,8c0,0.9,0.5,1.3,1.3,1.3c2.5,0,5,0,7.5,0c0.9,0,1.2-0.4,1.2-1.3
		C119.1,168.9,119.1,167.6,119.1,166.3z M243.7,109.5C243.7,109.5,243.7,109.5,243.7,109.5c0-1.1,0-2.2,0-3.4c0-1.7-0.3-2-2-1.9
		c-2.3,0.1-4.6,0.1-6.9,0c-0.9-0.1-1.3,0.4-1.3,1.2c0.2,2.7,0.1,5.3,0,8c0,1.1,0.4,1.2,1.3,1.2c1.7-0.1,3.4-0.2,5.1,0
		c0.9,0.1,1.8,0,2.6,0c0.7,0,1.1-0.4,1.1-1.2C243.7,112,243.7,110.8,243.7,109.5z M176,109.5C176,109.5,176,109.5,176,109.5
		c0-1.3,0-2.6,0-3.8c0-1-0.4-1.4-1.4-1.3c-2.4,0-4.7,0-7.1,0c-1.5,0-1.8,0.3-1.8,1.8c0,1.8,0,3.7,0.1,5.5c0.2,2.8,0.1,2.8,2.9,2.8
		c1.8,0,3.5,0.1,5.3,0.1c1.8,0,1.9-0.1,1.9-1.9C176,111.7,176,110.6,176,109.5z M262.1,307.6c0.6,0,1.2,0,1.8,0
		c3.8,0,3.3,0.4,3.3-3.3c0-1.8,0-3.6,0-5.4c0-0.6,0-1.5-1-1.4c-2.6,0.2-5.1,0.1-7.7,0.1c-1,0-1.4,0.4-1.4,1.4
		c-0.1,2.6-0.1,5.2,0.1,7.8c0.1,0.7,0.5,1,1.1,1C259.5,307.6,260.8,307.6,262.1,307.6z M176,257.6C176,257.6,176,257.6,176,257.6
		c0-1.3,0-2.6,0-3.8c0-0.9-0.3-1.4-1.3-1.4c-2.4,0-4.8,0-7.2,0c-1.4,0-1.7,0.4-1.7,1.8c0,2,0,4.1,0.1,6.1c0,2.1,0.2,2.2,2.3,2.2
		c0.5,0,1,0,1.6,0c1.7,0,3.4,0.1,5,0.1c1,0,1.4-0.4,1.4-1.5C176,260,176,258.8,176,257.6z M176,382.1C176,382.1,176,382.1,176,382.1
		c0-1.3,0-2.6,0-3.8c0-0.8-0.3-1.3-1.2-1.3c-2.6,0-5.2,0-7.8,0c-0.8,0-1.1,0.3-1.2,1.2c-0.1,2.3,0.1,4.6,0,6.9
		c0,1.6,0.2,1.9,1.9,1.9c2.4,0,4.8,0,7.2,0c0.8,0,1.1-0.4,1.1-1.1C176,384.7,176,383.4,176,382.1z M159.2,102.7
		C159.2,102.7,159.2,102.7,159.2,102.7c1.2,0,2.4,0,3.6,0c1,0,1.5-0.4,1.5-1.4c0-2.4,0-4.8,0-7.2c0-1-0.5-1.5-1.6-1.5
		c-2.3,0-4.6,0-7,0c-1.1,0-1.5,0.5-1.6,1.5c-0.3,2.5-0.1,5,0,7.5c0,0.8,0.5,1,1.2,1C156.6,102.7,157.9,102.7,159.2,102.7z
		 M238.3,149.5c-1.2,0-2.4,0-3.6,0c-0.6,0-1.1,0.1-1.1,0.8c0,2.8,0,5.7,0,8.5c0,0.7,0.4,1,1.1,0.9c2.5-0.3,5.1-0.1,7.7-0.1
		c1,0,1.5-0.5,1.4-1.4c0-2.2,0-4.5-0.1-6.7c0-1.4-0.5-1.8-1.9-1.9C240.7,149.4,239.5,149.5,238.3,149.5z M119.1,257.5
		c0-1.3,0-2.6,0-3.8c0-0.8-0.3-1.2-1.1-1.2c-2.6,0-5.1,0-7.7,0c-0.7,0-1.2,0.4-1.2,1.2c0,2.7,0,5.4,0,8c0,0.7,0.5,1.1,1.2,1
		c2.5-0.3,5-0.1,7.6-0.1c0.9,0,1.3-0.4,1.3-1.3C119.1,260,119.1,258.7,119.1,257.5z M114.1,228.9c-1.3,0-2.6,0-3.8,0
		c-0.8,0-1.2,0.4-1.2,1.2c0,2.5,0,4.9,0,7.4c0,0.9,0.4,1.4,1.5,1.5c2.5,0.1,4.9,0.2,7.4,0c0.9-0.1,1.2-0.5,1.2-1.3
		c0-2.5,0-4.9,0-7.4c0-1-0.5-1.3-1.4-1.3C116.5,228.9,115.3,228.9,114.1,228.9z M290.5,97.6C290.5,97.6,290.5,97.6,290.5,97.6
		c0,1.3,0,2.6,0,4c0,0.8,0.3,1.1,1.1,1.1c2.5,0,4.9,0.1,7.4,0.1c1,0,1.6-0.5,1.6-1.6c0-2.2,0-4.5,0-6.7c0-1.4-0.3-1.8-1.7-1.8
		c-2.4,0-4.7,0-7.1,0c-0.9,0-1.2,0.4-1.2,1.2C290.5,95.1,290.5,96.4,290.5,97.6z"/>
	<path class="st0" d="M375.3,115.2c-12.8,0-25.5,0-38.3,0c-2.1,0-2.2-0.2-2.1-2.3c0-0.9,0-1.8,0-2.6c0-24.4,0-48.8,0-73.2
		c0-1.9,0.4-2.2,2.2-2c0.7,0.1,1.4,0.1,2.2,0.1c24.7,0,49.4,0,74.2,0c2.5,0,2.8,0.4,2.5,2.8c-0.1,0.5-0.1,1-0.1,1.6
		c0,23.9,0,47.8,0,71.6c0,0.8,0.1,1.6,0.2,2.4c0.1,0.9-0.3,1.4-1.3,1.5c-0.4,0-0.9,0-1.3,0C400.7,115.2,388,115.2,375.3,115.2
		C375.3,115.2,375.3,115.2,375.3,115.2z M347.4,75.3C347.4,75.3,347.4,75.3,347.4,75.3c0,8.4,0,16.9,0,25.3c0,2,0,2.2,2.1,2.2
		c2.7,0,5.4-0.1,8.1-0.1c9.8,0,19.5,0,29.3,0c5,0,10,0,15,0c1.4,0,1.7-0.4,1.6-1.7c-0.1-0.6-0.1-1.3-0.1-1.9c0-16.4,0-32.8,0-49.2
		c0-2.2-0.1-2.3-2.3-2.3c-15.2,0-30.3,0-45.5,0c-2.2,0-4.3-0.1-6.5,0.1c-1.7,0.2-1.7,0.2-1.7,1.9C347.4,58.1,347.4,66.7,347.4,75.3z
		"/>
	<path class="st0" d="M81.5,411.1c-14.3,0-26.2,0-38,0c-0.7,0-1.4,0.1-2.2,0.1c-1.1,0-1.6-0.5-1.6-1.5c0.4-25.3,0.1-50.5,0.2-75.8
		c0-0.6-0.1-1.3-0.1-1.9c-0.1-1.3,0.6-2,1.9-1.8c1.2,0.2,2.4,0.2,3.6,0.2c22.5,0,45,0,67.5,0c1.8,0,3.5-0.1,5.3-0.2
		c1.4,0,1.9,0.5,1.7,1.8c-0.3,2.5-0.1,5-0.1,7.5c0,22.3,0,44.6,0,66.9c0,1,0,1.9,0.1,2.9c0.2,1.3-0.4,1.9-1.8,1.9
		C105,411,92,411.2,81.5,411.1z M52.2,370.7C52.2,370.7,52.2,370.7,52.2,370.7c0,8.8,0,17.6,0,26.4c0,1.5,0.2,1.7,1.5,1.7
		c17.4,0,34.7,0,52.1,0c1.4,0,1.6-0.2,1.6-1.6c0-17.6,0-35.2,0-52.8c0-1.5-0.2-1.7-1.7-1.7c-17.2,0-34.3,0-51.5,0c-1.8,0-2,0.2-2,2
		C52.2,353.4,52.2,362.1,52.2,370.7z"/>
	<path class="st0" d="M79.8,115.2c-12.6,0-25.1,0-37.7,0c-0.4,0-0.9,0-1.3-0.1c-0.7-0.1-1.1-0.5-1.1-1.3c0.5-13.2,0.1-26.5,0.2-39.7
		c0.1-11.5,0-23,0-34.4c0-1-0.1-1.9-0.1-2.9c-0.1-1.2,0.5-1.8,1.7-1.8c24.5,0.5,49,0.1,73.5,0.2c0.9,0,1.8,0,2.8-0.1
		c1.5-0.1,2.1,0.4,2.1,1.9c0,0.7-0.2,1.4-0.2,2.1c0,24,0,48.1,0,72.1c0,0.8,0.1,1.5,0.2,2.3c0.1,1.1-0.3,1.6-1.4,1.6
		c-1.7,0-3.4,0-5.2,0C102.1,115.2,91,115.2,79.8,115.2z M107.4,75.2C107.4,75.2,107.4,75.2,107.4,75.2c0-8.6,0-17.2,0-25.8
		c0-1.7-0.2-1.9-1.9-1.9c-13.2,0-26.4,0-39.6,0c-3.9,0-7.8,0-11.8,0c-1.6,0-1.9,0.3-1.9,1.8c0,17.3,0,34.6,0,51.8
		c0,1.5,0.3,1.7,1.8,1.7c2.2,0,4.4-0.2,6.6-0.2c14.4,0,28.8,0,43.2,0c0.6,0,1.2,0,1.8,0c1.6,0.1,1.8-0.1,1.8-1.7
		C107.4,92.4,107.4,83.8,107.4,75.2z"/>
	<path class="st0" d="M102.3,320.1c-5.2,0-10.3,0-15.5,0c-1.8,0-2.2-0.4-1.9-2.2c0.1-0.6,0.1-1.3,0.1-1.9c0-9.2,0-18.4,0-27.6
		c0-2.2-0.3-2.5-2.5-2.6c-2.2,0-4.4,0-6.6,0c-1.1,0-1.4,0.5-1.4,1.5c0.4,10.1,0.1,20.2,0.2,30.3c0,0.4,0,0.8,0,1.2
		c0,0.8-0.4,1.3-1.2,1.3c-3.3,0-6.6,0-10,0c-1,0-1.4-0.5-1.4-1.6c0.1-2.6,0-5.1,0.1-7.7c0-1.1-0.5-1.5-1.5-1.5c-2.3,0-4.6,0.1-7-0.1
		c-0.9-0.1-1.3,0.3-1.4,1.2c-0.3,2.7-0.3,5.4,0,8.1c0.1,1.1-0.3,1.5-1.2,1.6c-3.4,0.2-6.8,0.1-10.2,0c-0.9,0-1.2-0.7-1.1-1.5
		c0.3-3.2,0.2-6.5,0.1-9.7c0-1.1,0.7-1.2,1.5-1.2c2.4,0,4.8,0,7.2,0c1.9,0,2-0.1,2-2c0-2.9,0-5.8-0.1-8.6c0-1.1,0.7-1.1,1.4-1.1
		c2.7,0,5.4,0,8.2,0c2.2,0,2.2-0.1,2.2-2.2c0-2.1,0-4.2,0-6.4c0-1.1-0.5-1.5-1.5-1.5c-6.5,0-13,0.1-19.4,0.1c-1.1,0-1.6-0.5-1.5-1.6
		c0.2-3.2,0.2-6.4,0-9.6c0-0.9,0.4-1.4,1.3-1.3c1.1,0.2,2.2,0.1,3.2,0.1c12.4,0,24.7,0,37.1,0c0.8,0,1.7,0,2.5-0.2
		c1.3-0.2,1.6,0,1.6,1.3c0,2.8,0,5.7,0,8.5c0,1.8,0,1.7,1.7,1.9c2.9,0.4,5.8,0,8.7,0.2c1,0.1,1.5,0.5,1.4,1.5
		c-0.3,4.6-0.1,9.2-0.1,13.8c0,1.8,0,3.6,0,5.4c0,1.6,0.1,1.7,1.7,1.7c6.2,0,12.4,0,18.6,0c2.1,0,2.4,0.4,2.2,2.5
		c-0.2,2.7-0.3,5.3,0,8c0.2,1.6-0.1,2-1.8,2C112.8,320.1,107.5,320.1,102.3,320.1C102.3,320.1,102.3,320.1,102.3,320.1z"/>
	<path class="st0" d="M141.7,58.3c-3.3,0-6.6,0-9.8,0c-1.6,0-1.9-0.3-1.9-1.9c0-6.6,0-13.1,0-19.7c0-1.4,0.4-1.8,1.7-1.7
		c3,0.3,6.1,0.1,9.1,0.1c1.5,0,1.7,0.1,1.7,1.7c0,2.5,0,5,0,7.4c0,1.5,0.2,1.7,1.6,1.7c2.7,0,5.4,0.1,8-0.2c1-0.1,1.4-0.6,1.4-1.6
		c0-2.5,0-5,0-7.4c0-1.6,0.4-1.9,2-1.8c1.1,0.1,2.2,0.1,3.2,0.1c9.2,0,18.5,0,27.7,0c1.9,0,2.1,0.2,2.2,2.1c0.1,2.8-0.2,5.7-0.1,8.5
		c0.1,1.8-0.3,2.1-2,1.8c-0.6-0.1-1.3-0.1-1.9-0.1c-8.7,0-17.4,0-26.1,0c-1,0-2,0.1-3,0.2c-0.7,0.1-1.1,0.4-1.2,1.1
		c-0.3,2.6-0.2,5.1,0,7.7c0.1,1,0.7,1,1.4,1c2.8,0,5.6,0,8.4,0c1.7,0,1.9,0.3,2,1.9c0,3.1-0.3,6.2,0,9.3c0.1,0.8-0.3,1.2-1,1.2
		c-3.5,0.1-7,0.1-10.4,0c-1,0-1.1-0.9-1.1-1.7c0-2.3,0-4.6,0-7c0-3.1,0-3.1-3.1-3.1C147.4,58.3,144.6,58.3,141.7,58.3
		C141.7,58.3,141.7,58.3,141.7,58.3z"/>
	<path class="st0" d="M51,206.4c-3.1,0-6.2,0-9.4,0c-1.4,0-2-0.6-1.9-1.9c0.3-2.9,0.1-5.8,0.1-8.6c0-1.8,0.2-2,2-2c5,0,9.9,0,14.9,0
		c1.5,0,2.9,0.3,4.4,0c1.2-0.2,1.8,0.5,1.8,1.8c0,2.8,0,5.5,0,8.3c0,1.5,0.1,1.6,1.6,1.7c2.8,0,5.5,0,8.3,0c1.1,0,1.7,0.3,1.7,1.4
		c0.2,3.3,0.1,6.6,0.1,10c0,0.7-0.5,1.1-1.2,1.1c-3.4,0-6.7,0-10.1,0c-1,0-1.4-0.5-1.3-1.6c0.2-2.8,0.1-5.7,0.1-8.5
		c0-1-0.5-1.6-1.6-1.6C57.4,206.4,54.2,206.4,51,206.4C51,206.4,51,206.4,51,206.4z"/>
	<path class="st0" d="M409.4,387.1c1.5,0,3,0,4.6,0c1.5,0,2.1,0.7,2,2.2c-0.2,2.7-0.3,5.3,0,8c0.2,1.9-0.4,2.4-2.3,2.3
		c-2.8-0.1-5.5,0-8.3,0c-1.8,0-2.1-0.5-2.1-2.2c0.1-2.8,0-5.7,0-8.5c0-1.5,0.2-1.7,1.7-1.7C406.5,387,408,387,409.4,387.1
		C409.4,387,409.4,387.1,409.4,387.1z"/>
	<path class="st0" d="M278,41.3c0-1.6,0-3.3,0-4.9c0-1,0.5-1.5,1.5-1.4c3.1,0.4,6.1,0.1,9.2,0.2c1.4,0,1.8,0.3,1.8,1.8
		c0,2.9,0,5.8,0,8.6c0,2-0.4,2.2-2.4,2c-2.7-0.3-5.3,0-8-0.1c-0.1,0-0.2,0-0.4,0.1c-0.4,0-0.6,0.9-1.1,0.4c-0.5-0.4-0.6-1-0.6-1.6
		C278,44.7,278,43,278,41.3C278,41.3,278,41.3,278,41.3z"/>
	<path class="st0" d="M56.8,228.4c1.6,0,3.1,0,4.7,0c1,0,1.5,0.4,1.5,1.5c0,3,0,6,0,9c0,1.7-0.7,2.2-2.3,2c-2.7-0.3-5.3-0.2-8,0
		c-1.5,0.1-2.1-0.4-2.1-1.8c-0.1-3.1,0.2-6.2-0.2-9.3c-0.1-0.9,0.7-1.1,1.4-1.2C53.4,228.4,55.1,228.5,56.8,228.4
		C56.8,228.4,56.8,228.4,56.8,228.4z"/>
	<path class="st0" d="M142.4,405.1c0,1.6,0,3.1,0,4.7c0,1-0.4,1.4-1.4,1.4c-3.2,0.1-6.4-0.1-9.6,0.1c-1,0.1-1.6-0.5-1.6-1.5
		c0-3.2,0-6.4,0-9.6c0-0.9,0.5-1.4,1.4-1.4c3.2,0,6.3,0,9.5,0c1.1,0,1.6,0.5,1.6,1.6C142.4,401.9,142.4,403.5,142.4,405.1
		C142.4,405.1,142.4,405.1,142.4,405.1z"/>
	<path class="st0" d="M226.8,182.3c4.3-0.2,8.4,0.5,12.5,1.9c0.6,0.2,1.2,0.4,1.9,0.5c3.4,0.5,5.9,2.7,8.7,4.3c3.5,2,6.3,4.9,8.8,8
		c2.4,2.9,4.9,5.9,6.1,9.5c0.7,2,1.2,4.2,1.7,6.3c0.3,1.2,0.3,2.4,1,3.4c0.1,0.1,0.1,0.3,0.1,0.5c-0.1,3.4,0.4,6.8-0.2,10.2
		c-0.4,2.6-1.1,5.2-1.6,7.7c-0.1,0.5-0.2,0.9-0.3,1.4c-0.4,1.6-0.5,3.2-1.8,4.4c-0.6,0.6-1,1.3-1.1,2.2c0,0.3-0.1,0.6-0.3,0.8
		c-2.5,2.7-4.4,5.9-7.2,8.4c-3.1,2.7-6.5,4.9-10.2,6.8c-1.9,1-4,1.6-5.9,2.5c-0.6,0.3-1.3,0-2,0.2c-4.8,1.1-9.6,1.5-14.4,0.7
		c-3.8-0.6-7.9-0.9-11.3-2.8c-1.7-1-3.5-1.2-5-0.7c-4.8,1.7-9.9,2.1-14.7,3.5c-0.9,0.3-1.7,0.6-2.6,0.9c-0.6,0.2-1.2,0.2-1.7-0.2
		c-0.6-0.5-0.2-1-0.1-1.5c1.1-3.4,2.1-6.7,2.6-10.3c0.3-2,1.1-4.1,1.7-6.1c0.7-2.2,0.6-4.2-0.9-6c-0.7-0.8-0.9-1.7-1.1-2.7
		c-0.5-2.3-1.2-4.6-1.6-6.9c-0.7-3.5-0.8-7-0.5-10.5c0.3-3.8,1.4-7.5,2.6-11.2c0.6-1.9,1.5-3.8,2.8-5.4c1.5-1.9,2.5-4.1,4.1-5.9
		c1.8-1.9,3.6-3.8,5.6-5.6c1.1-1,2.6-1.6,3.8-2.6c2.4-1.9,5.2-2.8,8.2-3.5c2.4-0.6,4.8-1.5,7.2-2.1
		C223.3,182.1,225.1,182.5,226.8,182.3z M260.3,223c-0.2-2.6-0.5-5.1-1-7.6c-0.5-2.1-1.4-3.8-2.3-5.7c-0.6-1.3-0.8-2.8-1.7-4
		c-2.3-3.4-4.8-6.7-8.3-9c-1.3-0.9-2.5-1.9-4.2-2.1c-0.8-0.1-1.7-0.4-2.1-1.4c-0.1-0.2-0.4-0.4-0.6-0.5c-2.1-1-4.3-1.7-6.6-2
		c-1.9-0.3-3.9-0.1-5.8-0.7c-0.7-0.2-1.5-0.1-2.3,0.1c-1.9,0.5-3.9,0.7-5.8,1.2c-2.2,0.6-4.4,1.1-6.4,2.1c-2.5,1.3-5,2.8-7.1,4.7
		c-0.7,0.6-1,1.5-1.7,1.9c-2,1.2-3.2,3.2-4.5,5.1c-2.1,3-3.2,6.5-4.3,9.9c-1.9,5.8-1.3,11.6,0.3,17.3c0.2,0.8,1.1,1.2,1.2,2.1
		c0.2,1.5,0.9,2.8,1.6,4.1c1.3,2.2,2,4.6,1,7c-0.7,1.7-0.6,3.4-1.2,5.1c-0.4,1.3,0.4,2,1.7,1.7c1.9-0.5,3.9-0.6,5.7-1.2
		c2.7-0.9,5,0,7.2,1.2c3.1,1.6,6.3,2.6,9.6,3.1c1.7,0.3,3.5,0.5,5.2,0.4c3-0.1,6-0.8,8.9-1.7c1.1-0.3,2.2-0.7,3.1-1.5
		c0.2-0.2,0.5-0.3,0.8-0.3c1,0.1,1.8-0.3,2.6-0.8c3-1.7,5.5-3.9,7.9-6.4c2.3-2.5,4.1-5.2,5.6-8.2C259,232.3,259.9,227.7,260.3,223z"
		/>
	<path class="st0" d="M341.1,342.7c-1.6,0-3.1,0-4.7,0c-1.1,0-1.6-0.5-1.6-1.5c0-3.2,0-6.5,0-9.7c0-1.2,0.5-1.5,1.7-1.3
		c3.1,0.4,6.2,0.3,9.3,0.2c1.1,0,1.5,0.4,1.5,1.4c0,3.1,0,6.2,0,9.2c0,1.5-0.4,1.8-1.9,1.8C344,342.7,342.6,342.7,341.1,342.7z"/>
	<path class="st0" d="M374.6,92.6c-5.2,0-10.3,0-15.5,0c-1.6,0-2.1-0.4-1.9-1.9c0.3-3.3,0.1-6.6,0.2-9.8c0-6.2,0-12.5,0-18.7
		c0-1-0.1-2-0.2-3c-0.1-1.1,0.4-1.5,1.5-1.6c3.4,0,6.9-0.1,10.3-0.1c4.6,0,9.1,0,13.7,0c3.2,0.1,6.4,0.1,9.6,0
		c0.9-0.1,1.3,0.4,1.2,1.3c-0.4,9.1-0.1,18.2-0.2,27.3c0,1.6,0,3.2,0,4.8c0,1.4-0.6,1.8-2,1.7c-2.8-0.3-5.7-0.1-8.5-0.1
		C380.1,92.6,377.3,92.6,374.6,92.6C374.6,92.6,374.6,92.6,374.6,92.6z"/>
	<path class="st0" d="M97.3,370.7c0,5.3,0,10.6,0,16c0,2-0.4,2.2-2.3,2.1c-2.1-0.1-4.2-0.1-6.2-0.1c-8.2,0-16.4,0-24.6,0
		c-1.6,0-1.9-0.3-1.9-2c0-10.6,0-21.2,0-31.8c0-2.2,0.1-2.3,2.3-2.3c10.2,0,20.3,0,30.5,0c2.3,0,2.4,0.1,2.3,2.4
		C97.3,360.3,97.3,365.5,97.3,370.7z"/>
	<path class="st0" d="M97.3,74.9c0,5.3,0,10.6,0,15.8c0,1.6-0.3,1.9-1.9,1.9c-10.4,0-20.9,0-31.3,0c-1.6,0-1.9-0.3-1.9-1.9
		c0-10.4,0-20.9,0-31.3c0-1.5,0.2-1.7,1.7-1.7c5.1-0.1,10.2-0.1,15.3-0.1c5.2-0.1,10.4,0.3,15.6,0c0.4,0,0.7,0,1.1,0
		c1.4,0,1.5,0.2,1.5,1.6C97.3,64.4,97.4,69.6,97.3,74.9C97.3,74.9,97.3,74.9,97.3,74.9z"/>
	<path class="st0" d="M214.2,203.3c1.9-0.5,3,0.6,3.6,2.2c0.2,0.4,0.4,0.7,0.6,1.1c0.5,1,1.3,1.9,1.2,3.2c0,0.6,0.4,1.2,0.7,1.8
		c1,2,0.9,3.8-0.6,5.6c-1.9,2.3-1.8,2.9,0,5.4c2.4,3.3,5.3,6.1,8.9,8.1c1,0.5,2,0.6,3.1,0.5c2.2-0.1,3.1-1.6,4-3.2
		c0.5-1,1.1-1.2,2.1-1c1,0.2,2,0.6,2.9,1.1c1.6,0.8,3.1,1.5,4.8,2.2c3.1,1.3,3,2.8,2.1,6.1c-0.9,3.5-4,4.3-6.9,5.4
		c-3.3,1.2-6.2-0.1-9.1-1c-1.6-0.5-3.2-1.2-4.7-1.9c-4.3-2-7.9-5-11-8.5c-0.4-0.5-0.8-0.9-1.2-1.3c-3-2.8-4.9-6.4-6.7-10
		c-1-2.1-1.6-4.2-1.3-6.6c0.3-2.9,1.9-5.1,3.7-7.2C211.3,203.8,212.5,202.8,214.2,203.3z"/>
</g>
</svg>
