<?xml version="1.0" encoding="utf-8"?>
<!-- Generator: Adobe Illustrator 16.0.0, SVG Export Plug-In . SVG Version: 6.00 Build 0)  -->
<!DOCTYPE svg PUBLIC "-//W3C//DTD SVG 1.1//EN" "http://www.w3.org/Graphics/SVG/1.1/DTD/svg11.dtd">
<svg version="1.1" id="Capa_1" xmlns="http://www.w3.org/2000/svg" xmlns:xlink="http://www.w3.org/1999/xlink" x="0px" y="0px"
	 width="401.43px" height="94.316px" viewBox="0 0 401.43 94.316" enable-background="new 0 0 401.43 94.316" xml:space="preserve">
<g id="Capa_1_1_">
</g>
<g id="Capa_2">
</g>
<g id="Capa_3">
</g>
<g id="Capa_6">
</g>
<g id="Capa_4" display="none">
</g>
<g>
	<g>
		<g>
			<path fill="#FFFFFF" d="M284.852,77.994l5.806,4.594l0.493,0.392l0.101,0.079l0.705,0.559c0.168,0.146,0.271,0.418,0.276,0.731
				v9.781h5.988V88.44c0.99,0,1.799-0.808,1.799-1.795v-2.996c0-1.057-0.612-1.968-1.498-2.41v-2.38
				c0-1.816-1.479-3.293-3.293-3.293c-1.815,0-3.295,1.477-3.295,3.293v1.781c-0.156-0.127-0.334-0.271-0.529-0.426
				c-1.442-1.146-3.715-2.928-3.715-2.928c-0.754-0.591-1.838-0.479-2.461,0.233c-0.016,0.019-0.033,0.041-0.049,0.061
				L284.852,77.994z M297.922,81.024c-0.191-0.044-0.393-0.068-0.6-0.068h-0.939c0.738-0.408,1.238-1.195,1.238-2.097
				c0-1.321-1.072-2.396-2.393-2.396c-1.322,0-2.396,1.073-2.396,2.396c0,0.147,0.014,0.297,0.041,0.438
				c0.102,0.553,0.395,1.037,0.809,1.388c0.119,0.103,0.252,0.191,0.391,0.271h-0.94c-0.137,0-0.584-0.013-0.603-0.008l0.005-2.089
				c0-1.487,1.209-2.694,2.694-2.694c1.482,0,2.693,1.207,2.693,2.694V81.024L297.922,81.024z M293.432,78.859
				c0-0.495,0.199-0.944,0.525-1.271c0.104-0.102,0.215-0.19,0.338-0.268c0.051-0.029,0.102-0.06,0.152-0.083
				c0.051-0.025,0.105-0.049,0.162-0.069c0.19-0.067,0.399-0.106,0.619-0.106c0.035,0,0.071,0,0.108,0.005
				c0.037,0,0.072,0.005,0.108,0.009c0.812,0.1,1.462,0.747,1.562,1.563c0.007,0.035,0.011,0.071,0.011,0.107
				c0.006,0.036,0.006,0.075,0.006,0.111c0,0.151-0.021,0.307-0.06,0.449c-0.006,0.027-0.016,0.059-0.022,0.086
				c-0.053,0.17-0.129,0.326-0.228,0.47c-0.016,0.021-0.028,0.046-0.049,0.068c-0.054,0.068-0.106,0.136-0.17,0.193
				c-0.062,0.062-0.125,0.117-0.192,0.17c-0.05,0.034-0.097,0.068-0.146,0.1c-0.025,0.014-0.052,0.027-0.076,0.043
				c-0.103,0.058-0.211,0.103-0.321,0.137c-0.169,0.052-0.347,0.081-0.531,0.081c-0.188,0-0.365-0.029-0.537-0.081
				c-0.111-0.034-0.219-0.079-0.322-0.137c-0.023-0.016-0.049-0.029-0.074-0.043c-0.123-0.075-0.236-0.166-0.338-0.27
				C293.633,79.804,293.432,79.356,293.432,78.859z M298.221,86.646h1.199c0,0.66-0.539,1.194-1.199,1.194V86.646z M295.527,92.932
				h2.095v0.6h-2.095V92.932z M292.833,92.932h2.097v0.6h-2.097V92.932z M292.833,87.842h0.601v0.301h1.053v-0.301h0.443h0.602
				h0.441v0.301h1.053v-0.301h0.6v2.396v0.599v1.495h-2.094v-1.495h2.342v-0.599h-2.342v-1.199h-0.602v1.199v0.599v1.495h-2.097
				v-1.495h2.342v-0.599h-2.342V87.842L292.833,87.842z M287.104,79.01l0.676-0.865c0,0,2.941,2.286,4.021,3.169l0.002-0.003h0.003
				c0.137,0.109,0.291,0.191,0.465,0.234c0.09,0.022,0.184,0.034,0.28,0.034c0.078,0,0.468-0.023,0.582-0.023h4.191
				c1.155,0,2.098,0.938,2.098,2.095v2.396h-1.198v-2.995h-0.601v4.191h-0.599v-0.3h-1.055v0.3h-0.441h-0.6h-0.445v-0.3h-1.053v0.3
				h-0.6v-3.1c0.002-0.577-0.307-0.861-0.6-1.076c-0.205-0.151-0.806-0.635-0.806-0.635l-0.467-0.37L287.104,79.01z M285.702,77.897
				c0.414-0.459,1.121-0.527,1.616-0.139l-0.686,0.88L285.702,77.897z"/>
			<path fill="#FFFFFF" d="M297.323,82.153h-4.191v3.893h4.191V82.153z M293.73,83.65h1.879v0.896h-1.879V83.65z M296.725,85.446
				h-2.994v-0.299h2.478V83.05h-2.478v-0.299h2.994V85.446z"/>
		</g>
	</g>
</g>
<g>
	<path fill="#FFFFFF" d="M97.998,48.996l-10.211-3.98c-1.123-0.438-2.007-1.285-2.491-2.391c-0.999-2.274,0.04-4.939,2.317-5.938
		c1.103-0.484,2.328-0.512,3.45-0.072l12.548,4.894l0.213-0.551l-12.546-4.893c-1.269-0.495-2.655-0.467-3.902,0.08
		c-2.575,1.13-3.751,4.146-2.621,6.72c0.548,1.247,1.548,2.207,2.817,2.702l10.212,3.98L97.998,48.996z"/>
	<path fill="#FFFFFF" d="M91.691,41.023c-0.263-0.599-0.961-0.868-1.558-0.606c-0.597,0.264-0.868,0.96-0.606,1.559
		c0.262,0.597,0.96,0.867,1.556,0.605C91.681,42.318,91.953,41.621,91.691,41.023z M90.068,41.736
		c-0.132-0.299,0.005-0.647,0.303-0.778c0.299-0.131,0.648,0.005,0.779,0.303c0.13,0.301-0.005,0.648-0.304,0.779
		C90.547,42.171,90.199,42.034,90.068,41.736z"/>
	<path fill="#FFFFFF" d="M88.273,40.588c-0.196-0.445-0.72-0.649-1.168-0.455c-0.447,0.196-0.651,0.723-0.455,1.168
		c0.196,0.447,0.721,0.651,1.168,0.455C88.265,41.56,88.47,41.035,88.273,40.588z M87.191,41.063
		c-0.065-0.149,0.002-0.324,0.151-0.392c0.149-0.064,0.324,0.003,0.39,0.152c0.065,0.148-0.002,0.323-0.152,0.39
		C87.432,41.28,87.258,41.212,87.191,41.063z"/>
	
		<rect x="99.524" y="42.966" transform="matrix(0.9317 0.3633 -0.3633 0.9317 22.6899 -34.1129)" fill="#FFFFFF" width="5.013" height="0.591"/>
	
		<rect x="99.631" y="45.64" transform="matrix(0.9316 0.3635 -0.3635 0.9316 23.7119 -34.1357)" fill="#FFFFFF" width="5.849" height="0.59"/>
	
		<rect x="106.029" y="47.157" transform="matrix(-0.9315 -0.3637 0.3637 -0.9315 188.3431 130.37)" fill="#FFFFFF" width="0.835" height="0.59"/>
	<path fill="#FFFFFF" d="M100.641,47.971l0.215-0.552l-9.212-3.594c0.49-0.372,0.875-0.851,1.135-1.39l6.168,2.403l0.214-0.551
		l-6.168-2.405c0.174-0.568,0.216-1.184,0.107-1.789l5.708,2.227l0.215-0.55l-6.124-2.391c-0.021-0.052-0.037-0.103-0.061-0.152
		c-0.85-1.938-3.12-2.825-5.059-1.976c-1.939,0.854-2.824,3.122-1.973,5.062c0.851,1.938,3.12,2.825,5.061,1.974
		c0.05-0.021,0.096-0.05,0.146-0.075L100.641,47.971z M89.455,38.134c-0.443,0.194-0.96-0.005-1.161-0.44
		c0.546-0.185,1.111-0.21,1.647-0.106C89.867,37.828,89.694,38.028,89.455,38.134z M89.686,44.002
		c-1.375,0.154-2.753-0.59-3.339-1.923c-0.681-1.551-0.048-3.349,1.406-4.147c0.333,0.733,1.198,1.068,1.939,0.743
		c0.403-0.178,0.693-0.516,0.815-0.925c0.119,0.047,0.236,0.103,0.351,0.162l0.004-0.006c0.618,0.332,1.134,0.864,1.438,1.557
		c0.556,1.268,0.242,2.693-0.682,3.611c-0.029,0.027-0.056,0.055-0.085,0.082c-0.014,0.012-0.028,0.025-0.045,0.04
		c-0.027,0.022-0.055,0.049-0.084,0.072c-0.003,0.004-0.006,0.005-0.009,0.007c-0.035,0.029-0.068,0.058-0.104,0.084
		c-0.008,0.007-0.016,0.013-0.025,0.018c-0.033,0.026-0.068,0.054-0.104,0.075c-0.039,0.027-0.078,0.053-0.118,0.079
		c-0.061,0.038-0.125,0.074-0.189,0.108c-0.027,0.015-0.056,0.027-0.085,0.043c-0.045,0.021-0.092,0.045-0.14,0.064
		C90.322,43.884,90.004,43.967,89.686,44.002z"/>
	
		<rect x="101.616" y="47.733" transform="matrix(-0.3614 0.9324 -0.9324 -0.3614 183.6398 -29.4714)" fill="#FFFFFF" width="0.592" height="0.835"/>
	
		<rect x="98.645" y="49.431" transform="matrix(0.932 0.3625 -0.3625 0.932 24.7637 -32.5281)" fill="#FFFFFF" width="0.835" height="0.59"/>
</g>
<g id="Capa_13">
</g>
<g id="Capa_8">
</g>
<g id="Capa_11">
</g>
<g id="Capa_9">
</g>
<g id="Capa_12">
</g>
<g>
	<g>
		<g>
			<path fill="#FFFFFF" d="M355.217,89.325c-0.827,0-1.5,0.674-1.5,1.501c0,0.828,0.673,1.502,1.5,1.502
				c0.828,0,1.502-0.674,1.502-1.502C356.718,89.999,356.045,89.325,355.217,89.325z M355.217,91.327c-0.273,0-0.5-0.224-0.5-0.501
				c0-0.276,0.227-0.5,0.5-0.5c0.277,0,0.501,0.224,0.501,0.5C355.718,91.104,355.495,91.327,355.217,91.327z"/>
			<path fill="#FFFFFF" d="M362.222,89.325c-0.828,0-1.501,0.674-1.501,1.501c0,0.828,0.673,1.502,1.501,1.502
				c0.827,0,1.5-0.674,1.5-1.502C363.722,89.999,363.05,89.325,362.222,89.325z M362.222,91.327c-0.274,0-0.501-0.224-0.501-0.501
				c0-0.276,0.227-0.5,0.501-0.5c0.276,0,0.5,0.224,0.5,0.5C362.722,91.104,362.5,91.327,362.222,91.327z"/>
			<path fill="#FFFFFF" d="M369.227,89.325c-0.825,0-1.501,0.674-1.501,1.501c0,0.828,0.676,1.502,1.501,1.502
				c0.828,0,1.502-0.674,1.502-1.502C370.729,89.999,370.055,89.325,369.227,89.325z M369.227,91.327
				c-0.274,0-0.501-0.224-0.501-0.501c0-0.276,0.227-0.5,0.501-0.5c0.276,0,0.5,0.224,0.5,0.5
				C369.727,91.104,369.504,91.327,369.227,91.327z"/>
			<path fill="#FFFFFF" d="M377.734,87.667v-1.402c3.091-1.905,5.004-5.312,5.004-8.945c0-5.794-4.714-10.509-10.507-10.509h-13.513
				v-2.001h-1.001v2.001h-1v-3.502h-1.001v3.502h-0.751l-3.252,4.337v7.839l2.501,3.336h-2.501v5.504h1.708
				c-1.021,0.613-1.708,1.728-1.708,3.002c0,1.932,1.571,3.503,3.502,3.503c1.934,0,3.503-1.571,3.503-3.503
				c0-1.274-0.688-2.389-1.708-3.002h3.416c-1.021,0.613-1.708,1.728-1.708,3.002c0,1.932,1.571,3.503,3.503,3.503
				c1.933,0,3.503-1.571,3.503-3.503c0-1.274-0.688-2.389-1.708-3.002h3.416c-1.021,0.613-1.708,1.728-1.708,3.002
				c0,1.932,1.571,3.503,3.502,3.503c1.933,0,3.504-1.571,3.504-3.503c0-1.274-0.688-2.389-1.708-3.002h1.208
				c0.848,0,1.686-0.104,2.502-0.305v0.146c-1.183,0.563-2.002,1.768-2.002,3.159c0,1.932,1.57,3.503,3.503,3.503
				c1.932,0,3.503-1.571,3.503-3.503C379.736,89.433,378.916,88.23,377.734,87.667z M377.734,85.063v-0.241v-0.5v-1.314
				c0.606,0.149,1.234,0.243,1.88,0.281C379.075,83.958,378.445,84.557,377.734,85.063z M370.729,67.811h1.503
				c5.24,0,9.506,4.264,9.506,9.507c0,1.791-0.519,3.52-1.438,5.003h-0.063c-5.242,0-9.507-4.265-9.507-9.507L370.729,67.811
				L370.729,67.811z M353.216,79.318h1.501v-1.001h-2.002v-6.505h2.002v-1.001h-1.501l2.252-3.001h14.261v3.001h-14.011v1.001
				h14.011v1.001c0,2.02,0.581,3.898,1.574,5.504h-15.585v1.001H372c1.008,1.272,2.305,2.304,3.79,3.002h-2.059v-1.001h-1v1.001
				h-1.001v-1.001h-1.002v1.001h-1.002v-1.001h-1.001v1.001h-1v-1.001h-1.001v1.001h-1v-1.001h-1.001v1.001h-1.002v-1.001h-1v1.001
				h-1.001v-1.001h-1v1.001h-1.001v-1.001h-1.001v1.001h-1.001v-1.001h-1v1.001h-1.001v-1.001h-1.001v0.001L353.216,79.318z
				 M357.718,90.826c0,1.38-1.121,2.502-2.502,2.502c-1.379,0-2.502-1.122-2.502-2.502c0-1.379,1.123-2.502,2.502-2.502
				C356.597,88.324,357.718,89.447,357.718,90.826z M354.717,87.363v-2.041h1.001v2.041c-0.164-0.022-0.33-0.039-0.501-0.039
				C355.047,87.324,354.881,87.341,354.717,87.363z M364.724,90.826c0,1.38-1.123,2.502-2.502,2.502
				c-1.38,0-2.502-1.122-2.502-2.502c0-1.379,1.122-2.502,2.502-2.502C363.601,88.324,364.724,89.447,364.724,90.826z
				 M361.721,87.363v-2.041h1.001v2.041c-0.164-0.022-0.33-0.039-0.5-0.039S361.886,87.341,361.721,87.363z M371.73,90.826
				c0,1.38-1.122,2.502-2.504,2.502c-1.38,0-2.502-1.122-2.502-2.502c0-1.379,1.122-2.502,2.502-2.502
				C370.608,88.324,371.73,89.447,371.73,90.826z M368.726,87.363v-2.041h1.001v2.041c-0.162-0.022-0.328-0.039-0.5-0.039
				C369.057,87.324,368.89,87.341,368.726,87.363z M372.231,86.824h-1.503v-2.502h-3.003v2.502h-4.004v-2.502h-3.001v2.502h-4.003
				v-2.502h-3.002v2.502h-1.002v-3.503h24.02v1.001h-2.001v2.162C373.919,86.705,373.081,86.824,372.231,86.824z M376.733,85.322
				v2.041c-0.164-0.022-0.329-0.039-0.5-0.039s-0.336,0.017-0.5,0.039v-2.041H376.733z M376.233,93.328
				c-1.382,0-2.502-1.122-2.502-2.502c0-1.379,1.12-2.502,2.502-2.502c1.379,0,2.502,1.123,2.502,2.502
				C378.735,92.206,377.612,93.328,376.233,93.328z"/>
			<path fill="#FFFFFF" d="M376.233,89.325c-0.828,0-1.501,0.674-1.501,1.501c0,0.828,0.673,1.502,1.501,1.502
				c0.826,0,1.501-0.674,1.501-1.502C377.734,89.999,377.06,89.325,376.233,89.325z M376.233,91.327c-0.276,0-0.5-0.224-0.5-0.501
				c0-0.276,0.224-0.5,0.5-0.5c0.274,0,0.5,0.224,0.5,0.5C376.733,91.104,376.509,91.327,376.233,91.327z"/>
			<path fill="#FFFFFF" d="M379.736,77.317h1c0-4.69-3.814-8.507-8.505-8.507v1.001C376.369,69.812,379.736,73.177,379.736,77.317z"
				/>
		</g>
	</g>
</g>
</svg>
