<?xml version="1.0" encoding="utf-8"?>
<!-- Generator: Adobe Illustrator 16.0.0, SVG Export Plug-In . SVG Version: 6.00 Build 0)  -->
<!DOCTYPE svg PUBLIC "-//W3C//DTD SVG 1.1//EN" "http://www.w3.org/Graphics/SVG/1.1/DTD/svg11.dtd">
<svg version="1.1" xmlns="http://www.w3.org/2000/svg" xmlns:xlink="http://www.w3.org/1999/xlink" x="0px" y="0px"
	 width="99.965px" height="100.213px" viewBox="0 0 99.965 100.213" enable-background="new 0 0 99.965 100.213"
	 xml:space="preserve">
<g id="Capa_4">
</g>
<g id="Capa_6">
</g>
<g id="Capa_7">
</g>
<g id="Capa_1">
</g>
<g id="Capa_9">
	<path fill="#E1E1E1" d="M85.119,22.791v15.087c0,9.655-7.826,17.482-17.482,17.482H52.793c-0.006-0.156-0.007-0.311-0.007-0.467
		c0-12.293,11.351-22.358,25.734-23.22c-0.68-0.04-1.366-0.061-2.059-0.061c-15.728,0-28.478,10.422-28.478,23.28V40.272
		c0-9.654,7.828-17.481,17.482-17.481H85.119z"/>
	<path fill="#BEBEBE" d="M53.027,37.558c0,1.243,0.149,2.449,0.434,3.605c-3.443,3.848-5.477,8.595-5.477,13.729V40.271
		c0-9.239,7.168-16.803,16.245-17.438C57.757,24.688,53.027,30.578,53.027,37.558z"/>
	<path fill="#BEBEBE" d="M80.154,50.084c-3.174,3.26-7.613,5.286-12.525,5.286H52.785c-0.006-0.155-0.007-0.311-0.007-0.467
		c0-3.356,0.846-6.547,2.37-9.429c0.011,0.019,0.022,0.035,0.034,0.053c2.997,4.501,8.507,7.517,14.808,7.517
		C73.792,53.044,77.306,51.945,80.154,50.084z"/>
	<path fill="#E1E1E1" d="M13.557,33.324v10.208c0,6.533,5.296,11.829,11.829,11.829H35.43c0.004-0.105,0.005-0.21,0.005-0.316
		c0-8.316-7.68-15.128-17.413-15.711c0.461-0.027,0.925-0.041,1.394-0.041c10.642,0,19.269,7.053,19.269,15.752v-9.893
		c0-6.532-5.297-11.828-11.829-11.828H13.557z"/>
	<path fill="#BEBEBE" d="M35.271,43.318c0,0.84-0.102,1.656-0.293,2.438c2.329,2.604,3.705,5.815,3.705,9.288v-9.893
		c0-6.252-4.851-11.369-10.992-11.799C32.071,34.608,35.271,38.594,35.271,43.318z"/>
	<path fill="#BEBEBE" d="M16.916,51.79c2.148,2.206,5.152,3.594,8.475,3.594h10.045c0.004-0.104,0.004-0.209,0.004-0.315
		c0-2.271-0.572-4.43-1.604-6.379c-0.008,0.012-0.016,0.023-0.023,0.035c-2.027,3.045-5.756,5.086-10.019,5.086
		C21.221,53.811,18.844,53.05,16.916,51.79z"/>
	<path fill="#EFEFEF" d="M86.408,17.044c0,0.711-0.576,1.287-1.288,1.287H64.105c-11.72,0-21.223,9.503-21.223,21.224v15.821h-0.012
		c0,0.81-0.654,1.467-1.461,1.467c-0.808,0-1.463-0.657-1.463-1.467V39.744c0-13.248,10.74-23.987,23.988-23.987H85.12
		C85.832,15.757,86.408,16.334,86.408,17.044z"/>
	<path fill="#E1E1E1" d="M83.102,19.391c0,0.333-0.27,0.603-0.602,0.603H64.347c-11.599-0.015-19.784,9.776-19.603,19.481v13.478
		c0,0.332-0.27,0.602-0.602,0.602s-0.602-0.27-0.602-0.602V39.475c0-11.424,9.262-20.686,20.686-20.686h18.277
		C82.835,18.791,83.102,19.06,83.102,19.391z"/>
	<path fill="#E1E1E1" d="M77.523,21.153c0,0.32-0.26,0.58-0.58,0.58H65.008c-11.189-0.014-18.528,9.153-18.354,18.516v7.425
		c0,0.32-0.261,0.581-0.581,0.581c-0.319,0-0.579-0.261-0.579-0.581v-7.425c0-11.021,8.377-19.678,19.397-19.678h12.056
		C77.266,20.574,77.523,20.833,77.523,21.153z"/>
	<path fill="#FAFAFA" d="M19.057,63.958c-0.16,0-0.316,0.014-0.467,0.042c-0.152,0.027-0.287,0.073-0.403,0.134
		c-0.118,0.062-0.212,0.14-0.282,0.231c-0.071,0.093-0.106,0.204-0.106,0.333c0,0.198,0.049,0.353,0.147,0.464
		c0.1,0.111,0.249,0.208,0.449,0.291c0.201,0.084,0.451,0.167,0.75,0.25s0.649,0.193,1.051,0.329
		c0.512,0.173,0.979,0.384,1.402,0.634c0.422,0.25,0.783,0.543,1.082,0.879c0.301,0.337,0.533,0.715,0.699,1.135
		c0.167,0.42,0.25,0.889,0.25,1.406c0,0.642-0.135,1.23-0.406,1.765c-0.272,0.533-0.635,0.991-1.088,1.373
		c-0.454,0.384-0.977,0.682-1.57,0.895c-0.592,0.213-1.205,0.319-1.842,0.319c-0.543,0-1.059-0.081-1.55-0.241
		s-0.941-0.384-1.352-0.671c-0.411-0.287-0.771-0.629-1.078-1.027c-0.309-0.398-0.55-0.832-0.723-1.301l0.963-0.555
		c0.154-0.087,0.319-0.157,0.495-0.209c0.176-0.053,0.354-0.079,0.533-0.079c0.265,0,0.504,0.056,0.717,0.167
		c0.213,0.11,0.421,0.23,0.625,0.361c0.203,0.129,0.413,0.249,0.629,0.36c0.217,0.111,0.463,0.167,0.74,0.167
		c0.186,0,0.388-0.029,0.607-0.088c0.219-0.059,0.422-0.144,0.61-0.255s0.344-0.248,0.468-0.411c0.123-0.164,0.185-0.354,0.185-0.57
		c0-0.203-0.057-0.369-0.171-0.5c-0.114-0.129-0.268-0.242-0.463-0.338c-0.194-0.095-0.418-0.183-0.671-0.264
		c-0.253-0.08-0.519-0.176-0.796-0.287c-0.457-0.173-0.908-0.36-1.352-0.563c-0.444-0.204-0.843-0.456-1.195-0.755
		c-0.351-0.3-0.637-0.663-0.855-1.093c-0.219-0.429-0.328-0.96-0.328-1.597c0-0.598,0.121-1.131,0.365-1.597
		c0.244-0.465,0.566-0.859,0.967-1.18c0.401-0.321,0.859-0.566,1.375-0.736s1.045-0.254,1.588-0.254
		c0.395,0,0.779,0.066,1.152,0.198c0.373,0.133,0.727,0.306,1.061,0.519c0.332,0.213,0.645,0.455,0.934,0.727
		c0.291,0.271,0.553,0.549,0.787,0.833l-0.935,0.786c-0.185,0.161-0.378,0.275-0.578,0.344c-0.201,0.067-0.425,0.101-0.672,0.101
		c-0.197,0-0.37-0.023-0.519-0.073c-0.147-0.05-0.287-0.104-0.416-0.162s-0.26-0.112-0.389-0.162
		C19.353,63.983,19.211,63.958,19.057,63.958z"/>
	<path fill="#FAFAFA" d="M29.295,74.316h-3.037V61.052h3.037V74.316z"/>
	<path fill="#FAFAFA" d="M45.225,74.316h-3.008l-6.342-9.174v9.174h-3.018V61.052h2.981c0.296,0,0.558,0.044,0.786,0.13
		s0.404,0.219,0.528,0.398l4.638,6.794c0.068,0.099,0.126,0.207,0.176,0.323c0.049,0.118,0.093,0.228,0.13,0.329
		c0.036,0.102,0.064,0.19,0.083,0.264c0.019,0.074,0.027,0.12,0.027,0.139v-8.377h3.018V74.316z"/>
	<path fill="#FAFAFA" d="M57.12,62.227c0.08-0.185,0.185-0.35,0.314-0.495c0.13-0.145,0.274-0.268,0.435-0.369
		c0.16-0.103,0.335-0.18,0.523-0.231c0.188-0.053,0.385-0.079,0.588-0.079h1.963l-5.795,13.265h-2.611l-5.795-13.265h1.954
		c0.19,0,0.383,0.029,0.573,0.088c0.191,0.059,0.371,0.143,0.537,0.25c0.167,0.108,0.316,0.232,0.449,0.375
		c0.133,0.142,0.236,0.296,0.311,0.462l3.018,6.935c0.043,0.099,0.078,0.208,0.106,0.329c0.028,0.12,0.054,0.232,0.079,0.337
		c0.023,0.123,0.045,0.247,0.064,0.37c0.006-0.116,0.021-0.234,0.046-0.352c0.019-0.104,0.043-0.216,0.073-0.333
		c0.031-0.117,0.072-0.229,0.121-0.333L57.12,62.227z"/>
	<path fill="#FAFAFA" d="M71.218,74.316h-8.831V61.052h8.831v2.833h-5.804v2.323h4.721v2.832h-4.721v2.444h5.804V74.316z"/>
	<path fill="#FAFAFA" d="M77.003,74.316h-3.026V61.052h5.202c0.499,0,0.96,0.064,1.384,0.194c0.422,0.13,0.805,0.305,1.147,0.522
		c0.343,0.22,0.646,0.479,0.907,0.778s0.481,0.62,0.657,0.963c0.176,0.342,0.309,0.695,0.397,1.06
		c0.09,0.364,0.135,0.726,0.135,1.083c0,0.352-0.038,0.702-0.115,1.051c-0.078,0.349-0.199,0.689-0.365,1.022
		c-0.167,0.334-0.383,0.652-0.648,0.959c-0.266,0.305-0.586,0.591-0.963,0.856l3.536,4.775h-2.527h-0.056
		c-0.055,0-0.149-0.009-0.281-0.027c-0.133-0.019-0.283-0.062-0.449-0.13c-0.168-0.067-0.343-0.17-0.528-0.306
		c-0.185-0.135-0.36-0.323-0.527-0.563l-2.222-3.009h-1.657V74.316z M79.336,67.235c0.186,0,0.363-0.046,0.537-0.139
		c0.172-0.093,0.325-0.213,0.458-0.361c0.132-0.147,0.239-0.316,0.319-0.505c0.08-0.188,0.12-0.378,0.12-0.568
		c0-0.191-0.04-0.382-0.12-0.569c-0.08-0.188-0.188-0.356-0.319-0.505c-0.133-0.147-0.286-0.269-0.458-0.361
		c-0.174-0.093-0.352-0.139-0.537-0.139h-2.333v3.147H79.336z"/>
	<path fill="#FAFAFA" d="M15.564,76.862l-0.227,0.235c-0.189-0.184-0.375-0.275-0.555-0.275c-0.115,0-0.214,0.038-0.295,0.113
		c-0.082,0.075-0.123,0.164-0.123,0.265c0,0.09,0.033,0.175,0.102,0.255c0.066,0.083,0.209,0.18,0.424,0.291
		c0.264,0.137,0.443,0.269,0.537,0.394c0.094,0.129,0.14,0.272,0.14,0.432c0,0.226-0.079,0.417-0.238,0.573
		c-0.158,0.157-0.356,0.235-0.594,0.235c-0.159,0-0.31-0.034-0.454-0.104s-0.264-0.164-0.357-0.285l0.222-0.253
		c0.181,0.204,0.372,0.306,0.575,0.306c0.141,0,0.262-0.046,0.361-0.137s0.149-0.197,0.149-0.32c0-0.101-0.033-0.191-0.099-0.271
		c-0.066-0.077-0.215-0.175-0.445-0.292c-0.248-0.128-0.417-0.255-0.506-0.379c-0.09-0.125-0.135-0.268-0.135-0.427
		c0-0.209,0.071-0.383,0.214-0.521s0.322-0.207,0.54-0.207C15.054,76.491,15.309,76.615,15.564,76.862z"/>
	<path fill="#FAFAFA" d="M18.008,76.491c0.424,0,0.774,0.153,1.053,0.46c0.253,0.279,0.379,0.609,0.379,0.992
		s-0.133,0.719-0.4,1.006s-0.611,0.431-1.031,0.431c-0.421,0-0.766-0.144-1.033-0.431s-0.4-0.623-0.4-1.006
		c0-0.381,0.127-0.711,0.379-0.99C17.232,76.646,17.583,76.491,18.008,76.491z M18.007,76.837c-0.294,0-0.546,0.108-0.758,0.326
		c-0.211,0.217-0.316,0.479-0.316,0.787c0,0.199,0.048,0.385,0.145,0.556c0.097,0.172,0.226,0.305,0.39,0.397
		c0.164,0.095,0.344,0.141,0.54,0.141s0.376-0.046,0.54-0.141c0.164-0.093,0.294-0.226,0.391-0.397
		c0.096-0.171,0.144-0.356,0.144-0.556c0-0.308-0.105-0.57-0.317-0.787C18.551,76.945,18.299,76.837,18.007,76.837z"/>
	<path fill="#FAFAFA" d="M20.559,75.502h0.354v3.807h-0.354V75.502z"/>
	<path fill="#FAFAFA" d="M22.118,76.562h0.354v1.282c0,0.313,0.017,0.528,0.051,0.646c0.05,0.169,0.147,0.302,0.29,0.399
		c0.143,0.097,0.312,0.146,0.509,0.146s0.364-0.048,0.502-0.144c0.138-0.095,0.232-0.22,0.284-0.375
		c0.035-0.105,0.054-0.33,0.054-0.674v-1.282h0.36v1.348c0,0.379-0.043,0.664-0.132,0.856c-0.089,0.191-0.222,0.342-0.399,0.45
		s-0.4,0.163-0.668,0.163s-0.49-0.055-0.67-0.163s-0.313-0.26-0.402-0.454c-0.088-0.194-0.132-0.487-0.132-0.878V76.562z"/>
	<path fill="#FAFAFA" d="M28.49,77.132l-0.279,0.175c-0.242-0.321-0.572-0.482-0.992-0.482c-0.334,0-0.611,0.107-0.833,0.323
		c-0.222,0.215-0.331,0.477-0.331,0.784c0,0.2,0.051,0.389,0.152,0.565s0.241,0.312,0.418,0.411
		c0.178,0.098,0.377,0.146,0.598,0.146c0.402,0,0.732-0.16,0.988-0.482l0.279,0.185c-0.131,0.198-0.307,0.352-0.528,0.46
		c-0.222,0.109-0.474,0.164-0.757,0.164c-0.434,0-0.794-0.139-1.08-0.414c-0.286-0.276-0.43-0.612-0.43-1.008
		c0-0.266,0.066-0.513,0.201-0.741c0.133-0.228,0.317-0.406,0.552-0.533c0.233-0.129,0.495-0.192,0.785-0.192
		c0.182,0,0.357,0.027,0.526,0.083c0.17,0.057,0.312,0.128,0.431,0.218C28.309,76.881,28.408,76.995,28.49,77.132z"/>
	<path fill="#FAFAFA" d="M29.81,75.431c0.081,0,0.149,0.028,0.206,0.086c0.057,0.057,0.086,0.126,0.086,0.207
		c0,0.079-0.029,0.147-0.086,0.204c-0.057,0.058-0.125,0.087-0.206,0.087c-0.079,0-0.147-0.029-0.204-0.087
		c-0.057-0.057-0.084-0.125-0.084-0.204c0-0.081,0.027-0.15,0.084-0.207C29.662,75.459,29.73,75.431,29.81,75.431z M29.635,76.562
		h0.354v2.746h-0.354V76.562z"/>
	<path fill="#FAFAFA" d="M32.54,76.491c0.423,0,0.774,0.153,1.052,0.46c0.254,0.279,0.381,0.609,0.381,0.992
		s-0.135,0.719-0.402,1.006c-0.267,0.287-0.61,0.431-1.03,0.431c-0.421,0-0.767-0.144-1.033-0.431s-0.401-0.623-0.401-1.006
		c0-0.381,0.127-0.711,0.38-0.99C31.764,76.646,32.115,76.491,32.54,76.491z M32.539,76.837c-0.294,0-0.547,0.108-0.758,0.326
		c-0.211,0.217-0.316,0.479-0.316,0.787c0,0.199,0.048,0.385,0.145,0.556c0.096,0.172,0.227,0.305,0.39,0.397
		c0.164,0.095,0.344,0.141,0.54,0.141c0.195,0,0.375-0.046,0.539-0.141c0.164-0.093,0.295-0.226,0.391-0.397
		c0.096-0.171,0.145-0.356,0.145-0.556c0-0.308-0.105-0.57-0.318-0.787C33.083,76.945,32.831,76.837,32.539,76.837z"/>
	<path fill="#FAFAFA" d="M35.143,76.562h0.354v0.492c0.142-0.189,0.299-0.33,0.471-0.423c0.171-0.094,0.357-0.141,0.561-0.141
		c0.205,0,0.387,0.052,0.547,0.156c0.158,0.105,0.275,0.245,0.352,0.422s0.113,0.452,0.113,0.826v1.413h-0.354v-1.31
		c0-0.317-0.013-0.528-0.039-0.634c-0.041-0.182-0.119-0.318-0.236-0.41c-0.115-0.093-0.268-0.138-0.453-0.138
		c-0.215,0-0.406,0.07-0.576,0.212c-0.168,0.142-0.279,0.316-0.334,0.525c-0.033,0.136-0.051,0.385-0.051,0.747v1.007h-0.354V76.562
		z"/>
	<path fill="#FAFAFA" d="M41.127,78.397l0.298,0.157c-0.098,0.191-0.21,0.347-0.339,0.464c-0.128,0.118-0.271,0.207-0.432,0.27
		c-0.16,0.061-0.342,0.092-0.544,0.092c-0.448,0-0.798-0.146-1.052-0.44c-0.252-0.294-0.379-0.626-0.379-0.996
		c0-0.349,0.107-0.659,0.321-0.933c0.271-0.347,0.634-0.52,1.089-0.52c0.469,0,0.844,0.178,1.123,0.532
		c0.199,0.252,0.299,0.564,0.303,0.939h-2.473c0.008,0.319,0.109,0.581,0.307,0.785s0.441,0.306,0.73,0.306
		c0.141,0,0.276-0.023,0.408-0.072c0.133-0.049,0.245-0.113,0.338-0.194C40.919,78.707,41.02,78.577,41.127,78.397z M41.127,77.657
		c-0.047-0.188-0.116-0.339-0.206-0.451c-0.091-0.113-0.21-0.204-0.358-0.273s-0.304-0.104-0.467-0.104
		c-0.27,0-0.502,0.087-0.695,0.261c-0.143,0.126-0.249,0.315-0.321,0.567H41.127z"/>
	<path fill="#FAFAFA" d="M44.073,76.862l-0.228,0.235c-0.189-0.184-0.373-0.275-0.555-0.275c-0.114,0-0.213,0.038-0.295,0.113
		c-0.081,0.075-0.122,0.164-0.122,0.265c0,0.09,0.034,0.175,0.101,0.255c0.068,0.083,0.209,0.18,0.426,0.291
		c0.263,0.137,0.441,0.269,0.536,0.394c0.093,0.129,0.14,0.272,0.14,0.432c0,0.226-0.08,0.417-0.238,0.573
		c-0.158,0.157-0.356,0.235-0.594,0.235c-0.159,0-0.311-0.034-0.455-0.104c-0.144-0.069-0.263-0.164-0.357-0.285l0.223-0.253
		c0.181,0.204,0.372,0.306,0.574,0.306c0.143,0,0.263-0.046,0.361-0.137c0.1-0.091,0.15-0.197,0.15-0.32
		c0-0.101-0.033-0.191-0.1-0.271c-0.065-0.077-0.214-0.175-0.445-0.292c-0.248-0.128-0.416-0.255-0.506-0.379
		c-0.09-0.125-0.134-0.268-0.134-0.427c0-0.209,0.071-0.383,0.214-0.521s0.322-0.207,0.54-0.207
		C43.562,76.491,43.816,76.615,44.073,76.862z"/>
	<path fill="#FAFAFA" d="M49.908,75.502v3.807h-0.35v-0.472c-0.147,0.181-0.314,0.315-0.498,0.406
		c-0.185,0.091-0.386,0.137-0.605,0.137c-0.389,0-0.721-0.142-0.996-0.423c-0.274-0.281-0.412-0.625-0.412-1.029
		c0-0.395,0.139-0.733,0.416-1.015c0.278-0.281,0.612-0.422,1.003-0.422c0.226,0,0.43,0.049,0.612,0.144
		c0.183,0.096,0.344,0.24,0.48,0.432v-1.564H49.908z M48.495,76.832c-0.196,0-0.378,0.048-0.545,0.146
		c-0.167,0.097-0.3,0.232-0.397,0.407c-0.099,0.175-0.147,0.359-0.147,0.555c0,0.193,0.05,0.378,0.149,0.555
		c0.099,0.177,0.232,0.314,0.398,0.412c0.168,0.099,0.348,0.147,0.539,0.147c0.193,0,0.377-0.048,0.55-0.146
		c0.173-0.099,0.306-0.23,0.399-0.396c0.094-0.167,0.141-0.354,0.141-0.563c0-0.317-0.105-0.583-0.314-0.797
		C49.059,76.939,48.801,76.832,48.495,76.832z"/>
	<path fill="#FAFAFA" d="M53.538,78.397l0.298,0.157c-0.098,0.191-0.211,0.347-0.339,0.464c-0.128,0.118-0.272,0.207-0.432,0.27
		c-0.16,0.061-0.341,0.092-0.544,0.092c-0.447,0-0.798-0.146-1.051-0.44s-0.379-0.626-0.379-0.996c0-0.349,0.106-0.659,0.32-0.933
		c0.271-0.347,0.635-0.52,1.09-0.52c0.469,0,0.842,0.178,1.122,0.532c0.198,0.252,0.3,0.564,0.303,0.939h-2.472
		c0.007,0.319,0.108,0.581,0.306,0.785s0.44,0.306,0.73,0.306c0.14,0,0.276-0.023,0.408-0.072c0.133-0.049,0.245-0.113,0.338-0.194
		C53.33,78.707,53.43,78.577,53.538,78.397z M53.538,77.657c-0.048-0.188-0.116-0.339-0.206-0.451
		c-0.09-0.113-0.209-0.204-0.357-0.273s-0.305-0.104-0.468-0.104c-0.271,0-0.501,0.087-0.695,0.261
		c-0.142,0.126-0.249,0.315-0.321,0.567H53.538z"/>
	<path fill="#FAFAFA" d="M59.789,76.562v2.746h-0.348v-0.472c-0.148,0.181-0.314,0.315-0.499,0.406s-0.386,0.137-0.604,0.137
		c-0.39,0-0.721-0.142-0.996-0.423s-0.414-0.625-0.414-1.029c0-0.395,0.14-0.733,0.417-1.015c0.278-0.281,0.612-0.422,1.003-0.422
		c0.225,0,0.43,0.049,0.612,0.144c0.183,0.096,0.343,0.24,0.481,0.432v-0.504H59.789z M58.377,76.832
		c-0.197,0-0.379,0.048-0.545,0.146c-0.166,0.097-0.299,0.232-0.397,0.407s-0.147,0.359-0.147,0.555c0,0.193,0.05,0.378,0.148,0.555
		c0.1,0.177,0.232,0.314,0.4,0.412c0.166,0.099,0.347,0.147,0.538,0.147c0.193,0,0.376-0.048,0.55-0.146
		c0.173-0.099,0.307-0.23,0.4-0.396c0.093-0.167,0.14-0.354,0.14-0.563c0-0.317-0.104-0.583-0.313-0.797
		C58.94,76.939,58.683,76.832,58.377,76.832z"/>
	<path fill="#FAFAFA" d="M61.049,75.502h0.354v3.807h-0.354V75.502z"/>
	<path fill="#FAFAFA" d="M62.963,75.542h0.354v1.021h0.561v0.305h-0.561v2.441h-0.354v-2.441H62.48v-0.305h0.482V75.542z"/>
	<path fill="#FAFAFA" d="M66.225,76.491c0.423,0,0.773,0.153,1.052,0.46c0.253,0.279,0.38,0.609,0.38,0.992
		s-0.134,0.719-0.402,1.006c-0.267,0.287-0.61,0.431-1.029,0.431c-0.422,0-0.767-0.144-1.033-0.431
		c-0.268-0.287-0.401-0.623-0.401-1.006c0-0.381,0.126-0.711,0.38-0.99C65.447,76.646,65.799,76.491,66.225,76.491z M66.223,76.837
		c-0.294,0-0.547,0.108-0.758,0.326c-0.211,0.217-0.316,0.479-0.316,0.787c0,0.199,0.048,0.385,0.145,0.556
		c0.096,0.172,0.227,0.305,0.391,0.397c0.163,0.095,0.344,0.141,0.539,0.141c0.196,0,0.376-0.046,0.54-0.141
		c0.163-0.093,0.294-0.226,0.39-0.397c0.097-0.171,0.145-0.356,0.145-0.556c0-0.308-0.105-0.57-0.318-0.787
		C66.768,76.945,66.516,76.837,66.223,76.837z"/>
	<path fill="#FAFAFA" d="M70.516,76.562h0.377l0.922,2.002l0.91-2.002h0.379l-1.257,2.746h-0.065L70.516,76.562z"/>
	<path fill="#FAFAFA" d="M76.896,76.562v2.746h-0.35v-0.472c-0.147,0.181-0.314,0.315-0.498,0.406s-0.386,0.137-0.604,0.137
		c-0.389,0-0.722-0.142-0.996-0.423c-0.275-0.281-0.413-0.625-0.413-1.029c0-0.395,0.139-0.733,0.416-1.015
		c0.278-0.281,0.612-0.422,1.003-0.422c0.226,0,0.43,0.049,0.612,0.144c0.183,0.096,0.344,0.24,0.48,0.432v-0.504H76.896z
		 M75.483,76.832c-0.196,0-0.378,0.048-0.545,0.146c-0.167,0.097-0.299,0.232-0.397,0.407c-0.098,0.175-0.147,0.359-0.147,0.555
		c0,0.193,0.05,0.378,0.149,0.555c0.099,0.177,0.232,0.314,0.398,0.412c0.168,0.099,0.348,0.147,0.539,0.147
		c0.193,0,0.377-0.048,0.55-0.146c0.174-0.099,0.307-0.23,0.4-0.396c0.093-0.167,0.14-0.354,0.14-0.563
		c0-0.317-0.104-0.583-0.314-0.797C76.047,76.939,75.789,76.832,75.483,76.832z"/>
	<path fill="#FAFAFA" d="M78.156,75.502h0.354v3.807h-0.354V75.502z"/>
	<path fill="#FAFAFA" d="M81.062,76.491c0.423,0,0.774,0.153,1.052,0.46c0.254,0.279,0.38,0.609,0.38,0.992
		s-0.134,0.719-0.401,1.006s-0.61,0.431-1.03,0.431c-0.421,0-0.767-0.144-1.033-0.431c-0.268-0.287-0.401-0.623-0.401-1.006
		c0-0.381,0.127-0.711,0.379-0.99C80.285,76.646,80.637,76.491,81.062,76.491z M81.061,76.837c-0.295,0-0.547,0.108-0.758,0.326
		c-0.211,0.217-0.316,0.479-0.316,0.787c0,0.199,0.047,0.385,0.145,0.556c0.096,0.172,0.226,0.305,0.39,0.397
		c0.163,0.095,0.344,0.141,0.54,0.141c0.195,0,0.375-0.046,0.539-0.141c0.164-0.093,0.295-0.226,0.391-0.397
		c0.096-0.171,0.145-0.356,0.145-0.556c0-0.308-0.105-0.57-0.318-0.787C81.604,76.945,81.353,76.837,81.061,76.837z"/>
	<path fill="#FAFAFA" d="M83.53,76.562h0.361v0.401c0.107-0.158,0.222-0.276,0.341-0.355c0.119-0.078,0.244-0.117,0.373-0.117
		c0.099,0,0.203,0.031,0.313,0.094l-0.185,0.298c-0.074-0.032-0.136-0.048-0.186-0.048c-0.119,0-0.232,0.048-0.342,0.146
		c-0.109,0.097-0.193,0.246-0.25,0.45c-0.044,0.157-0.065,0.473-0.065,0.949v0.929H83.53V76.562z"/>
</g>
<g id="Capa_5">
</g>
<g id="Capa_8">
</g>
<g id="Capa_2">
</g>
<g id="Capa_3">
</g>
</svg>
