<?xml version="1.0" encoding="utf-8"?>
<!-- Generator: Adobe Illustrator 16.0.0, SVG Export Plug-In . SVG Version: 6.00 Build 0)  -->
<!DOCTYPE svg PUBLIC "-//W3C//DTD SVG 1.1//EN" "http://www.w3.org/Graphics/SVG/1.1/DTD/svg11.dtd">
<svg version="1.1" xmlns="http://www.w3.org/2000/svg" xmlns:xlink="http://www.w3.org/1999/xlink" x="0px" y="0px" width="100px"
	 height="100px" viewBox="0 0 100 100" enable-background="new 0 0 100 100" xml:space="preserve">
<g id="Capa_4">
</g>
<g id="Capa_6">
</g>
<g id="Capa_7">
</g>
<g id="Capa_1">
	<g>
		<g>
			<path fill="#F2F2F2" d="M31.803,30.525l6.938,12.21c-1.86,1.138-3.527,2.567-4.937,4.227l-0.969-1.707
				c-0.173-0.303-0.484-0.469-0.805-0.469c-0.156,0-0.316,0.039-0.463,0.126c-0.444,0.257-0.594,0.836-0.34,1.288l1.346,2.364
				c-1.809,2.601-3.042,5.644-3.51,8.938c-1.887-3.404-2.961-7.333-2.961-11.518c0-2.433,0.362-4.779,1.038-6.984l2.008,3.534
				c0.256,0.453,0.826,0.607,1.27,0.345c0.444-0.26,0.595-0.837,0.337-1.289l-2.778-4.892C28.933,34.436,30.23,32.355,31.803,30.525
				z"/>
			<path fill="#F2F2F2" d="M65.216,39.275l6.625,11.662c-0.494,2.338-1.329,4.546-2.451,6.567c-0.88-6.186-4.452-11.489-9.472-14.64
				l-7.782-13.7c-0.171-0.3-0.483-0.472-0.806-0.472c-0.156,0-0.317,0.04-0.461,0.126c-0.445,0.263-0.598,0.84-0.342,1.289
				L56.887,41.3c-2.366-0.978-4.949-1.514-7.658-1.514c-0.181,0-0.358,0.004-0.535,0.006l-1.054-1.853
				c-0.173-0.303-0.483-0.472-0.803-0.472c-0.158,0-0.318,0.041-0.464,0.126c-0.444,0.259-0.596,0.837-0.34,1.289l0.608,1.071
				c-2.22,0.285-4.329,0.933-6.266,1.884l-7.236-12.739c1.53-1.508,3.264-2.802,5.157-3.834l5.654,9.955
				c0.258,0.451,0.826,0.606,1.268,0.344c0.445-0.26,0.597-0.834,0.341-1.287l-5.587-9.839c1.978-0.88,4.104-1.487,6.328-1.774
				h0.001l2.146,3.782c0.255,0.451,0.822,0.604,1.269,0.345c0.444-0.26,0.596-0.837,0.34-1.289l-1.708-3.007
				c0.292-0.01,0.586-0.017,0.881-0.017c2.47,0,4.852,0.395,7.086,1.126h0.001l6.819,12.007c0.256,0.452,0.824,0.606,1.267,0.346
				c0.444-0.259,0.597-0.838,0.339-1.288l-5.649-9.952c3.92,1.883,7.236,4.851,9.57,8.522c2.338,3.671,3.693,8.047,3.693,12.747
				c0,0.657-0.026,1.305-0.079,1.945l-5.453-9.599c-0.171-0.304-0.482-0.471-0.804-0.471c-0.158,0-0.318,0.04-0.464,0.125
				C65.112,38.247,64.961,38.824,65.216,39.275z"/>
			<path fill="#F2F2F2" d="M27.974,36.699c-0.317,0.747-0.596,1.517-0.836,2.3l-4.874-8.45c-0.256-0.451-0.105-1.028,0.339-1.288
				c0.146-0.088,0.308-0.128,0.464-0.128c0.319,0,0.632,0.169,0.804,0.473L27.974,36.699z"/>
			<path fill="#F2F2F2" d="M33.139,29.098c-0.466,0.456-0.909,0.932-1.335,1.427l-1.375-2.422c-0.256-0.451-0.106-1.027,0.34-1.288
				c0.146-0.087,0.307-0.126,0.464-0.126c0.321,0,0.631,0.167,0.805,0.472L33.139,29.098z"/>
			<path fill="#F2F2F2" d="M39.971,24.437c-0.571,0.252-1.129,0.53-1.675,0.827l-5.328-9.384c-0.258-0.451-0.104-1.028,0.338-1.29
				c0.146-0.084,0.305-0.125,0.463-0.125c0.321,0,0.633,0.169,0.806,0.473L39.971,24.437z"/>
			<path fill="#F2F2F2" d="M48.348,22.493c-0.69,0.027-1.373,0.085-2.047,0.168H46.3l-2.779-4.926
				c-0.257-0.451-0.104-1.028,0.339-1.287c0.146-0.085,0.307-0.126,0.465-0.126c0.319,0,0.632,0.169,0.804,0.471L48.348,22.493z"/>
			<path fill="#F2F2F2" d="M59.092,24.717c-0.896-0.43-1.821-0.804-2.776-1.115h-0.001l-4.165-7.331
				c-0.257-0.45-0.104-1.026,0.342-1.289c0.145-0.085,0.304-0.125,0.46-0.125c0.321,0,0.633,0.169,0.806,0.472L59.092,24.717z"/>
			<path fill="#F2F2F2" d="M75.732,55.919c-0.444,0.261-1.012,0.105-1.268-0.346l-2.623-4.636c0.206-0.982,0.353-1.984,0.436-3.006
				l3.793,6.699C76.327,55.081,76.177,55.656,75.732,55.919z"/>
			<path fill="#F5F5F5" d="M36.849,60.547c0,1.898,0.167,3.755,0.486,5.56c-1.089-3.258-3.743-5.785-7.057-6.661
				c0.001-0.062,0.006-0.123,0.009-0.186c0.006-0.083,0.012-0.163,0.017-0.246c0.008-0.08,0.014-0.163,0.02-0.243
				c0.008-0.09,0.015-0.18,0.027-0.271c0.016-0.153,0.032-0.306,0.051-0.455c0.011-0.083,0.023-0.165,0.032-0.247
				c0.02-0.135,0.038-0.265,0.061-0.398c0.007-0.052,0.015-0.1,0.023-0.15c0.02-0.125,0.042-0.251,0.065-0.373
				c0.06-0.324,0.128-0.648,0.207-0.966c0.036-0.153,0.076-0.31,0.117-0.461c0.033-0.124,0.068-0.25,0.103-0.373
				c0.021-0.073,0.042-0.146,0.065-0.22c0.031-0.106,0.065-0.212,0.099-0.318c0.058-0.185,0.119-0.369,0.184-0.55
				c0.036-0.104,0.075-0.205,0.111-0.307c0.058-0.158,0.12-0.316,0.182-0.473c0.059-0.146,0.119-0.29,0.181-0.433
				c0.06-0.144,0.124-0.286,0.189-0.427c0.033-0.072,0.066-0.142,0.1-0.212c0.101-0.211,0.203-0.42,0.311-0.628
				c0.072-0.136,0.146-0.272,0.218-0.407c0.075-0.136,0.151-0.271,0.23-0.406c0.039-0.066,0.078-0.133,0.118-0.197
				c0.081-0.14,0.166-0.277,0.251-0.413c0.039-0.059,0.077-0.118,0.115-0.18c0.042-0.063,0.084-0.128,0.127-0.193
				c0.041-0.064,0.083-0.127,0.13-0.191c0.041-0.064,0.085-0.127,0.129-0.19c0.047-0.068,0.097-0.138,0.147-0.205
				c0.041-0.057,0.081-0.113,0.123-0.168c0.09-0.126,0.183-0.248,0.278-0.37c0.046-0.062,0.093-0.122,0.141-0.181
				c0.904-1.144,1.936-2.179,3.072-3.085c0.059-0.048,0.12-0.097,0.181-0.142c0.454-0.357,0.927-0.689,1.416-1.004
				c0.06-0.04,0.121-0.077,0.181-0.115c0.104-0.066,0.206-0.129,0.311-0.19c0.061-0.037,0.12-0.072,0.181-0.109
				c0.265-0.153,0.534-0.303,0.806-0.445c0.069-0.037,0.139-0.071,0.207-0.104c0.068-0.035,0.134-0.07,0.201-0.103
				c0.279-0.136,0.56-0.266,0.846-0.387c0.072-0.03,0.143-0.061,0.214-0.09c0.151-0.063,0.304-0.125,0.458-0.183
				C38.945,47.557,36.849,53.803,36.849,60.547z"/>
			<path fill="#E0E0E0" d="M47.645,60.547c0,3.135,0.553,6.142,1.562,8.922c-1.849-2.464-4.768-4.054-8.055-4.054
				c-1.344,0-2.625,0.266-3.799,0.749c-0.007-0.02-0.012-0.037-0.019-0.058c-0.319-1.805-0.486-3.661-0.486-5.56
				c0-6.744,2.096-12.99,5.662-18.096c0.575-0.222,1.162-0.415,1.76-0.579c0.072-0.02,0.142-0.038,0.213-0.055
				c0.123-0.034,0.248-0.065,0.373-0.093c0.073-0.02,0.146-0.036,0.222-0.054c0.127-0.029,0.253-0.056,0.381-0.082
				c0.057-0.012,0.115-0.024,0.173-0.035c0.078-0.017,0.156-0.03,0.233-0.044c0.237-0.043,0.471-0.082,0.712-0.115
				c0.059-0.008,0.119-0.017,0.179-0.025c0.137-0.015,0.276-0.035,0.415-0.047c0.059-0.009,0.117-0.016,0.176-0.021
				c0.104-0.01,0.206-0.02,0.309-0.028c0.051-0.005,0.104-0.01,0.157-0.012c0.227-0.017,0.452-0.031,0.679-0.039
				c0.154-0.005,0.306-0.01,0.46-0.013c0.089-0.001,0.182-0.001,0.274-0.001c0.093,0,0.181,0,0.273,0.001
				c0.153,0.003,0.307,0.008,0.459,0.013c0.228,0.008,0.454,0.022,0.68,0.039c0.051,0.002,0.104,0.007,0.156,0.012
				c0.104,0.008,0.206,0.018,0.309,0.028c0.058,0.005,0.117,0.012,0.176,0.021c0.14,0.012,0.276,0.032,0.416,0.047
				c0.057,0.009,0.114,0.017,0.172,0.025c0.241,0.034,0.479,0.072,0.72,0.115c0.078,0.015,0.154,0.028,0.232,0.044
				c0.05,0.01,0.103,0.019,0.152,0.031c0.061,0.01,0.121,0.022,0.182,0.038c0.076,0.015,0.148,0.032,0.223,0.048
				c0.073,0.018,0.147,0.034,0.222,0.054c0.125,0.027,0.25,0.059,0.372,0.093c0.072,0.018,0.142,0.035,0.214,0.055
				c0.352,0.096,0.7,0.205,1.042,0.319C50.546,46.858,47.645,53.358,47.645,60.547z"/>
			<path fill="#CCCCCC" d="M60.273,60.547c0,1.95,0.287,3.838,0.816,5.614c-1.17-0.482-2.45-0.746-3.788-0.746
				c-3.297,0-6.224,1.602-8.073,4.078c-0.004-0.007-0.014-0.016-0.019-0.022l-0.001-0.002c-1.009-2.78-1.562-5.787-1.562-8.922
				c0-7.188,2.901-13.689,7.581-18.356c0.002,0,0.002,0,0.002,0c0.189,0.065,0.381,0.134,0.57,0.206
				c0.126,0.044,0.249,0.094,0.371,0.141c0.087,0.036,0.172,0.071,0.256,0.105c0.064,0.027,0.128,0.055,0.191,0.082
				c0.284,0.121,0.566,0.251,0.843,0.387c0.068,0.033,0.136,0.068,0.203,0.103c0.345,0.17,0.682,0.356,1.012,0.549
				c0.059,0.037,0.122,0.072,0.183,0.109c0.104,0.062,0.207,0.124,0.31,0.19c0.06,0.038,0.122,0.075,0.182,0.115
				c0.487,0.314,0.96,0.646,1.415,1.004c0.062,0.045,0.122,0.094,0.182,0.142c1.135,0.907,2.166,1.942,3.071,3.085
				c0.046,0.059,0.095,0.119,0.141,0.181c0.033,0.042,0.066,0.084,0.099,0.13C61.758,51.984,60.273,56.089,60.273,60.547z"/>
			<path fill="#B4B5B4" d="M68.177,59.445c-3.334,0.879-6.002,3.433-7.079,6.719c-0.002-0.001-0.007-0.002-0.009-0.003
				c-0.529-1.776-0.816-3.664-0.816-5.614c0-4.458,1.485-8.562,3.983-11.827h0c0.061,0.077,0.121,0.156,0.177,0.239
				c0.042,0.055,0.085,0.111,0.125,0.168c0.14,0.192,0.272,0.389,0.406,0.586c0.041,0.062,0.082,0.125,0.121,0.188
				c0.298,0.457,0.574,0.923,0.83,1.404c0.037,0.068,0.072,0.138,0.109,0.204c0.169,0.331,0.332,0.663,0.484,1.004
				c0.031,0.068,0.061,0.136,0.091,0.208c0.091,0.206,0.177,0.417,0.259,0.626c0.027,0.072,0.055,0.141,0.083,0.213
				c0.026,0.071,0.053,0.144,0.079,0.213c0.027,0.072,0.051,0.143,0.077,0.215c0.026,0.071,0.05,0.142,0.075,0.215
				c0.022,0.071,0.049,0.145,0.072,0.217c0.099,0.304,0.191,0.608,0.277,0.918c0.014,0.061,0.032,0.122,0.045,0.183
				c0.025,0.086,0.045,0.173,0.068,0.262c0.053,0.211,0.101,0.423,0.145,0.638c0.032,0.149,0.062,0.303,0.091,0.456
				c0.016,0.076,0.03,0.153,0.04,0.228c0.029,0.152,0.055,0.306,0.077,0.46c0.012,0.077,0.022,0.155,0.033,0.234
				c0.02,0.155,0.041,0.311,0.06,0.466c0,0.008,0.001,0.016,0.003,0.022c0.014,0.148,0.03,0.299,0.044,0.447
				c0.007,0.079,0.014,0.158,0.02,0.237c0.005,0.079,0.01,0.156,0.017,0.237C68.169,59.284,68.173,59.365,68.177,59.445z"/>
		</g>
		<g>
			<g>
				<g>
					<path fill="#F2F2F2" d="M15.852,85.92c0.018,0.042,0.018,0.081,0,0.121c-0.018,0.04-0.045,0.069-0.085,0.087
						c-0.019,0.007-0.037,0.011-0.056,0.011c-0.032,0-0.061-0.01-0.088-0.026c-0.026-0.02-0.044-0.045-0.058-0.074l-0.275-0.696
						H14.36l-0.275,0.696c-0.016,0.04-0.045,0.07-0.084,0.087c-0.038,0.016-0.078,0.018-0.12,0.003
						c-0.04-0.018-0.067-0.047-0.083-0.087c-0.018-0.04-0.018-0.079-0.001-0.121l0.884-2.234c0.012-0.031,0.032-0.056,0.057-0.073
						c0.026-0.02,0.055-0.028,0.087-0.028c0.033,0,0.062,0.009,0.087,0.028c0.026,0.018,0.045,0.042,0.058,0.073L15.852,85.92z
						 M15.165,85.025l-0.34-0.86l-0.338,0.86H15.165z"/>
					<path fill="#F2F2F2" d="M17.822,85.821c0.042,0,0.079,0.014,0.111,0.046c0.029,0.03,0.045,0.068,0.045,0.111
						c0,0.047-0.016,0.082-0.045,0.112c-0.032,0.031-0.069,0.048-0.111,0.048h-1.121c-0.044,0-0.081-0.017-0.113-0.048
						c-0.03-0.03-0.043-0.065-0.043-0.112v-2.242c0-0.045,0.013-0.082,0.043-0.113c0.032-0.032,0.068-0.046,0.113-0.046
						c0.042,0,0.079,0.014,0.11,0.046c0.028,0.031,0.044,0.068,0.044,0.113v2.085H17.822z"/>
					<path fill="#F2F2F2" d="M20.004,83.584c0.042,0,0.08,0.016,0.11,0.048c0.03,0.031,0.048,0.067,0.048,0.112
						c0,0.042-0.018,0.079-0.048,0.11c-0.03,0.033-0.068,0.049-0.11,0.049h-0.539v2.075c0,0.047-0.014,0.082-0.045,0.112
						c-0.031,0.031-0.067,0.048-0.111,0.048c-0.042,0-0.079-0.017-0.11-0.048c-0.03-0.03-0.044-0.065-0.044-0.112v-2.075h-0.538
						c-0.042,0-0.08-0.016-0.111-0.049c-0.03-0.031-0.045-0.068-0.045-0.11c0-0.045,0.015-0.081,0.045-0.112
						c0.031-0.032,0.068-0.048,0.111-0.048H20.004z"/>
					<path fill="#F2F2F2" d="M22.525,85.92c0.016,0.042,0.016,0.081,0,0.121c-0.018,0.04-0.047,0.069-0.087,0.087
						c-0.018,0.007-0.039,0.011-0.057,0.011c-0.032,0-0.061-0.01-0.086-0.026c-0.028-0.02-0.046-0.045-0.06-0.074l-0.275-0.696
						h-0.929l-0.275,0.696c-0.016,0.04-0.043,0.07-0.082,0.087c-0.042,0.016-0.082,0.018-0.121,0.003
						c-0.039-0.018-0.068-0.047-0.086-0.087c-0.015-0.04-0.016-0.079-0.002-0.121l0.887-2.234c0.01-0.031,0.032-0.056,0.06-0.073
						c0.022-0.02,0.051-0.028,0.083-0.028c0.033,0,0.062,0.009,0.087,0.028c0.027,0.018,0.047,0.042,0.059,0.073L22.525,85.92z
						 M21.836,85.025l-0.341-0.86l-0.339,0.86H21.836z"/>
					<path fill="#F2F2F2" d="M25.249,85.052v0.927c0,0.047-0.015,0.083-0.045,0.112c-0.031,0.031-0.067,0.048-0.11,0.048
						c-0.042,0-0.08-0.017-0.111-0.048c-0.03-0.029-0.046-0.065-0.046-0.112v-2.234c0-0.045,0.016-0.082,0.046-0.113
						c0.031-0.031,0.068-0.047,0.111-0.047h0.66c0.087,0,0.171,0.021,0.253,0.06c0.078,0.036,0.147,0.088,0.208,0.157
						c0.127,0.143,0.191,0.316,0.191,0.518c0,0.203-0.064,0.377-0.191,0.52c-0.06,0.069-0.129,0.12-0.208,0.156
						c-0.082,0.04-0.166,0.058-0.253,0.058H25.249z M25.753,84.737c0.092,0,0.171-0.04,0.239-0.125
						c0.067-0.083,0.102-0.181,0.102-0.294c0-0.111-0.034-0.21-0.102-0.293c-0.068-0.083-0.147-0.123-0.239-0.123h-0.504v0.835
						H25.753z"/>
					<path fill="#F2F2F2" d="M28.591,84.271v0.042c0,0.205-0.054,0.365-0.166,0.483c-0.108,0.114-0.267,0.185-0.477,0.211
						l0.612,0.884c0.019,0.026,0.028,0.058,0.028,0.09c0,0.01,0,0.02-0.001,0.027c-0.007,0.044-0.029,0.078-0.063,0.102
						c-0.026,0.02-0.056,0.029-0.088,0.029c-0.055,0-0.098-0.022-0.128-0.066l-0.773-1.12c-0.02-0.029-0.03-0.059-0.03-0.089
						c0-0.025,0.006-0.052,0.018-0.074c0.029-0.055,0.075-0.084,0.137-0.084c0.281,0,0.461-0.043,0.542-0.13
						c0.054-0.055,0.079-0.144,0.079-0.263v-0.029c-0.004-0.102-0.032-0.188-0.083-0.258c-0.061-0.082-0.149-0.122-0.26-0.122
						h-0.503v2.077c0,0.045-0.016,0.081-0.046,0.11c-0.031,0.031-0.068,0.048-0.109,0.048c-0.044,0-0.081-0.017-0.111-0.048
						c-0.03-0.029-0.045-0.065-0.045-0.11v-2.236c0-0.045,0.015-0.081,0.045-0.112c0.03-0.032,0.067-0.048,0.111-0.048h0.659
						c0.202,0,0.363,0.076,0.486,0.221C28.53,83.933,28.584,84.089,28.591,84.271z"/>
					<path fill="#F2F2F2" d="M30.424,83.584c0.34,0,0.63,0.127,0.874,0.376c0.24,0.25,0.36,0.55,0.36,0.903
						c0,0.353-0.121,0.653-0.36,0.9c-0.244,0.25-0.534,0.375-0.874,0.375c-0.34,0-0.631-0.125-0.872-0.375
						c-0.243-0.247-0.362-0.548-0.362-0.9c0-0.354,0.12-0.653,0.362-0.903C29.793,83.711,30.084,83.584,30.424,83.584z
						 M30.424,85.821c0.254,0,0.473-0.093,0.652-0.278c0.18-0.189,0.271-0.416,0.271-0.68c0-0.266-0.091-0.492-0.271-0.679
						c-0.179-0.188-0.398-0.281-0.652-0.281c-0.255,0-0.472,0.093-0.653,0.281c-0.181,0.187-0.271,0.413-0.271,0.679
						c0,0.264,0.091,0.49,0.271,0.68C29.952,85.729,30.169,85.821,30.424,85.821z"/>
					<path fill="#F2F2F2" d="M33.768,83.584c0.043,0,0.08,0.016,0.111,0.048c0.03,0.031,0.044,0.067,0.044,0.112
						c0,0.042-0.014,0.079-0.044,0.11c-0.031,0.033-0.068,0.049-0.111,0.049h-0.538v2.075c0,0.047-0.015,0.082-0.045,0.112
						c-0.031,0.031-0.066,0.048-0.11,0.048c-0.042,0-0.079-0.017-0.109-0.048c-0.03-0.03-0.046-0.065-0.046-0.112v-2.075h-0.536
						c-0.045,0-0.081-0.016-0.112-0.049c-0.03-0.031-0.043-0.068-0.043-0.11c0-0.045,0.014-0.081,0.043-0.112
						c0.031-0.032,0.067-0.048,0.112-0.048H33.768z"/>
					<path fill="#F2F2F2" d="M34.901,83.896v0.802h0.876c0.044,0,0.08,0.013,0.111,0.045c0.031,0.031,0.046,0.068,0.046,0.112
						s-0.015,0.081-0.046,0.112c-0.031,0.03-0.067,0.046-0.111,0.046h-0.876v0.809h1.045c0.042,0,0.078,0.014,0.109,0.046
						c0.03,0.03,0.045,0.068,0.045,0.111c0,0.047-0.015,0.082-0.045,0.112c-0.031,0.031-0.067,0.048-0.109,0.048h-1.202
						c-0.042,0-0.078-0.017-0.109-0.048c-0.03-0.03-0.044-0.065-0.044-0.112v-2.242c0-0.045,0.014-0.082,0.044-0.113
						c0.031-0.032,0.068-0.046,0.109-0.046h1.202c0.042,0,0.078,0.014,0.109,0.046c0.03,0.031,0.045,0.068,0.045,0.113
						c0,0.043-0.015,0.08-0.045,0.11c-0.031,0.031-0.067,0.049-0.109,0.049H34.901z"/>
					<path fill="#F2F2F2" d="M38.025,83.903c-0.254,0-0.472,0.093-0.651,0.281c-0.182,0.187-0.271,0.413-0.271,0.679
						c0,0.264,0.089,0.49,0.271,0.68c0.179,0.186,0.396,0.278,0.651,0.278c0.153,0,0.298-0.036,0.433-0.109
						c0.137-0.076,0.248-0.181,0.333-0.311c0.022-0.039,0.056-0.061,0.098-0.068c0.012-0.003,0.023-0.005,0.033-0.005
						c0.03,0,0.058,0.01,0.083,0.027c0.036,0.024,0.058,0.058,0.066,0.101c0.002,0.013,0.004,0.023,0.004,0.033
						c0,0.032-0.009,0.06-0.025,0.087c-0.115,0.176-0.264,0.314-0.443,0.414c-0.183,0.099-0.376,0.148-0.582,0.148
						c-0.341,0-0.631-0.125-0.871-0.375c-0.241-0.247-0.363-0.548-0.363-0.9c0-0.354,0.122-0.653,0.363-0.903
						c0.24-0.249,0.53-0.376,0.871-0.376c0.206,0,0.399,0.052,0.582,0.152c0.18,0.1,0.329,0.237,0.443,0.413
						c0.017,0.028,0.026,0.058,0.026,0.086c0,0.011-0.001,0.021-0.003,0.033c-0.009,0.043-0.031,0.076-0.067,0.102
						c-0.026,0.016-0.055,0.023-0.083,0.023c-0.012,0-0.023-0.001-0.035-0.003c-0.042-0.007-0.075-0.029-0.098-0.068
						c-0.085-0.131-0.196-0.233-0.333-0.309C38.323,83.938,38.178,83.903,38.025,83.903z"/>
					<path fill="#F2F2F2" d="M41.006,83.903c-0.257,0-0.473,0.093-0.652,0.281c-0.182,0.187-0.271,0.413-0.271,0.679
						c0,0.264,0.089,0.49,0.271,0.68c0.179,0.186,0.396,0.278,0.652,0.278c0.152,0,0.296-0.036,0.432-0.109
						c0.136-0.076,0.246-0.181,0.333-0.311c0.022-0.039,0.056-0.061,0.099-0.068c0.01-0.003,0.021-0.005,0.032-0.005
						c0.03,0,0.058,0.01,0.083,0.027c0.037,0.024,0.059,0.058,0.066,0.101c0.002,0.013,0.002,0.023,0.002,0.033
						c0,0.032-0.007,0.06-0.023,0.087c-0.116,0.176-0.264,0.314-0.445,0.414c-0.182,0.099-0.376,0.148-0.58,0.148
						c-0.34,0-0.631-0.125-0.873-0.375c-0.242-0.247-0.361-0.548-0.361-0.9c0-0.354,0.12-0.653,0.361-0.903
						c0.242-0.249,0.533-0.376,0.873-0.376c0.204,0,0.397,0.052,0.58,0.152c0.181,0.1,0.329,0.237,0.445,0.413
						c0.017,0.028,0.025,0.058,0.025,0.086c0,0.011-0.002,0.021-0.003,0.033c-0.008,0.043-0.029,0.076-0.066,0.102
						c-0.025,0.016-0.054,0.023-0.082,0.023c-0.013,0-0.025-0.001-0.035-0.003c-0.043-0.007-0.077-0.029-0.099-0.068
						c-0.087-0.131-0.197-0.233-0.333-0.309C41.303,83.938,41.159,83.903,41.006,83.903z"/>
					<path fill="#F2F2F2" d="M42.975,83.577c0.042,0,0.078,0.014,0.109,0.046c0.031,0.031,0.045,0.068,0.045,0.113v2.242
						c0,0.047-0.014,0.082-0.045,0.112c-0.032,0.031-0.068,0.048-0.109,0.048c-0.044,0-0.082-0.017-0.113-0.048
						c-0.03-0.03-0.044-0.065-0.044-0.112v-2.242c0-0.045,0.014-0.082,0.044-0.113C42.894,83.591,42.931,83.577,42.975,83.577z"/>
					<path fill="#F2F2F2" d="M45.13,83.584c0.34,0,0.632,0.127,0.873,0.376c0.239,0.25,0.36,0.55,0.36,0.903
						c0,0.353-0.122,0.653-0.36,0.9c-0.241,0.25-0.533,0.375-0.873,0.375c-0.342,0-0.632-0.125-0.873-0.375
						c-0.242-0.247-0.362-0.548-0.362-0.9c0-0.354,0.12-0.653,0.362-0.903C44.498,83.711,44.789,83.584,45.13,83.584z M45.13,85.821
						c0.254,0,0.472-0.093,0.65-0.278c0.182-0.189,0.273-0.416,0.273-0.68c0-0.266-0.091-0.492-0.273-0.679
						c-0.178-0.188-0.396-0.281-0.65-0.281c-0.254,0-0.473,0.093-0.652,0.281c-0.181,0.187-0.271,0.413-0.271,0.679
						c0,0.264,0.09,0.49,0.271,0.68C44.657,85.729,44.876,85.821,45.13,85.821z M45.286,82.829c0.011-0.004,0.025-0.006,0.036-0.006
						c0.026,0,0.05,0.009,0.074,0.022c0.035,0.022,0.056,0.052,0.065,0.092c0.003,0.012,0.004,0.025,0.004,0.036
						c0,0.026-0.006,0.052-0.022,0.074l-0.212,0.354c-0.028,0.047-0.07,0.071-0.125,0.071c-0.026,0-0.052-0.008-0.075-0.021
						c-0.035-0.021-0.056-0.051-0.065-0.09c-0.003-0.013-0.004-0.025-0.004-0.037c0-0.026,0.007-0.052,0.022-0.074l0.213-0.356
						C45.217,82.859,45.247,82.838,45.286,82.829z"/>
					<path fill="#F2F2F2" d="M48.547,83.584c0.043,0,0.08,0.016,0.11,0.047s0.044,0.068,0.044,0.112v2.235
						c0,0.082-0.038,0.134-0.114,0.152c-0.018,0.006-0.035,0.008-0.051,0.008c-0.052,0-0.092-0.026-0.124-0.079
						c-0.493-0.867-0.823-1.47-0.988-1.814v1.735c0,0.045-0.016,0.081-0.046,0.11c-0.03,0.033-0.066,0.05-0.109,0.05
						c-0.044,0-0.081-0.017-0.111-0.05c-0.03-0.029-0.045-0.065-0.045-0.11v-2.236c0-0.081,0.038-0.132,0.116-0.153
						c0.017-0.004,0.034-0.007,0.051-0.007c0.052,0,0.094,0.028,0.125,0.08c0.493,0.863,0.823,1.461,0.985,1.793v-1.714
						c0-0.044,0.016-0.081,0.047-0.112C48.468,83.6,48.504,83.584,48.547,83.584z"/>
					<path fill="#F2F2F2" d="M51.584,85.052v0.927c0,0.047-0.015,0.083-0.044,0.112c-0.032,0.031-0.068,0.048-0.109,0.048
						c-0.044,0-0.082-0.017-0.113-0.048c-0.03-0.029-0.045-0.065-0.045-0.112v-2.234c0-0.045,0.015-0.082,0.045-0.113
						c0.031-0.031,0.069-0.047,0.113-0.047h0.658c0.086,0,0.172,0.021,0.252,0.06c0.08,0.036,0.149,0.088,0.208,0.157
						c0.127,0.143,0.192,0.316,0.192,0.518c0,0.203-0.064,0.377-0.192,0.52c-0.059,0.069-0.128,0.12-0.208,0.156
						c-0.08,0.04-0.166,0.058-0.252,0.058H51.584z M52.089,84.737c0.091,0,0.172-0.04,0.24-0.125
						c0.067-0.083,0.101-0.181,0.101-0.294c0-0.111-0.034-0.21-0.101-0.293c-0.068-0.083-0.149-0.123-0.24-0.123h-0.505v0.835
						H52.089z"/>
					<path fill="#F2F2F2" d="M55.355,85.92c0.018,0.042,0.018,0.081,0,0.121s-0.046,0.069-0.086,0.087
						c-0.019,0.007-0.036,0.011-0.058,0.011c-0.031,0-0.061-0.01-0.086-0.026c-0.026-0.02-0.046-0.045-0.057-0.074l-0.278-0.696
						h-0.927l-0.277,0.696c-0.016,0.04-0.043,0.07-0.083,0.087c-0.041,0.016-0.081,0.018-0.121,0.003
						c-0.04-0.018-0.067-0.047-0.083-0.087c-0.017-0.04-0.019-0.079-0.001-0.121l0.884-2.234c0.012-0.031,0.031-0.056,0.058-0.073
						c0.026-0.02,0.054-0.028,0.086-0.028c0.031,0,0.061,0.009,0.087,0.028c0.026,0.018,0.044,0.042,0.057,0.073L55.355,85.92z
						 M54.667,85.025l-0.339-0.86l-0.34,0.86H54.667z"/>
					<path fill="#F2F2F2" d="M57.517,84.271v0.042c0,0.205-0.057,0.365-0.167,0.483c-0.108,0.114-0.266,0.185-0.475,0.211
						l0.611,0.884c0.021,0.026,0.03,0.058,0.03,0.09c0,0.01,0,0.02-0.001,0.027c-0.007,0.044-0.029,0.078-0.064,0.102
						c-0.029,0.02-0.059,0.029-0.09,0.029c-0.054,0-0.097-0.022-0.126-0.066l-0.775-1.12c-0.02-0.029-0.03-0.059-0.03-0.089
						c0-0.025,0.007-0.052,0.018-0.074c0.029-0.055,0.076-0.084,0.139-0.084c0.279,0,0.46-0.043,0.542-0.13
						c0.053-0.055,0.079-0.144,0.079-0.263v-0.029c-0.004-0.102-0.032-0.188-0.082-0.258c-0.063-0.082-0.15-0.122-0.262-0.122
						h-0.503v2.077c0,0.045-0.017,0.081-0.047,0.11c-0.029,0.031-0.067,0.048-0.109,0.048c-0.043,0-0.08-0.017-0.11-0.048
						c-0.03-0.029-0.045-0.065-0.045-0.11v-2.236c0-0.045,0.015-0.081,0.045-0.112c0.031-0.032,0.067-0.048,0.11-0.048h0.659
						c0.202,0,0.364,0.076,0.486,0.221C57.452,83.933,57.511,84.089,57.517,84.271z"/>
					<path fill="#F2F2F2" d="M60.112,85.92c0.019,0.042,0.019,0.081,0,0.121c-0.016,0.04-0.045,0.069-0.085,0.087
						c-0.018,0.007-0.037,0.011-0.057,0.011c-0.032,0-0.062-0.01-0.085-0.026c-0.027-0.02-0.047-0.045-0.058-0.074l-0.276-0.696
						h-0.929l-0.276,0.696c-0.018,0.04-0.042,0.07-0.083,0.087c-0.041,0.016-0.08,0.018-0.12,0.003
						c-0.039-0.018-0.068-0.047-0.085-0.087c-0.016-0.04-0.016-0.079-0.002-0.121l0.886-2.234c0.012-0.031,0.031-0.056,0.058-0.073
						c0.026-0.02,0.054-0.028,0.085-0.028c0.033,0,0.062,0.009,0.088,0.028c0.027,0.018,0.045,0.042,0.058,0.073L60.112,85.92z
						 M59.424,85.025l-0.34-0.86l-0.339,0.86H59.424z"/>
					<path fill="#F2F2F2" d="M63.886,83.584c0.042,0,0.08,0.016,0.11,0.048c0.031,0.031,0.047,0.067,0.047,0.112
						c0,0.042-0.016,0.079-0.047,0.11c-0.03,0.033-0.068,0.049-0.11,0.049h-0.537v2.075c0,0.047-0.017,0.082-0.048,0.112
						c-0.029,0.031-0.067,0.048-0.11,0.048c-0.04,0-0.077-0.017-0.109-0.048c-0.031-0.03-0.045-0.065-0.045-0.112v-2.075h-0.538
						c-0.042,0-0.08-0.016-0.111-0.049c-0.03-0.031-0.044-0.068-0.044-0.11c0-0.045,0.014-0.081,0.044-0.112
						c0.031-0.032,0.069-0.048,0.111-0.048H63.886z"/>
					<path fill="#F2F2F2" d="M66.166,83.584c0.043,0,0.082,0.016,0.111,0.048c0.029,0.031,0.043,0.067,0.043,0.112v1.574
						c0,0.228-0.079,0.421-0.235,0.579c-0.158,0.161-0.349,0.241-0.571,0.241c-0.223,0-0.414-0.08-0.571-0.241
						c-0.157-0.16-0.237-0.354-0.237-0.579v-1.574c0-0.045,0.016-0.081,0.046-0.112c0.031-0.032,0.069-0.048,0.111-0.048
						c0.043,0,0.079,0.016,0.11,0.048c0.031,0.031,0.044,0.067,0.044,0.112v1.574c0,0.138,0.05,0.258,0.146,0.356
						c0.097,0.098,0.214,0.146,0.351,0.146c0.135,0,0.252-0.049,0.35-0.146c0.098-0.097,0.144-0.218,0.144-0.356v-1.574
						c0-0.045,0.018-0.081,0.048-0.112C66.088,83.6,66.124,83.584,66.166,83.584z"/>
					<path fill="#F2F2F2" d="M70.078,83.903c-0.255,0-0.472,0.093-0.653,0.281c-0.179,0.187-0.271,0.413-0.271,0.679
						c0,0.264,0.092,0.49,0.271,0.68c0.181,0.186,0.397,0.278,0.653,0.278c0.153,0,0.297-0.036,0.432-0.109
						c0.137-0.076,0.247-0.181,0.332-0.311c0.025-0.039,0.058-0.061,0.099-0.068c0.011-0.003,0.022-0.005,0.034-0.005
						c0.031,0,0.058,0.01,0.082,0.027c0.039,0.024,0.061,0.058,0.067,0.101c0.002,0.013,0.004,0.023,0.004,0.033
						c0,0.032-0.009,0.06-0.025,0.087c-0.114,0.176-0.264,0.314-0.445,0.414c-0.182,0.099-0.375,0.148-0.58,0.148
						c-0.34,0-0.632-0.125-0.872-0.375c-0.241-0.247-0.362-0.548-0.362-0.9c0-0.354,0.121-0.653,0.362-0.903
						c0.24-0.249,0.532-0.376,0.872-0.376c0.205,0,0.398,0.052,0.58,0.152c0.181,0.1,0.331,0.237,0.445,0.413
						c0.017,0.028,0.026,0.058,0.026,0.086c0,0.011,0,0.021-0.002,0.033c-0.009,0.043-0.031,0.076-0.067,0.102
						c-0.025,0.016-0.053,0.023-0.083,0.023c-0.012,0-0.023-0.001-0.035-0.003c-0.042-0.007-0.074-0.029-0.099-0.068
						c-0.085-0.131-0.195-0.233-0.332-0.309C70.375,83.938,70.23,83.903,70.078,83.903z"/>
					<path fill="#F2F2F2" d="M73.332,83.584c0.043,0,0.08,0.016,0.11,0.048c0.03,0.031,0.044,0.067,0.044,0.112v1.574
						c0,0.228-0.077,0.421-0.236,0.579c-0.157,0.161-0.348,0.241-0.571,0.241c-0.222,0-0.414-0.08-0.57-0.241
						c-0.158-0.16-0.235-0.354-0.235-0.579v-1.574c0-0.045,0.013-0.081,0.042-0.112c0.031-0.032,0.069-0.048,0.112-0.048
						c0.042,0,0.079,0.016,0.109,0.048c0.03,0.031,0.047,0.067,0.047,0.112v1.574c0,0.138,0.048,0.258,0.145,0.356
						c0.096,0.098,0.213,0.146,0.349,0.146c0.137,0,0.254-0.049,0.352-0.146c0.096-0.097,0.144-0.218,0.144-0.356v-1.574
						c0-0.045,0.016-0.081,0.047-0.112C73.252,83.6,73.289,83.584,73.332,83.584z"/>
					<path fill="#F2F2F2" d="M75.614,85.821c0.042,0,0.08,0.014,0.111,0.046c0.03,0.03,0.046,0.068,0.046,0.111
						c0,0.047-0.016,0.082-0.046,0.112c-0.031,0.031-0.069,0.048-0.111,0.048h-1.121c-0.045,0-0.081-0.017-0.112-0.048
						c-0.029-0.03-0.044-0.065-0.044-0.112v-2.242c0-0.045,0.015-0.082,0.044-0.113c0.031-0.032,0.067-0.046,0.112-0.046
						c0.042,0,0.078,0.014,0.109,0.046c0.029,0.031,0.045,0.068,0.045,0.113v2.085H75.614z"/>
					<path fill="#F2F2F2" d="M77.794,83.584c0.046,0,0.082,0.016,0.113,0.048c0.029,0.031,0.044,0.067,0.044,0.112
						c0,0.042-0.015,0.079-0.044,0.11c-0.031,0.033-0.066,0.049-0.113,0.049h-0.538v2.075c0,0.047-0.014,0.082-0.045,0.112
						c-0.03,0.031-0.067,0.048-0.11,0.048c-0.041,0-0.079-0.017-0.11-0.048c-0.029-0.03-0.044-0.065-0.044-0.112v-2.075h-0.538
						c-0.042,0-0.079-0.016-0.11-0.049c-0.03-0.031-0.047-0.068-0.047-0.11c0-0.045,0.017-0.081,0.047-0.112
						c0.031-0.032,0.068-0.048,0.11-0.048H77.794z"/>
					<path fill="#F2F2F2" d="M78.791,83.577c0.042,0,0.079,0.014,0.11,0.046c0.03,0.031,0.044,0.068,0.044,0.113v2.242
						c0,0.047-0.014,0.082-0.044,0.112c-0.031,0.031-0.068,0.048-0.11,0.048s-0.081-0.017-0.111-0.048
						c-0.03-0.03-0.045-0.065-0.045-0.112v-2.242c0-0.045,0.015-0.082,0.045-0.113C78.709,83.591,78.749,83.577,78.791,83.577z"/>
					<path fill="#F2F2F2" d="M81.517,83.677c0.009,0.02,0.016,0.044,0.016,0.066c0,0.017-0.004,0.035-0.011,0.056l-0.796,2.236
						c-0.023,0.07-0.074,0.104-0.146,0.104c-0.072,0-0.119-0.033-0.146-0.104l-0.795-2.236c-0.006-0.021-0.01-0.039-0.01-0.056
						c0-0.022,0.005-0.047,0.014-0.066c0.019-0.039,0.049-0.066,0.089-0.083c0.019-0.006,0.037-0.01,0.056-0.01
						c0.022,0,0.043,0.007,0.065,0.016c0.037,0.019,0.065,0.05,0.079,0.09l0.648,1.827l0.65-1.827c0.015-0.04,0.043-0.071,0.08-0.09
						c0.022-0.009,0.043-0.016,0.066-0.016c0.018,0,0.035,0.004,0.053,0.01C81.47,83.61,81.499,83.638,81.517,83.677z"/>
					<path fill="#F2F2F2" d="M83.333,83.584c0.34,0,0.631,0.127,0.873,0.376c0.239,0.25,0.362,0.55,0.362,0.903
						c0,0.353-0.123,0.653-0.362,0.9c-0.242,0.25-0.533,0.375-0.873,0.375s-0.63-0.125-0.873-0.375
						c-0.24-0.247-0.362-0.548-0.362-0.9c0-0.354,0.122-0.653,0.362-0.903C82.702,83.711,82.992,83.584,83.333,83.584z
						 M83.333,85.821c0.255,0,0.473-0.093,0.651-0.278c0.182-0.189,0.272-0.416,0.272-0.68c0-0.266-0.09-0.492-0.272-0.679
						c-0.178-0.188-0.396-0.281-0.651-0.281s-0.473,0.093-0.652,0.281c-0.183,0.187-0.271,0.413-0.271,0.679
						c0,0.264,0.089,0.49,0.271,0.68C82.86,85.729,83.077,85.821,83.333,85.821z"/>
				</g>
				<g>
					<path fill="#F2F2F2" d="M19.499,74.864c0.168,0,0.309,0.06,0.422,0.176c0.116,0.124,0.175,0.268,0.175,0.436v6.111
						c0,0.164-0.059,0.309-0.175,0.428c-0.113,0.117-0.254,0.178-0.422,0.178c-0.165,0-0.305-0.061-0.42-0.178
						c-0.12-0.119-0.18-0.264-0.18-0.428v-0.195c-0.574,0.533-1.23,0.801-1.966,0.801c-0.875,0-1.62-0.359-2.236-1.073
						c-0.619-0.719-0.927-1.583-0.927-2.593v-3.07c0-0.168,0.059-0.312,0.172-0.428c0.12-0.122,0.261-0.183,0.428-0.183
						c0.162,0,0.303,0.061,0.422,0.183c0.115,0.116,0.173,0.26,0.173,0.428v3.07c0,0.676,0.191,1.251,0.575,1.728
						c0.387,0.481,0.851,0.723,1.393,0.723c0.545,0,1.009-0.241,1.392-0.723c0.383-0.477,0.574-1.052,0.574-1.728v-3.051
						c0-0.168,0.061-0.312,0.18-0.436C19.193,74.924,19.334,74.864,19.499,74.864z"/>
					<path fill="#F2F2F2" d="M30.552,74.864c0.872,0,1.619,0.36,2.235,1.079c0.618,0.714,0.926,1.577,0.926,2.591v3.053
						c0,0.164-0.057,0.309-0.173,0.428c-0.119,0.117-0.258,0.178-0.421,0.178c-0.166,0-0.309-0.061-0.427-0.178
						c-0.115-0.119-0.173-0.264-0.173-0.428v-3.053c0-0.675-0.191-1.254-0.574-1.733c-0.389-0.477-0.853-0.713-1.393-0.713
						c-0.542,0-1.005,0.236-1.394,0.713c-0.383,0.479-0.576,1.057-0.576,1.726v3.061c0,0.164-0.057,0.309-0.172,0.428
						c-0.118,0.117-0.259,0.178-0.421,0.178c-0.166,0-0.309-0.061-0.429-0.178c-0.115-0.119-0.172-0.264-0.172-0.428v-3.061
						c0-0.669-0.191-1.246-0.575-1.726c-0.387-0.477-0.851-0.713-1.392-0.713c-0.54,0-1.004,0.236-1.393,0.713
						c-0.383,0.479-0.574,1.059-0.574,1.733v3.053c0,0.169-0.058,0.312-0.173,0.428c-0.119,0.117-0.26,0.178-0.421,0.178
						c-0.167,0-0.308-0.061-0.428-0.178c-0.114-0.116-0.172-0.259-0.172-0.428v-6.111c0-0.168,0.058-0.311,0.172-0.431
						c0.12-0.12,0.262-0.181,0.428-0.181c0.161,0,0.303,0.061,0.421,0.181c0.116,0.12,0.173,0.263,0.173,0.431v0.188
						c0.579-0.531,1.235-0.8,1.967-0.8c1.077,0,1.933,0.511,2.568,1.527C28.62,75.375,29.474,74.864,30.552,74.864z"/>
					<path fill="#F2F2F2" d="M39.297,74.864c0.975,0,1.809,0.36,2.504,1.079c0.69,0.714,1.035,1.577,1.035,2.591
						c0,1.009-0.344,1.87-1.035,2.585c-0.695,0.714-1.53,1.073-2.504,1.073c-0.894,0-1.679-0.31-2.35-0.924v0.318
						c0,0.169-0.059,0.312-0.174,0.428c-0.12,0.117-0.26,0.178-0.421,0.178c-0.167,0-0.309-0.061-0.428-0.178
						c-0.116-0.116-0.172-0.259-0.172-0.428v-8.593c0-0.169,0.056-0.311,0.172-0.429c0.119-0.121,0.261-0.182,0.428-0.182
						c0.161,0,0.301,0.061,0.421,0.182c0.115,0.118,0.174,0.26,0.174,0.429v2.794C37.618,75.172,38.403,74.864,39.297,74.864z
						 M39.297,80.977c0.647,0,1.201-0.238,1.661-0.715c0.456-0.48,0.684-1.057,0.684-1.728c0-0.675-0.228-1.254-0.684-1.733
						c-0.459-0.477-1.014-0.713-1.661-0.713c-0.648,0-1.201,0.236-1.662,0.713c-0.459,0.479-0.688,1.059-0.688,1.733
						c0,0.671,0.229,1.247,0.688,1.728C38.096,80.738,38.649,80.977,39.297,80.977z"/>
					<path fill="#F2F2F2" d="M47.926,74.864c0.167,0,0.307,0.061,0.421,0.181c0.121,0.12,0.18,0.263,0.18,0.431
						c0,0.17-0.059,0.312-0.18,0.428c-0.115,0.122-0.255,0.185-0.421,0.185c-0.583,0-1.081,0.236-1.496,0.713
						c-0.412,0.479-0.619,1.059-0.619,1.733v3.053c0,0.169-0.057,0.312-0.172,0.428c-0.119,0.117-0.259,0.178-0.422,0.178
						c-0.166,0-0.308-0.061-0.428-0.178c-0.114-0.116-0.172-0.259-0.172-0.428v-6.111c0-0.168,0.059-0.311,0.172-0.431
						c0.12-0.12,0.262-0.181,0.428-0.181c0.163,0,0.303,0.061,0.422,0.181c0.115,0.12,0.172,0.263,0.172,0.431v0.239
						C46.425,75.147,47.129,74.864,47.926,74.864z"/>
					<path fill="#F2F2F2" d="M50.666,81.119c-0.331-0.338-0.589-0.725-0.773-1.156c-0.191-0.455-0.286-0.93-0.286-1.423
						c0-1.013,0.353-1.877,1.059-2.597c0.337-0.338,0.722-0.6,1.157-0.786c0.448-0.195,0.918-0.293,1.411-0.293
						c0.998,0,1.851,0.36,2.563,1.079c0.332,0.339,0.59,0.727,0.773,1.169c0.19,0.455,0.286,0.932,0.286,1.428
						c0,0.17-0.056,0.312-0.172,0.429c-0.119,0.122-0.262,0.183-0.428,0.183h-5.379c0.135,0.529,0.421,0.964,0.855,1.306
						c0.438,0.347,0.939,0.52,1.5,0.52c0.887,0,1.57-0.274,2.051-0.825c0.107-0.126,0.244-0.191,0.41-0.203
						c0.167-0.008,0.311,0.043,0.435,0.15c0.124,0.113,0.189,0.256,0.198,0.423c0.008,0.164-0.042,0.311-0.153,0.436
						c-0.716,0.822-1.695,1.235-2.94,1.235C52.233,82.192,51.378,81.833,50.666,81.119z M55.586,77.93
						c-0.137-0.535-0.419-0.978-0.851-1.323c-0.442-0.352-0.941-0.526-1.501-0.526c-0.562,0-1.064,0.175-1.506,0.526
						c-0.431,0.346-0.715,0.788-0.85,1.323H55.586z"/>
					<path fill="#F2F2F2" d="M59.302,72.384c0.162,0,0.303,0.061,0.422,0.182c0.115,0.118,0.173,0.26,0.173,0.429v8.593
						c0,0.169-0.058,0.312-0.173,0.428c-0.119,0.117-0.26,0.178-0.422,0.178c-0.165,0-0.308-0.061-0.427-0.178
						c-0.116-0.116-0.173-0.259-0.173-0.428v-8.593c0-0.169,0.058-0.311,0.173-0.429C58.994,72.444,59.138,72.384,59.302,72.384z"/>
					<path fill="#F2F2F2" d="M67.466,76.678c0.166,0,0.307,0.059,0.423,0.174c0.114,0.122,0.17,0.267,0.17,0.437
						c0,0.165-0.056,0.309-0.17,0.428c-0.116,0.117-0.257,0.177-0.423,0.177h-4.739c-0.167,0-0.31-0.06-0.429-0.177
						c-0.116-0.119-0.172-0.263-0.172-0.428c0-0.17,0.056-0.314,0.172-0.437c0.119-0.115,0.262-0.174,0.429-0.174H67.466z"/>
					<path fill="#F2F2F2" d="M75.132,80.977c0.166,0,0.308,0.058,0.428,0.175c0.114,0.117,0.172,0.259,0.172,0.428
						c0,0.17-0.058,0.312-0.172,0.43c-0.12,0.121-0.263,0.184-0.428,0.184h-4.306c-0.167,0-0.31-0.062-0.43-0.184
						c-0.113-0.117-0.171-0.26-0.171-0.43v-8.618c0-0.168,0.058-0.311,0.171-0.427c0.12-0.123,0.263-0.183,0.43-0.183
						c0.163,0,0.302,0.06,0.422,0.183c0.114,0.116,0.17,0.259,0.17,0.427v8.016H75.132z"/>
					<path fill="#F2F2F2" d="M83.685,74.864c0.167,0,0.308,0.061,0.422,0.181c0.115,0.12,0.172,0.263,0.172,0.431v6.111
						c0,0.169-0.057,0.312-0.172,0.428c-0.114,0.117-0.255,0.178-0.422,0.178s-0.306-0.061-0.422-0.178
						c-0.12-0.116-0.177-0.259-0.177-0.428v-0.318c-0.67,0.614-1.452,0.924-2.346,0.924c-0.981,0-1.816-0.359-2.505-1.073
						c-0.695-0.715-1.042-1.576-1.042-2.585c0-1.014,0.347-1.877,1.042-2.591c0.689-0.719,1.524-1.079,2.505-1.079
						c0.894,0,1.675,0.308,2.346,0.924v-0.312c0-0.168,0.057-0.311,0.177-0.431C83.378,74.925,83.518,74.864,83.685,74.864z
						 M80.74,80.977c0.647,0,1.201-0.238,1.661-0.715c0.455-0.48,0.685-1.057,0.685-1.728c0-0.675-0.23-1.254-0.685-1.733
						c-0.46-0.477-1.014-0.713-1.661-0.713c-0.649,0-1.202,0.236-1.662,0.713c-0.459,0.479-0.689,1.059-0.689,1.733
						c0,0.671,0.23,1.247,0.689,1.728C79.538,80.738,80.091,80.977,80.74,80.977z"/>
				</g>
			</g>
		</g>
	</g>
</g>
<g id="Capa_9">
</g>
<g id="Capa_5">
</g>
<g id="Capa_8">
</g>
<g id="Capa_2">
</g>
<g id="Capa_3">
</g>
</svg>
