<?xml version="1.0" encoding="utf-8"?>
<!-- Generator: Adobe Illustrator 16.0.0, SVG Export Plug-In . SVG Version: 6.00 Build 0)  -->
<!DOCTYPE svg PUBLIC "-//W3C//DTD SVG 1.1//EN" "http://www.w3.org/Graphics/SVG/1.1/DTD/svg11.dtd">
<svg version="1.1" xmlns="http://www.w3.org/2000/svg" xmlns:xlink="http://www.w3.org/1999/xlink" x="0px" y="0px"
	 width="99.965px" height="100.213px" viewBox="0 0 99.965 100.213" enable-background="new 0 0 99.965 100.213"
	 xml:space="preserve">
<g id="Capa_4">
</g>
<g id="Capa_6">
</g>
<g id="Capa_7">
</g>
<g id="Capa_1">
</g>
<g id="Capa_9">
	<g>
		<path fill="#6CC44E" d="M85.12,22.791v15.087c0,9.655-7.827,17.482-17.483,17.482H52.792c-0.005-0.156-0.006-0.311-0.006-0.467
			c0-12.293,11.35-22.358,25.734-23.22c-0.68-0.04-1.366-0.061-2.059-0.061c-15.728,0-28.478,10.422-28.478,23.28V40.272
			c0-9.654,7.828-17.481,17.482-17.481H85.12z"/>
		<path fill="#5FA047" d="M53.027,37.558c0,1.243,0.15,2.449,0.434,3.605c-3.442,3.848-5.476,8.595-5.476,13.729V40.271
			c0-9.239,7.168-16.803,16.245-17.438C57.757,24.688,53.027,30.578,53.027,37.558z"/>
		<path fill="#5FA047" d="M80.154,50.084c-3.174,3.26-7.614,5.286-12.525,5.286H52.785c-0.005-0.155-0.007-0.311-0.007-0.467
			c0-3.356,0.846-6.547,2.37-9.429c0.011,0.019,0.022,0.035,0.034,0.053c2.998,4.501,8.507,7.517,14.808,7.517
			C73.792,53.044,77.306,51.945,80.154,50.084z"/>
	</g>
	<g>
		<path fill="#6CC44E" d="M13.557,33.324v10.208c0,6.533,5.296,11.829,11.829,11.829H35.43c0.004-0.105,0.005-0.21,0.005-0.316
			c0-8.316-7.68-15.128-17.413-15.711c0.46-0.027,0.924-0.041,1.393-0.041c10.642,0,19.269,7.053,19.269,15.752v-9.893
			c0-6.532-5.296-11.828-11.829-11.828H13.557z"/>
		<path fill="#5FA047" d="M35.271,43.318c0,0.84-0.101,1.656-0.293,2.438c2.33,2.604,3.706,5.815,3.706,9.288v-9.893
			c0-6.252-4.851-11.369-10.992-11.799C32.071,34.608,35.271,38.594,35.271,43.318z"/>
		<path fill="#5FA047" d="M16.916,51.79c2.148,2.206,5.152,3.594,8.475,3.594h10.044c0.003-0.104,0.004-0.209,0.004-0.315
			c0-2.271-0.572-4.43-1.604-6.379c-0.007,0.012-0.015,0.023-0.023,0.035c-2.028,3.045-5.755,5.086-10.019,5.086
			C21.221,53.811,18.844,53.05,16.916,51.79z"/>
	</g>
	<path fill="#F4B911" d="M86.408,17.044c0,0.711-0.576,1.287-1.288,1.287H64.106c-11.72,0-21.223,9.503-21.223,21.224v15.821h-0.012
		c0,0.81-0.654,1.467-1.462,1.467c-0.807,0-1.462-0.657-1.462-1.467V39.744c0-13.248,10.74-23.987,23.987-23.987H85.12
		C85.832,15.757,86.408,16.334,86.408,17.044z"/>
	<path fill="#FF8617" d="M83.102,19.391c0,0.333-0.27,0.603-0.601,0.603H64.347c-11.598-0.015-19.784,9.776-19.603,19.481v13.478
		c0,0.332-0.27,0.602-0.601,0.602c-0.332,0-0.602-0.27-0.602-0.602V39.475c0-11.424,9.262-20.686,20.685-20.686h18.278
		C82.835,18.791,83.102,19.06,83.102,19.391z"/>
	<path fill="#FF8617" d="M77.523,21.153c0,0.32-0.26,0.58-0.581,0.58H65.007c-11.188-0.014-18.528,9.153-18.354,18.516v7.425
		c0,0.32-0.26,0.581-0.581,0.581c-0.32,0-0.58-0.261-0.58-0.581v-7.425c0-11.021,8.377-19.678,19.398-19.678h12.055
		C77.266,20.574,77.523,20.833,77.523,21.153z"/>
	<g>
		<path fill="#FFFFFF" d="M19.057,63.958c-0.161,0-0.316,0.014-0.467,0.042c-0.152,0.027-0.286,0.073-0.403,0.134
			c-0.118,0.062-0.212,0.14-0.282,0.231c-0.071,0.093-0.106,0.204-0.106,0.333c0,0.198,0.049,0.353,0.147,0.464
			c0.099,0.111,0.249,0.208,0.45,0.291c0.2,0.084,0.45,0.167,0.75,0.25c0.299,0.083,0.649,0.193,1.05,0.329
			c0.512,0.173,0.98,0.384,1.403,0.634c0.422,0.25,0.784,0.543,1.083,0.879c0.3,0.337,0.533,0.715,0.699,1.135
			s0.25,0.889,0.25,1.406c0,0.642-0.136,1.23-0.407,1.765c-0.272,0.533-0.634,0.991-1.087,1.373
			c-0.454,0.384-0.977,0.682-1.57,0.895c-0.592,0.213-1.206,0.319-1.842,0.319c-0.543,0-1.06-0.081-1.55-0.241
			s-0.941-0.384-1.352-0.671c-0.411-0.287-0.77-0.629-1.078-1.027c-0.309-0.398-0.55-0.832-0.723-1.301l0.963-0.555
			c0.154-0.087,0.319-0.157,0.495-0.209c0.176-0.053,0.354-0.079,0.533-0.079c0.265,0,0.504,0.056,0.717,0.167
			c0.213,0.11,0.421,0.23,0.625,0.361c0.203,0.129,0.413,0.249,0.629,0.36c0.216,0.111,0.462,0.167,0.74,0.167
			c0.185,0,0.387-0.029,0.606-0.088s0.422-0.144,0.611-0.255c0.188-0.111,0.344-0.248,0.468-0.411
			c0.123-0.164,0.185-0.354,0.185-0.57c0-0.203-0.057-0.369-0.171-0.5c-0.114-0.129-0.268-0.242-0.463-0.338
			c-0.194-0.095-0.418-0.183-0.671-0.264c-0.253-0.08-0.519-0.176-0.796-0.287c-0.457-0.173-0.907-0.36-1.352-0.563
			c-0.444-0.204-0.842-0.456-1.194-0.755c-0.351-0.3-0.637-0.663-0.856-1.093c-0.219-0.429-0.329-0.96-0.329-1.597
			c0-0.598,0.122-1.131,0.366-1.597c0.244-0.465,0.566-0.859,0.967-1.18c0.401-0.321,0.859-0.566,1.375-0.736
			c0.516-0.17,1.044-0.254,1.588-0.254c0.395,0,0.779,0.066,1.152,0.198c0.374,0.133,0.727,0.306,1.061,0.519
			c0.333,0.213,0.645,0.455,0.935,0.727s0.552,0.549,0.787,0.833l-0.935,0.786c-0.185,0.161-0.378,0.275-0.578,0.344
			c-0.201,0.067-0.425,0.101-0.672,0.101c-0.197,0-0.37-0.023-0.518-0.073c-0.148-0.05-0.287-0.104-0.417-0.162
			s-0.259-0.112-0.389-0.162C19.353,63.983,19.21,63.958,19.057,63.958z"/>
		<path fill="#FFFFFF" d="M29.294,74.316h-3.037V61.052h3.037V74.316z"/>
		<path fill="#FFFFFF" d="M45.225,74.316h-3.008l-6.341-9.174v9.174h-3.018V61.052h2.981c0.296,0,0.558,0.044,0.787,0.13
			c0.228,0.086,0.404,0.219,0.528,0.398l4.638,6.794c0.068,0.099,0.126,0.207,0.176,0.323c0.049,0.118,0.093,0.228,0.13,0.329
			c0.037,0.102,0.064,0.19,0.083,0.264c0.019,0.074,0.028,0.12,0.028,0.139v-8.377h3.018V74.316z"/>
		<path fill="#FFFFFF" d="M57.12,62.227c0.08-0.185,0.185-0.35,0.314-0.495c0.13-0.145,0.274-0.268,0.435-0.369
			c0.16-0.103,0.334-0.18,0.523-0.231c0.188-0.053,0.384-0.079,0.588-0.079h1.962l-5.794,13.265h-2.611l-5.795-13.265h1.954
			c0.191,0,0.383,0.029,0.574,0.088c0.191,0.059,0.371,0.143,0.537,0.25c0.167,0.108,0.316,0.232,0.449,0.375
			c0.132,0.142,0.236,0.296,0.31,0.462l3.018,6.935c0.043,0.099,0.079,0.208,0.106,0.329c0.028,0.12,0.054,0.232,0.079,0.337
			c0.024,0.123,0.046,0.247,0.064,0.37c0.006-0.116,0.021-0.234,0.046-0.352c0.019-0.104,0.043-0.216,0.074-0.333
			c0.031-0.117,0.071-0.229,0.121-0.333L57.12,62.227z"/>
		<path fill="#FFFFFF" d="M71.218,74.316h-8.831V61.052h8.831v2.833h-5.804v2.323h4.721v2.832h-4.721v2.444h5.804V74.316z"/>
		<path fill="#FFFFFF" d="M77.003,74.316h-3.027V61.052h5.203c0.5,0,0.96,0.064,1.383,0.194s0.806,0.305,1.148,0.522
			c0.342,0.22,0.645,0.479,0.907,0.778s0.481,0.62,0.657,0.963c0.176,0.342,0.309,0.695,0.398,1.06
			c0.09,0.364,0.134,0.726,0.134,1.083c0,0.352-0.038,0.702-0.116,1.051c-0.077,0.349-0.199,0.689-0.365,1.022
			c-0.167,0.334-0.383,0.652-0.648,0.959c-0.265,0.305-0.586,0.591-0.962,0.856l3.536,4.775h-2.527h-0.055
			c-0.056,0-0.15-0.009-0.282-0.027c-0.133-0.019-0.283-0.062-0.449-0.13c-0.167-0.067-0.342-0.17-0.528-0.306
			c-0.185-0.135-0.361-0.323-0.527-0.563l-2.222-3.009h-1.657V74.316z M79.336,67.235c0.185,0,0.364-0.046,0.537-0.139
			s0.326-0.213,0.458-0.361c0.132-0.147,0.239-0.316,0.319-0.505c0.08-0.188,0.12-0.378,0.12-0.568c0-0.191-0.041-0.382-0.12-0.569
			c-0.081-0.188-0.187-0.356-0.319-0.505c-0.133-0.147-0.286-0.269-0.458-0.361s-0.352-0.139-0.537-0.139h-2.333v3.147H79.336z"/>
	</g>
	<g>
		<path fill="#FFFFFF" d="M15.564,76.862l-0.227,0.235c-0.189-0.184-0.374-0.275-0.554-0.275c-0.115,0-0.214,0.038-0.295,0.113
			c-0.082,0.075-0.123,0.164-0.123,0.265c0,0.09,0.034,0.175,0.101,0.255c0.067,0.083,0.209,0.18,0.425,0.291
			c0.263,0.137,0.442,0.269,0.537,0.394c0.093,0.129,0.14,0.272,0.14,0.432c0,0.226-0.08,0.417-0.238,0.573
			c-0.158,0.157-0.356,0.235-0.594,0.235c-0.159,0-0.31-0.034-0.455-0.104c-0.144-0.069-0.263-0.164-0.357-0.285l0.222-0.253
			c0.181,0.204,0.372,0.306,0.575,0.306c0.142,0,0.262-0.046,0.362-0.137c0.099-0.091,0.149-0.197,0.149-0.32
			c0-0.101-0.033-0.191-0.099-0.271c-0.066-0.077-0.215-0.175-0.446-0.292c-0.248-0.128-0.417-0.255-0.506-0.379
			c-0.089-0.125-0.134-0.268-0.134-0.427c0-0.209,0.071-0.383,0.214-0.521s0.322-0.207,0.54-0.207
			C15.054,76.491,15.308,76.615,15.564,76.862z"/>
		<path fill="#FFFFFF" d="M18.008,76.491c0.423,0,0.774,0.153,1.052,0.46c0.253,0.279,0.379,0.609,0.379,0.992
			s-0.133,0.719-0.401,1.006s-0.611,0.431-1.031,0.431c-0.421,0-0.766-0.144-1.033-0.431c-0.268-0.287-0.401-0.623-0.401-1.006
			c0-0.381,0.126-0.711,0.379-0.99C17.232,76.646,17.583,76.491,18.008,76.491z M18.007,76.837c-0.294,0-0.546,0.108-0.758,0.326
			c-0.211,0.217-0.316,0.479-0.316,0.787c0,0.199,0.048,0.385,0.145,0.556c0.096,0.172,0.226,0.305,0.39,0.397
			c0.164,0.095,0.344,0.141,0.54,0.141s0.376-0.046,0.54-0.141c0.164-0.093,0.294-0.226,0.39-0.397
			c0.096-0.171,0.144-0.356,0.144-0.556c0-0.308-0.105-0.57-0.317-0.787C18.551,76.945,18.299,76.837,18.007,76.837z"/>
		<path fill="#FFFFFF" d="M20.558,75.502h0.354v3.807h-0.354V75.502z"/>
		<path fill="#FFFFFF" d="M22.118,76.562h0.354v1.282c0,0.313,0.017,0.528,0.051,0.646c0.05,0.169,0.147,0.302,0.29,0.399
			c0.143,0.097,0.312,0.146,0.509,0.146s0.365-0.048,0.502-0.144c0.138-0.095,0.232-0.22,0.285-0.375
			c0.035-0.105,0.053-0.33,0.053-0.674v-1.282h0.361v1.348c0,0.379-0.044,0.664-0.132,0.856c-0.088,0.191-0.222,0.342-0.399,0.45
			c-0.177,0.108-0.4,0.163-0.667,0.163s-0.491-0.055-0.67-0.163c-0.18-0.108-0.313-0.26-0.402-0.454s-0.132-0.487-0.132-0.878
			V76.562z"/>
		<path fill="#FFFFFF" d="M28.491,77.132l-0.28,0.175c-0.242-0.321-0.573-0.482-0.992-0.482c-0.334,0-0.612,0.107-0.833,0.323
			c-0.221,0.215-0.332,0.477-0.332,0.784c0,0.2,0.051,0.389,0.152,0.565c0.102,0.177,0.242,0.312,0.419,0.411
			c0.177,0.098,0.376,0.146,0.597,0.146c0.403,0,0.733-0.16,0.989-0.482l0.28,0.185c-0.131,0.198-0.308,0.352-0.529,0.46
			c-0.221,0.109-0.474,0.164-0.756,0.164c-0.434,0-0.794-0.139-1.081-0.414c-0.286-0.276-0.429-0.612-0.429-1.008
			c0-0.266,0.067-0.513,0.201-0.741c0.134-0.228,0.318-0.406,0.552-0.533c0.233-0.129,0.496-0.192,0.785-0.192
			c0.182,0,0.357,0.027,0.526,0.083c0.169,0.057,0.312,0.128,0.431,0.218C28.308,76.881,28.408,76.995,28.491,77.132z"/>
		<path fill="#FFFFFF" d="M29.81,75.431c0.081,0,0.149,0.028,0.207,0.086c0.057,0.057,0.085,0.126,0.085,0.207
			c0,0.079-0.029,0.147-0.085,0.204c-0.057,0.058-0.126,0.087-0.207,0.087c-0.079,0-0.147-0.029-0.204-0.087
			c-0.057-0.057-0.085-0.125-0.085-0.204c0-0.081,0.028-0.15,0.085-0.207C29.663,75.459,29.731,75.431,29.81,75.431z M29.634,76.562
			h0.354v2.746h-0.354V76.562z"/>
		<path fill="#FFFFFF" d="M32.54,76.491c0.423,0,0.774,0.153,1.052,0.46c0.253,0.279,0.38,0.609,0.38,0.992
			s-0.134,0.719-0.401,1.006S32.96,79.38,32.54,79.38c-0.421,0-0.766-0.144-1.033-0.431s-0.401-0.623-0.401-1.006
			c0-0.381,0.127-0.711,0.38-0.99C31.764,76.646,32.115,76.491,32.54,76.491z M32.539,76.837c-0.293,0-0.546,0.108-0.757,0.326
			c-0.211,0.217-0.317,0.479-0.317,0.787c0,0.199,0.048,0.385,0.145,0.556c0.096,0.172,0.227,0.305,0.39,0.397
			c0.164,0.095,0.344,0.141,0.54,0.141c0.196,0,0.376-0.046,0.54-0.141c0.164-0.093,0.294-0.226,0.39-0.397
			c0.096-0.171,0.145-0.356,0.145-0.556c0-0.308-0.106-0.57-0.318-0.787C33.083,76.945,32.831,76.837,32.539,76.837z"/>
		<path fill="#FFFFFF" d="M35.143,76.562h0.354v0.492c0.141-0.189,0.298-0.33,0.47-0.423c0.171-0.094,0.358-0.141,0.561-0.141
			c0.205,0,0.387,0.052,0.547,0.156c0.159,0.105,0.276,0.245,0.352,0.422c0.076,0.177,0.113,0.452,0.113,0.826v1.413h-0.353v-1.31
			c0-0.317-0.013-0.528-0.04-0.634c-0.041-0.182-0.12-0.318-0.236-0.41c-0.116-0.093-0.268-0.138-0.454-0.138
			c-0.214,0-0.406,0.07-0.575,0.212c-0.169,0.142-0.28,0.316-0.334,0.525c-0.034,0.136-0.05,0.385-0.05,0.747v1.007h-0.354V76.562z"
			/>
		<path fill="#FFFFFF" d="M41.127,78.397l0.298,0.157c-0.098,0.191-0.21,0.347-0.338,0.464c-0.128,0.118-0.272,0.207-0.433,0.27
			c-0.16,0.061-0.341,0.092-0.543,0.092c-0.448,0-0.798-0.146-1.051-0.44c-0.252-0.294-0.379-0.626-0.379-0.996
			c0-0.349,0.107-0.659,0.321-0.933c0.271-0.347,0.634-0.52,1.089-0.52c0.468,0,0.843,0.178,1.122,0.532
			c0.199,0.252,0.3,0.564,0.303,0.939h-2.472c0.007,0.319,0.109,0.581,0.306,0.785s0.441,0.306,0.731,0.306
			c0.14,0,0.276-0.023,0.408-0.072c0.132-0.049,0.245-0.113,0.338-0.194C40.919,78.707,41.019,78.577,41.127,78.397z M41.127,77.657
			c-0.047-0.188-0.116-0.339-0.206-0.451c-0.09-0.113-0.209-0.204-0.358-0.273s-0.304-0.104-0.467-0.104
			c-0.27,0-0.502,0.087-0.696,0.261c-0.142,0.126-0.249,0.315-0.321,0.567H41.127z"/>
		<path fill="#FFFFFF" d="M44.073,76.862l-0.227,0.235c-0.189-0.184-0.374-0.275-0.555-0.275c-0.115,0-0.213,0.038-0.295,0.113
			S42.874,77.1,42.874,77.2c0,0.09,0.034,0.175,0.101,0.255c0.067,0.083,0.209,0.18,0.425,0.291
			c0.263,0.137,0.442,0.269,0.537,0.394c0.093,0.129,0.139,0.272,0.139,0.432c0,0.226-0.079,0.417-0.238,0.573
			c-0.158,0.157-0.356,0.235-0.594,0.235c-0.159,0-0.31-0.034-0.454-0.104c-0.144-0.069-0.263-0.164-0.357-0.285l0.222-0.253
			c0.181,0.204,0.373,0.306,0.575,0.306c0.142,0,0.263-0.046,0.362-0.137c0.1-0.091,0.149-0.197,0.149-0.32
			c0-0.101-0.033-0.191-0.099-0.271c-0.066-0.077-0.214-0.175-0.445-0.292c-0.248-0.128-0.417-0.255-0.506-0.379
			c-0.089-0.125-0.134-0.268-0.134-0.427c0-0.209,0.071-0.383,0.213-0.521c0.143-0.138,0.323-0.207,0.541-0.207
			C43.562,76.491,43.817,76.615,44.073,76.862z"/>
		<path fill="#FFFFFF" d="M49.908,75.502v3.807h-0.349v-0.472c-0.148,0.181-0.314,0.315-0.499,0.406
			c-0.184,0.091-0.385,0.137-0.604,0.137c-0.389,0-0.721-0.142-0.996-0.423c-0.275-0.281-0.413-0.625-0.413-1.029
			c0-0.395,0.139-0.733,0.417-1.015s0.612-0.422,1.002-0.422c0.225,0,0.43,0.049,0.612,0.144c0.183,0.096,0.343,0.24,0.481,0.432
			v-1.564H49.908z M48.495,76.832c-0.197,0-0.378,0.048-0.545,0.146c-0.167,0.097-0.299,0.232-0.397,0.407
			c-0.099,0.175-0.147,0.359-0.147,0.555c0,0.193,0.049,0.378,0.149,0.555c0.099,0.177,0.232,0.314,0.399,0.412
			c0.167,0.099,0.347,0.147,0.539,0.147c0.193,0,0.377-0.048,0.55-0.146c0.173-0.099,0.306-0.23,0.399-0.396
			c0.094-0.167,0.141-0.354,0.141-0.563c0-0.317-0.105-0.583-0.314-0.797C49.059,76.939,48.801,76.832,48.495,76.832z"/>
		<path fill="#FFFFFF" d="M53.538,78.397l0.298,0.157c-0.097,0.191-0.21,0.347-0.339,0.464c-0.128,0.118-0.272,0.207-0.432,0.27
			c-0.16,0.061-0.341,0.092-0.543,0.092c-0.448,0-0.798-0.146-1.052-0.44c-0.252-0.294-0.379-0.626-0.379-0.996
			c0-0.349,0.107-0.659,0.321-0.933c0.271-0.347,0.634-0.52,1.089-0.52c0.468,0,0.842,0.178,1.122,0.532
			c0.199,0.252,0.3,0.564,0.303,0.939h-2.472c0.007,0.319,0.108,0.581,0.306,0.785s0.441,0.306,0.73,0.306
			c0.14,0,0.276-0.023,0.408-0.072c0.133-0.049,0.245-0.113,0.338-0.194C53.33,78.707,53.43,78.577,53.538,78.397z M53.538,77.657
			c-0.047-0.188-0.116-0.339-0.206-0.451c-0.09-0.113-0.209-0.204-0.358-0.273s-0.304-0.104-0.467-0.104
			c-0.27,0-0.501,0.087-0.695,0.261c-0.142,0.126-0.249,0.315-0.321,0.567H53.538z"/>
		<path fill="#FFFFFF" d="M59.789,76.562v2.746h-0.348v-0.472c-0.148,0.181-0.314,0.315-0.499,0.406
			c-0.185,0.091-0.386,0.137-0.604,0.137c-0.39,0-0.721-0.142-0.997-0.423s-0.413-0.625-0.413-1.029
			c0-0.395,0.139-0.733,0.417-1.015c0.278-0.281,0.612-0.422,1.003-0.422c0.225,0,0.43,0.049,0.612,0.144
			c0.183,0.096,0.343,0.24,0.481,0.432v-0.504H59.789z M58.376,76.832c-0.197,0-0.378,0.048-0.544,0.146
			c-0.167,0.097-0.299,0.232-0.397,0.407s-0.147,0.359-0.147,0.555c0,0.193,0.05,0.378,0.149,0.555
			c0.099,0.177,0.232,0.314,0.399,0.412c0.167,0.099,0.347,0.147,0.539,0.147c0.193,0,0.376-0.048,0.55-0.146
			c0.173-0.099,0.307-0.23,0.4-0.396c0.093-0.167,0.14-0.354,0.14-0.563c0-0.317-0.105-0.583-0.314-0.797
			C58.94,76.939,58.683,76.832,58.376,76.832z"/>
		<path fill="#FFFFFF" d="M61.049,75.502h0.354v3.807h-0.354V75.502z"/>
		<path fill="#FFFFFF" d="M62.962,75.542h0.354v1.021h0.561v0.305h-0.561v2.441h-0.354v-2.441H62.48v-0.305h0.482V75.542z"/>
		<path fill="#FFFFFF" d="M66.224,76.491c0.423,0,0.774,0.153,1.052,0.46c0.253,0.279,0.379,0.609,0.379,0.992
			s-0.133,0.719-0.401,1.006c-0.267,0.287-0.611,0.431-1.03,0.431c-0.421,0-0.766-0.144-1.033-0.431s-0.401-0.623-0.401-1.006
			c0-0.381,0.126-0.711,0.379-0.99C65.448,76.646,65.799,76.491,66.224,76.491z M66.223,76.837c-0.294,0-0.546,0.108-0.757,0.326
			c-0.211,0.217-0.317,0.479-0.317,0.787c0,0.199,0.048,0.385,0.145,0.556c0.096,0.172,0.226,0.305,0.39,0.397
			c0.164,0.095,0.344,0.141,0.54,0.141c0.196,0,0.376-0.046,0.54-0.141c0.164-0.093,0.294-0.226,0.39-0.397
			c0.096-0.171,0.145-0.356,0.145-0.556c0-0.308-0.106-0.57-0.318-0.787C66.767,76.945,66.515,76.837,66.223,76.837z"/>
		<path fill="#FFFFFF" d="M70.516,76.562h0.376l0.922,2.002l0.911-2.002h0.379l-1.257,2.746h-0.066L70.516,76.562z"/>
		<path fill="#FFFFFF" d="M76.896,76.562v2.746h-0.349v-0.472c-0.148,0.181-0.314,0.315-0.498,0.406
			c-0.185,0.091-0.386,0.137-0.605,0.137c-0.389,0-0.721-0.142-0.996-0.423c-0.275-0.281-0.413-0.625-0.413-1.029
			c0-0.395,0.139-0.733,0.417-1.015c0.278-0.281,0.612-0.422,1.002-0.422c0.226,0,0.43,0.049,0.612,0.144
			c0.183,0.096,0.343,0.24,0.481,0.432v-0.504H76.896z M75.483,76.832c-0.197,0-0.378,0.048-0.545,0.146
			c-0.167,0.097-0.299,0.232-0.397,0.407c-0.098,0.175-0.147,0.359-0.147,0.555c0,0.193,0.05,0.378,0.149,0.555
			s0.232,0.314,0.399,0.412c0.168,0.099,0.347,0.147,0.539,0.147c0.193,0,0.376-0.048,0.549-0.146c0.174-0.099,0.307-0.23,0.4-0.396
			c0.093-0.167,0.14-0.354,0.14-0.563c0-0.317-0.104-0.583-0.314-0.797C76.047,76.939,75.789,76.832,75.483,76.832z"/>
		<path fill="#FFFFFF" d="M78.156,75.502h0.354v3.807h-0.354V75.502z"/>
		<path fill="#FFFFFF" d="M81.062,76.491c0.423,0,0.774,0.153,1.052,0.46c0.253,0.279,0.379,0.609,0.379,0.992
			s-0.133,0.719-0.401,1.006s-0.611,0.431-1.031,0.431c-0.421,0-0.766-0.144-1.033-0.431c-0.268-0.287-0.401-0.623-0.401-1.006
			c0-0.381,0.126-0.711,0.379-0.99C80.285,76.646,80.636,76.491,81.062,76.491z M81.06,76.837c-0.294,0-0.546,0.108-0.758,0.326
			c-0.211,0.217-0.316,0.479-0.316,0.787c0,0.199,0.048,0.385,0.145,0.556c0.096,0.172,0.226,0.305,0.39,0.397
			c0.164,0.095,0.344,0.141,0.54,0.141s0.376-0.046,0.54-0.141c0.164-0.093,0.294-0.226,0.39-0.397
			c0.096-0.171,0.144-0.356,0.144-0.556c0-0.308-0.105-0.57-0.317-0.787C81.604,76.945,81.353,76.837,81.06,76.837z"/>
		<path fill="#FFFFFF" d="M83.53,76.562h0.361v0.401c0.107-0.158,0.222-0.276,0.341-0.355c0.12-0.078,0.244-0.117,0.374-0.117
			c0.098,0,0.202,0.031,0.313,0.094l-0.184,0.298c-0.074-0.032-0.136-0.048-0.187-0.048c-0.118,0-0.232,0.048-0.341,0.146
			c-0.109,0.097-0.193,0.246-0.25,0.45c-0.044,0.157-0.066,0.473-0.066,0.949v0.929H83.53V76.562z"/>
	</g>
</g>
<g id="Capa_5">
</g>
<g id="Capa_8">
</g>
<g id="Capa_2">
</g>
<g id="Capa_3">
</g>
</svg>
