<?xml version="1.0" encoding="utf-8"?>
<!-- Generator: Adobe Illustrator 16.0.0, SVG Export Plug-In . SVG Version: 6.00 Build 0)  -->
<!DOCTYPE svg PUBLIC "-//W3C//DTD SVG 1.1//EN" "http://www.w3.org/Graphics/SVG/1.1/DTD/svg11.dtd">
<svg version="1.1" xmlns="http://www.w3.org/2000/svg" xmlns:xlink="http://www.w3.org/1999/xlink" x="0px" y="0px"
	 width="99.965px" height="100.213px" viewBox="0 0 99.965 100.213" enable-background="new 0 0 99.965 100.213"
	 xml:space="preserve">
<g id="Capa_4">
</g>
<g id="Capa_6">
</g>
<g id="Capa_7">
	<g>
		<linearGradient id="SVGID_1_" gradientUnits="userSpaceOnUse" x1="5.415" y1="57.6445" x2="25.7824" y2="42.47">
			<stop  offset="0" style="stop-color:#BDBDBD"/>
			<stop  offset="0.2778" style="stop-color:#C3C3C3"/>
			<stop  offset="0.669" style="stop-color:#D6D6D6"/>
			<stop  offset="1" style="stop-color:#EBEBEB"/>
		</linearGradient>
		<path fill="url(#SVGID_1_)" d="M30.648,47.887v4.831c0,1.265-1.025,2.287-2.289,2.287h-5.483c-0.373,0-0.729,0.07-1.057,0.197
			c-0.724,0.283-1.307,0.847-1.612,1.561c-0.149,0.349-0.233,0.733-0.233,1.14v5.421c0,1.266-1.023,2.287-2.287,2.287h-4.838
			c-1.262,0-2.286-1.021-2.286-2.287v-4.412c0,0-0.054-0.684,0.067-0.857c0.102-0.149,0.403-0.464,0.403-0.464l2.523-2.511
			c1.811,0.557,3.859,0.123,5.298-1.295l0.025-0.026c0.155-0.154,0.3-0.315,0.433-0.484c0.907-1.159,1.265-2.608,1.073-3.997
			c-0.039-0.281-0.101-0.562-0.185-0.835l-3.347,3.343c-0.093,0.093-0.197,0.165-0.31,0.219c-0.027,0.013-0.054,0.023-0.08,0.034
			c-0.003,0.001-0.006,0.002-0.008,0.003s-0.005,0.003-0.007,0.003c-0.008,0.004-0.016,0.006-0.023,0.008
			c-0.003,0-0.005,0.002-0.007,0.003c-0.025,0.008-0.049,0.016-0.075,0.021c-0.024,0.007-0.049,0.012-0.073,0.016
			c-0.03,0.006-0.062,0.011-0.093,0.014c-0.019,0.003-0.038,0.004-0.059,0.004c-0.021,0.003-0.039,0.011-0.062,0.011l-0.025,0.001
			c-0.139-0.003-0.275-0.021-0.405-0.076c-0.133-0.055-0.259-0.135-0.365-0.243l-1.935-1.932c-0.107-0.107-0.188-0.232-0.242-0.365
			c-0.056-0.129-0.073-0.268-0.075-0.404l-0.001-0.023c-0.001-0.062,0.013-0.122,0.024-0.185c0.003-0.021,0.007-0.042,0.011-0.062
			c0.003-0.016,0.006-0.029,0.01-0.041c0.003-0.014,0.006-0.027,0.012-0.041c0.007-0.027,0.017-0.055,0.025-0.08
			c0.012-0.026,0.023-0.054,0.034-0.078c0.055-0.113,0.127-0.219,0.22-0.311l3.346-3.343c-0.274-0.083-0.555-0.146-0.835-0.184
			c-1.391-0.192-2.841,0.165-4.002,1.071c-0.168,0.133-0.33,0.276-0.486,0.432l-0.024,0.023c-1.422,1.439-1.854,3.486-1.296,5.295
			l-2.812,2.832c0,0-0.398,0.467-0.592,0.549c-0.14,0.058-0.607,0.051-0.607,0.051h-3.75C1.025,55.005,0,53.982,0,52.718v-4.831
			c0-1.262,1.025-2.285,2.287-2.285h5.365c0.4,0,0.781-0.08,1.131-0.227c0.728-0.307,1.304-0.901,1.586-1.639
			c0.124-0.322,0.193-0.674,0.193-1.041v-5.414c0-1.262,1.024-2.285,2.286-2.285h4.838c1.264,0,2.287,1.023,2.287,2.285v5.414
			c0,0.407,0.085,0.795,0.237,1.146c0.305,0.711,0.888,1.277,1.613,1.561c0.327,0.129,0.686,0.199,1.06,0.199h5.476
			C29.623,45.602,30.648,46.625,30.648,47.887z"/>
		<g>
			<path fill="#C9C9C9" d="M37.412,53.274v-9.878h2.577c0.772,0,1.433,0.275,1.98,0.822c0.547,0.547,0.822,1.207,0.822,1.979
				c0,0.742-0.258,1.379-0.768,1.914c0.394,0.258,0.704,0.593,0.931,1.003c0.23,0.419,0.349,0.872,0.349,1.358
				c0,0.772-0.273,1.434-0.822,1.98c-0.546,0.547-1.207,0.821-1.98,0.821H37.412z M38.746,47.666h1.213
				c0.416,0,0.766-0.145,1.058-0.43c0.291-0.289,0.438-0.635,0.438-1.039c0-0.406-0.143-0.752-0.427-1.037
				c-0.291-0.287-0.637-0.43-1.039-0.43h-1.244L38.746,47.666L38.746,47.666z M38.746,51.939h1.755c0.403,0,0.75-0.143,1.04-0.429
				c0.286-0.29,0.429-0.637,0.429-1.039c0-0.405-0.143-0.754-0.429-1.044c-0.29-0.285-0.637-0.429-1.04-0.429h-1.755V51.939z"/>
			<path fill="#C9C9C9" d="M45.375,53.274h-1.348v-9.878h1.348V53.274z"/>
			<path fill="#C9C9C9" d="M47.547,51.823c-0.966-0.964-1.448-2.13-1.448-3.493c0-1.357,0.482-2.52,1.448-3.49
				c0.966-0.961,2.131-1.443,3.496-1.443c1.355,0,2.519,0.482,3.489,1.443c0.962,0.971,1.443,2.133,1.443,3.49
				c0,1.363-0.481,2.529-1.443,3.493c-0.971,0.967-2.134,1.451-3.489,1.451C49.678,53.274,48.513,52.79,47.547,51.823z
				 M48.465,45.758c-0.708,0.712-1.063,1.57-1.063,2.572c0,1.006,0.355,1.865,1.063,2.576c0.711,0.708,1.571,1.063,2.578,1.063
				c1.003,0,1.859-0.355,2.571-1.063c0.714-0.711,1.068-1.57,1.068-2.576c0-1.003-0.354-1.86-1.068-2.572
				c-0.712-0.713-1.568-1.068-2.571-1.068C50.036,44.689,49.176,45.045,48.465,45.758z"/>
			<path fill="#C9C9C9" d="M61.342,53.274l-3.315-5.138v5.138h-1.327v-9.878l4.643,7.106l4.637-7.106v9.878H64.65v-5.138
				L61.342,53.274z"/>
			<path fill="#C9C9C9" d="M68.055,44.744v4.587h3.363v1.354h-3.363v1.236h4.358v1.354h-5.712v-9.878h5.712v1.348H68.055z
				 M70.867,41.949l-2.105,1.164l-0.558-1.195l2.108-1.164L70.867,41.949z"/>
			<path fill="#C9C9C9" d="M73.137,53.274v-9.878h2.245c0.672,0,1.314,0.129,1.922,0.387c0.59,0.25,1.116,0.604,1.573,1.062
				c0.452,0.451,0.801,0.975,1.053,1.57c0.262,0.607,0.393,1.245,0.393,1.914c0,0.676-0.131,1.318-0.393,1.926
				c-0.252,0.59-0.601,1.114-1.053,1.567c-0.457,0.457-0.983,0.809-1.573,1.058c-0.607,0.263-1.25,0.394-1.922,0.394H73.137z
				 M74.502,51.903h0.88c0.484,0,0.945-0.093,1.39-0.279c0.426-0.18,0.806-0.437,1.136-0.765c0.329-0.331,0.588-0.709,0.771-1.137
				c0.187-0.441,0.279-0.907,0.279-1.393c0-0.483-0.093-0.945-0.279-1.389c-0.183-0.427-0.441-0.803-0.771-1.129
				c-0.33-0.33-0.71-0.586-1.136-0.768c-0.444-0.188-0.905-0.283-1.39-0.283h-0.88V51.903z"/>
			<path fill="#C9C9C9" d="M82.392,53.274h-1.346v-9.878h1.346V53.274z"/>
			<path fill="#C9C9C9" d="M90.536,45.643c-0.31-0.289-0.663-0.519-1.057-0.688c-0.455-0.189-0.93-0.283-1.424-0.283
				c-0.498,0-0.971,0.094-1.426,0.283c-0.438,0.189-0.827,0.453-1.164,0.79c-0.339,0.339-0.601,0.725-0.785,1.159
				c-0.189,0.46-0.285,0.935-0.285,1.426c0,0.498,0.096,0.975,0.285,1.43c0.185,0.438,0.446,0.826,0.785,1.158
				c0.337,0.345,0.726,0.607,1.164,0.792c0.455,0.189,0.929,0.283,1.426,0.283c0.494,0,0.969-0.094,1.424-0.283
				c0.391-0.168,0.742-0.396,1.057-0.682l0.905,0.905c-0.436,0.402-0.924,0.72-1.469,0.953c-0.61,0.259-1.25,0.387-1.917,0.387
				c-0.669,0-1.312-0.128-1.927-0.387c-0.587-0.249-1.111-0.602-1.568-1.057c-0.457-0.458-0.808-0.984-1.058-1.575
				c-0.258-0.611-0.387-1.254-0.387-1.926c0-0.668,0.129-1.308,0.387-1.92c0.25-0.591,0.601-1.114,1.058-1.569
				s0.98-0.807,1.568-1.057c0.615-0.258,1.258-0.387,1.927-0.387c0.667,0,1.307,0.129,1.917,0.387
				c0.549,0.23,1.038,0.548,1.469,0.953L90.536,45.643z"/>
			<path fill="#C9C9C9" d="M97.973,52.049h-3.995l-0.491,1.226h-1.472l3.955-9.896l3.959,9.896h-1.467L97.973,52.049z
				 M97.424,50.685l-1.454-3.63l-1.443,3.63H97.424z"/>
		</g>
		<g>
			<path fill="#C9C9C9" d="M73.181,60.039V55.95h0.929c0.277,0,0.542,0.054,0.795,0.159c0.245,0.104,0.461,0.251,0.651,0.441
				c0.188,0.187,0.331,0.402,0.436,0.65c0.107,0.25,0.162,0.515,0.162,0.79c0,0.282-0.055,0.547-0.162,0.799
				c-0.104,0.243-0.248,0.461-0.436,0.649c-0.19,0.188-0.407,0.334-0.651,0.438c-0.253,0.108-0.518,0.162-0.795,0.162H73.181
				L73.181,60.039z M73.743,59.471h0.366c0.199,0,0.391-0.038,0.574-0.114c0.177-0.074,0.333-0.18,0.47-0.317
				c0.136-0.137,0.244-0.294,0.32-0.471c0.076-0.182,0.114-0.376,0.114-0.577c0-0.199-0.038-0.389-0.114-0.573
				c-0.077-0.176-0.185-0.332-0.32-0.467c-0.137-0.136-0.293-0.243-0.47-0.317c-0.184-0.079-0.375-0.118-0.574-0.118h-0.366V59.471z
				"/>
			<path fill="#C9C9C9" d="M78.333,56.509v1.899h1.393v0.559h-1.393v0.512h1.804v0.561h-2.364V55.95h2.364v0.559H78.333
				L78.333,56.509z"/>
			<path fill="#C9C9C9" d="M84.145,60.039h-2.373V55.95h0.557v3.528h1.816V60.039L84.145,60.039z"/>
			<path fill="#C9C9C9" d="M88.784,59.744c-0.258-0.219-0.387-0.509-0.387-0.875h0.553c0,0.208,0.079,0.369,0.239,0.483
				c0.131,0.089,0.275,0.134,0.438,0.134c0.202,0,0.371-0.051,0.511-0.151c0.139-0.102,0.209-0.248,0.209-0.439
				c0-0.13-0.042-0.228-0.128-0.3c-0.116-0.119-0.324-0.198-0.624-0.231c-0.422-0.05-0.74-0.197-0.962-0.439
				c-0.187-0.201-0.278-0.437-0.278-0.702c0-0.312,0.093-0.587,0.28-0.829c0.231-0.295,0.555-0.443,0.969-0.443
				c0.382,0,0.696,0.124,0.943,0.37c0.248,0.247,0.371,0.578,0.371,0.992h-0.549c0-0.236-0.057-0.424-0.171-0.562
				c-0.136-0.167-0.333-0.25-0.595-0.25c-0.286,0-0.49,0.118-0.606,0.355c-0.06,0.124-0.09,0.247-0.09,0.366
				c0,0.105,0.037,0.203,0.109,0.299c0.122,0.162,0.338,0.259,0.644,0.294c0.463,0.054,0.796,0.203,1.001,0.451
				c0.158,0.188,0.237,0.426,0.237,0.713c0,0.291-0.119,0.54-0.359,0.749c-0.24,0.207-0.545,0.311-0.912,0.311
				C89.303,60.039,89.023,59.941,88.784,59.744z"/>
			<path fill="#C9C9C9" d="M92.988,59.588c-0.3-0.3-0.449-0.663-0.449-1.087V55.95h0.56v2.551c0,0.271,0.095,0.501,0.284,0.691
				c0.192,0.191,0.422,0.286,0.693,0.286c0.269,0,0.498-0.095,0.691-0.286c0.189-0.19,0.285-0.421,0.285-0.691V55.95h0.559v2.551
				c0,0.424-0.15,0.787-0.448,1.087c-0.3,0.301-0.663,0.451-1.087,0.451C93.65,60.039,93.289,59.889,92.988,59.588z"/>
			<path fill="#C9C9C9" d="M99.179,60.039l-0.725-0.911h-0.605v0.911h-0.577V55.95h1.012c0.438,0,0.812,0.156,1.122,0.466
				c0.31,0.309,0.465,0.684,0.465,1.121c0,0.441-0.155,0.815-0.465,1.123c-0.107,0.107-0.228,0.198-0.359,0.273l0.866,1.105H99.179z
				 M98.283,58.551c0.278,0,0.517-0.1,0.715-0.3c0.199-0.195,0.299-0.434,0.299-0.714c0-0.279-0.1-0.518-0.299-0.716
				c-0.198-0.196-0.437-0.296-0.715-0.296h-0.435v2.025H98.283L98.283,58.551z"/>
		</g>
		<rect x="39.146" y="57.691" fill="#C9C9C9" width="32.344" height="0.608"/>
	</g>
</g>
<g id="Capa_1">
</g>
<g id="Capa_9">
</g>
<g id="Capa_5">
</g>
<g id="Capa_8">
</g>
<g id="Capa_2">
</g>
<g id="Capa_3">
</g>
</svg>
