<?xml version="1.0" encoding="utf-8"?>
<!-- Generator: Adobe Illustrator 21.0.0, SVG Export Plug-In . SVG Version: 6.00 Build 0)  -->
<svg version="1.1" id="Capa_1" xmlns="http://www.w3.org/2000/svg" xmlns:xlink="http://www.w3.org/1999/xlink" x="0px" y="0px"
	 viewBox="0 0 127 39.6" style="enable-background:new 0 0 127 39.6;" xml:space="preserve">
<style type="text/css">
	.st0{fill:none;stroke:#F9FF00;stroke-width:0.2379;stroke-miterlimit:10;}
	.st1{fill:#00AAFF;}
	.st2{fill:#00FF79;}
	.st3{fill:#FF7BF6;}
	.st4{fill:#FF0000;}
	.st5{fill:#FFFFFF;}
	.st6{fill:#BF47BF;}
	.st7{fill:#00E1FF;}
	.st8{fill:#93E800;}
	.st9{fill:#FFAA00;}
	.st10{fill:#FF3B3B;}
	.st11{fill:#FFFF00;}
	.st12{fill:#FFE800;}
	.st13{fill:#F9FF00;}
	.st14{fill:#00CDAF;}
	.st15{fill:#2FB700;}
</style>
<g id="Capa_4">
</g>
<g id="Capa_7">
</g>
<g id="Capa_1_1_">
</g>
<g id="Capa_9">
</g>
<g id="Capa_5">
</g>
<g id="Capa_8">
</g>
<g id="Capa_2">
</g>
<g>
	<g>
		<path class="st0" d="M99.3,10c0.4,0,0.9,0.2,1.1,0.5c0.3,0.3,0.5,0.7,0.5,1.1c0,0.4-0.2,0.9-0.5,1.1c-0.3,0.3-0.7,0.5-1.1,0.5
			h-2.6v14.9c0,0.4-0.2,0.9-0.5,1.1c-0.3,0.3-0.7,0.5-1.1,0.5c-0.4,0-0.9-0.2-1.1-0.5c-0.3-0.3-0.5-0.7-0.5-1.1V13.4h-2.6
			c-0.4,0-0.9-0.2-1.2-0.5c-0.3-0.3-0.5-0.7-0.5-1.1s0.2-0.9,0.5-1.1c0.3-0.3,0.7-0.5,1.2-0.5h2.6V5c0-0.4,0.2-0.9,0.5-1.1
			c0.3-0.3,0.7-0.5,1.1-0.5c0.4,0,0.9,0.2,1.1,0.5c0.3,0.3,0.5,0.7,0.5,1.1V10H99.3z"/>
	</g>
</g>
<g>
	<g>
		<path class="st1" d="M63.6,10c2.7,0,5,0.9,6.9,2.9c1.9,1.9,2.8,4.3,2.8,7c0,2.8-0.9,5.1-2.8,7c-1.9,1.9-4.2,2.9-6.9,2.9
			c-2.5,0-4.7-0.9-6.5-2.5V35c0,0.4-0.2,0.9-0.5,1.1c-0.3,0.3-0.7,0.5-1.1,0.5c-0.4,0-0.9-0.2-1.2-0.5c-0.3-0.3-0.5-0.7-0.5-1.1
			V11.7c0-0.4,0.2-0.9,0.5-1.1c0.3-0.3,0.7-0.5,1.2-0.5c0.4,0,0.9,0.2,1.1,0.5c0.3,0.3,0.5,0.7,0.5,1.1v0.9
			C59.1,10.9,61.2,10,63.6,10z M63.6,26.6c1.8,0,3.3-0.6,4.6-1.9c1.3-1.3,1.9-2.8,1.9-4.7s-0.6-3.4-1.9-4.7s-2.8-1.9-4.6-1.9
			c-1.8,0-3.3,0.6-4.6,1.9c-1.3,1.3-1.9,2.8-1.9,4.7s0.6,3.4,1.9,4.7C60.4,25.9,61.8,26.6,63.6,26.6z"/>
	</g>
</g>
<g>
	<g>
		<path class="st2" d="M85.3,10c2.5,0,4.7,0.9,6.5,2.9c1.8,1.9,2.7,4.3,2.7,7v8.3c0,0.4-0.2,0.9-0.5,1.1c-0.3,0.3-0.7,0.5-1.1,0.5
			c-0.4,0-0.9-0.2-1.1-0.5c-0.3-0.3-0.5-0.7-0.5-1.1V20c0-1.8-0.6-3.4-1.7-4.7c-1.1-1.3-2.5-1.9-4.1-1.9c-1.6,0-3,0.6-4.1,1.9
			s-1.7,2.8-1.7,4.7v8.3c0,0.4-0.2,0.9-0.5,1.1c-0.3,0.3-0.7,0.5-1.1,0.5c-0.4,0-0.9-0.2-1.2-0.5c-0.3-0.3-0.5-0.7-0.5-1.1V11.7
			c0-0.4,0.2-0.9,0.5-1.1c0.3-0.3,0.7-0.5,1.2-0.5c0.4,0,0.9,0.2,1.1,0.5c0.3,0.3,0.5,0.7,0.5,1.1v0.7C81.1,10.7,83.1,10,85.3,10z"
			/>
	</g>
</g>
<g>
	<g>
		<path class="st3" d="M73.8,3.4c0.3,0,0.7,0.1,1,0.3c0.3,0.2,0.6,0.4,0.8,0.8c0.2,0.3,0.3,0.7,0.3,1s-0.1,0.7-0.3,1
			c-0.2,0.3-0.4,0.6-0.8,0.8c-0.3,0.2-0.7,0.3-1,0.3c-0.3,0-0.7-0.1-1-0.3c-0.3-0.2-0.6-0.4-0.8-0.8c-0.3-0.3-0.3-0.7-0.3-1
			s0.1-0.7,0.3-1c0.2-0.3,0.4-0.6,0.8-0.8C73.1,3.5,73.5,3.4,73.8,3.4z M73.8,10c0.4,0,0.9,0.2,1.1,0.5c0.3,0.3,0.5,0.7,0.5,1.1
			v16.6c0,0.4-0.2,0.9-0.5,1.1c-0.3,0.3-0.7,0.5-1.1,0.5s-0.9-0.2-1.1-0.5c-0.3-0.3-0.5-0.7-0.5-1.1V11.7c0-0.4,0.2-0.9,0.5-1.1
			C73,10.2,73.3,10,73.8,10z"/>
	</g>
</g>
<g>
	<g>
		<path class="st4" d="M113.6,10c0.4,0,0.9,0.2,1.1,0.5c0.3,0.3,0.5,0.7,0.5,1.1v16.6c0,0.4-0.2,0.9-0.5,1.1
			c-0.3,0.3-0.7,0.5-1.1,0.5c-0.4,0-0.9-0.2-1.1-0.5c-0.3-0.3-0.5-0.7-0.5-1.1v-0.9c-1.8,1.6-4,2.5-6.5,2.5c-2.7,0-5-0.9-6.9-2.9
			c-1.9-1.9-2.8-4.2-2.8-7s0.9-5.1,2.8-7c1.9-2,4.2-2.9,6.9-2.9c2.5,0,4.7,0.9,6.5,2.5v-0.9c0-0.4,0.2-0.9,0.5-1.1
			C112.7,10.2,113.1,10,113.6,10z M105.5,26.6c1.8,0,3.3-0.6,4.6-1.9c1.3-1.3,1.9-2.8,1.9-4.7s-0.6-3.4-1.9-4.7s-2.8-1.9-4.6-1.9
			s-3.3,0.6-4.6,1.9S99,18.2,99,20s0.6,3.4,1.9,4.7C102.2,26,103.7,26.6,105.5,26.6z"/>
	</g>
</g>
<g>
	<path class="st5" d="M60.8,33.2h0.5v0.6c0.2-0.3,0.3-0.3,0.5-0.5c0.3-0.2,0.4-0.2,0.7-0.2c0.2,0,0.3,0,0.5,0.1s0.3,0.2,0.3,0.3
		c0.1,0.1,0.2,0.3,0.3,0.4c0.2-0.3,0.3-0.5,0.5-0.6c0.3-0.2,0.4-0.2,0.7-0.2s0.4,0.1,0.6,0.2c0.2,0.1,0.3,0.3,0.4,0.5
		s0.2,0.5,0.2,0.9v1.9h-0.4v-1.9c0-0.3,0-0.6-0.1-0.8s-0.2-0.3-0.3-0.3c-0.1-0.1-0.3-0.1-0.4-0.1c-0.3,0-0.4,0.1-0.6,0.2
		c-0.2,0.1-0.3,0.3-0.4,0.5c-0.1,0.2-0.1,0.6-0.1,1v1.4h-0.4v-1.8c0-0.4,0-0.7-0.1-0.9S63,33.8,63,33.7c-0.2-0.1-0.3-0.2-0.4-0.2
		s-0.4,0.1-0.6,0.2s-0.3,0.3-0.4,0.5c-0.2,0.3-0.2,0.6-0.2,1v1.5h-0.4L60.8,33.2L60.8,33.2z"/>
	<path class="st5" d="M71.3,33.2v3.4h-0.4v-0.6c-0.2,0.3-0.4,0.4-0.6,0.5c-0.3,0.1-0.5,0.2-0.8,0.2c-0.5,0-0.9-0.2-1.3-0.5
		c-0.3-0.3-0.5-0.8-0.5-1.3c0-0.5,0.2-0.9,0.5-1.3c0.3-0.3,0.8-0.5,1.3-0.5c0.3,0,0.5,0.1,0.8,0.2c0.3,0.1,0.4,0.3,0.6,0.5v-0.6
		H71.3z M69.5,33.6c-0.3,0-0.5,0.1-0.7,0.2c-0.2,0.1-0.3,0.3-0.5,0.5c-0.1,0.3-0.2,0.4-0.2,0.7c0,0.3,0.1,0.5,0.2,0.7
		c0.1,0.3,0.3,0.4,0.5,0.5c0.2,0.1,0.4,0.2,0.7,0.2s0.5-0.1,0.7-0.2c0.3-0.1,0.3-0.3,0.5-0.5c0.2-0.3,0.2-0.4,0.2-0.7
		c0-0.4-0.2-0.8-0.4-1C70.2,33.7,69.9,33.6,69.5,33.6z"/>
	<path class="st5" d="M73.1,33.2h0.4v0.6c0.2-0.3,0.3-0.4,0.6-0.5s0.4-0.2,0.7-0.2c0.3,0,0.5,0.1,0.7,0.2c0.2,0.2,0.3,0.3,0.4,0.5
		c0.1,0.3,0.2,0.6,0.2,1v1.8h-0.4V35c0-0.4,0-0.7-0.1-0.8c-0.1-0.3-0.2-0.4-0.3-0.5c-0.2-0.1-0.3-0.2-0.6-0.2s-0.5,0.1-0.7,0.3
		c-0.2,0.2-0.3,0.4-0.4,0.7c0,0.2-0.1,0.5-0.1,0.9v1.3h-0.4V33.2z"/>
	<path class="st5" d="M77.9,33.2h0.4v1.6c0,0.4,0,0.7,0.1,0.8c0.1,0.2,0.2,0.3,0.3,0.5s0.4,0.2,0.7,0.2s0.4-0.1,0.6-0.2
		c0.2-0.1,0.3-0.3,0.3-0.5c0.1-0.2,0.1-0.4,0.1-0.9v-1.6h0.4v1.7c0,0.5-0.1,0.9-0.2,1.1s-0.3,0.4-0.5,0.6c-0.3,0.2-0.5,0.2-0.9,0.2
		c-0.3,0-0.6-0.1-0.9-0.2C78.2,36.4,78,36.3,78,36s-0.2-0.6-0.2-1.1L77.9,33.2L77.9,33.2z"/>
	<path class="st5" d="M86.2,33.2v3.4h-0.4v-0.6c-0.2,0.3-0.4,0.4-0.6,0.5c-0.3,0.1-0.5,0.2-0.8,0.2c-0.5,0-0.9-0.2-1.3-0.5
		c-0.3-0.3-0.5-0.8-0.5-1.3c0-0.5,0.2-0.9,0.5-1.3c0.3-0.3,0.8-0.5,1.3-0.5c0.3,0,0.5,0.1,0.8,0.2c0.3,0.1,0.4,0.3,0.6,0.5v-0.6
		H86.2z M84.4,33.6c-0.3,0-0.5,0.1-0.7,0.2c-0.2,0.1-0.3,0.3-0.5,0.5C83,34.5,83,34.7,83,35c0,0.3,0.1,0.5,0.2,0.7
		c0.1,0.3,0.3,0.4,0.5,0.5c0.2,0.1,0.4,0.2,0.7,0.2s0.5-0.1,0.7-0.2c0.2-0.1,0.3-0.3,0.5-0.5c0.2-0.3,0.2-0.4,0.2-0.7
		c0-0.4-0.2-0.8-0.4-1C85.2,33.7,84.9,33.6,84.4,33.6z"/>
	<path class="st5" d="M88,31.9h0.4v4.8H88V31.9z"/>
	<path class="st5" d="M90.4,31.8c0.1,0,0.2,0,0.3,0.1c0.1,0.1,0.1,0.2,0.1,0.3s0,0.2-0.1,0.3s-0.2,0.1-0.3,0.1c-0.1,0-0.2,0-0.3-0.1
		C90,32.3,90,32.2,90,32.1s0-0.2,0.1-0.3C90.2,31.9,90.3,31.8,90.4,31.8z M90.2,33.2h0.4v3.4h-0.4V33.2z"/>
	<path class="st5" d="M95.9,31.9v4.8h-0.4v-0.6c-0.2,0.3-0.4,0.4-0.6,0.5c-0.3,0.1-0.5,0.2-0.8,0.2c-0.5,0-0.9-0.2-1.3-0.5
		c-0.3-0.3-0.5-0.8-0.5-1.3c0-0.5,0.2-0.9,0.5-1.3c0.3-0.3,0.8-0.5,1.3-0.5c0.3,0,0.5,0.1,0.8,0.2c0.3,0.1,0.4,0.3,0.6,0.5v-2H95.9z
		 M94.1,33.6c-0.3,0-0.5,0.1-0.7,0.2S93,34,92.9,34.3c-0.1,0.3-0.2,0.4-0.2,0.7c0,0.3,0.1,0.5,0.2,0.7c0.1,0.3,0.3,0.4,0.5,0.5
		c0.3,0.2,0.4,0.2,0.7,0.2c0.3,0,0.5-0.1,0.7-0.2c0.3-0.1,0.3-0.3,0.5-0.5c0.2-0.3,0.2-0.4,0.2-0.7c0-0.4-0.2-0.8-0.4-1
		C94.8,33.7,94.5,33.6,94.1,33.6z"/>
	<path class="st5" d="M101.2,33.2v3.4h-0.4v-0.6c-0.2,0.3-0.4,0.4-0.6,0.5c-0.3,0.1-0.5,0.2-0.8,0.2c-0.5,0-0.9-0.2-1.3-0.5
		c-0.3-0.3-0.5-0.8-0.5-1.3c0-0.5,0.2-0.9,0.5-1.3c0.3-0.3,0.8-0.5,1.3-0.5c0.3,0,0.5,0.1,0.8,0.2c0.3,0.1,0.4,0.3,0.6,0.5v-0.6
		H101.2z M99.4,33.6c-0.3,0-0.5,0.1-0.7,0.2c-0.2,0.1-0.3,0.3-0.5,0.5C98,34.5,98,34.7,98,35c0,0.3,0.1,0.5,0.2,0.7
		c0.1,0.3,0.3,0.4,0.5,0.5c0.2,0.1,0.4,0.2,0.7,0.2s0.5-0.1,0.7-0.2c0.2-0.1,0.3-0.3,0.5-0.5c0.2-0.3,0.2-0.4,0.2-0.7
		c0-0.4-0.2-0.8-0.4-1C100.1,33.7,99.8,33.6,99.4,33.6z"/>
	<path class="st5" d="M106.5,31.9v4.8h-0.4v-0.6c-0.2,0.3-0.4,0.4-0.6,0.5c-0.3,0.1-0.5,0.2-0.8,0.2c-0.5,0-0.9-0.2-1.3-0.5
		c-0.3-0.3-0.5-0.8-0.5-1.3c0-0.5,0.2-0.9,0.5-1.3c0.3-0.3,0.8-0.5,1.3-0.5c0.3,0,0.5,0.1,0.8,0.2c0.3,0.1,0.4,0.3,0.6,0.5v-2H106.5
		z M104.7,33.6c-0.3,0-0.5,0.1-0.7,0.2s-0.3,0.3-0.5,0.5c-0.1,0.3-0.2,0.4-0.2,0.7c0,0.3,0.1,0.5,0.2,0.7c0.1,0.3,0.3,0.4,0.5,0.5
		c0.2,0.1,0.4,0.2,0.7,0.2s0.5-0.1,0.7-0.2c0.3-0.1,0.3-0.3,0.5-0.5c0.2-0.3,0.2-0.4,0.2-0.7c0-0.4-0.2-0.8-0.4-1
		C105.5,33.7,105.1,33.6,104.7,33.6z"/>
	<path class="st5" d="M111.3,35.6l0.3,0.2c-0.1,0.3-0.3,0.4-0.4,0.6c-0.2,0.2-0.3,0.3-0.5,0.3c-0.2,0.1-0.4,0.1-0.7,0.1
		c-0.6,0-1-0.2-1.3-0.5c-0.3-0.3-0.5-0.8-0.5-1.3c0-0.4,0.2-0.9,0.4-1.2c0.3-0.4,0.8-0.7,1.4-0.7c0.6,0,1,0.3,1.4,0.7
		c0.3,0.3,0.3,0.7,0.3,1.2h-3.1c0,0.4,0.2,0.8,0.3,1c0.3,0.3,0.5,0.3,0.9,0.3c0.2,0,0.3,0,0.5-0.1c0.2-0.1,0.3-0.2,0.4-0.3
		C111,35.9,111.2,35.7,111.3,35.6z M111.3,34.6c-0.1-0.3-0.2-0.4-0.3-0.6c-0.1-0.2-0.3-0.3-0.4-0.3c-0.2-0.1-0.3-0.2-0.6-0.2
		c-0.3,0-0.6,0.1-0.9,0.3c-0.2,0.2-0.3,0.4-0.4,0.7L111.3,34.6L111.3,34.6z"/>
	<path class="st5" d="M115.2,33.6l-0.3,0.3c-0.3-0.3-0.4-0.3-0.7-0.3c-0.2,0-0.3,0.1-0.3,0.2c-0.1,0.1-0.2,0.2-0.2,0.3
		c0,0.1,0,0.3,0.1,0.3c0.1,0.1,0.3,0.3,0.5,0.3c0.3,0.2,0.5,0.3,0.7,0.5c0.1,0.2,0.2,0.3,0.2,0.5c0,0.3-0.1,0.5-0.3,0.7
		c-0.2,0.2-0.4,0.3-0.8,0.3c-0.2,0-0.4-0.1-0.6-0.2c-0.2-0.1-0.3-0.2-0.4-0.3l0.3-0.3c0.3,0.3,0.4,0.3,0.7,0.3
		c0.2,0,0.3-0.1,0.4-0.2c0.1-0.1,0.2-0.3,0.2-0.4c0-0.1,0-0.3-0.1-0.3c-0.1-0.1-0.3-0.3-0.6-0.3c-0.3-0.2-0.5-0.3-0.6-0.5
		s-0.2-0.3-0.2-0.5c0-0.3,0.1-0.5,0.3-0.7c0.2-0.2,0.4-0.3,0.7-0.3C114.5,33.2,114.9,33.3,115.2,33.6z"/>
</g>
<path class="st3" d="M39.8,16.3c0-0.3,0-0.4,0-0.6c0.2,0,0.2,0.1,0.3,0.1C40,15.7,39.9,16,39.8,16.3z"/>
<path class="st6" d="M39.8,16.3c-0.3,0.7-0.9,1.7-1.7,2.2c-0.7,0.3-1.6-0.3-2.2-0.3c0.1-0.9,0.1-1.7,0.2-2.5c0,0,0.1,0,0.2-0.1
	c1-0.3,2.9-0.1,3.5,0C39.8,15.9,39.8,16.1,39.8,16.3z"/>
<path class="st7" d="M45,9.3c-0.1,0.1-0.3,0.2-0.5,0.1c-0.6-0.1-2-0.1-2.2-0.5c-0.1-0.1-0.8,0.2-0.8,0.2s-0.9,1.2-1.1,1.6
	c-0.2,0.3-0.5,1.3-0.5,1.3s0,0.2,0,0.3c0,0.6,0,1.7,0,3.4c-0.6-0.1-2.5-0.3-3.5,0c-0.1,0-0.1,0-0.2,0.1c0.2-2.6,0.3-4.6,0.3-5.5
	C34.1,10,32,7.9,31,6.4c-0.3-0.3-1-0.5-1.1-0.9c0-0.2-0.2-0.4,0-0.8C30,4.4,30.3,3.8,31,3.8c2.9,0.1,5.9,0.8,7.7,0.3
	C39,4,39.8,4.5,40.3,4.8c0.1,0.1,1.1-0.9,1.2-1.4c0.1-1.1,1.2-0.9,1.6-0.4c0.4,0.4,0.1,1.9-0.9,1.4c-0.3-0.2-1.6,0.9-1.3,1
	c0.6,0.3,0.8,0.9,1.2,1c0.9,0.1,1.5,0.3,1.8,1C44.2,8,44.3,8,44.7,8.7C44.8,8.8,45.1,9.3,45,9.3z"/>
<path class="st8" d="M28.5,15.3C28.2,15.2,28,15,27.9,15c-0.3,0.5-0.5,1.3-0.6,2.4c-0.4-0.2-0.9-0.3-1.1-0.6c-0.8-0.7-1-2.6-0.9-2.7
	c0.1-0.2,2.5,0.1,3.2,0.9C28.3,15,28.3,15.1,28.5,15.3z"/>
<path class="st8" d="M32.6,15.6c-0.5,0.1-1.1,0.1-1.7,0.1l0,0c0.1-0.1,0-2.5,0.1-2.6c0.2-0.3,0.6-0.3,0.8-0.1l0.1,2.6
	c0.2,0,0.3-0.1,0.4-0.1C32.3,15.6,32.4,15.6,32.6,15.6C32.5,15.6,32.5,15.6,32.6,15.6L32.6,15.6z"/>
<path class="st8" d="M33.4,15.6c-0.3,0-0.5,0.1-0.8,0.1v-0.1c0.1,0,0.1-2.3,0-2.4c0-0.5,0.8-0.6,0.9-0.3
	C33.5,13,33.4,14.7,33.4,15.6z"/>
<path class="st9" d="M22,10.6c-0.1,0-0.3-0.1-0.3-0.2c-0.2-0.1-0.3-0.2-0.3-0.3c0-0.1,0.2-0.3,0.3-0.4c0.1-0.1,0.2-0.2,0.3-0.3
	C22,9.9,22,10.2,22,10.6z"/>
<path class="st10" d="M13.5,15c0.5-0.2,0.4-0.3,0.8-0.6c0.2-0.3,1-0.6,1-0.6l3.6-1.9c-0.1,2.8-0.1,14.4,1.8,24.9h0.7
	c1-3.5,1.7-7.4,2.2-11c-0.9-4.5-1.3-8.7-1.6-15.3c-0.1,0-0.3-0.1-0.3-0.2c-0.2-0.1-0.3-0.2-0.3-0.3c0-0.1,0.2-0.3,0.3-0.4
	c0.1-0.1,0.2-0.2,0.3-0.3c0-0.4,0-0.8-0.1-1.2c2-1.1,2.3-3.5,2.3-3.5s-4-0.3-4.3,1.3c0,0.1-0.4,0-0.4,0l-1.2-0.1L18.4,5
	c0.3-0.1,0.4-0.3,0.4-0.5c0-0.3-0.3-0.5-0.5-0.5s-0.5,0.3-0.5,0.5c0,0.2,0.1,0.3,0.2,0.4l-0.3,1.1h-1.1c0,0,0.3-1.7,0.6-2.1
	c0.2-0.1-0.6-0.3-0.7-0.2c-0.4,0.3-0.9,2.2-0.9,2.2l-4,6.8c0,0-0.4,0.7-0.3,1.1C11.6,14.9,12.6,15.3,13.5,15z"/>
<path class="st11" d="M23.8,11.3c0.2,0,0.7-0.3,0.7-0.3l-0.1,2.4V14l0,0c0,1.6-0.1,6.3-0.8,11.8c0.7,3.2,1.6,6.6,3,11h0.7
	c0.3-7.8-0.5-15.4-0.2-19.5c-0.4-0.2-0.9-0.3-1.1-0.6c-0.8-0.7-1-2.6-0.9-2.7c0.1-0.2,2.5,0.1,3.2,0.9c0,0,0.1,0.2,0.2,0.3
	c0.7,0.3,1.6,0.5,2.3,0.5l0,0c0.1-0.1,0-2.5,0.1-2.6c0.2-0.3,0.6-0.3,0.8-0.1l0.1,2.6c0.2,0,0.3-0.1,0.4-0.1s0.3,0,0.4,0l0,0
	c0.1,0,0.1-2.3,0-2.4c0-0.5,0.8-0.6,0.9-0.3c0,0-0.1,1.8-0.2,2.6c0.4-0.1,0.8-0.2,1.1-0.3c0.4-0.2,1.8,0,1.8,0s0-0.3,0.1-0.7
	c0.1-0.3,0.2-0.9-0.3-1.4c-2.4-1.7-5.2-2.9-6.3-4.4c-0.2-0.3-1.1-0.4-1.6-0.4c-0.1,0-0.6-1.6-0.3-1.8C29,5.6,27.8,5,26.6,5
	c-0.6,0-2.5,1.4-0.2,1.8c0.3,0.1,0.8,1.6,0.4,1.6c-0.6,0-0.9,0.3-1.4,0.1c-0.2-0.1-1.2-0.9-2.1-0.3c-0.3,0.3-1,0.8-1.5,1.2
	c0,0.4,0,0.8,0.1,1.1C22.6,10.9,23.5,11.2,23.8,11.3z"/>
<path class="st9" d="M26.6,36.8c-1.5-4.5-2.4-7.8-3-11c-0.4,3.5-1.1,7.4-2.2,11H26.6z"/>
<path class="st3" d="M29.1,18.3c0,0.5,0,1.2,0,1.6c0,2.1,1,3.3,2.3,3.7c-0.1,2.7-0.3,8.2-0.9,13.1h3.8c0-6.7,0.4-16.3,0.4-16.3
	c0-0.2,0.1-0.4,0.1-0.6c0-0.5,0.1-1.1,0.4-1.4c0.1-0.1,0,0,0.4-0.2c0.1,0,0.2-0.1,0.3-0.1c0.1-0.9,0.1-1.7,0.2-2.5
	c-0.6,0.3-0.5,0.9-1.1,1.1c-0.7,0.2-0.7,0.2-0.8,0.1c-0.3-0.3-0.5-0.7-0.9-0.9c0,0,0-0.2,0-0.4c-0.3,0-0.5,0.1-0.8,0.1
	c-0.5,0.1-1.1,0.1-1.7,0.1c-0.3,0.2-0.4,0.7-0.9,0.9c-0.3,0.2-1.1-0.9-1.5-1.4c-0.3-0.1-0.4-0.3-0.6-0.3c-0.3,0.5-0.5,1.3-0.6,2.4
	C28.1,17.6,29.1,17.8,29.1,18.3z"/>
<path class="st7" d="M41.8,36.8c-1.3-7.9-1.8-15.8-2-20.5c-0.3,0.7-0.9,1.7-1.7,2.2c-0.7,0.3-1.6-0.3-2.2-0.3
	c-0.3,5.2-0.8,12.1-1,18.6H41.8z"/>
<path class="st12" d="M73.4,20c0,1.8-0.4,3.4-1.3,4.9V15C73,16.5,73.4,18.1,73.4,20z"/>
<g>
	<g>
		<path class="st13" d="M100.5,10.6c-0.3-0.3-0.7-0.5-1.1-0.5h-2.6V5c0-0.4-0.2-0.9-0.5-1.1c-0.3-0.3-0.7-0.5-1.1-0.5
			c-0.4,0-0.9,0.2-1.1,0.5c-0.3,0.3-0.5,0.7-0.5,1.1V10h-2.6c-0.4,0-0.9,0.2-1.2,0.5c-0.2,0.2-0.3,0.3-0.3,0.5
			c0.9,0.4,1.6,1.1,2.3,1.9c0.2,0.2,0.3,0.3,0.3,0.4h1.4v2.1c0.6,1.4,0.9,2.8,0.9,4.5v8.3c0,0.4-0.2,0.8-0.4,1.1l0,0
			c0.3,0.3,0.7,0.5,1.1,0.5s0.9-0.2,1.1-0.5c0.3-0.3,0.5-0.7,0.5-1.1V13.4h2.6c0.4,0,0.9-0.2,1.1-0.5c0.3-0.3,0.5-0.7,0.5-1.1
			C101,11.2,100.8,10.9,100.5,10.6z"/>
	</g>
</g>
<path class="st14" d="M94.4,20v8.3c0,0.4-0.2,0.8-0.4,1.1c-0.3-0.3-0.4-0.7-0.4-1.1V15.5C94.1,16.9,94.4,18.3,94.4,20z"/>
<path class="st14" d="M92.1,13.4h-1.2c-0.4,0-0.9-0.2-1.2-0.5c-0.3-0.3-0.5-0.7-0.5-1.1c0-0.3,0.1-0.4,0.2-0.7
	c0.9,0.4,1.6,1.1,2.3,1.9C91.9,13.1,92,13.2,92.1,13.4z"/>
<path class="st15" d="M96.8,15.4v9.1c-0.7-1.4-1.1-2.9-1.1-4.6C95.7,18.3,96.1,16.8,96.8,15.4z"/>
<path class="st15" d="M101,11.7c0,0.4-0.2,0.9-0.5,1.1c-0.3,0.3-0.7,0.5-1.1,0.5h-1.1c0.1-0.2,0.3-0.3,0.3-0.3
	c0.7-0.8,1.5-1.3,2.3-1.8C101,11.3,101,11.5,101,11.7z"/>
</svg>
