<?xml version="1.0" encoding="utf-8"?>
<!-- Generator: Adobe Illustrator 16.0.0, SVG Export Plug-In . SVG Version: 6.00 Build 0)  -->
<!DOCTYPE svg PUBLIC "-//W3C//DTD SVG 1.1//EN" "http://www.w3.org/Graphics/SVG/1.1/DTD/svg11.dtd">
<svg version="1.1" id="Capa_1" xmlns="http://www.w3.org/2000/svg" xmlns:xlink="http://www.w3.org/1999/xlink" x="0px" y="0px"
	 width="99.912px" height="100.318px" viewBox="0 0 99.912 100.318" enable-background="new 0 0 99.912 100.318"
	 xml:space="preserve">
<g id="Capa_4">
</g>
<g id="Capa_6">
</g>
<g id="Capa_7">
</g>
<g id="Capa_1_1_">
</g>
<g id="Capa_9">
</g>
<g id="Capa_5">
</g>
<g id="Capa_8">
</g>
<g id="Capa_2">
</g>
<g id="Capa_3">
	<g>
		<g>
			<g>
				<path fill="#00AAFF" d="M52.815,41.51c2.459,0,4.563,0.893,6.312,2.675c1.74,1.771,2.609,3.914,2.609,6.426
					c0,2.502-0.869,4.638-2.609,6.411c-1.749,1.771-3.854,2.655-6.312,2.655c-2.254,0-4.23-0.762-5.926-2.286v6.94
					c0,0.42-0.146,0.773-0.436,1.064c-0.301,0.289-0.655,0.435-1.062,0.435c-0.419,0-0.779-0.146-1.08-0.435
					c-0.29-0.291-0.435-0.646-0.435-1.064V43.024c0-0.418,0.145-0.773,0.435-1.063c0.301-0.301,0.661-0.451,1.08-0.451
					c0.407,0,0.762,0.15,1.062,0.451c0.29,0.29,0.436,0.646,0.436,1.063v0.772C48.585,42.273,50.562,41.51,52.815,41.51z
					 M52.815,56.666c1.633,0,3.027-0.59,4.188-1.771c1.147-1.191,1.724-2.619,1.724-4.284c0-1.675-0.574-3.108-1.724-4.301
					c-1.159-1.182-2.556-1.771-4.188-1.771s-3.026,0.59-4.188,1.771c-1.16,1.191-1.739,2.625-1.739,4.301
					c0,1.665,0.579,3.093,1.739,4.284C49.789,56.076,51.185,56.666,52.815,56.666z"/>
			</g>
		</g>
		<g>
			<g>
				<path fill="#00FF79" d="M72.655,41.478c2.299,0,4.263,0.891,5.896,2.674c1.631,1.771,2.447,3.914,2.447,6.426v7.618
					c0,0.408-0.15,0.763-0.451,1.062c-0.29,0.289-0.645,0.436-1.062,0.436s-0.772-0.146-1.062-0.436
					c-0.289-0.301-0.436-0.654-0.436-1.062v-7.618c0-1.675-0.521-3.108-1.562-4.3c-1.052-1.181-2.308-1.772-3.769-1.772
					c-1.481,0-2.744,0.592-3.785,1.772c-1.042,1.191-1.562,2.625-1.562,4.3v7.57c0,0.418-0.146,0.771-0.436,1.062
					c-0.3,0.29-0.654,0.437-1.062,0.437c-0.42,0-0.778-0.146-1.08-0.437c-0.289-0.29-0.435-0.645-0.435-1.062V42.992
					c0-0.419,0.146-0.773,0.435-1.062c0.302-0.301,0.66-0.451,1.08-0.451c0.408,0,0.763,0.15,1.062,0.451
					c0.29,0.289,0.436,0.644,0.436,1.062v0.596C68.854,42.182,70.638,41.478,72.655,41.478z"/>
			</g>
		</g>
		<g>
			<g>
				<path fill="#FF7BF6" d="M62.104,35.406c0.322,0,0.637,0.083,0.941,0.25c0.307,0.167,0.547,0.405,0.725,0.717
					c0.179,0.312,0.267,0.633,0.267,0.966s-0.085,0.652-0.259,0.958c-0.172,0.307-0.409,0.545-0.715,0.718
					c-0.308,0.171-0.627,0.258-0.959,0.258c-0.334,0-0.652-0.086-0.959-0.258c-0.306-0.173-0.545-0.411-0.717-0.718
					c-0.172-0.306-0.258-0.625-0.258-0.958s0.086-0.654,0.258-0.966c0.172-0.311,0.413-0.55,0.725-0.717
					C61.466,35.489,61.782,35.406,62.104,35.406z M62.104,41.526c0.418,0,0.771,0.149,1.062,0.451
					c0.301,0.29,0.451,0.644,0.451,1.062v15.156c0,0.419-0.15,0.772-0.451,1.062c-0.29,0.289-0.644,0.436-1.062,0.436
					s-0.773-0.146-1.062-0.436c-0.301-0.29-0.451-0.645-0.451-1.062V43.04c0-0.418,0.15-0.771,0.451-1.062
					C61.331,41.677,61.687,41.526,62.104,41.526z"/>
			</g>
		</g>
		<g>
			<g>
				<path fill="#FF0000" d="M98.521,41.526c0.42,0,0.772,0.149,1.062,0.451c0.29,0.29,0.436,0.644,0.436,1.062v15.156
					c0,0.419-0.146,0.772-0.436,1.062c-0.29,0.289-0.645,0.436-1.062,0.436s-0.772-0.146-1.062-0.436
					c-0.3-0.29-0.45-0.645-0.45-1.062v-0.789c-1.687,1.524-3.655,2.287-5.911,2.287c-2.47,0-4.574-0.886-6.313-2.657
					c-1.75-1.771-2.625-3.908-2.625-6.411c0-2.513,0.875-4.655,2.625-6.426c1.739-1.782,3.845-2.674,6.313-2.674
					c2.256,0,4.225,0.762,5.911,2.287V43.04c0-0.418,0.15-0.771,0.45-1.062C97.747,41.677,98.103,41.526,98.521,41.526z
					 M91.097,56.683c1.631,0,3.026-0.592,4.188-1.772c1.148-1.191,1.724-2.619,1.724-4.284c0-1.675-0.575-3.108-1.724-4.3
					c-1.16-1.181-2.557-1.771-4.188-1.771c-1.633,0-3.029,0.59-4.188,1.771c-1.159,1.191-1.738,2.625-1.738,4.3
					c0,1.665,0.579,3.092,1.738,4.284C88.067,56.092,89.464,56.683,91.097,56.683z"/>
			</g>
		</g>
		<text transform="matrix(1 0 0 1 49.7871 65.9246)" fill="#F2F2F2" font-family="'CenturyGothic'" font-size="5.9897">manualidades</text>
		<path fill="#FF7BF6" d="M26.05,47.257c-0.007-0.204-0.014-0.4-0.02-0.591c0.122,0.021,0.194,0.042,0.2,0.057
			C26.242,46.748,26.178,46.962,26.05,47.257z"/>
		<path fill="#BF47BF" d="M26.05,47.257c-0.271,0.625-0.829,1.611-1.545,1.945c-0.646,0.301-1.444-0.229-1.999-0.214
			c0.057-0.823,0.11-1.599,0.161-2.32c0.038-0.017,0.08-0.028,0.126-0.04c0.941-0.218,2.652-0.065,3.237,0.039
			C26.036,46.856,26.043,47.052,26.05,47.257z"/>
		<path fill="#00E1FF" d="M30.812,40.917c-0.063,0.063-0.241,0.135-0.452,0.104c-0.577-0.084-1.847-0.052-2.078-0.451
			c-0.098-0.167-0.735,0.088-0.735,0.088s-0.843,1.114-1.062,1.523c-0.154,0.286-0.474,1.215-0.474,1.215
			c-0.005,0.004-0.003,0.19-0.007,0.196c-0.022,0.521-0.021,1.594,0.025,3.073c-0.585-0.104-2.296-0.256-3.237-0.039
			c-0.046,0.012-0.088,0.023-0.126,0.04c0.168-2.4,0.298-4.192,0.341-5.018c-2.191-0.104-4.138-2.117-5.036-3.426
			c-0.24-0.35-0.94-0.457-1.044-0.869c-0.039-0.151-0.168-0.396-0.006-0.703c0.124-0.243,0.397-0.825,0.987-0.8
			c2.697,0.106,5.388,0.673,7.021,0.262c0.285-0.072,1.134,0.369,1.521,0.663c0.066,0.05,1.064-0.885,1.085-1.255
			c0.052-1.009,1.126-0.778,1.524-0.404c0.417,0.388,0.117,1.713-0.796,1.234c-0.235-0.124-1.384,0.801-1.164,0.945
			c0.526,0.348,0.678,0.857,1.118,0.916c0.845,0.113,1.331,0.31,1.638,0.938c0.224,0.46,0.337,0.5,0.646,1.079
			C30.602,40.417,30.873,40.855,30.812,40.917z"/>
		<path fill="#93E800" d="M15.644,46.292c-0.205-0.093-0.403-0.203-0.59-0.33c-0.302,0.444-0.476,1.209-0.566,2.229
			c-0.383-0.125-0.754-0.284-1.038-0.523c-0.749-0.635-0.923-2.405-0.891-2.474c0.08-0.175,2.293,0.104,2.9,0.838
			C15.478,46.052,15.543,46.153,15.644,46.292z"/>
		<path fill="#93E800" d="M19.42,46.666c-0.513,0.076-1.061,0.116-1.609,0.097c0.008-0.008,0.015-0.014,0.024-0.019
			c0.102-0.062-0.002-2.263,0.045-2.363c0.126-0.275,0.532-0.268,0.687-0.107c0.032,0.032,0.062,2.334,0.104,2.334
			c0.129-0.028,0.254-0.042,0.381-0.042c0.119,0,0.238,0.012,0.357,0.034c0,0,0,0,0.001,0L19.42,46.666z"/>
		<path fill="#93E800" d="M20.148,46.535c-0.231,0.051-0.476,0.096-0.729,0.131L19.41,46.6c0.078,0,0.044-2.159,0.039-2.236
			c-0.023-0.48,0.677-0.526,0.854-0.217C20.322,44.175,20.191,45.79,20.148,46.535z"/>
		<path fill="#FFAA00" d="M9.771,42.014c-0.126-0.062-0.241-0.122-0.338-0.175c-0.187-0.102-0.252-0.143-0.263-0.23
			c-0.012-0.087,0.122-0.252,0.275-0.398c0.08-0.078,0.175-0.162,0.276-0.253C9.737,41.316,9.754,41.67,9.771,42.014z"/>
		<path fill="#FF3B3B" d="M1.994,46.047c0.457-0.148,0.427-0.245,0.716-0.577c0.172-0.196,0.919-0.585,0.919-0.585l3.306-1.707
			C6.88,45.814,6.878,56.383,8.583,66.02H9.25c0.97-3.26,1.589-6.812,1.985-10.067c-0.854-4.119-1.178-7.949-1.465-13.938
			c-0.126-0.062-0.241-0.122-0.338-0.175c-0.187-0.102-0.252-0.143-0.263-0.23c-0.012-0.087,0.122-0.252,0.275-0.398
			c0.08-0.078,0.175-0.162,0.276-0.253c-0.017-0.366-0.033-0.739-0.051-1.121c1.833-1.035,2.163-3.198,2.163-3.198
			s-3.631-0.221-3.924,1.21c-0.021,0.099-0.403,0-0.403,0l-1.109-0.082l0.109-0.821c0.221-0.056,0.383-0.255,0.383-0.496
			c0-0.279-0.226-0.508-0.503-0.508c-0.275,0-0.502,0.229-0.502,0.508c0,0.151,0.063,0.286,0.166,0.379l-0.204,0.988l-1.019-0.004
			c0,0,0.304-1.561,0.555-1.857c0.076-0.089-0.592-0.229-0.692-0.162c-0.394,0.267-0.798,2.055-0.798,2.055L0.22,44.055
			c0,0-0.363,0.616-0.254,1.028C0.193,45.93,1.162,46.317,1.994,46.047z"/>
		<path fill="#FFFF00" d="M11.413,42.664c0.191,0.031,0.618-0.23,0.618-0.23l-0.086,2.214l-0.019,0.442
			c0.002,0.007,0.002,0.012,0,0.018c-0.005,1.391-0.074,5.756-0.691,10.845c0.606,2.919,1.481,5.985,2.8,10.067h0.604
			c0.266-7.119-0.485-14.138-0.152-17.829c-0.383-0.125-0.754-0.284-1.038-0.523c-0.749-0.635-0.923-2.406-0.891-2.474
			c0.08-0.175,2.293,0.104,2.9,0.838c0.019,0.021,0.084,0.122,0.185,0.261c0.668,0.31,1.419,0.445,2.167,0.471
			c0.008-0.008,0.015-0.014,0.024-0.019c0.102-0.062-0.002-2.263,0.045-2.363c0.126-0.275,0.532-0.268,0.687-0.107
			c0.032,0.032,0.062,2.334,0.104,2.334c0.129-0.028,0.254-0.042,0.381-0.042c0.119,0,0.238,0.012,0.357,0.034c0,0,0,0,0.001,0
			c0.078,0,0.044-2.159,0.039-2.236c-0.023-0.48,0.677-0.526,0.854-0.217c0.019,0.028-0.112,1.644-0.155,2.389
			c0.363-0.08,0.699-0.174,0.987-0.27c0.402-0.135,1.698,0,1.698,0s0.032-0.278,0.09-0.62c0.046-0.271,0.179-0.898-0.307-1.235
			c-2.217-1.54-4.704-2.711-5.759-4.022c-0.184-0.23-1.01-0.369-1.494-0.367c-0.084,0-0.516-1.443-0.227-1.677
			c0.995-0.81-0.071-1.438-1.11-1.424c-0.569,0.008-2.267,1.244-0.174,1.63c0.26,0.048,0.686,1.501,0.424,1.484
			c-0.63-0.04-0.923,0.264-1.309,0.046c-0.15-0.085-1.066-0.863-1.872-0.239c-0.318,0.247-0.929,0.728-1.375,1.117
			c0.016,0.359,0.032,0.712,0.049,1.058C10.318,42.285,11.081,42.608,11.413,42.664z"/>
		<path fill="#FFAA00" d="M14.035,66.02c-1.318-4.082-2.193-7.148-2.8-10.067c-0.396,3.257-1.016,6.809-1.985,10.067H14.035z"/>
		<path fill="#FF7BF6" d="M16.263,49.058c0.028,0.45-0.036,1.087-0.036,1.539c0,1.89,0.943,3.013,2.15,3.408
			c-0.065,2.438-0.262,7.511-0.852,12.015h3.488c-0.012-6.155,0.43-14.92,0.43-14.92c0.025-0.189,0.04-0.387,0.04-0.583
			c0-0.491,0.053-1,0.389-1.304c0.09-0.08-0.009,0.026,0.38-0.169c0.077-0.039,0.162-0.056,0.254-0.057
			c0.057-0.823,0.11-1.599,0.161-2.32c-0.554,0.218-0.482,0.884-1.023,1.003c-0.602,0.131-0.653,0.13-0.682,0.083
			c-0.23-0.354-0.511-0.644-0.822-0.849c-0.008-0.006-0.004-0.15,0.009-0.371c-0.231,0.051-0.476,0.096-0.729,0.131
			c-0.513,0.076-1.061,0.116-1.609,0.096c-0.283,0.195-0.422,0.625-0.798,0.769c-0.346,0.134-1.036-0.771-1.369-1.238
			c-0.205-0.093-0.403-0.203-0.59-0.33c-0.302,0.444-0.476,1.209-0.566,2.229C15.338,48.472,16.233,48.586,16.263,49.058z"/>
		<path fill="#00E1FF" d="M27.89,66.02c-1.193-7.277-1.686-14.464-1.84-18.764c-0.271,0.625-0.829,1.611-1.545,1.945
			c-0.646,0.301-1.444-0.229-1.999-0.214c-0.325,4.776-0.726,11.087-0.942,17.032H27.89z"/>
		<path fill="#F2F2F2" d="M36.566,69.326c0,0.996-0.289,1.805-0.645,1.805l0,0c-0.356,0-0.646-0.809-0.646-1.805V31.279
			c0-0.996,0.289-1.804,0.646-1.804l0,0c0.355,0,0.645,0.808,0.645,1.804V69.326z"/>
		<path fill="#FFE800" d="M61.74,50.61c0,1.658-0.384,3.157-1.149,4.495V46.1C61.356,47.44,61.74,48.944,61.74,50.61z"/>
		<g>
			<g>
				<path fill="#F9FF00" d="M86.56,41.977c-0.291-0.302-0.645-0.451-1.063-0.451h-2.351v-4.641c0-0.417-0.147-0.771-0.437-1.062
					c-0.291-0.3-0.646-0.452-1.062-0.452c-0.42,0-0.772,0.152-1.063,0.452c-0.301,0.289-0.451,0.645-0.451,1.062v4.641h-2.335
					c-0.419,0-0.779,0.149-1.078,0.451c-0.137,0.136-0.24,0.285-0.311,0.448c0.77,0.432,1.484,1.008,2.145,1.727
					c0.12,0.132,0.236,0.266,0.348,0.402h1.231v1.932c0.578,1.234,0.866,2.596,0.866,4.093v7.618c0,0.397-0.143,0.745-0.434,1.043
					c0.006,0.007,0.011,0.012,0.019,0.02c0.291,0.29,0.644,0.436,1.063,0.436c0.418,0,0.771-0.146,1.062-0.436
					c0.288-0.291,0.437-0.645,0.437-1.062V44.554h2.351c0.42,0,0.772-0.149,1.063-0.451c0.289-0.29,0.435-0.645,0.435-1.063
					C86.993,42.622,86.849,42.268,86.56,41.977z"/>
			</g>
		</g>
		<path fill="#00CDAF" d="M80.998,50.579v7.618c0,0.397-0.144,0.745-0.435,1.043c-0.289-0.287-0.433-0.634-0.433-1.043V46.486
			C80.71,47.719,80.998,49.083,80.998,50.579z"/>
		<path fill="#00CDAF" d="M78.899,44.554h-1.104c-0.419,0-0.779-0.149-1.079-0.451c-0.29-0.29-0.435-0.645-0.435-1.063
			c0-0.224,0.039-0.428,0.125-0.614c0.769,0.432,1.484,1.008,2.144,1.727C78.673,44.285,78.789,44.418,78.899,44.554z"/>
		<path fill="#2FB700" d="M83.146,46.423v8.392c-0.66-1.258-0.988-2.653-0.988-4.188C82.155,49.086,82.485,47.685,83.146,46.423z"/>
		<path fill="#2FB700" d="M86.993,43.04c0,0.419-0.146,0.773-0.436,1.063c-0.291,0.302-0.644,0.451-1.062,0.451h-1.047
			c0.109-0.12,0.22-0.238,0.334-0.354c0.66-0.676,1.371-1.223,2.136-1.643C86.97,42.708,86.993,42.868,86.993,43.04z"/>
	</g>
</g>
</svg>
