<?xml version="1.0" encoding="utf-8"?>
<!-- Generator: Adobe Illustrator 21.0.0, SVG Export Plug-In . SVG Version: 6.00 Build 0)  -->
<svg version="1.1" id="Capa_1" xmlns="http://www.w3.org/2000/svg" xmlns:xlink="http://www.w3.org/1999/xlink" x="0px" y="0px"
	 viewBox="0 0 126 38.6" style="enable-background:new 0 0 126 38.6;" xml:space="preserve">
<style type="text/css">
	.st0{fill:#FFAE3B;}
	.st1{fill:#FF9800;}
	.st2{fill:#FF8200;}
	.st3{fill:#FFFFFF;}
</style>
<g id="Capa_4">
</g>
<g id="Capa_7">
</g>
<g id="Capa_1_1_">
</g>
<g id="Capa_9">
</g>
<g id="Capa_5">
</g>
<g id="Capa_8">
</g>
<g id="Capa_2">
</g>
<g>
	<polygon class="st0" points="110.8,29.8 110.8,33.9 105.4,37 102.6,38.6 102.6,34.5 103.8,33.8 	"/>
	<path class="st0" d="M116.6,7.9v9.4l-0.1,0l0,0c-0.1,0.1-0.2,0.1-0.3,0.2l0,0c-3.2,1.9-5.3,5.4-5.3,9.5h-0.1v0.4l-7.6,4.4l-0.6,0.3
		v-5.1c0-0.4,0-0.7,0-1c0,0,0,0,0,0c0-0.2,0-0.4,0-0.6c0.5-5.8,3.6-10.9,8.1-14.1c0.1,0,0.1-0.1,0.2-0.1l0,0l0.3-0.2l0.3-0.2
		l0.6-0.3c0,0,0,0,0.1,0c0,0,0.1,0,0.1-0.1l1.4-0.8l0,0L116.6,7.9z"/>
	<polygon class="st0" points="122.2,4.7 122.2,14.1 118.6,16.2 118.6,6.8 	"/>
	<polygon class="st1" points="122.2,4.7 118.6,6.8 117.4,6.1 110.5,2.1 114.1,0 119.4,3.1 	"/>
	<polygon class="st1" points="94.8,2.1 87.8,6.1 86.6,6.8 83.1,4.7 85.7,3.2 91.2,0 	"/>
	<polygon class="st2" points="86.6,6.8 86.6,16.2 83.1,14.1 83.1,4.7 	"/>
	<path class="st1" d="M116.6,7.9l-2.9,1.7l0,0l-1.4,0.8c0,0-0.1,0-0.1,0.1c0,0,0,0-0.1,0c0,0,0,0,0,0c-0.3,0.2-0.6,0.3-0.8,0.5
		c0,0,0,0,0,0h0c0,0,0,0,0,0c-0.2,0.1-0.4,0.2-0.6,0.3c-5.3,2.5-11.2,2.3-16.2,0c-0.1,0-0.1-0.1-0.2-0.1l0,0l-1.2-0.7l-1.5-0.8l0,0
		l-2.9-1.7l0.5-0.3l7.6-4.4c0.1,0.1,0.3,0.2,0.4,0.2l0,0c3.3,1.8,7.4,1.9,10.9-0.1l0,0.1l0.3-0.2l7.6,4.4L116.6,7.9z"/>
	<path class="st2" d="M102.6,25.6v6.5l-0.5-0.3l-7.6-4.4c0-0.1,0-0.2,0-0.4c0,0,0-0.1,0-0.1v0c-0.1-3.7-2.1-7.3-5.5-9.3l0-0.1
		l-0.3-0.2V7.9l2.9,1.7l0,0l1.5,0.8c0.3,0.2,0.6,0.4,0.9,0.5c0,0,0,0,0,0c0.2,0.1,0.4,0.2,0.5,0.4c4.8,3.3,7.6,8.5,8.1,14
		C102.6,25.5,102.6,25.6,102.6,25.6z"/>
	<polygon class="st2" points="102.6,34.5 102.6,38.6 100,37.1 94.5,33.9 94.5,29.8 101.5,33.8 	"/>
</g>
<g>
	<path class="st3" d="M3.9,27.4v4.8H3.1V18.4h3.6c1.1,0.1,1.9,0.6,2.7,1.3c0.9,0.9,1.3,1.9,1.3,3.2c0,1.2-0.4,2.3-1.3,3.2
		c-0.9,0.9-1.9,1.3-3.2,1.3H3.9z M3.9,19.1v7.4h2.3c1,0,1.9-0.4,2.6-1.1c0.7-0.7,1.1-1.6,1.1-2.6c0-1-0.4-1.9-1.1-2.6
		c-0.7-0.7-1.6-1.1-2.6-1.1H3.9z"/>
	<path class="st3" d="M20.6,32.1h-0.8v-1.7c-0.1,0.2-0.3,0.4-0.5,0.6c-0.9,0.9-2,1.4-3.4,1.4c-1.3,0-2.4-0.5-3.3-1.4
		c-0.9-0.9-1.4-2-1.4-3.3c0-1.3,0.5-2.4,1.4-3.4c0.9-0.9,2-1.4,3.3-1.4c1.3,0,2.4,0.5,3.4,1.4c0.2,0.2,0.3,0.4,0.5,0.6v-1.2h0.8
		V32.1z M19.8,28.4v-1.5c-0.1-0.8-0.5-1.4-1.1-2c-0.8-0.8-1.7-1.2-2.8-1.2c-1.1,0-2,0.4-2.8,1.2c-0.8,0.8-1.1,1.7-1.1,2.8
		s0.4,2,1.1,2.8c0.8,0.8,1.7,1.1,2.8,1.1c1.1,0,2-0.4,2.8-1.2C19.3,29.8,19.6,29.2,19.8,28.4z"/>
	<path class="st3" d="M29.7,30.1l0.8,0.3c-0.1,0.2-0.3,0.4-0.5,0.6c-0.9,0.9-2,1.4-3.4,1.4c-1.3,0-2.4-0.5-3.3-1.4
		c-0.9-0.9-1.4-2-1.4-3.3c0-1.3,0.5-2.4,1.4-3.3c0.9-0.9,2-1.4,3.3-1.4c1.3,0,2.4,0.5,3.4,1.4c0.2,0.2,0.4,0.4,0.5,0.6l-0.8,0.3
		c-0.1-0.1-0.2-0.2-0.3-0.3c-0.8-0.8-1.7-1.1-2.8-1.1c-1.1,0-2,0.4-2.8,1.1s-1.1,1.7-1.1,2.8c0,1.1,0.4,2,1.1,2.8
		c0.8,0.8,1.7,1.1,2.8,1.1c1.1,0,2-0.4,2.8-1.2C29.5,30.3,29.6,30.2,29.7,30.1z"/>
	<path class="st3" d="M36.1,23.7L34,26.3l3.3,5.9h-1l-2.9-5.3l-0.8,0.9v4.3H32V20.1h0.8v6.5l2.3-2.9H36.1z"/>
	<path class="st3" d="M38.2,27.2c0,0.1,0,0.3,0,0.4c0,1.1,0.4,2,1.1,2.8c0.8,0.8,1.7,1.1,2.8,1.1c1.1,0,2-0.4,2.8-1.2
		c0.1-0.1,0.3-0.3,0.4-0.4l0.8,0.3c-0.1,0.2-0.3,0.4-0.6,0.7c-0.9,0.9-2,1.4-3.4,1.4c-1.3,0-2.4-0.5-3.3-1.4c-0.9-0.9-1.4-2-1.4-3.3
		c0-1.3,0.5-2.4,1.4-3.4c0.9-0.9,2-1.4,3.3-1.4c1.3,0,2.4,0.5,3.4,1.4c0.8,0.8,1.2,1.8,1.2,2.9H38.2z M38.4,26.4h7.4
		c-0.2-0.6-0.5-1.1-0.9-1.5c-0.8-0.8-1.7-1.2-2.8-1.2c-1.1,0-2,0.4-2.8,1.2C38.9,25.3,38.6,25.9,38.4,26.4z"/>
	<path class="st3" d="M48.8,25.6v6.6H48v-8.5h0.8v0.5c0.7-0.7,1.5-1.1,2.5-1.1c1,0,1.8,0.3,2.4,0.9c0.6,0.6,0.9,1.4,1,2.4v5.7h-0.8
		v-5.6c0-0.7-0.3-1.3-0.8-1.8c-0.5-0.5-1.1-0.8-1.9-0.8c-0.7,0-1.3,0.3-1.8,0.8C49.1,25,48.9,25.3,48.8,25.6z"/>
	<path class="st2" d="M64.7,30.5c-0.1,0.2-0.3,0.4-0.5,0.5c-0.9,0.9-2,1.4-3.4,1.4c-1.3,0-2.4-0.5-3.3-1.4c-0.9-0.9-1.4-2-1.4-3.3
		c0-1.3,0.5-2.4,1.4-3.3c0.9-0.9,2-1.4,3.3-1.4c1.3,0,2.4,0.5,3.4,1.4c0.2,0.2,0.3,0.4,0.5,0.6v-1.2h0.8v6.6c0,1.3-0.5,2.4-1.4,3.3
		c-0.9,0.9-2,1.4-3.3,1.4s-2.4-0.5-3.4-1.4c-0.2-0.2-0.4-0.4-0.5-0.6l0.8-0.3c0.1,0.1,0.2,0.2,0.3,0.3c0.8,0.8,1.7,1.2,2.8,1.2
		c1.1,0,2-0.4,2.8-1.2C64.2,32.2,64.6,31.4,64.7,30.5z M64.7,26.8c-0.1-0.7-0.5-1.4-1.1-2c-0.8-0.8-1.7-1.2-2.8-1.2s-2,0.4-2.8,1.2
		c-0.8,0.8-1.1,1.7-1.1,2.8s0.4,2,1.1,2.8c0.8,0.8,1.7,1.1,2.8,1.1s2-0.4,2.8-1.2c0.6-0.6,0.9-1.2,1.1-1.9V26.8z"/>
	<path class="st3" d="M67.5,27.2c0,0.1,0,0.3,0,0.4c0,1.1,0.4,2,1.1,2.8c0.8,0.8,1.7,1.1,2.8,1.1s2-0.4,2.8-1.2
		c0.1-0.1,0.3-0.3,0.4-0.4l0.8,0.3c-0.1,0.2-0.3,0.4-0.6,0.7c-0.9,0.9-2,1.4-3.4,1.4c-1.3,0-2.4-0.5-3.3-1.4c-0.9-0.9-1.4-2-1.4-3.3
		c0-1.3,0.5-2.4,1.4-3.4c0.9-0.9,2-1.4,3.3-1.4c1.3,0,2.4,0.5,3.4,1.4c0.8,0.8,1.2,1.8,1.2,2.9H67.5z M67.7,26.4h7.4
		c-0.2-0.6-0.5-1.1-0.9-1.5c-0.8-0.8-1.7-1.2-2.8-1.2s-2,0.4-2.8,1.2C68.2,25.3,67.8,25.9,67.7,26.4z"/>
	<path class="st3" d="M80.3,24.4c-0.4,0.1-0.9,0.3-1.3,0.8c-0.7,0.7-1.1,1.6-1.1,2.6v4.4h-0.8v-8.5h0.8v1.5c0.2-0.2,0.3-0.4,0.6-0.7
		c0.5-0.5,1-0.8,1.4-0.9L80.3,24.4z"/>
	<path class="st3" d="M83.4,27.6c-0.7-0.4-1.1-0.7-1.4-0.9c-0.4-0.4-0.6-0.9-0.6-1.4s0.2-1,0.6-1.4c0.4-0.4,0.9-0.6,1.4-0.6
		s1,0.2,1.4,0.6c0.4,0.4,0.5,0.8,0.5,1.2v0l-0.7,0.3c-0.1-0.4-0.2-0.8-0.4-1c-0.2-0.2-0.5-0.3-0.8-0.3c-0.3,0-0.6,0.1-0.9,0.4
		c-0.2,0.2-0.4,0.5-0.4,0.9s0.1,0.6,0.4,0.9c0.1,0.1,0.4,0.4,0.9,0.7c0.7,0.4,1.3,0.8,1.6,1.1c0.5,0.5,0.7,1.1,0.7,1.8
		c0,0.7-0.2,1.3-0.7,1.8c-0.5,0.5-1.1,0.7-1.8,0.7c-0.7,0-1.3-0.2-1.8-0.7c-0.5-0.5-0.7-1-0.7-1.6l0.8-0.2c0,0.5,0.2,0.9,0.5,1.3
		c0.3,0.3,0.7,0.5,1.2,0.5c0.5,0,0.9-0.2,1.2-0.5c0.3-0.3,0.5-0.8,0.5-1.2c0-0.5-0.2-0.9-0.5-1.2C84.4,28.2,84,28,83.4,27.6z"/>
</g>
</svg>
