<?xml version="1.0" encoding="utf-8"?>
<!-- Generator: Adobe Illustrator 16.0.0, SVG Export Plug-In . SVG Version: 6.00 Build 0)  -->
<!DOCTYPE svg PUBLIC "-//W3C//DTD SVG 1.1//EN" "http://www.w3.org/Graphics/SVG/1.1/DTD/svg11.dtd">
<svg version="1.1" xmlns="http://www.w3.org/2000/svg" xmlns:xlink="http://www.w3.org/1999/xlink" x="0px" y="0px"
	 width="99.965px" height="100.213px" viewBox="0 0 99.965 100.213" enable-background="new 0 0 99.965 100.213"
	 xml:space="preserve">
<g id="Capa_4">
</g>
<g id="Capa_6">
</g>
<g id="Capa_7">
</g>
<g id="Capa_1">
</g>
<g id="Capa_9">
</g>
<g id="Capa_5">
</g>
<g id="Capa_8">
</g>
<g id="Capa_2">
	<g>
		<g>
			<g>
				<path fill="#BEBEBE" d="M52.834,41.51c2.458,0,4.563,0.892,6.312,2.674c1.74,1.771,2.61,3.914,2.61,6.426
					c0,2.502-0.87,4.639-2.61,6.41c-1.749,1.771-3.854,2.658-6.312,2.658c-2.255,0-4.23-0.764-5.927-2.287v6.941
					c0,0.418-0.146,0.773-0.436,1.062c-0.3,0.291-0.655,0.436-1.062,0.436c-0.419,0-0.779-0.145-1.08-0.436
					c-0.29-0.289-0.435-0.645-0.435-1.062V43.024c0-0.418,0.145-0.773,0.435-1.063c0.301-0.301,0.661-0.451,1.08-0.451
					c0.407,0,0.763,0.15,1.062,0.451c0.29,0.29,0.436,0.645,0.436,1.063v0.773C48.604,42.273,50.579,41.51,52.834,41.51z
					 M52.834,56.666c1.632,0,3.027-0.591,4.188-1.771c1.148-1.191,1.724-2.62,1.724-4.284c0-1.675-0.575-3.108-1.724-4.301
					c-1.16-1.181-2.556-1.771-4.188-1.771c-1.633,0-3.027,0.59-4.188,1.771c-1.16,1.192-1.739,2.625-1.739,4.301
					c0,1.664,0.579,3.093,1.739,4.284C49.807,56.075,51.201,56.666,52.834,56.666z"/>
			</g>
		</g>
		<g>
			<g>
				<path fill="#EFEFEF" d="M72.674,41.478c2.298,0,4.262,0.891,5.896,2.674c1.631,1.771,2.447,3.914,2.447,6.426v7.618
					c0,0.408-0.15,0.763-0.451,1.062c-0.29,0.291-0.645,0.436-1.062,0.436c-0.419,0-0.773-0.145-1.063-0.436
					c-0.289-0.3-0.435-0.654-0.435-1.062v-7.618c0-1.675-0.521-3.108-1.562-4.3c-1.052-1.181-2.308-1.772-3.769-1.772
					c-1.481,0-2.744,0.591-3.785,1.772c-1.042,1.192-1.562,2.625-1.562,4.3v7.57c0,0.419-0.146,0.772-0.436,1.062
					c-0.301,0.29-0.654,0.435-1.062,0.435c-0.42,0-0.779-0.145-1.08-0.435c-0.29-0.29-0.435-0.644-0.435-1.062V42.992
					c0-0.419,0.145-0.773,0.435-1.063c0.301-0.3,0.66-0.451,1.08-0.451c0.407,0,0.761,0.151,1.062,0.451
					c0.29,0.29,0.436,0.644,0.436,1.063v0.596C68.873,42.182,70.655,41.478,72.674,41.478z"/>
			</g>
		</g>
		<g>
			<g>
				<path fill="#A0A0A0" d="M62.122,35.406c0.323,0,0.637,0.083,0.942,0.25c0.307,0.167,0.547,0.405,0.725,0.717
					s0.266,0.633,0.266,0.966s-0.086,0.652-0.258,0.958c-0.172,0.306-0.41,0.545-0.716,0.717c-0.307,0.171-0.626,0.258-0.959,0.258
					s-0.652-0.086-0.958-0.258c-0.306-0.172-0.545-0.411-0.717-0.717c-0.172-0.306-0.258-0.625-0.258-0.958s0.086-0.655,0.258-0.966
					s0.414-0.55,0.725-0.717C61.483,35.489,61.8,35.406,62.122,35.406z M62.122,41.526c0.419,0,0.772,0.15,1.062,0.451
					c0.301,0.29,0.451,0.644,0.451,1.062v15.156c0,0.419-0.15,0.773-0.451,1.062c-0.29,0.291-0.644,0.436-1.062,0.436
					s-0.772-0.145-1.062-0.436c-0.301-0.289-0.451-0.644-0.451-1.062V43.04c0-0.418,0.15-0.772,0.451-1.062
					C61.35,41.677,61.703,41.526,62.122,41.526z"/>
			</g>
		</g>
		<g>
			<g>
				<path fill="#A5A5A5" d="M98.538,41.526c0.419,0,0.772,0.15,1.062,0.451c0.29,0.29,0.435,0.644,0.435,1.062v15.156
					c0,0.419-0.145,0.773-0.435,1.062c-0.29,0.291-0.644,0.436-1.062,0.436s-0.773-0.145-1.063-0.436
					c-0.3-0.289-0.45-0.644-0.45-1.062v-0.789c-1.687,1.524-3.656,2.287-5.911,2.287c-2.47,0-4.574-0.886-6.314-2.657
					c-1.75-1.772-2.625-3.909-2.625-6.411c0-2.513,0.875-4.655,2.625-6.426c1.74-1.782,3.845-2.674,6.314-2.674
					c2.255,0,4.225,0.762,5.911,2.287V43.04c0-0.418,0.15-0.772,0.45-1.062C97.765,41.677,98.119,41.526,98.538,41.526z
					 M91.113,56.683c1.632,0,3.027-0.591,4.188-1.771c1.148-1.192,1.724-2.62,1.724-4.285c0-1.675-0.575-3.109-1.724-4.3
					c-1.16-1.181-2.556-1.771-4.188-1.771s-3.028,0.59-4.188,1.771c-1.159,1.191-1.739,2.625-1.739,4.3
					c0,1.665,0.58,3.092,1.739,4.285C88.085,56.092,89.481,56.683,91.113,56.683z"/>
			</g>
		</g>
		<text transform="matrix(1 0 0 1 49.8047 65.9248)" fill="#ADADAD" font-family="'CenturyGothic'" font-size="5.9897">manualidades</text>
		<path fill="#A0A0A0" d="M26.067,47.257c-0.007-0.204-0.014-0.401-0.02-0.591c0.122,0.021,0.194,0.042,0.2,0.056
			C26.26,46.748,26.195,46.962,26.067,47.257z"/>
		<path fill="#8C8C8C" d="M26.067,47.257c-0.271,0.625-0.829,1.611-1.545,1.945c-0.646,0.301-1.444-0.23-1.999-0.214
			c0.057-0.823,0.11-1.599,0.161-2.32c0.038-0.017,0.08-0.029,0.127-0.04c0.94-0.218,2.65-0.066,3.236,0.039
			C26.054,46.856,26.061,47.053,26.067,47.257z"/>
		<path fill="#BEBEBE" d="M30.83,40.917c-0.063,0.063-0.241,0.135-0.452,0.104c-0.577-0.084-1.847-0.051-2.078-0.451
			c-0.098-0.167-0.735,0.088-0.735,0.088s-0.843,1.114-1.062,1.523c-0.154,0.287-0.474,1.215-0.474,1.215
			c-0.005,0.004-0.003,0.191-0.007,0.197c-0.022,0.521-0.021,1.593,0.025,3.073c-0.586-0.104-2.296-0.256-3.236-0.039
			c-0.047,0.011-0.089,0.023-0.127,0.04c0.168-2.401,0.298-4.193,0.341-5.018c-2.191-0.104-4.138-2.117-5.036-3.426
			c-0.24-0.349-0.94-0.457-1.044-0.869c-0.039-0.151-0.168-0.395-0.006-0.703c0.124-0.243,0.397-0.825,0.987-0.8
			c2.697,0.107,5.388,0.673,7.021,0.262c0.285-0.072,1.134,0.369,1.521,0.663c0.066,0.05,1.064-0.885,1.085-1.255
			c0.052-1.009,1.126-0.778,1.524-0.404c0.417,0.388,0.117,1.713-0.796,1.234c-0.235-0.124-1.384,0.801-1.165,0.946
			c0.527,0.347,0.679,0.857,1.119,0.916c0.845,0.113,1.331,0.309,1.638,0.938c0.224,0.46,0.337,0.5,0.646,1.079
			C30.619,40.417,30.891,40.855,30.83,40.917z"/>
		<path fill="#EFEFEF" d="M15.661,46.292c-0.205-0.093-0.403-0.203-0.59-0.33c-0.302,0.444-0.476,1.209-0.566,2.229
			c-0.383-0.125-0.754-0.284-1.038-0.523c-0.749-0.635-0.923-2.406-0.891-2.474c0.08-0.175,2.293,0.104,2.9,0.838
			C15.495,46.053,15.561,46.153,15.661,46.292z"/>
		<path fill="#EFEFEF" d="M19.438,46.666c-0.513,0.076-1.061,0.116-1.609,0.096c0.008-0.007,0.015-0.013,0.024-0.018
			c0.102-0.063-0.002-2.263,0.045-2.363c0.126-0.276,0.532-0.268,0.687-0.108c0.032,0.032,0.062,2.334,0.104,2.334
			c0.129-0.028,0.254-0.042,0.381-0.042c0.119,0,0.238,0.012,0.357,0.034c0,0,0,0,0.001,0L19.438,46.666z"/>
		<path fill="#EFEFEF" d="M20.166,46.535c-0.231,0.051-0.476,0.096-0.729,0.131l-0.01-0.066c0.078,0,0.044-2.159,0.039-2.236
			c-0.023-0.48,0.677-0.526,0.854-0.217C20.34,44.175,20.209,45.79,20.166,46.535z"/>
		<path fill="#FFAA00" d="M9.788,42.014c-0.126-0.061-0.241-0.122-0.338-0.174c-0.187-0.102-0.252-0.143-0.263-0.231
			c-0.012-0.087,0.122-0.252,0.275-0.398c0.08-0.078,0.175-0.162,0.276-0.253C9.755,41.316,9.771,41.67,9.788,42.014z"/>
		<path fill="#A5A5A5" d="M2.012,46.047c0.457-0.149,0.427-0.245,0.716-0.577c0.172-0.197,0.919-0.585,0.919-0.585l3.306-1.707
			C6.897,45.814,6.896,56.383,8.601,66.02h0.667c0.97-3.259,1.589-6.812,1.985-10.067c-0.854-4.119-1.178-7.949-1.465-13.938
			c-0.126-0.061-0.241-0.122-0.338-0.174c-0.187-0.102-0.252-0.143-0.263-0.231c-0.012-0.087,0.122-0.252,0.275-0.398
			c0.08-0.078,0.175-0.162,0.276-0.253c-0.017-0.366-0.033-0.739-0.051-1.121c1.833-1.035,2.163-3.199,2.163-3.199
			s-3.631-0.22-3.924,1.21c-0.021,0.099-0.403,0-0.403,0l-1.109-0.082l0.109-0.821c0.221-0.056,0.383-0.255,0.383-0.496
			c0-0.279-0.226-0.508-0.503-0.508c-0.275,0-0.502,0.229-0.502,0.508c0,0.151,0.063,0.286,0.166,0.379l-0.204,0.988l-1.019-0.004
			c0,0,0.304-1.56,0.556-1.857c0.075-0.089-0.593-0.229-0.693-0.162c-0.394,0.266-0.798,2.054-0.798,2.054l-3.671,6.207
			c0,0-0.363,0.617-0.254,1.029C0.211,45.93,1.18,46.317,2.012,46.047z"/>
		<path fill="#E1E1E1" d="M11.431,42.664c0.191,0.031,0.618-0.231,0.618-0.231l-0.086,2.214l-0.019,0.443
			c0.002,0.006,0.002,0.011,0,0.017c-0.005,1.391-0.074,5.756-0.691,10.845c0.606,2.92,1.481,5.986,2.8,10.067h0.604
			c0.266-7.12-0.485-14.136-0.152-17.829c-0.383-0.125-0.754-0.284-1.038-0.523c-0.749-0.635-0.923-2.406-0.891-2.474
			c0.08-0.175,2.293,0.104,2.9,0.838c0.019,0.021,0.084,0.122,0.185,0.261c0.668,0.309,1.419,0.445,2.167,0.47
			c0.008-0.007,0.015-0.013,0.024-0.018c0.102-0.063-0.002-2.263,0.045-2.363c0.126-0.276,0.532-0.268,0.687-0.108
			c0.032,0.032,0.062,2.334,0.104,2.334c0.129-0.028,0.254-0.042,0.381-0.042c0.119,0,0.238,0.012,0.357,0.034c0,0,0,0,0.001,0
			c0.078,0,0.044-2.159,0.039-2.236c-0.023-0.48,0.677-0.526,0.854-0.217c0.019,0.029-0.112,1.644-0.155,2.389
			c0.363-0.08,0.699-0.174,0.987-0.27c0.402-0.134,1.698,0,1.698,0s0.032-0.278,0.09-0.62c0.046-0.271,0.179-0.898-0.307-1.235
			c-2.217-1.54-4.704-2.711-5.759-4.023c-0.184-0.23-1.01-0.369-1.494-0.367c-0.084,0-0.516-1.443-0.227-1.676
			c0.995-0.81-0.071-1.438-1.11-1.424c-0.569,0.008-2.267,1.244-0.174,1.63c0.26,0.047,0.686,1.501,0.424,1.484
			c-0.63-0.04-0.923,0.264-1.309,0.046c-0.15-0.085-1.066-0.863-1.872-0.239c-0.318,0.247-0.93,0.727-1.375,1.117
			c0.016,0.359,0.032,0.712,0.049,1.057C10.336,42.285,11.099,42.608,11.431,42.664z"/>
		<path fill="#8C8C8C" d="M14.053,66.02c-1.318-4.081-2.193-7.147-2.8-10.067c-0.396,3.256-1.016,6.809-1.985,10.067H14.053z"/>
		<path fill="#A0A0A0" d="M16.28,49.058c0.028,0.451-0.036,1.087-0.036,1.539c0,1.889,0.943,3.013,2.15,3.41
			c-0.065,2.436-0.262,7.51-0.852,12.013h3.488c-0.012-6.155,0.43-14.919,0.43-14.919c0.025-0.19,0.04-0.387,0.04-0.584
			c0-0.491,0.053-1,0.389-1.303c0.09-0.08-0.009,0.026,0.38-0.169c0.077-0.039,0.162-0.056,0.254-0.057
			c0.057-0.823,0.11-1.599,0.161-2.32c-0.554,0.218-0.482,0.884-1.023,1.003c-0.602,0.131-0.653,0.13-0.682,0.083
			c-0.23-0.354-0.511-0.644-0.822-0.849c-0.008-0.006-0.004-0.15,0.009-0.371c-0.231,0.051-0.476,0.096-0.729,0.131
			c-0.513,0.076-1.061,0.116-1.609,0.096c-0.283,0.195-0.422,0.625-0.798,0.768c-0.346,0.134-1.036-0.771-1.369-1.238
			c-0.205-0.093-0.403-0.203-0.59-0.33c-0.302,0.444-0.476,1.209-0.566,2.229C15.355,48.472,16.251,48.586,16.28,49.058z"/>
		<path fill="#BEBEBE" d="M27.907,66.02c-1.193-7.277-1.686-14.464-1.84-18.763c-0.271,0.625-0.829,1.611-1.545,1.945
			c-0.646,0.301-1.444-0.23-1.999-0.214c-0.325,4.776-0.726,11.087-0.942,17.032H27.907z"/>
		<path fill="#F2F2F2" d="M36.584,69.327c0,0.996-0.289,1.803-0.645,1.803l0,0c-0.356,0-0.646-0.807-0.646-1.803V31.279
			c0-0.996,0.289-1.804,0.646-1.804l0,0c0.355,0,0.645,0.808,0.645,1.804V69.327z"/>
		<path fill="#E1E1E1" d="M61.758,50.61c0,1.658-0.383,3.158-1.149,4.495V46.1C61.375,47.44,61.758,48.944,61.758,50.61z"/>
		<g>
			<g>
				<path fill="#E1E1E1" d="M86.576,41.977c-0.291-0.301-0.644-0.451-1.063-0.451h-2.351v-4.64c0-0.417-0.147-0.772-0.436-1.062
					c-0.291-0.3-0.645-0.452-1.062-0.452c-0.42,0-0.773,0.152-1.063,0.452c-0.301,0.289-0.451,0.645-0.451,1.062v4.64h-2.335
					c-0.419,0-0.779,0.15-1.079,0.451c-0.136,0.136-0.239,0.285-0.31,0.449c0.769,0.431,1.484,1.007,2.144,1.726
					c0.121,0.132,0.237,0.266,0.349,0.402h1.231v1.932c0.578,1.234,0.866,2.596,0.866,4.093v7.617c0,0.4-0.143,0.746-0.434,1.043
					c0.007,0.008,0.011,0.014,0.019,0.02c0.29,0.291,0.644,0.436,1.063,0.436c0.418,0,0.771-0.145,1.062-0.436
					c0.288-0.289,0.436-0.643,0.436-1.062V44.554h2.351c0.42,0,0.772-0.149,1.063-0.451c0.289-0.29,0.435-0.644,0.435-1.063
					C87.011,42.622,86.865,42.268,86.576,41.977z"/>
			</g>
		</g>
		<path fill="#A0A0A0" d="M81.016,50.579v7.617c0,0.4-0.143,0.746-0.434,1.043c-0.289-0.285-0.433-0.633-0.433-1.043v-11.71
			C80.728,47.72,81.016,49.083,81.016,50.579z"/>
		<path fill="#A0A0A0" d="M78.918,44.554h-1.104c-0.419,0-0.779-0.149-1.079-0.451c-0.29-0.29-0.435-0.644-0.435-1.063
			c0-0.224,0.04-0.428,0.125-0.614c0.769,0.431,1.484,1.007,2.144,1.726C78.69,44.285,78.807,44.418,78.918,44.554z"/>
		<path fill="#BEBEBE" d="M83.162,46.423v8.392c-0.659-1.258-0.988-2.654-0.988-4.189C82.174,49.086,82.503,47.685,83.162,46.423z"
			/>
		<path fill="#BEBEBE" d="M87.011,43.04c0,0.419-0.146,0.773-0.435,1.063c-0.291,0.302-0.644,0.451-1.063,0.451h-1.047
			c0.109-0.12,0.22-0.238,0.334-0.354c0.66-0.676,1.371-1.223,2.136-1.643C86.986,42.708,87.011,42.868,87.011,43.04z"/>
	</g>
</g>
<g id="Capa_3">
</g>
</svg>
