<?xml version="1.0" encoding="utf-8"?>
<!-- Generator: Adobe Illustrator 16.0.0, SVG Export Plug-In . SVG Version: 6.00 Build 0)  -->
<!DOCTYPE svg PUBLIC "-//W3C//DTD SVG 1.1//EN" "http://www.w3.org/Graphics/SVG/1.1/DTD/svg11.dtd">
<svg version="1.1" xmlns="http://www.w3.org/2000/svg" xmlns:xlink="http://www.w3.org/1999/xlink" x="0px" y="0px"
	 width="99.965px" height="100.213px" viewBox="0 0 99.965 100.213" enable-background="new 0 0 99.965 100.213"
	 xml:space="preserve">
<g id="Capa_4">
</g>
<g id="Capa_6">
</g>
<g id="Capa_7">
</g>
<g id="Capa_1">
</g>
<g id="Capa_9">
</g>
<g id="Capa_5">
</g>
<g id="Capa_8">
</g>
<g id="Capa_2">
</g>
<g id="Capa_3">
</g>
<g id="Capa_10">
	<path fill="#144B63" d="M84.239,10.656v68.516H15.725v-34.26c0-18.92,15.338-34.256,34.257-34.256H84.239z"/>
	<path fill="#FF9900" d="M30.594,27.889v-1.598c0,0.539,0.031,1.072,0.088,1.598H30.594z"/>
	<path fill="#CC6600" d="M80.462,72.988c0.222,0.01,0.443,0.014,0.667,0.014h-0.667V72.988z"/>
	<path fill="#0F3951" d="M76.741,33.982v22.396c0,0.591-0.125,1.155-0.356,1.663c-0.634,1.418-2.061,2.408-3.713,2.408h-44.11
		c-1.027,0-1.964-0.381-2.68-1.008c-0.327-0.288-0.608-0.623-0.83-0.998c0-0.004,0-0.006-0.005-0.012
		c-0.189-0.321-0.333-0.668-0.429-1.035v-0.019c-0.083-0.321-0.128-0.654-0.128-1V34.491c0-2.249,1.57-4.157,4.071-4.579
		l6.292-1.528l2.445-6.445c0.992-2.661,3.521-4.069,5.767-4.069h11.025c0.666,0,1.31,0.102,1.924,0.322h0.006
		c1.475,0.521,2.773,1.714,3.67,3.747l0.112,0.295l1.091,2.878l1.242,3.272l2.358,0.341l1.054,0.156l2.124,0.31l1.828,0.263
		l3.172,0.459c0.472,0,0.924,0.079,1.347,0.23c0.006,0.003,0.011,0.003,0.021,0.008c0.25,0.086,0.484,0.203,0.713,0.336
		C75.942,31.197,76.741,32.496,76.741,33.982z"/>
	<polygon fill="#0F3951" points="75.554,29.527 84.22,38.285 84.239,79.172 43.449,79.17 23.014,58.487 	"/>
	<linearGradient id="SVGID_1_" gradientUnits="userSpaceOnUse" x1="22.0176" y1="37.748" x2="76.6182" y2="37.748">
		<stop  offset="0" style="stop-color:#2AFFDE"/>
		<stop  offset="1" style="stop-color:#2AC4DE"/>
	</linearGradient>
	<path fill="url(#SVGID_1_)" d="M74.54,28.686c-0.236-0.139-0.483-0.26-0.745-0.351c-0.009-0.003-0.014-0.005-0.022-0.009
		c-0.439-0.156-0.915-0.239-1.407-0.239l-3.314-0.48l-1.908-0.276l-2.22-0.322l-1.104-0.161l-2.46-0.356l-1.299-3.42l-1.141-3.01
		l-0.117-0.305c-0.937-2.128-2.294-3.371-3.838-3.92h-0.003c-0.642-0.23-1.317-0.336-2.01-0.336H41.429
		c-2.35,0-4.991,1.475-6.026,4.256l-2.556,6.734l-6.574,1.597c-2.614,0.442-4.255,2.437-4.255,4.786v22.869
		c0,0.361,0.045,0.712,0.131,1.049c0,0.005,0.003,0.011,0.003,0.016c0.1,0.385,0.25,0.748,0.447,1.085
		c0.003,0.003,0.003,0.006,0.006,0.009c0.23,0.392,0.522,0.744,0.865,1.043c0.747,0.656,1.729,1.054,2.803,1.054h46.093
		c1.729,0,3.218-1.034,3.882-2.517c0.24-0.531,0.371-1.118,0.371-1.738v-23.4C76.618,30.787,75.783,29.428,74.54,28.686z
		 M28.228,57.377c-2.539,0-3.641-1.102-3.641-3.643V35.588c0-2.539,0.356-4.267,3.109-4.881l1.669-0.359l5.765-1.236l0.904-2.448
		l1.958-5.289c0.775-2.092,2.725-3.234,4.505-3.31c0.062-0.003,0.125-0.003,0.187-0.003h8.975c1.424,0,2.759,0.584,3.773,1.946
		c0.289,0.391,0.551,0.844,0.781,1.366l0.526,1.418l2.144,5.802l0.192,0.518l0.929,0.127l4.986,0.692l1.098,0.153l1.67,0.23
		l2.827,0.393c2.281,0.637,3.446,1.096,3.463,3.588v19.439c0,2.541-1.101,3.643-3.64,3.643H28.228z"/>
	<linearGradient id="SVGID_2_" gradientUnits="userSpaceOnUse" x1="34.0898" y1="41.3242" x2="60.8994" y2="41.3242">
		<stop  offset="0" style="stop-color:#2AFFDE"/>
		<stop  offset="1" style="stop-color:#2AC4DE"/>
	</linearGradient>
	<path fill="url(#SVGID_2_)" d="M53.012,29.103c-1.683-0.763-3.551-1.185-5.517-1.185c-4.333,0-8.186,2.055-10.636,5.244
		c-1.259,1.639-2.148,3.576-2.541,5.69c-0.15,0.801-0.229,1.627-0.229,2.47c0,4.775,2.498,8.969,6.258,11.344
		c1.07,0.676,2.246,1.207,3.492,1.561c1.163,0.328,2.39,0.503,3.655,0.503c3.265,0,6.257-1.168,8.582-3.109
		c1.654-1.38,2.97-3.15,3.808-5.173c0.002-0.002,0.002-0.006,0.002-0.008c0.654-1.577,1.013-3.305,1.013-5.117
		C60.899,35.885,57.662,31.205,53.012,29.103z M47.072,51.742c-0.815,0-1.604-0.091-2.364-0.27c-4.616-1.07-8.057-5.209-8.057-10.15
		c0-5.754,4.667-10.42,10.421-10.42c3.359,0,6.346,1.587,8.251,4.057c1.359,1.761,2.169,3.969,2.169,6.363
		C57.492,47.079,52.828,51.742,47.072,51.742z"/>
	<g>
		<path fill="#2AFFDE" d="M40.741,75.342c0.103-0.103,0.224-0.156,0.366-0.162c0.141-0.006,0.263,0.043,0.365,0.145
			c0.283,0.283,0.606,0.504,0.969,0.664c0.363,0.158,0.76,0.237,1.19,0.237c0.419,0,0.816-0.079,1.19-0.237
			c0.375-0.16,0.7-0.378,0.979-0.655c0.277-0.278,0.496-0.601,0.654-0.97c0.159-0.368,0.238-0.762,0.238-1.182v-0.374
			c-0.374,0.419-0.824,0.751-1.352,0.995s-1.098,0.365-1.71,0.365c-0.567,0-1.097-0.103-1.59-0.307
			c-0.493-0.203-0.927-0.486-1.301-0.85s-0.669-0.794-0.885-1.293c-0.216-0.498-0.323-1.043-0.323-1.633
			c0-0.566,0.105-1.097,0.314-1.59c0.21-0.493,0.499-0.924,0.868-1.293c0.368-0.367,0.805-0.662,1.31-0.884
			c0.504-0.221,1.051-0.343,1.641-0.365c0.59,0.011,1.146,0.142,1.667,0.391s0.975,0.59,1.36,1.021v-0.748
			c0-0.147,0.051-0.272,0.153-0.375c0.102-0.102,0.227-0.152,0.374-0.152s0.271,0.051,0.374,0.152
			c0.102,0.103,0.153,0.228,0.153,0.375v6.564c0,0.556-0.108,1.08-0.323,1.572c-0.216,0.494-0.508,0.928-0.876,1.302
			s-0.802,0.669-1.301,0.884c-0.499,0.216-1.038,0.324-1.616,0.324s-1.111-0.103-1.599-0.307s-0.918-0.488-1.292-0.85l-0.017-0.018
			c-0.103-0.102-0.15-0.227-0.145-0.375C40.585,75.568,40.639,75.443,40.741,75.342z M40.588,70.086c0,0.42,0.08,0.814,0.238,1.182
			c0.159,0.369,0.377,0.691,0.655,0.97c0.277,0.278,0.601,0.497,0.969,0.655s0.763,0.238,1.182,0.238
			c0.408,0,0.794-0.077,1.156-0.23c0.363-0.152,0.684-0.359,0.962-0.62c0.277-0.261,0.499-0.567,0.663-0.919
			c0.164-0.351,0.258-0.73,0.28-1.139v-0.256c-0.022-0.408-0.116-0.79-0.28-1.146c-0.164-0.357-0.386-0.67-0.663-0.937
			c-0.278-0.267-0.599-0.476-0.962-0.63c-0.362-0.152-0.748-0.229-1.156-0.229c-0.419,0-0.813,0.079-1.182,0.238
			c-0.368,0.158-0.691,0.377-0.969,0.654c-0.278,0.277-0.496,0.604-0.655,0.978C40.668,69.27,40.588,69.667,40.588,70.086z"/>
		<path fill="#2AFFDE" d="M49.023,65.92c0.146,0,0.271,0.051,0.374,0.152c0.102,0.103,0.153,0.228,0.153,0.375v4.66
			c0,0.271,0.054,0.529,0.161,0.773s0.252,0.456,0.434,0.637c0.182,0.182,0.394,0.324,0.638,0.426
			c0.243,0.102,0.502,0.153,0.773,0.153c0.272,0,0.527-0.052,0.765-0.153c0.238-0.102,0.445-0.238,0.621-0.408
			s0.317-0.371,0.426-0.604c0.107-0.232,0.167-0.479,0.179-0.74v-4.744c0-0.147,0.051-0.272,0.152-0.375
			c0.103-0.102,0.228-0.152,0.375-0.152s0.271,0.051,0.374,0.152c0.102,0.103,0.153,0.228,0.153,0.375v7.193
			c0,0.147-0.052,0.271-0.153,0.374c-0.103,0.103-0.227,0.153-0.374,0.153s-0.272-0.051-0.375-0.153
			c-0.102-0.103-0.152-0.227-0.152-0.374V73.42c-0.261,0.227-0.562,0.408-0.901,0.544c-0.341,0.136-0.703,0.204-1.089,0.204
			c-0.419,0-0.816-0.08-1.189-0.238c-0.375-0.158-0.701-0.377-0.979-0.654s-0.496-0.604-0.655-0.979
			c-0.158-0.374-0.237-0.771-0.237-1.189v-4.66c0-0.147,0.051-0.272,0.152-0.375C48.751,65.971,48.875,65.92,49.023,65.92z
			 M49.533,64.066c0-0.193,0.068-0.357,0.204-0.494c0.136-0.135,0.301-0.203,0.493-0.203s0.357,0.068,0.493,0.203
			c0.136,0.137,0.204,0.301,0.204,0.494s-0.068,0.357-0.204,0.492c-0.136,0.137-0.301,0.205-0.493,0.205s-0.357-0.068-0.493-0.205
			C49.602,64.424,49.533,64.26,49.533,64.066z M52.22,64.066c0-0.193,0.068-0.357,0.204-0.494c0.136-0.135,0.301-0.203,0.493-0.203
			c0.193,0,0.357,0.068,0.493,0.203c0.137,0.137,0.204,0.301,0.204,0.494s-0.067,0.357-0.204,0.492
			c-0.136,0.137-0.3,0.205-0.493,0.205c-0.192,0-0.357-0.068-0.493-0.205C52.288,64.424,52.22,64.26,52.22,64.066z"/>
		<path fill="#2AFFDE" d="M55.213,63.998c0-0.193,0.068-0.357,0.204-0.493s0.301-0.204,0.493-0.204s0.356,0.068,0.493,0.204
			c0.136,0.136,0.204,0.3,0.204,0.493s-0.068,0.357-0.204,0.493c-0.137,0.136-0.301,0.204-0.493,0.204s-0.357-0.068-0.493-0.204
			S55.213,64.191,55.213,63.998z M55.383,66.43c0-0.146,0.051-0.271,0.153-0.374c0.102-0.102,0.227-0.153,0.374-0.153
			s0.272,0.052,0.374,0.153c0.103,0.103,0.153,0.228,0.153,0.374v7.211c0,0.147-0.051,0.271-0.153,0.374
			c-0.102,0.103-0.227,0.153-0.374,0.153s-0.272-0.051-0.374-0.153c-0.103-0.103-0.153-0.227-0.153-0.374V66.43z"/>
		<path fill="#2AFFDE" d="M61.794,67.569c-0.091-0.216-0.286-0.376-0.586-0.485c-0.301-0.107-0.632-0.161-0.995-0.161
			c-0.192,0-0.389,0.015-0.587,0.042c-0.197,0.029-0.376,0.086-0.535,0.171s-0.292,0.202-0.399,0.349
			c-0.108,0.147-0.162,0.34-0.162,0.578c0,0.17,0.054,0.317,0.162,0.442c0.107,0.125,0.243,0.229,0.408,0.315
			c0.164,0.084,0.346,0.149,0.544,0.195c0.198,0.045,0.388,0.084,0.569,0.118c0.419,0.067,0.813,0.167,1.183,0.298
			c0.367,0.131,0.69,0.297,0.969,0.502c0.277,0.203,0.499,0.447,0.663,0.73c0.165,0.284,0.247,0.613,0.247,0.986
			c0,0.375-0.079,0.718-0.238,1.029c-0.159,0.312-0.377,0.578-0.655,0.8c-0.277,0.221-0.604,0.391-0.978,0.51
			s-0.771,0.179-1.19,0.179c-0.714,0-1.34-0.164-1.879-0.493s-0.898-0.782-1.08-1.36c-0.046-0.147-0.034-0.289,0.034-0.426
			c0.067-0.136,0.181-0.227,0.34-0.271c0.147-0.045,0.286-0.028,0.417,0.051c0.13,0.079,0.224,0.193,0.28,0.34
			c0.147,0.363,0.4,0.639,0.757,0.825c0.357,0.187,0.734,0.28,1.131,0.28c0.556,0,1.029-0.127,1.42-0.383
			c0.392-0.255,0.587-0.615,0.587-1.08c0-0.373-0.193-0.691-0.578-0.951c-0.386-0.262-0.861-0.432-1.429-0.511
			c-0.815-0.114-1.477-0.337-1.981-0.672c-0.504-0.334-0.757-0.819-0.757-1.454c0-0.396,0.08-0.731,0.238-1.004
			c0.159-0.271,0.369-0.492,0.63-0.662s0.555-0.293,0.884-0.366s0.658-0.11,0.986-0.11c0.272,0,0.541,0.025,0.808,0.076
			s0.513,0.125,0.74,0.221c0.227,0.098,0.428,0.219,0.604,0.366s0.309,0.323,0.399,0.526c0.08,0.148,0.097,0.304,0.052,0.469
			c-0.046,0.164-0.165,0.275-0.357,0.332c-0.147,0.057-0.278,0.047-0.392-0.026S61.862,67.705,61.794,67.569z"/>
		<path fill="#2AFFDE" d="M71.063,66.43c0-0.146,0.051-0.271,0.152-0.374c0.103-0.102,0.227-0.153,0.375-0.153
			c0.146,0,0.271,0.052,0.374,0.153c0.102,0.103,0.152,0.228,0.152,0.374v10.289c0,0.147-0.051,0.272-0.152,0.374
			c-0.103,0.103-0.228,0.153-0.374,0.153c-0.148,0-0.272-0.051-0.375-0.153c-0.102-0.102-0.152-0.227-0.152-0.374V72.62
			c-0.374,0.408-0.822,0.763-1.344,1.063s-1.1,0.462-1.734,0.484c-0.545,0-1.063-0.111-1.557-0.332s-0.927-0.518-1.301-0.893
			c-0.374-0.374-0.672-0.811-0.893-1.31s-0.332-1.032-0.332-1.599c0-0.555,0.108-1.08,0.323-1.572
			c0.216-0.494,0.507-0.928,0.876-1.302c0.368-0.374,0.802-0.669,1.301-0.884c0.499-0.216,1.037-0.323,1.616-0.323
			c0.601,0,1.161,0.116,1.684,0.349c0.521,0.232,0.975,0.559,1.36,0.978V66.43z M71.063,70.035c0-0.419-0.08-0.812-0.238-1.182
			c-0.159-0.369-0.377-0.691-0.655-0.97c-0.277-0.278-0.601-0.495-0.969-0.655c-0.368-0.158-0.763-0.237-1.182-0.237
			c-0.42,0-0.817,0.079-1.191,0.237c-0.374,0.16-0.7,0.377-0.978,0.655c-0.278,0.278-0.496,0.601-0.654,0.97
			c-0.159,0.369-0.238,0.763-0.238,1.182c0,0.42,0.079,0.816,0.238,1.19c0.158,0.374,0.376,0.7,0.654,0.978
			c0.277,0.278,0.604,0.496,0.978,0.655s0.771,0.238,1.191,0.238c0.408,0,0.793-0.077,1.156-0.229
			c0.363-0.153,0.681-0.366,0.952-0.639c0.272-0.271,0.49-0.595,0.654-0.969S71.04,70.478,71.063,70.035z"/>
		<path fill="#2AFFDE" d="M73.394,65.92c0.146,0,0.271,0.051,0.374,0.152c0.102,0.103,0.153,0.228,0.153,0.375v4.66
			c0,0.271,0.053,0.529,0.161,0.773c0.107,0.244,0.252,0.456,0.434,0.637c0.181,0.182,0.394,0.324,0.638,0.426
			c0.243,0.102,0.502,0.153,0.773,0.153c0.272,0,0.527-0.052,0.766-0.153s0.445-0.238,0.621-0.408s0.317-0.371,0.425-0.604
			s0.167-0.479,0.179-0.74v-4.744c0-0.147,0.051-0.272,0.153-0.375c0.102-0.102,0.227-0.152,0.374-0.152s0.271,0.051,0.374,0.152
			c0.102,0.103,0.152,0.228,0.152,0.375v7.193c0,0.147-0.051,0.271-0.152,0.374c-0.103,0.103-0.227,0.153-0.374,0.153
			s-0.272-0.051-0.374-0.153c-0.103-0.103-0.153-0.227-0.153-0.374V73.42c-0.261,0.227-0.562,0.408-0.901,0.544
			c-0.341,0.136-0.703,0.204-1.089,0.204c-0.42,0-0.816-0.08-1.19-0.238s-0.699-0.377-0.978-0.654
			c-0.277-0.277-0.496-0.604-0.654-0.979c-0.159-0.374-0.238-0.771-0.238-1.189v-4.66c0-0.147,0.051-0.272,0.153-0.375
			C73.121,65.971,73.246,65.92,73.394,65.92z"/>
		<path fill="#2AFFDE" d="M79.702,63.998c0-0.193,0.068-0.357,0.204-0.493c0.137-0.136,0.301-0.204,0.493-0.204
			s0.357,0.068,0.493,0.204s0.204,0.3,0.204,0.493s-0.068,0.357-0.204,0.493s-0.301,0.204-0.493,0.204s-0.356-0.068-0.493-0.204
			C79.771,64.355,79.702,64.191,79.702,63.998z M79.872,66.43c0-0.146,0.051-0.271,0.153-0.374c0.102-0.102,0.227-0.153,0.374-0.153
			s0.272,0.052,0.374,0.153c0.103,0.103,0.153,0.228,0.153,0.374v7.211c0,0.147-0.051,0.271-0.153,0.374
			c-0.102,0.103-0.227,0.153-0.374,0.153s-0.272-0.051-0.374-0.153c-0.103-0.103-0.153-0.227-0.153-0.374V66.43z"/>
	</g>
	<g>
		<path fill="#0F3951" d="M17.652,83.851v2.481c0,0.082-0.027,0.15-0.084,0.205c-0.056,0.057-0.124,0.085-0.205,0.085
			s-0.149-0.028-0.206-0.085c-0.055-0.055-0.083-0.123-0.083-0.205v-5.373c0-0.082,0.028-0.151,0.083-0.211
			c0.057-0.059,0.125-0.088,0.206-0.088h1.521c0.224,0,0.432,0.041,0.625,0.126c0.192,0.084,0.361,0.198,0.508,0.345
			s0.262,0.316,0.346,0.509c0.083,0.192,0.126,0.398,0.126,0.616s-0.043,0.424-0.126,0.62c-0.084,0.196-0.199,0.365-0.346,0.509
			c-0.146,0.143-0.315,0.256-0.508,0.34c-0.193,0.084-0.401,0.126-0.625,0.126H17.652z M18.885,83.272
			c0.136,0,0.267-0.026,0.391-0.079c0.125-0.053,0.234-0.126,0.327-0.22c0.094-0.093,0.166-0.2,0.22-0.321
			c0.053-0.121,0.079-0.254,0.079-0.396c0-0.137-0.026-0.268-0.079-0.393c-0.054-0.124-0.126-0.232-0.22-0.326
			c-0.093-0.094-0.202-0.166-0.327-0.22c-0.124-0.052-0.255-0.079-0.391-0.079h-1.232v2.034H18.885z"/>
		<path fill="#0F3951" d="M22.215,80.949c0-0.081,0.027-0.149,0.084-0.205c0.056-0.057,0.124-0.084,0.205-0.084
			s0.149,0.027,0.205,0.084c0.057,0.056,0.085,0.124,0.085,0.205v2.621h2.976v-2.621c0-0.081,0.028-0.149,0.084-0.205
			c0.057-0.057,0.125-0.084,0.205-0.084c0.081,0,0.149,0.027,0.206,0.084c0.056,0.056,0.084,0.124,0.084,0.205v5.383
			c0,0.082-0.028,0.15-0.084,0.205c-0.057,0.057-0.125,0.085-0.206,0.085c-0.08,0-0.148-0.028-0.205-0.085
			c-0.056-0.055-0.084-0.123-0.084-0.205V84.15h-2.976v2.182c0,0.082-0.028,0.15-0.085,0.205c-0.056,0.057-0.124,0.085-0.205,0.085
			s-0.149-0.028-0.205-0.085c-0.057-0.055-0.084-0.123-0.084-0.205V80.949z"/>
		<path fill="#0F3951" d="M28.103,83.654c0-0.41,0.077-0.795,0.233-1.156c0.155-0.36,0.367-0.676,0.635-0.947
			c0.267-0.27,0.581-0.483,0.941-0.639c0.361-0.155,0.747-0.233,1.157-0.233s0.796,0.078,1.157,0.233
			c0.36,0.155,0.677,0.369,0.947,0.639c0.271,0.271,0.483,0.587,0.639,0.947c0.155,0.361,0.233,0.746,0.233,1.156
			c0,0.411-0.078,0.797-0.233,1.158c-0.155,0.36-0.368,0.675-0.639,0.941c-0.271,0.268-0.587,0.479-0.947,0.635
			c-0.361,0.155-0.747,0.233-1.157,0.233s-0.796-0.078-1.157-0.233c-0.36-0.156-0.675-0.367-0.941-0.635
			c-0.268-0.267-0.479-0.581-0.635-0.941C28.18,84.451,28.103,84.065,28.103,83.654z M28.681,83.654c0,0.33,0.062,0.642,0.187,0.934
			c0.125,0.293,0.294,0.546,0.509,0.761c0.215,0.214,0.468,0.384,0.761,0.509c0.292,0.124,0.604,0.186,0.933,0.186
			c0.33,0,0.641-0.062,0.934-0.186c0.292-0.125,0.547-0.295,0.765-0.509c0.218-0.215,0.389-0.468,0.514-0.761
			c0.124-0.292,0.186-0.604,0.186-0.934c0-0.329-0.062-0.64-0.186-0.932c-0.125-0.293-0.296-0.549-0.514-0.766
			c-0.218-0.218-0.473-0.389-0.765-0.514c-0.293-0.124-0.604-0.187-0.934-0.187c-0.329,0-0.641,0.062-0.933,0.187
			c-0.293,0.125-0.546,0.296-0.761,0.514c-0.215,0.217-0.384,0.473-0.509,0.766C28.743,83.015,28.681,83.325,28.681,83.654z"/>
		<path fill="#0F3951" d="M34.867,80.949c0-0.081,0.027-0.149,0.084-0.205c0.056-0.057,0.124-0.084,0.205-0.084h3.237
			c0.081,0,0.149,0.027,0.206,0.084c0.056,0.056,0.083,0.124,0.083,0.205s-0.027,0.148-0.083,0.205
			c-0.057,0.057-0.125,0.084-0.206,0.084h-1.324v5.094c0,0.082-0.028,0.15-0.084,0.205c-0.056,0.057-0.125,0.085-0.205,0.085
			c-0.081,0-0.149-0.028-0.206-0.085c-0.056-0.055-0.083-0.123-0.083-0.205v-5.094h-1.335c-0.081,0-0.149-0.027-0.205-0.084
			C34.895,81.098,34.867,81.03,34.867,80.949z"/>
		<path fill="#0F3951" d="M39.504,83.654c0-0.41,0.078-0.795,0.233-1.156c0.155-0.36,0.367-0.676,0.635-0.947
			c0.268-0.27,0.582-0.483,0.942-0.639c0.361-0.155,0.746-0.233,1.157-0.233c0.41,0,0.796,0.078,1.157,0.233
			c0.36,0.155,0.676,0.369,0.946,0.639c0.271,0.271,0.484,0.587,0.64,0.947c0.155,0.361,0.232,0.746,0.232,1.156
			c0,0.411-0.077,0.797-0.232,1.158c-0.155,0.36-0.369,0.675-0.64,0.941c-0.271,0.268-0.586,0.479-0.946,0.635
			c-0.361,0.155-0.747,0.233-1.157,0.233c-0.411,0-0.796-0.078-1.157-0.233c-0.36-0.156-0.675-0.367-0.942-0.635
			c-0.268-0.267-0.479-0.581-0.635-0.941C39.582,84.451,39.504,84.065,39.504,83.654z M40.083,83.654
			c0,0.33,0.062,0.642,0.187,0.934c0.124,0.293,0.294,0.546,0.509,0.761c0.214,0.214,0.468,0.384,0.76,0.509
			c0.293,0.124,0.604,0.186,0.934,0.186c0.329,0,0.641-0.062,0.933-0.186c0.293-0.125,0.548-0.295,0.766-0.509
			c0.218-0.215,0.389-0.468,0.513-0.761c0.124-0.292,0.187-0.604,0.187-0.934c0-0.329-0.062-0.64-0.187-0.932
			c-0.124-0.293-0.295-0.549-0.513-0.766c-0.218-0.218-0.473-0.389-0.766-0.514c-0.292-0.124-0.604-0.187-0.933-0.187
			c-0.33,0-0.641,0.062-0.934,0.187c-0.292,0.125-0.546,0.296-0.76,0.514c-0.215,0.217-0.385,0.473-0.509,0.766
			C40.145,83.015,40.083,83.325,40.083,83.654z"/>
		<path fill="#0F3951" d="M53.08,86.622c-0.174,0-0.356-0.023-0.546-0.069c-0.189-0.047-0.37-0.113-0.541-0.196
			c-0.172-0.084-0.326-0.185-0.467-0.304c-0.141-0.118-0.247-0.248-0.321-0.392c-0.044-0.075-0.055-0.151-0.033-0.229
			c0.021-0.076,0.069-0.138,0.145-0.182c0.074-0.043,0.15-0.054,0.229-0.032c0.078,0.022,0.139,0.069,0.183,0.145
			c0.056,0.112,0.138,0.21,0.247,0.294c0.108,0.084,0.229,0.156,0.358,0.215c0.131,0.059,0.264,0.103,0.397,0.131
			c0.133,0.027,0.253,0.041,0.358,0.041c0.169,0,0.333-0.03,0.495-0.093c0.161-0.062,0.303-0.146,0.425-0.252
			c0.12-0.106,0.219-0.231,0.293-0.378c0.075-0.146,0.112-0.303,0.112-0.471s-0.032-0.314-0.098-0.439
			c-0.065-0.124-0.157-0.232-0.275-0.326s-0.258-0.178-0.42-0.252s-0.336-0.143-0.522-0.205c-0.187-0.057-0.384-0.126-0.593-0.21
			c-0.208-0.084-0.398-0.185-0.568-0.303c-0.172-0.118-0.313-0.257-0.425-0.416c-0.112-0.158-0.168-0.34-0.168-0.546
			c0-0.236,0.053-0.445,0.158-0.629s0.243-0.34,0.41-0.467c0.169-0.128,0.356-0.225,0.564-0.289
			c0.209-0.066,0.416-0.098,0.621-0.098c0.137,0,0.278,0.01,0.425,0.031c0.146,0.022,0.29,0.061,0.434,0.117
			c0.143,0.057,0.281,0.135,0.415,0.234c0.134,0.099,0.257,0.227,0.368,0.382c0.05,0.067,0.069,0.151,0.057,0.247
			c-0.013,0.097-0.057,0.166-0.131,0.21c-0.074,0.05-0.152,0.062-0.233,0.037s-0.144-0.071-0.187-0.14
			c-0.074-0.125-0.162-0.223-0.262-0.294c-0.099-0.071-0.199-0.126-0.303-0.163c-0.103-0.037-0.205-0.062-0.308-0.07
			c-0.103-0.01-0.194-0.014-0.275-0.014c-0.125,0-0.255,0.016-0.392,0.047s-0.264,0.08-0.378,0.148
			c-0.115,0.068-0.21,0.16-0.285,0.275c-0.074,0.115-0.111,0.26-0.111,0.434c0,0.125,0.055,0.236,0.163,0.336
			s0.241,0.188,0.396,0.262s0.317,0.14,0.485,0.195c0.168,0.057,0.312,0.106,0.429,0.15c0.236,0.086,0.451,0.18,0.644,0.279
			c0.193,0.1,0.36,0.218,0.5,0.354s0.249,0.296,0.326,0.476c0.078,0.182,0.116,0.396,0.116,0.645c0,0.248-0.052,0.482-0.158,0.699
			c-0.105,0.219-0.247,0.406-0.424,0.564c-0.178,0.159-0.382,0.283-0.611,0.373C53.568,86.577,53.328,86.622,53.08,86.622z"/>
		<path fill="#0F3951" d="M56.514,80.949c0-0.081,0.027-0.149,0.084-0.205c0.056-0.057,0.124-0.084,0.205-0.084h3.238
			c0.08,0,0.148,0.027,0.204,0.084c0.057,0.056,0.085,0.124,0.085,0.205s-0.028,0.148-0.085,0.205
			c-0.056,0.057-0.124,0.084-0.204,0.084h-1.326v5.094c0,0.082-0.027,0.15-0.083,0.205c-0.057,0.057-0.125,0.085-0.206,0.085
			c-0.08,0-0.148-0.028-0.205-0.085c-0.056-0.055-0.084-0.123-0.084-0.205v-5.094h-1.334c-0.081,0-0.149-0.027-0.205-0.084
			C56.541,81.098,56.514,81.03,56.514,80.949z"/>
		<path fill="#0F3951" d="M61.935,84.551v-3.592c0-0.068,0.027-0.136,0.084-0.201c0.056-0.065,0.127-0.098,0.214-0.098
			c0.088,0,0.156,0.031,0.206,0.093c0.05,0.062,0.074,0.134,0.074,0.215v3.583c0,0.205,0.039,0.398,0.116,0.578
			c0.078,0.181,0.184,0.338,0.318,0.472c0.133,0.134,0.292,0.241,0.476,0.321c0.184,0.082,0.377,0.121,0.583,0.121
			c0.205,0,0.397-0.039,0.578-0.121c0.181-0.08,0.339-0.188,0.477-0.321c0.136-0.134,0.245-0.291,0.326-0.472
			c0.081-0.18,0.121-0.373,0.121-0.578v-3.592c0-0.068,0.028-0.136,0.084-0.201s0.128-0.098,0.215-0.098s0.155,0.034,0.205,0.102
			c0.05,0.069,0.075,0.138,0.075,0.206v3.583c0,0.285-0.057,0.555-0.169,0.807c-0.111,0.252-0.261,0.472-0.447,0.658
			c-0.187,0.188-0.406,0.334-0.658,0.443s-0.521,0.163-0.807,0.163s-0.556-0.054-0.807-0.163c-0.252-0.109-0.472-0.256-0.658-0.443
			c-0.187-0.187-0.335-0.406-0.443-0.658C61.988,85.105,61.935,84.836,61.935,84.551z"/>
		<path fill="#0F3951" d="M68.13,86.622c-0.081,0-0.149-0.028-0.206-0.085c-0.056-0.055-0.083-0.123-0.083-0.205v-5.383
			c0-0.081,0.027-0.149,0.083-0.205c0.057-0.057,0.125-0.084,0.206-0.084h1.604c0.411,0,0.797,0.078,1.157,0.232
			c0.361,0.156,0.677,0.369,0.946,0.64c0.271,0.271,0.484,0.587,0.64,0.946c0.155,0.361,0.233,0.747,0.233,1.158
			c0,0.41-0.078,0.797-0.233,1.161s-0.368,0.681-0.64,0.952c-0.27,0.271-0.585,0.482-0.946,0.639
			c-0.36,0.155-0.746,0.233-1.157,0.233H68.13z M72.133,83.637c0-0.33-0.062-0.641-0.187-0.934
			c-0.125-0.292-0.296-0.547-0.514-0.766c-0.218-0.217-0.473-0.389-0.766-0.512c-0.292-0.125-0.603-0.188-0.933-0.188h-1.315v4.805
			h1.315c0.33,0,0.641-0.062,0.933-0.19c0.293-0.128,0.548-0.3,0.766-0.519c0.218-0.217,0.389-0.473,0.514-0.765
			C72.07,84.277,72.133,83.966,72.133,83.637z"/>
		<path fill="#0F3951" d="M74.512,80.949c0-0.081,0.028-0.149,0.084-0.205c0.056-0.057,0.125-0.084,0.205-0.084
			c0.081,0,0.149,0.027,0.205,0.084c0.057,0.056,0.084,0.124,0.084,0.205v5.383c0,0.082-0.027,0.15-0.084,0.205
			c-0.056,0.057-0.124,0.085-0.205,0.085c-0.08,0-0.149-0.028-0.205-0.085c-0.056-0.055-0.084-0.123-0.084-0.205V80.949z"/>
		<path fill="#0F3951" d="M76.862,83.654c0-0.41,0.078-0.795,0.233-1.156c0.156-0.36,0.367-0.676,0.635-0.947
			c0.268-0.27,0.582-0.483,0.942-0.639s0.747-0.233,1.157-0.233s0.796,0.078,1.156,0.233c0.361,0.155,0.677,0.369,0.947,0.639
			c0.271,0.271,0.484,0.587,0.639,0.947c0.156,0.361,0.234,0.746,0.234,1.156c0,0.411-0.078,0.797-0.234,1.158
			c-0.154,0.36-0.368,0.675-0.639,0.941c-0.271,0.268-0.586,0.479-0.947,0.635c-0.36,0.155-0.746,0.233-1.156,0.233
			s-0.797-0.078-1.157-0.233c-0.36-0.156-0.675-0.367-0.942-0.635c-0.268-0.267-0.479-0.581-0.635-0.941
			C76.94,84.451,76.862,84.065,76.862,83.654z M77.441,83.654c0,0.33,0.062,0.642,0.187,0.934c0.125,0.293,0.294,0.546,0.509,0.761
			c0.214,0.214,0.468,0.384,0.76,0.509c0.293,0.124,0.604,0.186,0.934,0.186c0.329,0,0.64-0.062,0.933-0.186
			c0.293-0.125,0.548-0.295,0.765-0.509c0.219-0.215,0.39-0.468,0.514-0.761c0.125-0.292,0.187-0.604,0.187-0.934
			c0-0.329-0.062-0.64-0.187-0.932c-0.124-0.293-0.295-0.549-0.514-0.766c-0.217-0.218-0.472-0.389-0.765-0.514
			c-0.293-0.124-0.604-0.187-0.933-0.187c-0.33,0-0.641,0.062-0.934,0.187c-0.292,0.125-0.546,0.296-0.76,0.514
			c-0.215,0.217-0.384,0.473-0.509,0.766C77.503,83.015,77.441,83.325,77.441,83.654z"/>
	</g>
</g>
</svg>
