<?xml version="1.0" encoding="utf-8"?>
<!-- Generator: Adobe Illustrator 21.0.0, SVG Export Plug-In . SVG Version: 6.00 Build 0)  -->
<svg version="1.1" id="Capa_1" xmlns="http://www.w3.org/2000/svg" xmlns:xlink="http://www.w3.org/1999/xlink" x="0px" y="0px"
	 viewBox="0 0 127 39.6" style="enable-background:new 0 0 127 39.6;" xml:space="preserve">
<style type="text/css">
	.st0{opacity:0.19;}
	.st1{opacity:0.2;}
	.st2{fill:url(#SVGID_1_);}
	.st3{fill:#0086B4;}
</style>
<path class="st0" d="M92.7,32v-5.2h1.2c0.3,0,0.7,0.1,1,0.2c0.3,0.1,0.6,0.3,0.8,0.6c0.2,0.2,0.4,0.5,0.5,0.8s0.2,0.6,0.2,1
	c0,0.4-0.1,0.7-0.2,1s-0.3,0.6-0.5,0.8s-0.5,0.4-0.8,0.6c-0.3,0.1-0.7,0.2-1,0.2H92.7L92.7,32z M93.3,31.3h0.5c0.3,0,0.5,0,0.7-0.1
	c0.2-0.1,0.4-0.2,0.6-0.4c0.2-0.2,0.3-0.4,0.4-0.6s0.1-0.5,0.1-0.7c0-0.3,0-0.5-0.1-0.7s-0.2-0.4-0.4-0.6c-0.2-0.2-0.4-0.3-0.6-0.4
	c-0.2-0.1-0.5-0.1-0.7-0.1h-0.5V31.3z"/>
<path class="st0" d="M99.2,27.5v2.4h1.8v0.7h-1.8v0.6h2.3V32h-3v-5.2h3v0.7L99.2,27.5L99.2,27.5z"/>
<path class="st0" d="M106.4,32h-3v-5.2h0.7v4.4h2.3V32L106.4,32z"/>
<path class="st0" d="M112.2,31.6c-0.3-0.3-0.5-0.6-0.5-1.1h0.7c0,0.3,0.1,0.5,0.3,0.6c0.2,0.1,0.3,0.2,0.6,0.2
	c0.3,0,0.5-0.1,0.6-0.2c0.2-0.1,0.3-0.3,0.3-0.6c0-0.2-0.1-0.3-0.2-0.4c-0.1-0.2-0.4-0.2-0.8-0.3c-0.5-0.1-0.9-0.2-1.2-0.6
	c-0.2-0.3-0.4-0.6-0.4-0.9c0-0.4,0.1-0.7,0.4-1c0.3-0.4,0.7-0.6,1.2-0.6s0.9,0.2,1.2,0.5c0.3,0.3,0.5,0.7,0.5,1.3h-0.7
	c0-0.3-0.1-0.5-0.2-0.7c-0.2-0.2-0.4-0.3-0.8-0.3s-0.6,0.1-0.8,0.4c-0.1,0.2-0.1,0.3-0.1,0.5c0,0.1,0,0.3,0.1,0.4
	c0.2,0.2,0.4,0.3,0.8,0.4c0.6,0.1,1,0.3,1.3,0.6c0.2,0.2,0.3,0.5,0.3,0.9c0,0.4-0.2,0.7-0.5,0.9c-0.3,0.3-0.7,0.4-1.1,0.4
	C112.9,32,112.5,31.9,112.2,31.6z"/>
<path class="st0" d="M117.5,31.4c-0.4-0.4-0.6-0.8-0.6-1.4v-3.2h0.7V30c0,0.3,0.1,0.6,0.4,0.9c0.2,0.2,0.5,0.4,0.9,0.4
	c0.3,0,0.6-0.1,0.9-0.4c0.2-0.2,0.4-0.5,0.4-0.9v-3.2h0.7V30c0,0.5-0.2,1-0.6,1.4c-0.4,0.4-0.8,0.6-1.4,0.6
	C118.4,32,117.9,31.8,117.5,31.4z"/>
<path class="st0" d="M125.4,32l-0.9-1.1h-0.8V32H123v-5.2h1.3c0.6,0,1,0.2,1.4,0.6c0.4,0.4,0.6,0.9,0.6,1.4c0,0.6-0.2,1-0.6,1.4
	c-0.1,0.1-0.3,0.2-0.5,0.3l1.1,1.4L125.4,32L125.4,32z M124.2,30.1c0.4,0,0.7-0.1,0.9-0.4c0.3-0.2,0.4-0.5,0.4-0.9
	c0-0.4-0.1-0.7-0.4-0.9c-0.2-0.2-0.6-0.4-0.9-0.4h-0.5v2.6L124.2,30.1L124.2,30.1z"/>
<rect x="49.8" y="29" class="st0" width="40.8" height="0.8"/>
<g id="Capa_4">
</g>
<g>
	<g class="st1">
		<path d="M39.6,17.3v6.1c0,1.6-1.3,2.9-2.9,2.9h-6.9c-0.5,0-0.9,0.1-1.3,0.2c-0.9,0.4-1.6,1.1-2,2c-0.2,0.4-0.3,0.9-0.3,1.4v6.8
			c0,1.6-1.3,2.9-2.9,2.9h-6.1c-1.6,0-2.9-1.3-2.9-2.9v-5.6c0,0-0.1-0.9,0.1-1.1c0.1-0.2,0.5-0.6,0.5-0.6l3.2-3.2
			c2.3,0.7,4.9,0.2,6.7-1.6l0,0c0.2-0.2,0.4-0.4,0.5-0.6c1.1-1.5,1.6-3.3,1.4-5c0-0.4-0.1-0.7-0.2-1.1l-4.2,4.2
			c-0.1,0.1-0.2,0.2-0.4,0.3h-0.1l0,0l0,0l0,0l0,0h-0.1h-0.1h-0.1c0,0,0,0-0.1,0c0,0,0,0-0.1,0l0,0c-0.2,0-0.3,0-0.5-0.1
			s-0.3-0.2-0.5-0.3l-2.4-2.4c-0.1-0.1-0.2-0.3-0.3-0.5c-0.1-0.2-0.1-0.3-0.1-0.5l0,0c0-0.1,0-0.2,0-0.2v-0.1c0,0,0,0,0-0.1
			c0,0,0,0,0-0.1V18v-0.1c0.1-0.1,0.2-0.3,0.3-0.4l4.2-4.2c-0.3-0.1-0.7-0.2-1.1-0.2c-1.8-0.2-3.6,0.2-5,1.4
			c-0.2,0.2-0.4,0.3-0.6,0.5l0,0c-1.8,1.8-2.3,4.4-1.6,6.7l-3.5,3.6c0,0-0.5,0.6-0.7,0.7s-0.8,0.1-0.8,0.1H3.9
			c-1.6,0-2.9-1.3-2.9-2.9v-6.1c0-1.6,1.3-2.9,2.9-2.9h6.8c0.5,0,1-0.1,1.4-0.3c0.9-0.4,1.6-1.1,2-2.1c0.2-0.4,0.2-0.8,0.2-1.3V3.9
			c0-1.6,1.3-2.9,2.9-2.9h6.1c1.6,0,2.9,1.3,2.9,2.9v6.8c0,0.5,0.1,1,0.3,1.4c0.4,0.9,1.1,1.6,2,2c0.4,0.2,0.9,0.3,1.3,0.3h6.9
			C38.4,14.4,39.6,15.7,39.6,17.3z"/>
	</g>
	<g>
		
			<linearGradient id="SVGID_1_" gradientUnits="userSpaceOnUse" x1="7.475" y1="-411.7116" x2="31.0439" y2="-388.1428" gradientTransform="matrix(1 0 0 -1 0 -380.6367)">
			<stop  offset="0" style="stop-color:#0086B4"/>
			<stop  offset="1" style="stop-color:#00A7B4"/>
		</linearGradient>
		<path class="st2" d="M38.6,16.3v6.1c0,1.6-1.3,2.9-2.9,2.9h-6.9c-0.5,0-0.9,0.1-1.3,0.2c-0.9,0.4-1.6,1.1-2,2
			c-0.2,0.4-0.3,0.9-0.3,1.4v6.8c0,1.6-1.3,2.9-2.9,2.9h-6.1c-1.6,0-2.9-1.3-2.9-2.9v-5.6c0,0-0.1-0.9,0.1-1.1
			c0.1-0.2,0.5-0.6,0.5-0.6l3.2-3.2c2.3,0.7,4.9,0.2,6.7-1.6l0,0c0.2-0.2,0.4-0.4,0.5-0.6c1.1-1.5,1.6-3.3,1.4-5
			c0-0.4-0.1-0.7-0.2-1.1l-4.2,4.2c-0.1,0.1-0.2,0.2-0.4,0.3h-0.1l0,0l0,0l0,0l0,0h-0.1h-0.1h-0.1c0,0,0,0-0.1,0c0,0,0,0-0.1,0l0,0
			c-0.2,0-0.3,0-0.5-0.1s-0.3-0.2-0.5-0.3l-2.4-2.4c-0.1-0.1-0.2-0.3-0.3-0.5c-0.1-0.2-0.1-0.3-0.1-0.5l0,0c0-0.1,0-0.2,0-0.2v-0.1
			c0,0,0,0,0-0.1c0,0,0,0,0-0.1V17v-0.1c0.1-0.1,0.2-0.3,0.3-0.4l4.2-4.2c-0.3-0.1-0.7-0.2-1.1-0.2c-1.8-0.2-3.6,0.2-5,1.4
			c-0.2,0.2-0.4,0.3-0.6,0.5l0,0c-1.8,1.8-2.3,4.4-1.6,6.7l-3.5,3.6c0,0-0.5,0.6-0.7,0.7s-0.8,0.1-0.8,0.1H2.9
			c-1.6,0-2.9-1.3-2.9-2.9v-6.1c0-1.6,1.3-2.9,2.9-2.9h6.8c0.5,0,1-0.1,1.4-0.3c0.9-0.4,1.6-1.1,2-2.1c0.2-0.4,0.2-0.8,0.2-1.3V2.9
			c0-1.6,1.3-2.9,2.9-2.9h6.1c1.6,0,2.9,1.3,2.9,2.9v6.8c0,0.5,0.1,1,0.3,1.4c0.4,0.9,1.1,1.6,2,2c0.4,0.2,0.9,0.3,1.3,0.3h6.9
			C37.4,13.4,38.6,14.7,38.6,16.3z"/>
	</g>
</g>
<g>
	<g class="st1">
		<path d="M48.2,24V11.6h3.2c1,0,1.8,0.3,2.5,1s1,1.5,1,2.5c0,0.9-0.3,1.7-1,2.4c0.5,0.3,0.9,0.7,1.2,1.3c0.3,0.5,0.4,1.1,0.4,1.7
			c0,1-0.3,1.8-1,2.5S53,24,52,24H48.2L48.2,24z M49.9,17h1.5c0.5,0,1-0.2,1.3-0.5c0.4-0.4,0.6-0.8,0.6-1.3s-0.2-0.9-0.5-1.3
			c-0.4-0.4-0.8-0.5-1.3-0.5h-1.6V17L49.9,17z M49.9,22.4h2.2c0.5,0,0.9-0.2,1.3-0.5c0.4-0.4,0.5-0.8,0.5-1.3s-0.2-1-0.5-1.3
			c-0.4-0.4-0.8-0.5-1.3-0.5h-2.2V22.4z"/>
	</g>
	<g>
		<path class="st3" d="M47.2,23V10.6h3.2c1,0,1.8,0.3,2.5,1s1,1.5,1,2.5c0,0.9-0.3,1.7-1,2.4c0.5,0.3,0.9,0.7,1.2,1.3
			c0.3,0.5,0.4,1.1,0.4,1.7c0,1-0.3,1.8-1,2.5S52,23,51,23H47.2L47.2,23z M48.9,16h1.5c0.5,0,1-0.2,1.3-0.5c0.4-0.4,0.6-0.8,0.6-1.3
			s-0.2-0.9-0.5-1.3c-0.4-0.4-0.8-0.5-1.3-0.5h-1.6V16L48.9,16z M48.9,21.4h2.2c0.5,0,0.9-0.2,1.3-0.5c0.4-0.4,0.5-0.8,0.5-1.3
			s-0.2-1-0.5-1.3c-0.4-0.4-0.8-0.5-1.3-0.5h-2.2V21.4z"/>
	</g>
</g>
<g>
	<g class="st1">
		<rect x="56.5" y="11.6" width="1.7" height="12.4"/>
	</g>
	<g>
		<rect x="55.5" y="10.6" class="st3" width="1.7" height="12.4"/>
	</g>
</g>
<g>
	<g class="st1">
		<path d="M61,22.2c-1.2-1.2-1.8-2.7-1.8-4.4s0.6-3.2,1.8-4.4s2.7-1.8,4.4-1.8c1.7,0,3.2,0.6,4.4,1.8c1.2,1.2,1.8,2.7,1.8,4.4
			c0,1.7-0.6,3.2-1.8,4.4c-1.2,1.2-2.7,1.8-4.4,1.8C63.6,24,62.2,23.4,61,22.2z M62.1,14.6c-0.9,0.9-1.3,2-1.3,3.2
			c0,1.3,0.4,2.4,1.3,3.2c0.9,0.9,2,1.3,3.3,1.3s2.3-0.4,3.2-1.3c0.9-0.9,1.3-2,1.3-3.2c0-1.3-0.4-2.3-1.3-3.2s-2-1.3-3.2-1.3
			C64.1,13.2,63,13.7,62.1,14.6z"/>
	</g>
	<g>
		<path class="st3" d="M60,21.2c-1.2-1.2-1.8-2.7-1.8-4.4s0.6-3.2,1.8-4.4s2.7-1.8,4.4-1.8c1.7,0,3.2,0.6,4.4,1.8
			c1.2,1.2,1.8,2.7,1.8,4.4S70,20,68.8,21.2c-1.2,1.2-2.7,1.8-4.4,1.8C62.6,23,61.2,22.4,60,21.2z M61.1,13.6
			c-0.9,0.9-1.3,2-1.3,3.2c0,1.3,0.4,2.4,1.3,3.2c0.9,0.9,2,1.3,3.3,1.3s2.3-0.4,3.2-1.3c0.9-0.9,1.3-2,1.3-3.2
			c0-1.3-0.4-2.3-1.3-3.2s-2-1.3-3.2-1.3C63.1,12.2,62,12.7,61.1,13.6z"/>
	</g>
</g>
<g>
	<g class="st1">
		<polygon points="78.3,24 74.1,17.5 74.1,24 72.4,24 72.4,11.6 78.3,20.6 84.1,11.6 84.1,24 82.4,24 82.4,17.5 		"/>
	</g>
	<g>
		<polygon class="st3" points="77.3,23 73.1,16.5 73.1,23 71.4,23 71.4,10.6 77.3,19.6 83.1,10.6 83.1,23 81.4,23 81.4,16.5 		"/>
	</g>
</g>
<g>
	<g class="st1">
		<path d="M86.8,13.3v5.8H91v1.7h-4.2v1.6h5.5V24h-7.2V11.6h7.2v1.7H86.8L86.8,13.3z M90.4,9.8l-2.7,1.5L87,9.7l2.7-1.5L90.4,9.8z"
			/>
	</g>
	<g>
		<path class="st3" d="M85.8,12.3v5.8H90v1.7h-4.2v1.6h5.5V23h-7.2V10.6h7.2v1.7H85.8L85.8,12.3z M89.4,8.8l-2.7,1.5L86,8.7l2.7-1.5
			L89.4,8.8z"/>
	</g>
</g>
<g>
	<g class="st1">
		<path d="M93.2,24V11.6H96c0.8,0,1.7,0.2,2.4,0.5c0.7,0.3,1.4,0.8,2,1.3c0.6,0.6,1,1.2,1.3,2s0.5,1.6,0.5,2.4
			c0,0.9-0.2,1.7-0.5,2.4c-0.3,0.7-0.8,1.4-1.3,2c-0.6,0.6-1.2,1-2,1.3C97.7,23.9,96.9,24,96,24H93.2z M94.9,22.3H96
			c0.6,0,1.2-0.1,1.8-0.4c0.5-0.2,1-0.6,1.4-1s0.7-0.9,1-1.4c0.2-0.6,0.4-1.1,0.4-1.8c0-0.6-0.1-1.2-0.4-1.8c-0.2-0.5-0.6-1-1-1.4
			s-0.9-0.7-1.4-1c-0.6-0.2-1.1-0.4-1.8-0.4h-1.1V22.3z"/>
	</g>
	<g>
		<path class="st3" d="M92.2,23V10.6H95c0.8,0,1.7,0.2,2.4,0.5c0.7,0.3,1.4,0.8,2,1.3c0.6,0.6,1,1.2,1.3,2s0.5,1.6,0.5,2.4
			c0,0.9-0.2,1.7-0.5,2.4c-0.3,0.7-0.8,1.4-1.3,2c-0.6,0.6-1.2,1-2,1.3C96.7,22.9,95.9,23,95,23H92.2z M93.9,21.3H95
			c0.6,0,1.2-0.1,1.8-0.4c0.5-0.2,1-0.6,1.4-1s0.7-0.9,1-1.4c0.2-0.6,0.4-1.1,0.4-1.8c0-0.6-0.1-1.2-0.4-1.8c-0.2-0.5-0.6-1-1-1.4
			s-0.9-0.7-1.4-1c-0.6-0.2-1.1-0.4-1.8-0.4h-1.1V21.3z"/>
	</g>
</g>
<g>
	<g class="st1">
		<rect x="103.2" y="11.6" width="1.7" height="12.4"/>
	</g>
	<g>
		<rect x="102.2" y="10.6" class="st3" width="1.7" height="12.4"/>
	</g>
</g>
<g>
	<g class="st1">
		<path d="M115.2,14.4c-0.4-0.4-0.8-0.7-1.3-0.9c-0.6-0.2-1.2-0.4-1.8-0.4c-0.6,0-1.2,0.1-1.8,0.4c-0.6,0.2-1,0.6-1.5,1
			c-0.4,0.4-0.8,0.9-1,1.5s-0.4,1.2-0.4,1.8c0,0.6,0.1,1.2,0.4,1.8c0.2,0.6,0.6,1,1,1.5c0.4,0.4,0.9,0.8,1.5,1s1.2,0.4,1.8,0.4
			c0.6,0,1.2-0.1,1.8-0.4c0.5-0.2,0.9-0.5,1.3-0.9l1.1,1.1c-0.5,0.5-1.2,0.9-1.9,1.2c-0.8,0.3-1.6,0.5-2.4,0.5s-1.7-0.2-2.4-0.5
			c-0.7-0.3-1.4-0.8-2-1.3c-0.6-0.6-1-1.2-1.3-2s-0.5-1.6-0.5-2.4s0.2-1.6,0.5-2.4c0.3-0.7,0.8-1.4,1.3-2c0.6-0.6,1.2-1,2-1.3
			s1.6-0.5,2.4-0.5s1.6,0.2,2.4,0.5c0.7,0.3,1.3,0.7,1.9,1.2L115.2,14.4z"/>
	</g>
	<g>
		<path class="st3" d="M114.2,13.4c-0.4-0.4-0.8-0.7-1.3-0.9c-0.6-0.2-1.2-0.4-1.8-0.4c-0.6,0-1.2,0.1-1.8,0.4c-0.6,0.2-1,0.6-1.5,1
			c-0.4,0.4-0.8,0.9-1,1.5s-0.4,1.2-0.4,1.8c0,0.6,0.1,1.2,0.4,1.8c0.2,0.6,0.6,1,1,1.5c0.4,0.4,0.9,0.8,1.5,1s1.2,0.4,1.8,0.4
			c0.6,0,1.2-0.1,1.8-0.4c0.5-0.2,0.9-0.5,1.3-0.9l1.1,1.1c-0.5,0.5-1.2,0.9-1.9,1.2c-0.8,0.3-1.6,0.5-2.4,0.5s-1.7-0.2-2.4-0.5
			c-0.7-0.3-1.4-0.8-2-1.3c-0.6-0.6-1-1.2-1.3-2s-0.5-1.6-0.5-2.4s0.2-1.6,0.5-2.4c0.3-0.7,0.8-1.4,1.3-2c0.6-0.6,1.2-1,2-1.3
			s1.6-0.5,2.4-0.5s1.6,0.2,2.4,0.5c0.7,0.3,1.3,0.7,1.9,1.2L114.2,13.4z"/>
	</g>
</g>
<g>
	<g class="st1">
		<path d="M124.5,22.5h-5l-0.6,1.5H117l5-12.5l5,12.5h-1.8L124.5,22.5z M123.8,20.8l-1.8-4.6l-1.8,4.6H123.8z"/>
	</g>
	<g>
		<path class="st3" d="M123.5,21.5h-5l-0.6,1.5H116l5-12.5l5,12.5h-1.8L123.5,21.5z M122.8,19.8l-1.8-4.6l-1.8,4.6H122.8z"/>
	</g>
</g>
<path class="st3" d="M92.3,31.6v-5.2h1.2c0.3,0,0.7,0.1,1,0.2s0.6,0.3,0.8,0.6c0.2,0.2,0.4,0.5,0.5,0.8s0.2,0.6,0.2,1
	s-0.1,0.7-0.2,1s-0.3,0.6-0.5,0.8c-0.2,0.2-0.5,0.4-0.8,0.6c-0.3,0.1-0.7,0.2-1,0.2L92.3,31.6L92.3,31.6z M93,30.9h0.5
	c0.3,0,0.5,0,0.7-0.1s0.4-0.2,0.6-0.4c0.2-0.2,0.3-0.4,0.4-0.6s0.1-0.5,0.1-0.7c0-0.3,0-0.5-0.1-0.7S95,28,94.8,27.8
	c-0.2-0.2-0.4-0.3-0.6-0.4s-0.5-0.1-0.7-0.1H93V30.9z"/>
<path class="st3" d="M98.8,27.1v2.4h1.8v0.7h-1.8v0.6h2.3v0.7h-3v-5.2h3V27L98.8,27.1L98.8,27.1z"/>
<path class="st3" d="M106.1,31.6h-3v-5.2h0.7v4.4h2.3V31.6L106.1,31.6z"/>
<path class="st3" d="M111.9,31.2c-0.3-0.3-0.5-0.6-0.5-1.1h0.7c0,0.3,0.1,0.5,0.3,0.6c0.2,0.1,0.3,0.2,0.6,0.2
	c0.3,0,0.5-0.1,0.6-0.2c0.2-0.1,0.3-0.3,0.3-0.6c0-0.2-0.1-0.3-0.2-0.4c-0.1-0.2-0.4-0.2-0.8-0.3c-0.5-0.1-0.9-0.2-1.2-0.6
	c-0.2-0.3-0.4-0.6-0.4-0.9c0-0.4,0.1-0.7,0.4-1c0.3-0.4,0.7-0.6,1.2-0.6s0.9,0.2,1.2,0.5c0.3,0.3,0.5,0.7,0.5,1.3h-0.7
	c0-0.3-0.1-0.5-0.2-0.7c-0.2-0.2-0.4-0.3-0.8-0.3s-0.6,0.1-0.8,0.4c-0.1,0.2-0.1,0.3-0.1,0.5c0,0.1,0,0.3,0.1,0.4
	c0.2,0.2,0.4,0.3,0.8,0.4c0.6,0.1,1,0.3,1.3,0.6c0.2,0.2,0.3,0.5,0.3,0.9s-0.2,0.7-0.5,0.9c-0.3,0.3-0.7,0.4-1.1,0.4
	C112.6,31.6,112.2,31.5,111.9,31.2z"/>
<path class="st3" d="M117.2,31c-0.4-0.4-0.6-0.8-0.6-1.4v-3.2h0.7v3.2c0,0.3,0.1,0.6,0.4,0.9c0.2,0.2,0.5,0.4,0.9,0.4
	c0.3,0,0.6-0.1,0.9-0.4c0.2-0.2,0.4-0.5,0.4-0.9v-3.2h0.7v3.2c0,0.5-0.2,1-0.6,1.4s-0.8,0.6-1.4,0.6C118.1,31.6,117.6,31.4,117.2,31
	z"/>
<path class="st3" d="M125.1,31.6l-0.9-1.1h-0.8v1.1h-0.7v-5.2h1.3c0.6,0,1,0.2,1.4,0.6s0.6,0.9,0.6,1.4c0,0.6-0.2,1-0.6,1.4
	c-0.1,0.1-0.3,0.2-0.5,0.3l1.1,1.4L125.1,31.6L125.1,31.6z M123.9,29.7c0.4,0,0.7-0.1,0.9-0.4c0.3-0.2,0.4-0.5,0.4-0.9
	s-0.1-0.7-0.4-0.9c-0.2-0.2-0.6-0.4-0.9-0.4h-0.5v2.6L123.9,29.7L123.9,29.7z"/>
<rect x="49.4" y="28.6" class="st3" width="40.8" height="0.8"/>
<g id="Capa_7">
</g>
<g id="Capa_1_1_">
</g>
<g id="Capa_9">
</g>
<g id="Capa_5">
</g>
<g id="Capa_8">
</g>
<g id="Capa_2">
</g>
<g id="Capa_3">
</g>
</svg>
