<?xml version="1.0" encoding="utf-8"?>
<!-- Generator: Adobe Illustrator 21.0.0, SVG Export Plug-In . SVG Version: 6.00 Build 0)  -->
<svg version="1.1" id="Capa_1" xmlns="http://www.w3.org/2000/svg" xmlns:xlink="http://www.w3.org/1999/xlink" x="0px" y="0px"
	 viewBox="0 0 126 46.8" style="enable-background:new 0 0 126 46.8;" xml:space="preserve">
<style type="text/css">
	.st0{opacity:0.5;}
	.st1{fill:#EDEDED;}
	.st2{fill:#D6A621;}
	.st3{fill:#FFCD2C;}
</style>
<g>
	<g>
		<g class="st0">
			<path d="M3.6,1.3h13v4.4H9.1v3.3h6.6v4.6H9.1v8.2H3.6V1.3z"/>
			<path d="M20.4,1.3h5.4v20.6h-5.4V1.3z"/>
			<path d="M45.2,21.9l-9.8-9.7v9.7H30V1.3h2.2L42,11V1.3h5.4v20.6H45.2z"/>
		</g>
		<g>
			<g>
				<path class="st1" d="M2.3,0h13v4.4H7.8v3.3h6.6v4.6H7.8v8.2H2.3V0z"/>
				<path class="st1" d="M19.1,0h5.4v20.6h-5.4V0z"/>
				<path class="st1" d="M43.9,20.6l-9.8-9.7v9.7h-5.4V0h2.2l9.8,9.7V0h5.4v20.6H43.9z"/>
			</g>
		</g>
	</g>
	<g>
		<g class="st0">
			<path d="M54,28.8c2.6,2.6,7.4,9.6,11,12.7c0.1,0.6,0.3,1.1,0.6,1.5c-3.3-0.3-10.4-10.9-13.7-14.3c8.3-1.8,20-7.3,20-15
				c0-2-2.1-7.6-12.4-7.9c0.4,0,0.7,0,1.1,0c11.2,0,13.4,5.9,13.4,7.9C74,21.5,62.4,27,54,28.8z"/>
			<path d="M59.8,12.6c0,0.3-0.1,0.6-0.3,1.1c-0.5,0.9-5,7.3-7.8,11.2c-0.8,0.2-1.6,0.3-2.4,0.4c2.7-3.9,7.5-10.6,8-11.5
				c0.2-0.4,0.3-0.7,0.3-1.1c0-0.6-0.4-1-1.1-1.5c-0.1-0.1-0.1-0.1-0.2-0.2c0.1,0,0.1,0,0.2-0.1c0.1-0.1,0.3-0.2,0.4-0.2
				c0.2,0,0.3,0.1,0.5,0.1c0.2,0,0.3-0.1,0.5-0.1c0.3,0,0.4,0.2,0.7,0.5C59.4,11.6,59.8,12,59.8,12.6z"/>
			<path d="M48.6,29.6c-2.6,4-6.8,10.6-8.1,13.3c-0.5,1-1.1,1.1-1.8,1.1c-0.3,0-0.6,0-0.9,0c-0.3,0-0.6,0-0.8,0c0,0-0.1,0-0.2,0
				c0.6,0,1.2-0.2,1.6-1.1c1.4-3,6.4-10.7,9-14.7C47.8,28.6,48.2,29.1,48.6,29.6z"/>
			<path d="M60.2,10.1c-1.4,0.1-2.8,0.3-4.3,0.6c0,0,0,0-0.1,0c-0.1,0-0.3,0.1-0.5,0.1c-0.2,0-0.3-0.1-0.5-0.1
				c-0.2,0-0.3,0.2-0.4,0.2c-0.2,0-0.3,0.1-0.4,0.2c-3.6,0.9-7.1,2.2-9.2,3.3c-1.8,1-6.7,2.8-3.1,3.2c-0.1,0-0.9,0-1.9,0
				c-0.2,0-0.7,0-0.7-0.2c0-0.4,1.3-1.7,3.6-3c3.5-1.9,11-4.3,16.5-4.3C59.6,10.1,59.9,10.1,60.2,10.1z"/>
			<path d="M55.9,10.6c-0.6,0.1-1.2,0.3-1.8,0.4c0.1-0.1,0.2-0.1,0.4-0.2c0.1-0.1,0.3-0.2,0.4-0.2c0.2,0,0.3,0.1,0.5,0.1
				C55.6,10.7,55.8,10.6,55.9,10.6C55.9,10.6,55.9,10.6,55.9,10.6z"/>
			<path d="M43.8,17.4c0,0.1-0.1,0.2-0.1,0.3c-1.9,1.8-3.5,2.2-5.2,2.2c-0.2,0-0.4,0-0.6-0.1c1.2-0.2,2.4-0.8,3.7-2.1
				c0.1-0.1,0.1-0.1,0.1-0.2c0.1,0,0.3,0,0.4,0c0.2,0,0.6-0.1,1.2-0.5c0,0,0.1,0,0.1,0C43.6,17,43.8,17.2,43.8,17.4z"/>
			<path d="M69.1,43.1c0,0.1-0.1,0.2-0.2,0.4c-0.2,0.2-0.3,0.3-0.4,0.5c-0.3,0.3-0.5,0.6-0.8,0.9c-1.1,1.2-1.8,1.7-3.3,1.7
				c-0.3,0-0.6-0.1-0.9-0.2c-4.1-1.4-11.2-12.1-14.8-16.7c-0.3,0.5,0.3-0.5,0,0c-0.4-0.5-0.8-1-1.1-1.5c-2.6,4.1-7.6,11.7-9,14.7
				c-0.4,0.9-1,1.1-1.6,1.1c-0.6,0-1.5-0.3-1.5-1.4c0-0.7,0.3-1.7,1-3.2C37.4,37.1,54,13,55.5,11.6c0.4-0.4,0.6-0.6,0.9-0.7
				c0.1,0.1,0.1,0.1,0.2,0.2c0.7,0.5,1.1,0.9,1.1,1.5c0,0.3-0.1,0.6-0.3,1.1c-0.5,0.9-5.3,7.6-8,11.5c0.7,0,1.5-0.2,2.4-0.4
				c-0.1,0.1,0.1-0.1,0,0c6-0.3,17.6-7.3,17.6-11.5c0-2.3-5.1-3.2-7.9-3.2c-0.4,0-0.7,0-1.1,0c-0.3,0-0.7,0-1,0
				c-5.5,0-13,2.4-16.5,4.3c-2.3,1.3-3.6,2.6-3.6,3c0,0.2,0.5,0.2,0.7,0.2c0.2,0,1.6,0,1.7,0c0,0.1-0.1,0.2-0.1,0.2
				c-1.3,1.3-2.5,1.9-3.7,2.1C37,19.5,36,18.6,36,17.2c0-1.1,0.6-2.3,2.1-3.9c2.7-2.7,11.8-7,21.4-7.3h0c10.3,0.3,12.4,5.9,12.4,7.9
				c0,7.7-11.7,13.2-20,15c3.3,3.4,10.4,13.9,13.7,14.3c-0.3-0.5-0.5-1-0.6-1.5c1,0.9,1.9,1.5,2.7,1.5c0.1,0,0.1,0,0.2,0
				c0.3,0,0.7-0.3,0.9-0.3C68.9,42.8,69.1,42.9,69.1,43.1z"/>
			<path d="M88.4,25.1c-0.6-0.7-1.4-1.1-2.2-1.1c-0.2,0-0.5,0-0.9,0.1V24c0-0.3-0.9-1.1-2.5-1.1c-5,0-15.7,8.1-15.7,17.9
				c0,2.2,1.4,4,3.6,4.4c0.1,0,0.2,0,0.2,0h0c8.1-1.2,17.5-14,17.5-19.5C88.4,25.4,88.4,25.3,88.4,25.1z M79.9,35.6
				c-3.3,4.1-6.4,5.6-7.7,5.6c-0.4,0-0.7-0.2-0.9-0.4c-0.3,0.1-0.6,0.2-0.9,0.2c-0.8,0-1.2-0.6-1.2-1.6c0-1.7,1.2-4.7,3.7-7.9
				c2.7-3.4,6-5.7,8.6-6.6c0,0.4,0.1,0.7,0.1,0.9c0.1,0.3,0.4,0.5,0.6,0.5c0.1,0,0.1-0.1,0.2-0.1c0,0,0,0.1,0,0.1
				c0,0.7,0.2,1.1,0.5,1.2c0.1,0,0.2,0.1,0.4,0.1h0.2c0.2,0,0.4,0.2,0.4,0.5C84.1,29.2,82.8,31.9,79.9,35.6z"/>
			<path d="M88.9,26.9c0,5.4-9.7,18.3-17.4,18.3c-0.3,0-0.5,0-0.8-0.1c0.1,0,0.2,0,0.2,0h0c8.1-1.2,17.5-14,17.5-19.5
				c0-0.1,0-0.3,0-0.4C88.7,25.6,88.9,26.1,88.9,26.9z"/>
			<path d="M82.4,26.3c-2.4,0.9-5.4,3-7.8,6c-2.3,3-3.4,5.7-3.4,7.3c0,0.4,0.1,0.8,0.2,1c-0.3,0.1-0.6,0.2-0.9,0.2
				c-0.8,0-1.2-0.6-1.2-1.6c0-1.7,1.2-4.7,3.7-7.9c2.7-3.4,6-5.7,8.6-6.6c0,0.4,0.1,0.7,0.1,0.9C81.9,26.1,82.1,26.3,82.4,26.3z"/>
			<path d="M95.1,41.4C95.1,41.4,95.1,41.4,95.1,41.4c-0.4,0.2-0.7,0.2-1.1,0.2c-1.6,0-3.9,0.1-3.8-2.2c0-0.9,0.2-2.8,0.3-3.6
				c4.6-5.1,20.1-22.8,20.1-28.9c0-1.4-1.4-2.2-2.9-2.5c-3.6,0.9-8.2,6.8-11.2,11c-4.3,6-9.1,16.8-9.1,24.2c0,3.1,1.4,5.3,4.2,5.7
				c3.2-0.4,7.2-2.3,9.2-4.5c0.6-0.7,1.3-1.3,1.3-2.5v-0.5c0-0.2-0.1-0.8-0.2-1.4C100.4,37.7,97.7,41,95.1,41.4z M93.4,29.5
				C93.4,29.5,93.4,29.5,93.4,29.5c0.8-3,1.4-6.7,2.9-9.5c1.1-2.1,7.8-12.4,11.3-12.9c0.3,0,0.4,0.1,0.4,0.3
				c0.1,0.6-0.4,1.7-1.1,3.2c-2.5,5.1-11.5,16.9-13.7,19.5C93.2,30,93.3,29.7,93.4,29.5z"/>
			<path d="M94.5,41.5c0.2,0,0.4,0,0.6-0.1c-0.4,0.2-0.7,0.2-1.1,0.2c-1.6,0-3.9,0.1-3.8-2.2c0-0.9,0.2-2.8,0.3-3.6
				c4.6-5.1,20.1-22.8,20.1-28.9c0-1.4-1.4-2.2-2.9-2.5c0.3-0.1,0.6-0.1,0.9-0.1c1.6,0,3.3,1,3.3,2.8c0,6.1-15.4,24.1-19.9,29.2
				c-0.1,0.9-0.4,1.7-0.4,2.6C91.6,40.6,92.9,41.5,94.5,41.5z"/>
			<path d="M106.8,10.7c0.4-0.9,0.7-1.5,0.7-1.9c0-0.2-0.1-0.4-0.3-0.4c-1.4,0-9.1,10.9-10.1,12.8c-1.4,2.5-2.8,5.6-3.7,8.3
				c0.8-3,1.4-6.7,2.9-9.4c1.1-2.1,7.8-12.4,11.3-12.9c0.3,0,0.4,0.1,0.4,0.3C108.1,8.1,107.6,9.2,106.8,10.7z"/>
			<path d="M108.1,41.4C108.1,41.4,108.1,41.4,108.1,41.4c-0.4,0.2-0.7,0.2-1.1,0.2c-1.6,0-3.9,0.1-3.8-2.2c0-0.9,0.2-2.8,0.3-3.6
				c4.6-5.1,20.1-22.8,20.1-28.9c0-1.4-1.4-2.2-2.9-2.5c-3.6,0.9-8.2,6.8-11.2,11c-4.3,6-9.1,16.8-9.1,24.2c0,3.1,1.4,5.3,4.2,5.7
				c3.2-0.4,7.2-2.3,9.2-4.5c0.6-0.7,1.3-1.3,1.3-2.5v-0.5c0-0.2-0.1-0.8-0.2-1.4C113.4,37.7,110.7,41,108.1,41.4z M106.4,29.5
				C106.4,29.5,106.4,29.5,106.4,29.5c0.8-3,1.4-6.7,2.9-9.5c1.1-2.1,7.8-12.4,11.3-12.9c0.3,0,0.4,0.1,0.4,0.3
				c0.1,0.6-0.4,1.7-1.1,3.2c-2.5,5.1-11.5,16.9-13.7,19.5C106.2,30,106.3,29.7,106.4,29.5z"/>
			<path d="M107.5,41.5c0.2,0,0.4,0,0.6-0.1c-0.4,0.2-0.7,0.2-1.1,0.2c-1.6,0-3.9,0.1-3.8-2.2c0-0.9,0.2-2.8,0.3-3.6
				c4.6-5.1,20.1-22.8,20.1-28.9c0-1.4-1.4-2.2-2.9-2.5c0.3-0.1,0.6-0.1,0.9-0.1c1.6,0,3.3,1,3.3,2.8c0,6.1-15.4,24.1-19.9,29.2
				c-0.1,0.9-0.4,1.7-0.4,2.6C104.6,40.6,105.9,41.5,107.5,41.5z"/>
			<path d="M119.8,10.7c0.4-0.9,0.7-1.5,0.7-1.9c0-0.2-0.1-0.4-0.3-0.4c-1.4,0-9.1,10.9-10.1,12.8c-1.4,2.5-2.8,5.6-3.7,8.3
				c0.8-3,1.4-6.7,2.9-9.4c1.1-2.1,7.8-12.4,11.3-12.9c0.3,0,0.4,0.1,0.4,0.3C121.1,8.1,120.6,9.2,119.8,10.7z"/>
		</g>
		<g>
			<g>
				<g>
					<path class="st2" d="M52.7,27.5c2.6,2.6,7.4,9.6,11,12.7c0.1,0.6,0.3,1.1,0.6,1.5C61,41.5,53.9,30.9,50.7,27.5
						c8.3-1.8,20-7.3,20-15c0-2-2.1-7.6-12.4-7.9c0.4,0,0.7,0,1.1,0c11.2,0,13.4,5.9,13.4,7.9C72.7,20.2,61.1,25.7,52.7,27.5z"/>
					<path class="st2" d="M58.5,11.3c0,0.3-0.1,0.6-0.3,1.1c-0.5,0.9-5,7.3-7.8,11.2c-0.8,0.2-1.6,0.3-2.4,0.4
						c2.7-3.9,7.5-10.6,8-11.5c0.2-0.4,0.3-0.7,0.3-1.1c0-0.6-0.4-1-1.1-1.5c-0.1-0.1-0.1-0.1-0.2-0.2c0.1,0,0.1,0,0.2-0.1
						c0.1-0.1,0.3-0.2,0.4-0.2c0.2,0,0.3,0.1,0.5,0.1c0.2,0,0.3-0.1,0.5-0.1c0.3,0,0.4,0.2,0.7,0.5C58.1,10.3,58.5,10.7,58.5,11.3z"
						/>
					<path class="st2" d="M47.3,28.4c-2.6,4-6.8,10.6-8.1,13.3c-0.5,1-1.1,1.1-1.8,1.1c-0.3,0-0.6,0-0.9,0c-0.3,0-0.6,0-0.8,0
						c0,0-0.1,0-0.2,0c0.6,0,1.2-0.2,1.6-1.1c1.4-3,6.4-10.7,9-14.7C46.5,27.3,46.9,27.8,47.3,28.4z"/>
					<path class="st2" d="M58.9,8.8c-1.4,0.1-2.8,0.3-4.3,0.6c0,0,0,0-0.1,0c-0.1,0-0.3,0.1-0.5,0.1c-0.2,0-0.3-0.1-0.5-0.1
						c-0.2,0-0.3,0.2-0.4,0.2c-0.2,0-0.3,0.1-0.4,0.2c-3.6,0.9-7.1,2.2-9.2,3.3c-1.8,1-6.7,2.8-3.1,3.2c-0.1,0-0.9,0-1.9,0
						c-0.2,0-0.7,0-0.7-0.2c0-0.4,1.3-1.7,3.6-3c3.5-1.9,11-4.3,16.5-4.3C58.3,8.8,58.6,8.8,58.9,8.8z"/>
					<path class="st2" d="M54.6,9.4c-0.6,0.1-1.2,0.3-1.8,0.4c0.1-0.1,0.2-0.1,0.4-0.2c0.1-0.1,0.3-0.2,0.4-0.2
						c0.2,0,0.3,0.1,0.5,0.1C54.3,9.4,54.5,9.4,54.6,9.4C54.6,9.4,54.6,9.4,54.6,9.4z"/>
					<path class="st3" d="M42.5,16.1c0,0.1-0.1,0.2-0.1,0.3c-1.9,1.8-3.5,2.2-5.2,2.2c-0.2,0-0.4,0-0.6-0.1c1.2-0.2,2.4-0.8,3.7-2.1
						c0.1-0.1,0.1-0.1,0.1-0.2c0.1,0,0.3,0,0.4,0c0.2,0,0.6-0.1,1.2-0.5c0,0,0.1,0,0.1,0C42.3,15.7,42.5,15.9,42.5,16.1z"/>
					<path class="st3" d="M67.8,41.8c0,0.1-0.1,0.2-0.2,0.4c-0.2,0.2-0.3,0.3-0.4,0.5c-0.3,0.3-0.5,0.6-0.8,0.9
						c-1.1,1.2-1.8,1.7-3.3,1.7c-0.3,0-0.6-0.1-0.9-0.2C58,43.6,50.9,32.9,47.3,28.4c-0.3,0.5,0.3-0.5,0,0c-0.4-0.5-0.8-1-1.1-1.5
						c-2.6,4.1-7.6,11.7-9,14.7c-0.4,0.9-1,1.1-1.6,1.1c-0.6,0-1.5-0.3-1.5-1.4c0-0.7,0.3-1.7,1-3.2c1.1-2.4,17.8-26.4,19.2-27.8
						c0.4-0.4,0.6-0.6,0.9-0.7c0.1,0.1,0.1,0.1,0.2,0.2c0.7,0.5,1.1,0.9,1.1,1.5c0,0.3-0.1,0.6-0.3,1.1c-0.5,0.9-5.3,7.6-8,11.5
						c0.7,0,1.5-0.2,2.4-0.4c-0.1,0.1,0.1-0.1,0,0C56.4,23.3,68,16.2,68,12c0-2.3-5.1-3.2-7.9-3.2c-0.4,0-0.7,0-1.1,0
						c-0.3,0-0.7,0-1,0c-5.5,0-13,2.4-16.5,4.3c-2.3,1.3-3.6,2.6-3.6,3c0,0.2,0.5,0.2,0.7,0.2c0.2,0,1.6,0,1.7,0
						c0,0.1-0.1,0.2-0.1,0.2c-1.3,1.3-2.5,1.9-3.7,2.1c-0.8-0.3-1.8-1.2-1.8-2.7c0-1.1,0.6-2.3,2.1-3.9c2.7-2.7,11.8-7,21.4-7.3h0
						c10.3,0.3,12.4,5.9,12.4,7.9c0,7.7-11.7,13.2-20,15c3.3,3.4,10.4,13.9,13.7,14.3c-0.3-0.5-0.5-1-0.6-1.5c1,0.9,1.9,1.5,2.7,1.5
						c0.1,0,0.1,0,0.2,0c0.3,0,0.7-0.3,0.9-0.3C67.6,41.5,67.8,41.6,67.8,41.8z"/>
				</g>
				<g>
					<path class="st3" d="M87.1,23.8c-0.6-0.7-1.4-1.1-2.2-1.1c-0.2,0-0.5,0-0.9,0.1v-0.2c0-0.3-0.9-1.1-2.5-1.1
						c-5,0-15.7,8.1-15.7,17.9c0,2.2,1.4,4,3.6,4.4c0.1,0,0.2,0,0.2,0h0c8.1-1.2,17.5-14,17.5-19.5C87.1,24.1,87.1,24,87.1,23.8z
						 M78.6,34.3c-3.3,4.1-6.4,5.6-7.7,5.6c-0.4,0-0.7-0.2-0.9-0.4c-0.3,0.1-0.6,0.2-0.9,0.2C68.4,39.6,68,39,68,38
						c0-1.7,1.2-4.7,3.7-7.9c2.7-3.4,6-5.7,8.6-6.6c0,0.4,0.1,0.7,0.1,0.9c0.1,0.3,0.4,0.5,0.6,0.5c0.1,0,0.1-0.1,0.2-0.1
						c0,0,0,0.1,0,0.1c0,0.7,0.2,1.1,0.5,1.2c0.1,0,0.2,0.1,0.4,0.1h0.2c0.2,0,0.4,0.2,0.4,0.5C82.8,27.9,81.6,30.6,78.6,34.3z"/>
					<path class="st2" d="M87.6,25.6c0,5.4-9.7,18.3-17.4,18.3c-0.3,0-0.5,0-0.8-0.1c0.1,0,0.2,0,0.2,0h0c8.1-1.2,17.5-14,17.5-19.5
						c0-0.1,0-0.3,0-0.4C87.4,24.3,87.6,24.8,87.6,25.6z"/>
					<path class="st2" d="M81.1,25c-2.4,0.9-5.4,3-7.8,6c-2.3,3-3.4,5.7-3.4,7.3c0,0.4,0.1,0.8,0.2,1c-0.3,0.1-0.6,0.2-0.9,0.2
						C68.4,39.6,68,39,68,38c0-1.7,1.2-4.7,3.7-7.9c2.7-3.4,6-5.7,8.6-6.6c0,0.4,0.1,0.7,0.1,0.9C80.6,24.8,80.8,25,81.1,25z"/>
				</g>
				<g>
					<path class="st3" d="M93.8,40.2C93.8,40.2,93.8,40.2,93.8,40.2c-0.4,0.2-0.7,0.2-1.1,0.2c-1.6,0-3.9,0.1-3.8-2.2
						c0-0.9,0.2-2.8,0.3-3.6c4.6-5.1,20.1-22.8,20.1-28.9c0-1.4-1.4-2.2-2.9-2.5c-3.6,0.9-8.2,6.8-11.2,11c-4.3,6-9.1,16.8-9.1,24.2
						c0,3.1,1.4,5.3,4.2,5.7c3.2-0.4,7.2-2.3,9.2-4.5c0.6-0.7,1.3-1.3,1.3-2.5v-0.5c0-0.2-0.1-0.8-0.2-1.4
						C99.1,36.4,96.4,39.7,93.8,40.2z M92.1,28.2C92.1,28.2,92.1,28.2,92.1,28.2c0.8-3,1.4-6.7,2.9-9.5c1.1-2.1,7.8-12.4,11.3-12.9
						c0.3,0,0.4,0.1,0.4,0.3c0.1,0.6-0.4,1.7-1.1,3.2c-2.5,5.1-11.5,16.9-13.7,19.5C91.9,28.7,92,28.4,92.1,28.2z"/>
					<path class="st2" d="M93.2,40.2c0.2,0,0.4,0,0.6-0.1c-0.4,0.2-0.7,0.2-1.1,0.2c-1.6,0-3.9,0.1-3.8-2.2c0-0.9,0.2-2.8,0.3-3.6
						c4.6-5.1,20.1-22.8,20.1-28.9c0-1.4-1.4-2.2-2.9-2.5c0.3-0.1,0.6-0.1,0.9-0.1c1.6,0,3.3,1,3.3,2.8c0,6.1-15.4,24.1-19.9,29.2
						c-0.1,0.9-0.4,1.7-0.4,2.6C90.3,39.3,91.6,40.2,93.2,40.2z"/>
					<path class="st2" d="M105.6,9.4c0.4-0.9,0.7-1.5,0.7-1.9c0-0.2-0.1-0.4-0.3-0.4c-1.4,0-9.1,10.9-10.1,12.8
						c-1.4,2.5-2.8,5.6-3.7,8.3c0.8-3,1.4-6.7,2.9-9.4c1.1-2.1,7.8-12.4,11.3-12.9c0.3,0,0.4,0.1,0.4,0.3
						C106.8,6.8,106.3,7.9,105.6,9.4z"/>
				</g>
				<g>
					<path class="st3" d="M106.8,40.2C106.8,40.2,106.8,40.2,106.8,40.2c-0.4,0.2-0.7,0.2-1.1,0.2c-1.6,0-3.9,0.1-3.8-2.2
						c0-0.9,0.2-2.8,0.3-3.6c4.6-5.1,20.1-22.8,20.1-28.9c0-1.4-1.4-2.2-2.9-2.5c-3.6,0.9-8.2,6.8-11.2,11c-4.3,6-9.1,16.8-9.1,24.2
						c0,3.1,1.4,5.3,4.2,5.7c3.2-0.4,7.2-2.3,9.2-4.5c0.6-0.7,1.3-1.3,1.3-2.5v-0.5c0-0.2-0.1-0.8-0.2-1.4
						C112.1,36.4,109.4,39.7,106.8,40.2z M105.1,28.2C105.1,28.2,105.1,28.2,105.1,28.2c0.8-3,1.4-6.7,2.9-9.5
						c1.1-2.1,7.8-12.4,11.3-12.9c0.3,0,0.4,0.1,0.4,0.3c0.1,0.6-0.4,1.7-1.1,3.2c-2.5,5.1-11.5,16.9-13.7,19.5
						C104.9,28.7,105,28.4,105.1,28.2z"/>
					<path class="st2" d="M106.2,40.2c0.2,0,0.4,0,0.6-0.1c-0.4,0.2-0.7,0.2-1.1,0.2c-1.6,0-3.9,0.1-3.8-2.2c0-0.9,0.2-2.8,0.3-3.6
						c4.6-5.1,20.1-22.8,20.1-28.9c0-1.4-1.4-2.2-2.9-2.5c0.3-0.1,0.6-0.1,0.9-0.1c1.6,0,3.3,1,3.3,2.8c0,6.1-15.4,24.1-19.9,29.2
						c-0.1,0.9-0.4,1.7-0.4,2.6C103.3,39.3,104.6,40.2,106.2,40.2z"/>
					<path class="st2" d="M118.5,9.4c0.4-0.9,0.7-1.5,0.7-1.9c0-0.2-0.1-0.4-0.3-0.4c-1.4,0-9.1,10.9-10.1,12.8
						c-1.4,2.5-2.8,5.6-3.7,8.3c0.7-3,1.4-6.7,2.9-9.4c1.1-2.1,7.8-12.4,11.3-12.9c0.3,0,0.4,0.1,0.4,0.3
						C119.8,6.8,119.3,7.9,118.5,9.4z"/>
				</g>
			</g>
		</g>
	</g>
	<g>
		<g class="st0">
			<path d="M13.4,26h5.7c4.3,0,7.7,3.4,7.7,7.7s-3.5,7.7-7.7,7.7h-5.7V26z M17.4,37.4h1.7c2,0,3.7-1.6,3.7-3.6c0-2-1.6-3.6-3.7-3.6
				h-1.7V37.4z"/>
			<path d="M29.6,26h9.6v3.3h-5.5v2.5h4.9v3.4h-4.9v2.8h5.5v3.3h-9.6V26z"/>
		</g>
		<g>
			<g>
				<path class="st1" d="M12.1,24.8h5.7c4.3,0,7.7,3.4,7.7,7.7s-3.5,7.7-7.7,7.7h-5.7V24.8z M16.1,36.1h1.7c2,0,3.7-1.6,3.7-3.6
					c0-2-1.6-3.6-3.7-3.6h-1.7V36.1z"/>
				<path class="st1" d="M28.3,24.8h9.6v3.3h-5.5v2.5h4.9V34h-4.9v2.8h5.5v3.3h-9.6V24.8z"/>
			</g>
		</g>
	</g>
</g>
</svg>
