<?xml version="1.0" encoding="utf-8"?>
<!-- Generator: Adobe Illustrator 21.0.0, SVG Export Plug-In . SVG Version: 6.00 Build 0)  -->
<svg version="1.1" id="Capa_1" xmlns="http://www.w3.org/2000/svg" xmlns:xlink="http://www.w3.org/1999/xlink" x="0px" y="0px"
	 viewBox="0 0 126 38.6" style="enable-background:new 0 0 126 38.6;" xml:space="preserve">
<g id="Capa_4">
</g>
<g id="Capa_7">
</g>
<g id="Capa_1_1_">
</g>
<g id="Capa_9">
</g>
<g id="Capa_5">
</g>
<g id="Capa_8">
</g>
<g id="Capa_2">
</g>
<g>
	<path d="M40.8,13.9v-0.4c0-0.1,0.1-0.2,0.2-0.2h0.7c0.1,0,0.2,0.1,0.2,0.2v0.4c0,1.6,0.9,2.7,2.1,2.7c1.3,0,2.2-1,2.2-2.6
		s-1-2.3-2.6-3.4c-1.6-1.2-2.9-2.1-2.9-4.3s1.3-3.4,3.1-3.4c2,0,3.3,1.5,3.3,3.6V7c0,0.1-0.1,0.2-0.2,0.2h-0.7C46.1,7.2,46,7.1,46,7
		V6.5c0-1.6-0.9-2.7-2.2-2.7c-1.2,0-2.1,0.9-2.1,2.4c0,1.5,0.8,2.1,2.4,3.4c2.1,1.5,3,2.3,3,4.2c0,2.2-1.4,3.6-3.3,3.6
		C42.2,17.4,40.8,16,40.8,13.9z"/>
	<path d="M57,17.3l-0.6-2.8l-0.1-0.1h-4c0,0-0.1,0-0.1,0.1l-0.6,2.8c0,0.1-0.1,0.2-0.3,0.2h-0.7c-0.2,0-0.2-0.1-0.2-0.3l3.2-14.2
		c0-0.1,0.1-0.2,0.3-0.2h0.9C54.9,2.9,55,3,55,3.1l3.2,14.2c0,0.1,0,0.3-0.2,0.3h-0.7C57.1,17.5,57,17.4,57,17.3z M52.5,13.5h3.6
		c0,0,0.1,0,0.1-0.1l-1.8-8.7c0-0.1-0.1-0.1-0.1,0L52.5,13.5C52.4,13.5,52.4,13.5,52.5,13.5z"/>
	<path d="M66.8,17.3l-2.3-6.6c0-0.1,0-0.1-0.1-0.1h-2.1c0,0-0.1,0-0.1,0.1v6.6c0,0.1-0.1,0.2-0.2,0.2h-0.7c-0.1,0-0.2-0.1-0.2-0.2
		V3.1c0-0.1,0.1-0.2,0.2-0.2h3.3c2,0,3.3,1.5,3.3,4c0,1.9-0.9,3.3-2.2,3.7c-0.2,0-0.2,0-0.2,0.1l2.4,6.7c0,0.2,0,0.3-0.2,0.3h-0.7
		C66.9,17.5,66.8,17.4,66.8,17.3z M62.3,3.9v5.7c0,0,0,0.1,0.1,0.1h2.1c1.4,0,2.2-1.1,2.2-2.9s-0.9-2.9-2.2-2.9L62.3,3.9
		C62.4,3.8,62.3,3.9,62.3,3.9z"/>
	<path d="M77.5,17.3l-0.6-2.8l-0.1-0.1h-4c0,0-0.1,0-0.1,0.1l-0.6,2.8c0,0.1-0.1,0.2-0.3,0.2h-0.7c-0.2,0-0.2-0.1-0.2-0.3l3.2-14.2
		c0-0.1,0.1-0.2,0.3-0.2h0.9c0.1,0,0.2,0.1,0.3,0.2l3.2,14.2c0,0.1,0,0.3-0.2,0.3h-0.7C77.6,17.5,77.5,17.4,77.5,17.3z M72.9,13.5
		h3.7c0,0,0.1,0,0.1-0.1l-1.9-8.7c0-0.1-0.1-0.1-0.1,0L72.9,13.5C72.8,13.5,72.9,13.5,72.9,13.5z"/>
	<path d="M87.4,2.9h0.7c0.1,0,0.2,0.1,0.2,0.2v14.2c0,0.1-0.1,0.2-0.2,0.2h-0.7c-0.1,0-0.2-0.1-0.2-0.2v-6.5c0,0,0-0.1-0.1-0.1H83
		c0,0-0.1,0-0.1,0.1v6.5c0,0.1-0.1,0.2-0.2,0.2H82c-0.1,0-0.2-0.1-0.2-0.2V3.1C81.9,3.1,82,3,82,3h0.7c0.1,0,0.2,0.1,0.2,0.2v6.4
		c0,0,0,0.1,0.1,0.1h4.1c0,0,0.1,0,0.1-0.1V3.1C87.2,3,87.3,2.9,87.4,2.9z"/>
</g>
<g>
	<path d="M17.6,22.1h-4.9c0,0-0.1,0-0.1,0.1v5.7c0,0,0,0.1,0.1,0.1h3.2c0.1,0,0.2,0.1,0.2,0.2v0.6c0,0.1-0.1,0.2-0.2,0.2h-3.2
		c0,0-0.1,0-0.1,0.1v6.5c0,0.1-0.1,0.2-0.2,0.2h-0.8c-0.1,0-0.2-0.1-0.2-0.2V21.4c0-0.1,0.1-0.2,0.2-0.2h5.8c0.1,0,0.2,0.1,0.2,0.2
		V22C17.8,22.1,17.7,22.1,17.6,22.1z"/>
	<path d="M27.6,22.1h-4.9c0,0-0.1,0-0.1,0.1v5.7c0,0,0,0.1,0.1,0.1h3.2c0.1,0,0.2,0.1,0.2,0.2v0.6c0,0.1-0.1,0.2-0.2,0.2h-3.2
		c0,0-0.1,0-0.1,0.1v5.7c0,0,0,0.1,0.1,0.1h4.9c0.1,0,0.2,0.1,0.2,0.2v0.6c0,0.1-0.1,0.2-0.2,0.2h-5.9c-0.1,0-0.2-0.1-0.2-0.2V21.4
		c0-0.1,0.1-0.2,0.2-0.2h5.9c0.1,0,0.2,0.1,0.2,0.2V22C27.8,22.1,27.7,22.1,27.6,22.1z"/>
	<path d="M36.9,35.6l-2.3-6.6c0-0.1,0-0.1-0.1-0.1h-2.1c0,0-0.1,0-0.1,0.1v6.6c0,0.1-0.1,0.2-0.2,0.2h-0.7c-0.1,0-0.2-0.1-0.2-0.2
		V21.4c0-0.1,0.1-0.2,0.2-0.2h3.3c2,0,3.3,1.5,3.3,4c0,1.9-0.9,3.3-2.2,3.7c-0.1,0-0.1,0.1-0.1,0.1l2.4,6.7c0,0.2,0,0.3-0.2,0.3
		h-0.8C37,35.7,36.9,35.7,36.9,35.6z M32.4,22.2v5.7c0,0,0,0.1,0.1,0.1h2.1c1.4,0,2.2-1.1,2.2-2.9c0-1.8-0.9-2.9-2.2-2.9L32.4,22.2
		C32.4,22.1,32.4,22.1,32.4,22.2z"/>
	<path d="M41.1,35.6V21.4c0-0.1,0.1-0.2,0.2-0.2H42c0.1,0,0.2,0,0.3,0.2l4.6,11.4c0,0.1,0.1,0.1,0.1,0V21.4c0-0.1,0.1-0.2,0.2-0.2
		h0.7c0.1,0,0.2,0.1,0.2,0.2v14.2c0,0.1-0.1,0.2-0.2,0.2h-0.7c-0.1,0-0.2,0-0.3-0.2l-4.6-11.4c0-0.1-0.1-0.1-0.1,0v11.4
		c0,0.1-0.1,0.2-0.2,0.2h-0.7C41.2,35.7,41.1,35.6,41.1,35.6z"/>
	<path d="M57.3,35.6l-0.6-2.8l-0.1-0.1h-4c0,0-0.1,0-0.1,0.1l-0.6,2.8c0,0.1-0.1,0.2-0.3,0.2h-0.7c-0.2,0-0.2-0.1-0.2-0.3l3.2-14.2
		c0-0.1,0.1-0.2,0.3-0.2H55c0.1,0,0.2,0.1,0.3,0.2l3.2,14.2c0,0.1,0,0.3-0.2,0.3h-0.7C57.4,35.7,57.3,35.7,57.3,35.6z M52.7,31.9
		h3.7c0,0,0.1,0,0.1-0.1l-1.8-8.7c0-0.1-0.1-0.1-0.1,0L52.7,31.9C52.6,31.8,52.6,31.9,52.7,31.9z"/>
	<path d="M61.1,35.6V21.4c0-0.1,0.1-0.2,0.2-0.2h0.7c0.1,0,0.2,0,0.3,0.2l4.6,11.4c0,0.1,0.1,0.1,0.1,0V21.4c0-0.1,0.1-0.2,0.2-0.2
		h0.7c0.1,0,0.2,0.1,0.2,0.2v14.2c0,0.1-0.1,0.2-0.2,0.2h-0.7c-0.1,0-0.2,0-0.3-0.2l-4.6-11.4c0-0.1-0.1-0.1-0.1,0v11.4
		c0,0.1-0.1,0.2-0.2,0.2h-0.7C61.2,35.7,61.1,35.6,61.1,35.6z"/>
	<path d="M71.2,35.6V21.4c0-0.1,0.1-0.2,0.2-0.2h3.1c2.1,0,3.4,1.5,3.4,3.9v6.9c0,2.4-1.3,3.9-3.4,3.9h-3.1
		C71.3,35.7,71.2,35.6,71.2,35.6z M72.4,34.8h2.1c1.4,0,2.2-1.1,2.2-2.8v-6.9c0-1.8-0.9-2.9-2.2-2.9h-2.1c0,0-0.1,0-0.1,0.1
		L72.4,34.8C72.3,34.7,72.3,34.8,72.4,34.8z"/>
	<path d="M87.2,35.6l-0.6-2.8l-0.1-0.1h-4c0,0-0.1,0-0.1,0.1l-0.6,2.8c0,0.1-0.1,0.2-0.3,0.2h-0.7c-0.2,0-0.2-0.1-0.2-0.3l3.2-14.2
		c0-0.1,0.1-0.2,0.3-0.2H85c0.1,0,0.2,0.1,0.3,0.2l3.2,14.2c0,0.1,0,0.3-0.2,0.3h-0.7C87.3,35.7,87.2,35.7,87.2,35.6z M82.6,31.9
		h3.7c0,0,0.1,0,0.1-0.1l-1.8-8.7c0-0.1-0.1-0.1-0.1,0L82.6,31.9C82.6,31.8,82.6,31.9,82.6,31.9z"/>
</g>
<g>
	<path d="M91.9,34.3c0.8,0.7,1.6,1.2,2.7,1.5h-2.7V34.3z"/>
	<path d="M91.9,21.9v-10c0.4,1.4,1.4,3,3.6,6.2c0.1,0.1,0.1,0.2-0.1,0.3C94.3,19.5,93,20.6,91.9,21.9z"/>
	<path d="M91.9,7.4V2.9h4.1C94,3.6,92.5,5.1,91.9,7.4z"/>
	<path d="M95.1,9.8c0-2.7,1.5-4.3,3.6-4.3s3.6,1.6,3.6,4.1c0,2.8-1.9,4.6-4.1,6.6c-0.1,0.1-0.2,0.1-0.3-0.1
		C95.4,12.4,95.1,11.5,95.1,9.8z"/>
	<path d="M98.2,33.3c-3.3,0.1-5.1-2-5.1-5c0-3.1,2-5.2,4.3-7.2c0.1-0.1,0.2-0.1,0.3,0l4,5.5l2.4,3.2c0.1,0.1,0.1,0.2,0,0.3
		C102.2,32.1,100.4,33.1,98.2,33.3z"/>
	<path d="M108.4,35.7H101c1.7-0.5,3.3-1.5,4.8-3.1c0.1-0.1,0.2-0.1,0.3,0.1c0.7,0.9,1.3,1.8,2.1,2.8
		C108.2,35.6,108.4,35.7,108.4,35.7z"/>
	<path d="M113.9,2.9v32.9h-2.4c0.3-0.1,0.3-0.3,0.1-0.5c-1.3-1.8-2.5-3.4-3.6-5c-0.1-0.1-0.1-0.2,0-0.3c1-1.4,2.1-3.1,3.2-5
		c0.2-0.3,0.1-0.5-0.2-0.7l-1.8-1c-0.3-0.2-0.5-0.1-0.7,0.2c-0.9,1.4-1.5,2.7-2.3,3.8c-0.1,0.1-0.2,0.1-0.3,0
		c-1.2-1.5-2.1-2.9-3.1-4.1c-1-1.5-2.1-2.8-2.8-4c-0.1-0.1-0.1-0.2,0.1-0.3c2.9-2.4,5.8-5,5.8-9.3c0-3.4-1.8-5.8-4.6-6.8L113.9,2.9
		L113.9,2.9z"/>
</g>
</svg>
