<?xml version="1.0" encoding="utf-8"?>
<!-- Generator: Adobe Illustrator 21.0.0, SVG Export Plug-In . SVG Version: 6.00 Build 0)  -->
<svg version="1.1" id="Capa_1" xmlns="http://www.w3.org/2000/svg" xmlns:xlink="http://www.w3.org/1999/xlink" x="0px" y="0px"
	 viewBox="0 0 126 30" style="enable-background:new 0 0 126 30;" xml:space="preserve">
<style type="text/css">
	.st0{fill:#FFFFFF;}
</style>
<g>
	<g>
		<path class="st0" d="M33.8,6.3h1.8L42.3,19l6.7-12.7h1.7l-7.4,14.3l0,0l-0.9,1.9l-0.9-1.8L33.8,6.3z"/>
		<path class="st0" d="M61.2,17.1L55.5,6.3h1.8l4.7,9.1l4.7-9.1h1.7l-5.7,10.9v5h-1.5L61.2,17.1z"/>
		<path class="st0" d="M76,20.6h9.2l0.8,1.5H73l9.4-14.3h-9.3L74,6.3h11.4L76,20.6z"/>
		<path class="st0" d="M90.1,6.3h1.7L98.5,19l6.7-12.7h1.7l-7.4,14.3l0,0l-0.9,1.9l-0.9-1.8L90.1,6.3z"/>
		<path class="st0" d="M122.8,22.2H121l-6.7-12.7l-6.7,12.7h-1.7l7.4-14.3l0,0l0.9-1.9l0.9,1.8L122.8,22.2z"/>
		<polygon class="st0" points="41.1,22.4 39.5,22.4 31,6.3 32.8,6.3 		"/>
		<polygon class="st0" points="126,22.4 124.2,22.4 115.9,6.3 117.5,6.3 		"/>
		<polygon class="st0" points="65.5,2.5 64.2,5 62.4,5 63.8,2.5 		"/>
	</g>
	<g>
		<polygon class="st0" points="26.4,7.1 24.2,11.3 23.1,9.1 24.1,7.1 		"/>
		<polygon class="st0" points="19.5,20.2 16.4,26.1 16.4,26.1 15.1,28.6 13.9,26.2 8.1,15.3 7.8,14.7 6.7,12.5 5.1,9.5 3.8,7.1 
			6.2,7.1 7.9,10.3 9,12.5 15.1,24.1 18.4,18 		"/>
		<polygon class="st0" points="13.6,28.6 11.3,28.6 9.6,25.5 5.9,18.4 4.8,16.2 2,10.9 0,7.1 2.3,7.1 3.9,10.1 5.9,14 7.1,16.2 
			11.5,24.7 		"/>
		<polygon class="st0" points="5.9,18.4 4.8,16.2 2,10.9 4.8,16.2 		"/>
		<polygon class="st0" points="24.3,22 22,22 21,20.2 21,20.2 20.3,18.8 19.1,16.5 15,8.8 15,8.8 13,5 9.8,11.1 8.6,8.9 11.7,3 
			11.7,2.9 13,0.5 14.3,2.8 17.3,8.6 20.3,14.3 21.5,16.5 		"/>
		<polygon class="st0" points="5.2,19.8 4,22 1.7,22 4,17.6 		"/>
		<polygon class="st0" points="28.5,22.3 26.2,22.3 22.3,14.9 21.2,12.7 21.2,12.7 18.6,7.9 14.9,0.8 17.2,0.8 19.1,4.3 19.7,5.6 
			22.3,10.5 23.5,12.7 		"/>
	</g>
</g>
</svg>
