<?xml version="1.0" encoding="utf-8"?>
<!-- Generator: Adobe Illustrator 16.0.0, SVG Export Plug-In . SVG Version: 6.00 Build 0)  -->
<!DOCTYPE svg PUBLIC "-//W3C//DTD SVG 1.1//EN" "http://www.w3.org/Graphics/SVG/1.1/DTD/svg11.dtd">
<svg version="1.1" xmlns="http://www.w3.org/2000/svg" xmlns:xlink="http://www.w3.org/1999/xlink" x="0px" y="0px"
	 width="99.965px" height="100.213px" viewBox="0 0 99.965 100.213" enable-background="new 0 0 99.965 100.213"
	 xml:space="preserve">
<g id="Capa_4">
</g>
<g id="Capa_6">
</g>
<g id="Capa_7">
</g>
<g id="Capa_1">
</g>
<g id="Capa_9">
</g>
<g id="Capa_5">
</g>
<g id="Capa_8">
	<linearGradient id="SVGID_1_" gradientUnits="userSpaceOnUse" x1="31.3486" y1="18.8428" x2="31.6906" y2="55.8102">
		<stop  offset="0" style="stop-color:#A91333"/>
		<stop  offset="0.1171" style="stop-color:#B61033"/>
		<stop  offset="0.3322" style="stop-color:#D80933"/>
		<stop  offset="0.5456" style="stop-color:#FF0033"/>
		<stop  offset="1" style="stop-color:#A91333"/>
	</linearGradient>
	<path fill="url(#SVGID_1_)" d="M23.407,39.369c-0.003,0.099-0.003,0.195-0.003,0.295c0,0.098,0,0.196,0.003,0.293
		c0.159,5.758,4.88,10.375,10.685,10.375c5.799,0,10.521-4.615,10.683-10.368c-0.136,7.157-5.004,13.149-11.61,14.995
		c-1.367,0.381-2.805,0.585-4.296,0.585c-8.64,0-15.674-6.876-15.901-15.45c-0.003-0.142-0.005-0.287-0.005-0.43
		c0-0.145,0.002-0.289,0.005-0.432c0.228-11.451,9.599-20.663,21.125-20.663c6.343,0,12.029,2.788,15.9,7.207
		c-0.009,0.012-0.021,0.024-0.028,0.036c-2.734-1.908-6.064-3.025-9.657-3.025c-2.551,0-4.973,0.565-7.143,1.578
		C27.482,27.014,23.521,32.724,23.407,39.369z"/>
	<path fill="#D3D6D6" d="M75.827,58.288c-8.842,4.695-19.519,2.484-25.835-4.737c0.016-0.015,0.03-0.028,0.042-0.046
		c1.465,0.554,3.149,0.498,4.643-0.293c2.748-1.459,3.788-4.865,2.328-7.608c-0.166-0.311-0.536-0.939-0.534-0.932
		c2.772,5.203,9.242,7.178,14.452,4.411c5.212-2.768,7.188-9.226,4.419-14.429c1.355,2.541,4.517,3.509,7.062,2.156
		c2.5-1.326,3.478-4.389,2.234-6.902C90.006,40.168,86.083,52.846,75.827,58.288z"/>
	<linearGradient id="SVGID_2_" gradientUnits="userSpaceOnUse" x1="48.9727" y1="19.0566" x2="49.2133" y2="60.5648">
		<stop  offset="0" style="stop-color:#CC0033"/>
		<stop  offset="0.2332" style="stop-color:#CE0033"/>
		<stop  offset="0.3287" style="stop-color:#D50033"/>
		<stop  offset="0.399" style="stop-color:#E10033"/>
		<stop  offset="0.4566" style="stop-color:#F30033"/>
		<stop  offset="0.486" style="stop-color:#FF0033"/>
		<stop  offset="0.5258" style="stop-color:#F80033"/>
		<stop  offset="0.703" style="stop-color:#E00033"/>
		<stop  offset="0.8659" style="stop-color:#D10033"/>
		<stop  offset="1" style="stop-color:#CC0033"/>
	</linearGradient>
	<path fill="url(#SVGID_2_)" d="M82.403,36.812c-2.545,1.353-5.706,0.385-7.062-2.156c-2.77-5.202-9.24-7.179-14.452-4.411
		c-1.961,1.043-3.462,2.604-4.428,4.428v0.002c-0.788,1.485-1.214,3.141-1.241,4.826v0.055c-0.002,0-0.002,0,0,0.002v0.016
		c-0.002,0.002-0.002,0.002,0,0.004v0.002c-0.002,0.059-0.002,0.115,0,0.174v0.002c-0.002,0.003-0.002,0.003,0,0.006v0.012
		c-0.002,0.002-0.002,0.002,0,0.004v0.051c-0.008,1.219-0.121,2.412-0.331,3.571c-0.677,3.78-2.361,7.214-4.769,10.008
		c-0.03,0.033-0.058,0.066-0.087,0.101c-0.012,0.017-0.026,0.031-0.042,0.046c-3.871,4.418-9.558,7.207-15.9,7.207
		c-11.526,0-20.897-9.211-21.125-20.665c0.228,8.574,7.262,15.45,15.901,15.45c1.491,0,2.929-0.204,4.296-0.585
		c6.606-1.846,11.475-7.838,11.61-14.995v-0.046c0.002-0.084,0.002-0.168,0.002-0.254s0-0.17-0.002-0.254v-0.049
		c0.074-4.951,1.898-9.773,5.189-13.549c0.007-0.012,0.02-0.024,0.028-0.036c1.646-1.88,3.657-3.496,5.996-4.737
		c10.303-5.471,23.098-1.564,28.576,8.723c0.027,0.047,0.051,0.098,0.073,0.146C85.881,32.422,84.903,35.485,82.403,36.812z"/>
	<path fill="#A91333" d="M54.677,53.212c-1.493,0.791-3.178,0.847-4.643,0.293c0.029-0.033,0.057-0.067,0.087-0.102
		c2.407-2.792,4.092-6.227,4.769-10.007c0.21-1.159,0.323-2.354,0.331-3.57c0.024,1.633,0.425,3.284,1.241,4.826
		c-0.01,0.027,0.377,0.641,0.543,0.951C58.465,48.347,57.425,51.753,54.677,53.212z"/>
	<path fill="#A91333" d="M49.964,25.812c-3.291,3.775-5.115,8.598-5.189,13.549c-0.161-5.75-4.884-10.365-10.683-10.365
		c-5.805,0-10.525,4.617-10.685,10.373c0.113-6.646,4.075-12.355,9.757-15.004c2.17-1.013,4.592-1.578,7.143-1.578
		C43.899,22.787,47.229,23.904,49.964,25.812z"/>
	<path fill="#FFFFFF" d="M4.197,76.009c0-0.15,0.077-0.227,0.236-0.227c0.155,0,0.232,0.076,0.232,0.227v1.619
		c0,0.723-0.167,1.279-0.504,1.667c-0.336,0.389-0.841,0.583-1.514,0.583c-0.683,0-1.207-0.206-1.57-0.615
		c-0.364-0.411-0.546-0.984-0.546-1.719v-7.94c0-0.735,0.182-1.306,0.546-1.71c0.363-0.404,0.871-0.607,1.522-0.607
		c0.673,0,1.185,0.197,1.538,0.592c0.352,0.396,0.527,0.961,0.527,1.696v3.57c0,0.075-0.024,0.141-0.071,0.194
		c-0.05,0.055-0.112,0.081-0.188,0.081h-3.21c-0.108,0-0.162,0.06-0.162,0.177v4.004c0,0.581,0.138,1.035,0.412,1.363
		c0.273,0.328,0.675,0.492,1.201,0.492c1.031,0,1.549-0.593,1.549-1.779V76.009z M1.035,72.886c0,0.107,0.054,0.162,0.161,0.162
		h2.806c0.108,0,0.162-0.055,0.162-0.162v-3.344c0-0.585-0.129-1.037-0.387-1.355c-0.259-0.319-0.65-0.479-1.177-0.479
		c-0.506,0-0.894,0.159-1.162,0.479c-0.269,0.318-0.403,0.771-0.403,1.355V72.886z"/>
	<path fill="#FFFFFF" d="M10.502,77.823c0,0.646-0.159,1.15-0.478,1.512s-0.825,0.543-1.515,0.543c-0.66,0-1.149-0.194-1.469-0.583
		c-0.318-0.388-0.478-0.906-0.478-1.554v-1.65c0-0.064,0.024-0.122,0.07-0.17c0.047-0.049,0.102-0.072,0.164-0.072
		c0.063,0,0.114,0.023,0.156,0.072c0.042,0.048,0.063,0.105,0.063,0.17v1.666c0,0.519,0.117,0.932,0.351,1.238
		c0.233,0.309,0.611,0.461,1.133,0.461c0.542,0,0.932-0.137,1.165-0.412c0.234-0.275,0.351-0.677,0.351-1.205v-1.91
		c0-0.367-0.078-0.688-0.236-0.963c-0.156-0.275-0.455-0.602-0.898-0.979c-1.081-0.896-1.727-1.503-1.938-1.821
		c-0.211-0.317-0.315-0.697-0.315-1.141v-1.877c0-0.551,0.147-0.998,0.445-1.344c0.297-0.345,0.765-0.518,1.402-0.518
		c0.648,0,1.129,0.176,1.442,0.525c0.315,0.352,0.471,0.861,0.471,1.531v1.439c0,0.184-0.076,0.275-0.228,0.275
		c-0.173,0-0.259-0.092-0.259-0.275V69.31c0-0.539-0.111-0.941-0.334-1.205c-0.224-0.266-0.591-0.396-1.101-0.396
		c-0.489,0-0.843,0.129-1.061,0.388c-0.217,0.259-0.326,0.604-0.326,1.035v1.894c0,0.346,0.077,0.64,0.228,0.883
		c0.152,0.242,0.777,0.801,1.873,1.675c0.239,0.194,0.443,0.38,0.612,0.559c0.167,0.177,0.304,0.358,0.406,0.542
		s0.18,0.373,0.228,0.566c0.05,0.193,0.073,0.41,0.073,0.647V77.823z"/>
	<path fill="#FFFFFF" d="M12.464,67.626c0-0.184,0.087-0.275,0.26-0.275c0.163,0,0.243,0.092,0.243,0.275v0.744
		c0,0.033,0.014,0.058,0.041,0.073c0.026,0.017,0.05,0.003,0.072-0.04c0.141-0.303,0.343-0.564,0.608-0.785
		c0.265-0.221,0.629-0.332,1.094-0.332c0.562,0,0.997,0.17,1.305,0.511c0.309,0.341,0.463,0.872,0.463,1.596v8.379
		c0,0.724-0.163,1.255-0.487,1.596c-0.323,0.341-0.771,0.511-1.346,0.511c-0.453,0-0.807-0.104-1.061-0.309
		c-0.255-0.204-0.44-0.447-0.559-0.728c-0.022-0.054-0.049-0.077-0.082-0.073c-0.032,0.006-0.049,0.036-0.049,0.09v2.104
		c0,0.193-0.086,0.291-0.259,0.291c-0.162,0-0.244-0.098-0.244-0.291V67.626z M16.047,69.437c0-1.152-0.497-1.729-1.49-1.729
		c-0.434,0-0.802,0.145-1.104,0.436s-0.464,0.706-0.485,1.244v8.421c0.021,0.55,0.181,0.962,0.478,1.235
		c0.297,0.275,0.662,0.412,1.095,0.412c1.006,0,1.508-0.576,1.508-1.729V69.437z"/>
	<path fill="#FFFFFF" d="M18.446,73.587c0-0.736,0.156-1.268,0.471-1.598c0.312-0.33,0.745-0.495,1.296-0.495
		c0.433,0,0.778,0.103,1.038,0.308s0.448,0.448,0.565,0.729c0.012,0.032,0.034,0.048,0.066,0.048s0.049-0.026,0.049-0.081v-3.098
		c0-0.538-0.096-0.954-0.286-1.25c-0.189-0.294-0.54-0.441-1.05-0.441c-0.501,0-0.868,0.135-1.103,0.404
		c-0.233,0.27-0.349,0.663-0.349,1.181v0.794c0,0.075-0.024,0.134-0.072,0.178c-0.047,0.043-0.097,0.064-0.147,0.064
		c-0.064,0-0.118-0.021-0.164-0.064c-0.048-0.044-0.071-0.103-0.071-0.178v-0.762c0-0.636,0.159-1.135,0.479-1.497
		c0.318-0.36,0.803-0.542,1.451-0.542c0.67,0,1.14,0.187,1.409,0.56c0.271,0.372,0.406,0.904,0.406,1.596v10.063
		c0,0.194-0.081,0.292-0.244,0.292c-0.173,0-0.259-0.098-0.259-0.291v-0.632c0-0.053-0.014-0.083-0.041-0.089
		c-0.026-0.005-0.052,0.013-0.074,0.057c-0.117,0.28-0.306,0.523-0.565,0.728c-0.26,0.205-0.605,0.309-1.038,0.309
		c-0.551,0-0.983-0.164-1.296-0.494c-0.314-0.33-0.471-0.863-0.471-1.598V73.587z M18.949,77.761c0,1.131,0.47,1.695,1.409,1.695
		c0.433,0,0.802-0.141,1.111-0.428c0.309-0.284,0.462-0.708,0.462-1.268v-4.15c0-0.56-0.153-0.982-0.462-1.268
		c-0.31-0.285-0.679-0.428-1.111-0.428c-0.939,0-1.409,0.564-1.409,1.695V77.761z"/>
	<path fill="#FFFFFF" d="M27.995,76.009c0-0.063,0.021-0.121,0.062-0.168c0.041-0.05,0.094-0.074,0.155-0.074
		c0.062,0,0.115,0.024,0.157,0.074c0.041,0.047,0.062,0.104,0.062,0.168v1.619c0,0.723-0.155,1.279-0.467,1.667
		c-0.312,0.389-0.809,0.583-1.487,0.583c-0.666,0-1.178-0.206-1.532-0.615c-0.356-0.411-0.532-0.984-0.532-1.719v-7.94
		c0-0.735,0.179-1.306,0.54-1.71c0.36-0.404,0.863-0.607,1.509-0.607c1.314,0,1.97,0.739,1.97,2.217v1.408
		c0,0.173-0.077,0.26-0.234,0.26c-0.063,0-0.114-0.025-0.156-0.073s-0.063-0.11-0.063-0.187v-1.44c0-0.582-0.118-1.022-0.354-1.318
		c-0.235-0.296-0.618-0.444-1.146-0.444c-0.505,0-0.892,0.158-1.16,0.477c-0.269,0.317-0.403,0.768-0.403,1.349v8.065
		c0,0.582,0.133,1.036,0.396,1.365c0.263,0.328,0.658,0.492,1.186,0.492c0.526,0,0.908-0.145,1.145-0.437
		c0.236-0.291,0.355-0.739,0.355-1.343V76.009z"/>
	<path fill="#FFFFFF" d="M30.394,65.247c0-0.193,0.086-0.291,0.26-0.291c0.161,0,0.243,0.098,0.243,0.291v1.213
		c0,0.195-0.087,0.292-0.26,0.292c-0.161,0-0.243-0.097-0.243-0.292V65.247z M30.394,67.675c0-0.205,0.082-0.308,0.243-0.308
		c0.173,0,0.26,0.103,0.26,0.308v11.831c0,0.193-0.087,0.291-0.26,0.291c-0.161,0-0.243-0.098-0.243-0.291V67.675z"/>
	<path fill="#FFFFFF" d="M37.104,77.544c0,0.734-0.182,1.308-0.545,1.719c-0.364,0.409-0.882,0.615-1.555,0.615
		c-0.65,0-1.157-0.206-1.521-0.615c-0.364-0.411-0.547-0.984-0.547-1.719V69.62c0-0.734,0.183-1.307,0.547-1.719
		c0.363-0.41,0.87-0.615,1.521-0.615c0.673,0,1.19,0.205,1.555,0.615c0.363,0.412,0.545,0.984,0.545,1.719V77.544z M35.005,79.456
		c0.528,0,0.925-0.164,1.194-0.492c0.27-0.329,0.403-0.783,0.403-1.365v-8.033c0-0.582-0.134-1.037-0.403-1.365
		c-0.27-0.329-0.666-0.492-1.194-0.492c-0.505,0-0.892,0.163-1.16,0.492c-0.27,0.328-0.403,0.783-0.403,1.365v8.033
		c0,0.582,0.134,1.036,0.403,1.365C34.113,79.292,34.5,79.456,35.005,79.456z"/>
	<path fill="#FFFFFF" d="M42.941,77.823c0,0.646-0.159,1.15-0.478,1.512c-0.319,0.361-0.825,0.543-1.517,0.543
		c-0.66,0-1.149-0.194-1.467-0.583c-0.319-0.388-0.479-0.906-0.479-1.554v-1.65c0-0.064,0.023-0.122,0.07-0.17
		c0.047-0.049,0.102-0.072,0.164-0.072s0.114,0.023,0.156,0.072c0.043,0.048,0.063,0.105,0.063,0.17v1.666
		c0,0.519,0.116,0.932,0.35,1.238c0.233,0.309,0.612,0.461,1.134,0.461c0.543,0,0.931-0.137,1.166-0.412
		c0.231-0.275,0.35-0.677,0.35-1.205v-1.91c0-0.367-0.079-0.688-0.235-0.963c-0.157-0.275-0.457-0.602-0.899-0.979
		c-1.081-0.896-1.728-1.503-1.938-1.821c-0.21-0.317-0.315-0.697-0.315-1.141v-1.877c0-0.551,0.148-0.998,0.446-1.344
		c0.297-0.345,0.765-0.518,1.402-0.518c0.648,0,1.128,0.176,1.442,0.525c0.313,0.352,0.471,0.861,0.471,1.531v1.439
		c0,0.184-0.077,0.275-0.228,0.275c-0.174,0-0.259-0.092-0.259-0.275V69.31c0-0.539-0.111-0.941-0.336-1.205
		c-0.221-0.266-0.588-0.396-1.101-0.396c-0.487,0-0.842,0.129-1.059,0.388c-0.218,0.259-0.326,0.604-0.326,1.035v1.894
		c0,0.346,0.075,0.64,0.228,0.883c0.152,0.242,0.776,0.801,1.873,1.675c0.238,0.194,0.442,0.38,0.611,0.559
		c0.168,0.177,0.305,0.358,0.408,0.542c0.103,0.184,0.179,0.373,0.227,0.566c0.05,0.193,0.074,0.41,0.074,0.647V77.823z"/>
	<path fill="#FFFFFF" d="M63.043,69.343c0-0.53-0.105-0.934-0.314-1.215c-0.21-0.28-0.536-0.42-0.975-0.42
		c-0.398,0-0.737,0.145-1.017,0.437c-0.278,0.29-0.419,0.701-0.419,1.229v10.132c0,0.193-0.083,0.291-0.251,0.291
		c-0.167,0-0.25-0.098-0.25-0.292V67.61c0-0.173,0.083-0.26,0.25-0.26c0.168,0,0.251,0.087,0.251,0.26v0.695
		c0,0.064,0.017,0.095,0.05,0.09c0.033-0.006,0.054-0.025,0.064-0.057c0.129-0.281,0.316-0.527,0.564-0.737
		c0.246-0.21,0.57-0.315,0.968-0.315c0.333,0,0.626,0.092,0.879,0.275s0.442,0.453,0.572,0.809c0.021,0.055,0.049,0.084,0.079,0.09
		c0.033,0.006,0.061-0.008,0.082-0.041c0.142-0.334,0.348-0.607,0.619-0.817c0.271-0.21,0.604-0.315,0.993-0.315
		c0.522,0,0.919,0.165,1.19,0.494c0.271,0.33,0.407,0.835,0.407,1.516v10.209c0,0.194-0.084,0.292-0.251,0.292
		c-0.169,0-0.252-0.098-0.252-0.291V69.343c0-0.53-0.105-0.934-0.316-1.215c-0.21-0.28-0.547-0.42-1.012-0.42
		c-0.379,0-0.708,0.148-0.99,0.444c-0.281,0.296-0.422,0.704-0.422,1.222v10.132c0,0.193-0.08,0.291-0.242,0.291
		c-0.173,0-0.259-0.098-0.259-0.291V69.343z"/>
	<path fill="#FFFFFF" d="M69.219,77.76c0,1.132,0.476,1.696,1.427,1.696c0.422,0,0.786-0.141,1.095-0.428
		c0.309-0.285,0.461-0.708,0.461-1.269V67.643c0-0.184,0.082-0.275,0.243-0.275c0.173,0,0.261,0.092,0.261,0.275v11.863
		c0,0.193-0.082,0.291-0.243,0.291c-0.174,0-0.261-0.098-0.261-0.291v-0.681c0-0.043-0.017-0.064-0.048-0.064
		c-0.032,0-0.054,0.016-0.064,0.049c-0.142,0.323-0.339,0.583-0.593,0.777c-0.254,0.193-0.607,0.291-1.06,0.291
		c-0.553,0-0.978-0.164-1.274-0.494c-0.297-0.328-0.445-0.859-0.445-1.594V67.643c0-0.184,0.08-0.275,0.242-0.275
		c0.174,0,0.26,0.092,0.26,0.275V77.76z"/>
	<path fill="#FFFFFF" d="M78.378,76.009c0-0.15,0.079-0.227,0.235-0.227s0.235,0.076,0.235,0.227v1.619
		c0,0.723-0.169,1.279-0.505,1.667c-0.336,0.389-0.841,0.583-1.513,0.583c-0.685,0-1.209-0.206-1.572-0.615
		c-0.363-0.411-0.545-0.984-0.545-1.719v-7.94c0-0.735,0.182-1.306,0.545-1.71s0.872-0.607,1.522-0.607
		c0.673,0,1.186,0.197,1.538,0.592c0.353,0.396,0.529,0.961,0.529,1.696v3.57c0,0.075-0.024,0.141-0.073,0.194
		c-0.049,0.055-0.11,0.081-0.188,0.081h-3.209c-0.107,0-0.162,0.06-0.162,0.177v4.004c0,0.581,0.137,1.035,0.41,1.363
		c0.275,0.328,0.676,0.492,1.203,0.492c1.031,0,1.548-0.593,1.548-1.779V76.009z M75.217,72.886c0,0.107,0.054,0.162,0.161,0.162
		h2.808c0.106,0,0.16-0.055,0.16-0.162v-3.344c0-0.585-0.129-1.037-0.387-1.355c-0.259-0.319-0.65-0.479-1.178-0.479
		c-0.505,0-0.893,0.159-1.162,0.479c-0.268,0.318-0.402,0.771-0.402,1.355V72.886z"/>
	<path fill="#FFFFFF" d="M84.928,77.544c0,0.734-0.182,1.308-0.543,1.719c-0.363,0.409-0.873,0.615-1.532,0.615
		c-0.617,0-1.105-0.205-1.467-0.615c-0.362-0.41-0.544-0.982-0.544-1.715V65.23c0-0.183,0.082-0.274,0.243-0.274
		c0.173,0,0.261,0.092,0.261,0.274v3.173c0,0.043,0.013,0.066,0.04,0.072c0.026,0.006,0.051-0.008,0.072-0.041
		c0.142-0.306,0.344-0.57,0.608-0.795s0.629-0.338,1.094-0.338c0.562,0,0.997,0.171,1.305,0.511
		c0.309,0.341,0.463,0.873,0.463,1.597V77.544z M84.425,69.457c0-1.156-0.497-1.733-1.492-1.733c-0.432,0-0.798,0.145-1.102,0.438
		c-0.303,0.291-0.465,0.707-0.485,1.248v8.443c0.021,0.551,0.18,0.965,0.477,1.24c0.298,0.275,0.641,0.413,1.03,0.413
		c1.049,0,1.572-0.578,1.572-1.734V69.457z"/>
	<path fill="#FFFFFF" d="M86.953,65.23c0-0.183,0.088-0.274,0.261-0.274c0.161,0,0.241,0.092,0.241,0.274v14.308
		c0,0.173-0.085,0.259-0.259,0.259c-0.161,0-0.243-0.086-0.243-0.259V65.23z"/>
	<path fill="#FFFFFF" d="M93.162,76.009c0-0.15,0.079-0.227,0.235-0.227s0.235,0.076,0.235,0.227v1.619
		c0,0.723-0.168,1.279-0.505,1.667c-0.336,0.389-0.84,0.583-1.513,0.583c-0.684,0-1.207-0.206-1.571-0.615
		c-0.363-0.411-0.546-0.984-0.546-1.719v-7.94c0-0.735,0.183-1.306,0.546-1.71c0.364-0.404,0.871-0.607,1.522-0.607
		c0.672,0,1.185,0.197,1.538,0.592c0.352,0.396,0.528,0.961,0.528,1.696v3.57c0,0.075-0.023,0.141-0.074,0.194
		c-0.047,0.055-0.109,0.081-0.186,0.081h-3.21c-0.107,0-0.161,0.06-0.161,0.177v4.004c0,0.581,0.137,1.035,0.411,1.363
		s0.674,0.492,1.202,0.492c1.031,0,1.547-0.593,1.547-1.779V76.009z M90.002,72.886c0,0.107,0.054,0.162,0.16,0.162h2.808
		c0.106,0,0.16-0.055,0.16-0.162v-3.344c0-0.585-0.129-1.037-0.387-1.355c-0.258-0.319-0.65-0.479-1.177-0.479
		c-0.506,0-0.893,0.159-1.161,0.479c-0.27,0.318-0.403,0.771-0.403,1.355V72.886z"/>
	<path fill="#FFFFFF" d="M99.47,77.823c0,0.646-0.159,1.15-0.479,1.512c-0.318,0.361-0.824,0.543-1.517,0.543
		c-0.659,0-1.148-0.194-1.467-0.583c-0.319-0.388-0.479-0.906-0.479-1.554v-1.65c0-0.064,0.023-0.122,0.07-0.17
		c0.048-0.049,0.103-0.072,0.164-0.072c0.062,0,0.115,0.023,0.156,0.072c0.042,0.048,0.063,0.105,0.063,0.17v1.666
		c0,0.519,0.116,0.932,0.351,1.238c0.232,0.309,0.609,0.461,1.132,0.461c0.545,0,0.932-0.137,1.166-0.412
		c0.233-0.275,0.351-0.677,0.351-1.205v-1.91c0-0.367-0.077-0.688-0.234-0.963c-0.157-0.275-0.457-0.602-0.901-0.979
		c-1.08-0.896-1.726-1.503-1.937-1.821c-0.211-0.317-0.316-0.697-0.316-1.141v-1.877c0-0.551,0.15-0.998,0.447-1.344
		c0.297-0.345,0.763-0.518,1.401-0.518c0.648,0,1.129,0.176,1.443,0.525c0.312,0.352,0.469,0.861,0.469,1.531v1.439
		c0,0.184-0.075,0.275-0.226,0.275c-0.174,0-0.26-0.092-0.26-0.275V69.31c0-0.539-0.111-0.941-0.335-1.205
		c-0.222-0.266-0.59-0.396-1.1-0.396c-0.491,0-0.844,0.129-1.062,0.388c-0.217,0.259-0.324,0.604-0.324,1.035v1.894
		c0,0.346,0.075,0.64,0.228,0.883c0.152,0.242,0.776,0.801,1.873,1.675c0.239,0.194,0.442,0.38,0.611,0.559
		c0.168,0.177,0.303,0.358,0.407,0.542c0.103,0.184,0.179,0.373,0.228,0.566s0.074,0.41,0.074,0.647V77.823z"/>
	<path fill="#FFFFFF" d="M52.916,75.098v1.434c0,0.56-0.139,1.009-0.417,1.347c-0.273,0.339-0.699,0.508-1.271,0.508
		c-0.601,0-1.042-0.156-1.316-0.471c-0.277-0.312-0.415-0.753-0.415-1.316v-6.758c0-0.48,0.128-0.868,0.389-1.169
		c0.254-0.299,0.661-0.45,1.216-0.45c0.561,0,0.979,0.154,1.251,0.459c0.274,0.305,0.409,0.748,0.409,1.326v1.252
		c0,0.16-0.062,0.24-0.197,0.24c-0.149,0-0.225-0.08-0.225-0.24v-1.279c0-0.469-0.099-0.816-0.29-1.047
		c-0.193-0.23-0.514-0.344-0.958-0.344c-0.422,0-0.73,0.113-0.918,0.338c-0.19,0.225-0.282,0.523-0.282,0.898l0.013,3.092
		c0.057-0.027,0.126-0.043,0.194-0.043h1.372c0.219,0,0.398,0.141,0.398,0.316s-0.18,0.316-0.398,0.316h-1.372
		c-0.068,0-0.138-0.016-0.191-0.043l0.005,1.482l0.007,0.01v1.658c0,0.458,0.101,0.809,0.305,1.046
		c0.203,0.24,0.538,0.36,1.011,0.36c0.452,0,0.782-0.137,0.983-0.4c0.202-0.268,0.304-0.628,0.304-1.076v-1.446
		c0-0.059,0.019-0.108,0.056-0.147c0.037-0.043,0.081-0.064,0.137-0.064c0.054,0,0.101,0.021,0.142,0.064
		C52.898,74.989,52.916,75.039,52.916,75.098z"/>
	<path fill="#F2F2F2" d="M51.263,64.771c0-0.111-0.09-0.202-0.203-0.202l0,0c-0.111,0-0.203,0.091-0.203,0.202v2.3
		c0,0.112,0.092,0.202,0.203,0.202l0,0c0.113,0,0.203-0.09,0.203-0.202V64.771z"/>
	<path fill="#FFFFFF" d="M51.263,79.538c0-0.111-0.09-0.203-0.203-0.203l0,0c-0.111,0-0.203,0.092-0.203,0.203v2.299
		c0,0.112,0.092,0.203,0.203,0.203l0,0c0.113,0,0.203-0.091,0.203-0.203V79.538z"/>
</g>
<g id="Capa_2">
</g>
<g id="Capa_3">
</g>
</svg>
